DBRep_DrawableShape

CASCADE Topology V1, (c) Matra-Datavision
Locations 0
Curve2ds 12
1 0 0 1 0 
1 0.49999999999999989 0 0 1 
1 0.49999999999999989 0 0 1 
1 0 1 1 0 
1 0 0 0 1 
1 0.0072295689129202884 0 0 1 
1 0 0 1 0 
7 0 0  1 2 2  0 0  0.0072295689129202884 0 
 0 2 0.0036147844564601442 2
1 1 0 0 1 
1 0 0 0 1 
1 0 1 1 0 
1 0 1 1 0 
Curves 21
1 -50 -50 -50 0 0 1 
1 -50 -50 50 -0 1 0 
1 -50 50 -50 0 0 1 
1 -50 -50 -50 -0 1 0 
1 -50 -50 -50 1 0 -0 
1 50 -50 -50 0 0 1 
1 -50 -50 50 1 0 -0 
1 -50 50 50 1 0 -0 
1 50 -50 50 -0 1 0 
1 -50 50 -50 1 0 -0 
1 50 50 -50 0 0 1 
1 50 -50 -50 -0 1 0 
7 0 0  3 103 101  6.1870692464069812 0.52946134810726742 -7.745966692414834  6.1865111209304864 0.52957659022882608 -7.745966692414834  6.1842807700519256 0.53003711457786296 -7.745966692414834  6.1792688782844047 0.53107030631489627 -7.745966692414834  6.1709431983790877 0.53278191970212807 -7.745966692414834  6.1593227727993627 0.53516083534068026 -7.745966692414834  6.1444699950957737 0.5381847680889793 -7.745966692414834  6.1264259090053672 0.54183368414817346 -7.745966692414834  6.1052725808715547 0.54607747593072753 -7.745966692414834  6.0810853694571456 0.55088622394609721 -7.745966692414834  6.0539614073449437 0.55622478846902446 -7.745966692414834  6.024005253560369 0.56205619715725086 -7.745966692414834  5.9913339756345714 0.56834097172459064 -7.745966692414834  5.956075013389043 0.57503786634320841 -7.745966692414834  5.9183660966793576 0.58210408817312487 -7.745966692414834  5.8783546309682579 0.58949552453226794 -7.745966692414834  5.8361971190662274 0.59716685847517981 -7.745966692414834  5.7920585283661428 0.60507159902906238 -7.745966692414834  5.7461116184891488 0.61316203862313967 -7.745966692414834  5.6985362331410148 0.62138915966816044 -7.745966692414834  5.6495185614426244 0.62970251758280171 -7.745966692414834  5.5992503744045825 0.63805013120318754 -7.745966692414834  5.5479282424513485 0.64637841295302534 -7.745966692414834  5.4957527399177346 0.65463217023394671 -7.745966692414834  5.4429276422340029 0.66275470620655974 -7.745966692414834  5.3896591210910865 0.67068804261933179 -7.745966692414834  5.3361549422537138 0.67837327990324825 -7.745966692414834  5.2826236698986611 0.68575110081879886 -7.745966692414834  5.2292738804421539 0.69276241406083139 -7.745966692414834  5.1763133878391612 0.69934912401510152 -7.745966692414834  5.1239484813488518 0.7054550029751393 -7.745966692414834  5.0723831758280333 0.71102663322449589 -7.745966692414834  5.0218184737964906 0.7160143790805652 -7.745966692414834  4.9724516378618127 0.72037334381545526 -7.745966692414834  4.9244754716217525 0.72406426373873833 -7.745966692414834  4.8780776068709679 0.72705429193171067 -7.745966692414834  4.8334397947650283 0.72931762729583038 -7.745966692414834  4.7907371983947797 0.73083595069263774 -7.745966692414834  4.7501376837167024 0.73159863882343856 -7.745966692414834  4.7118011044394361 0.73160273778173512 -7.745966692414834  4.6758785732552441 0.73085269139651909 -7.745966692414834  4.6425117046470126 0.7293598334572069 -7.745966692414834  4.6118318008417409 0.72714166783838485 -7.745966692414834  4.5839589086833197 0.72422096452863627 -7.745966692414834  4.5590006594741332 0.72062468683195324 -7.745966692414834  4.5370504842830019 0.71638278860217697 -7.745966692414834  4.5181847810334181 0.71152601786089342 -7.745966692414834  4.5024581289728074 0.70608329411880077 -7.745966692414834  4.4898921055213252 0.70006706309725797 -7.745966692414834  4.4804772919250277 0.6934488980724246 -7.745966692414834  4.4742083818861627 0.6860516900804482 -7.745966692414834  4.4715140480352016 0.67773868344484689 -7.745966692414834  4.472723910447626 0.6690841038960188 -7.745966692414834  4.4776130699692063 0.66071069131067017 -7.745966692414834  4.4857356190959443 0.6525582058594287 -7.745966692414834  4.4970660288621822 0.64445130783263138 -7.745966692414834  4.5116086386810377 0.63636036682278785 -7.745966692414834  4.529344360118686 0.62830138635247357 -7.745966692414834  4.550224464929439 0.6203123241668913 -7.745966692414834  4.5741790551838433 0.61243672751628064 -7.745966692414834  4.6011213206730863 0.6047203193229751 -7.745966692414834  4.6309499473847149 0.59720834323731198 -7.745966692414834  4.6635506662231627 0.5899440692362603 -7.745966692414834  4.69879720925322 0.58296753566366222 -7.745966692414834  4.736552081526078 0.57631449522009071 -7.745966692414834  4.7766672377536237 0.57001556466642389 -7.745966692414834  4.8189847398237591 0.56409559327783954 -7.745966692414834  4.8633374273246197 0.55857326876485602 -7.745966692414834  4.9095496172012876 0.55346096704940972 -7.745966692414834  4.9574378391928926 0.54876483976657431 -7.745966692414834  5.0068116082457745 0.54448512093536139 -7.745966692414834  5.0574742318137602 0.54061662336242433 -7.745966692414834  5.1092236479165409 0.5371493866943795 -7.745966692414834  5.1618532885684223 0.53406943304743726 -7.745966692414834  5.2151529624675756 0.53135958304839259 -7.745966692414834  5.2689097505134423 0.52900028496990648 -7.745966692414834  5.3229089077144449 0.52697041231522945 -7.745966692414834  5.3769347653013311 0.52524799042349346 -7.745966692414834  5.4307716273252664 0.52381082000656565 -7.745966692414834  5.4842046566475116 0.52263697445865809 -7.745966692414834  5.5370207459706595 0.52170515768657166 -7.745966692414834  5.5890093703682764 0.52099491943542153 -7.745966692414834  5.6399634185862553 0.5204867349741511 -7.745966692414834  5.6896800011616087 0.52016196493815403 -7.745966692414834  5.7379612340819071 0.52000271856075486 -7.745966692414834  5.7846149972477594 0.51999164902871264 -7.745966692414834  5.8294556673683475 0.52011171297186987 -7.745966692414834  5.8723048250966325 0.5203459269980355 -7.745966692414834  5.9129919361924106 0.5206771527239008 -7.745966692414834  5.9513550062695568 0.52108793809807563 -7.745966692414834  5.9872412091986682 0.52156043729923285 -7.745966692414834  6.0205074766514759 0.52207642414521882 -7.745966692414834  6.0510211426408924 0.52261740911776511 -7.745966692414834  6.0786600628221628 0.52316484225800897 -7.745966692414834  6.1033148464765459 0.52370046940087034 -7.745966692414834  6.1248837347341745 0.52420655156847185 -7.745966692414834  6.1432873182361654 0.52466670972639273 -7.745966692414834  6.158439549283556 0.52506554435998487 -7.745966692414834  6.1702965288532283 0.52539045319895972 -7.745966692414834  6.1787929415186458 0.52563032418946865 -7.745966692414834  6.1839081032508751 0.52577751355035318 -7.745966692414834  6.1861845393020012 0.52584374513411558 -7.745966692414834  6.1867541971828057 0.52586031899699737 -7.745966692414834 
 0 4 0.00048960609879410925 1 0.0019564440961383359 1 0.0043945832302579391 1 0.0077941724423938189 1 0.012141489875179282 1 0.017419010614298645 1 0.023605491292800276 1 0.030676070007887236 1 0.038602379958691424 1 0.047352675292247882 1 0.056891967823057818 1 0.067182173540385928 1 0.078182268104302358 1 0.089848450825007628 1 0.10213431689330502 1 0.11499103786293575 1 0.12836755056441085 1 0.1422107547470611 1 0.15646571979672294 1 0.17107590085733027 1 0.1859833645917526 1 0.20112902464596447 1 0.21645288662738066 1 0.23189430207316925 1 0.2473922304755875 1 0.26288550796859089 1 0.27831312079740517 1 0.2936144812400559 1 0.30872970329028249 1 0.32359987521742395 1 0.33816732616647099 1 0.35237588432276329 1 0.36617112490477594 1 0.37950060742111891 1 0.39231410329208138 1 0.40456381717698725 1 0.41620460833123496 1 0.42719422238539612 1 0.43749354980517163 1 0.4470669364047129 1 0.45588258659385322 1 0.46391312763813991 1 0.47113645612459204 1 0.47753709509836939 1 0.48310851973796382 1 0.48785742476218469 1 0.49181209916514396 1 0.49503969814924736 1 0.49768087869968081 1 0.49999999999999989 1 0.50231912130031897 1 0.50496030185075247 1 0.50818790083485588 1 0.51214257523781503 1 0.51689148026203591 1 0.52246290490163028 1 0.52886354387540757 1 0.53608687236185981 1 0.54411741340614639 1 0.55293306359528671 1 0.56250645019482814 1 0.57280577761460361 1 0.58379539166876482 1 0.59543618282301258 1 0.6076858967079185 1 0.62049939257888109 1 0.63382887509522401 1 0.64762411567723677 1 0.66183267383352884 1 0.67640012478257594 1 0.69127029670971762 1 0.70638551875994404 1 0.72168687920259467 1 0.73711449203140911 1 0.75260776952441244 1 0.76810569792683059 1 0.78354711337261929 1 0.7988709753540354 1 0.81401663540824742 1 0.82892409914266962 1 0.84353428020327692 1 0.85778924525293865 1 0.87163244943558926 1 0.88500896213706437 1 0.8978656831066949 1 0.9101515491749923 1 0.92181773189569749 1 0.93281782645961409 1 0.94310803217694239 1 0.95264732470775226 1 0.96139762004130869 1 0.9693239299921127 1 0.97639450870719968 1 0.98258098938570138 1 0.98785851012482073 1 0.99220582755760611 1 0.99560541676974201 1 0.99804355590386162 1 0.99951039390120588 1 1 4
7 0 0  1 2 2  4.47213595890143 0.67768427329432956 -7.745966692414834  7.8335088709744968e-09 2.3379735647477418e-15 0 
 0 2 1 2
7 0 0  3 103 101  3.4426518632954815 0.0036147844564601442 0  3.4415197719889741 0.0037471039565466669 0  3.4369957698653728 0.0042758720114342858 0  3.4268300326664609 0.0054607619733854423 0  3.4099436824349669 0.0074197007044175265 0  3.3863765974119597 0.010133853352194565 0  3.3562569744020649 0.013569695149433127 0  3.3196700806329904 0.017694465362511194 0  3.2767846723154421 0.022462483059507724 0  3.2277561087601954 0.027827272862613793 0  3.1727840411529562 0.033735754080638745 0  3.1120832364911521 0.040132489249957999 0  3.0458938204011945 0.046959228467053533 0  2.9744768922535925 0.054156008206504465 0  2.898114322835637 0.061661576363425841 0  2.8171074905753759 0.069413737763000916 0  2.7317761092769706 0.077349483641011518 0  2.6424569621352365 0.085404941587547342 0  2.5495025695649614 0.093515173530671777 0  2.4532797945872895 0.10161386616884389 0  2.3541683915022569 0.1096329691553851 0  2.2525595037517836 0.11750234366032117 0  2.1488541170951931 0.12514948684757179 0  2.0434614744141193 0.1324993959796526 0  1.9367974586253207 0.13947462927291956 0  1.8292829502947527 0.14599560956752231 0  1.7213421666003235 0.151981201945802 0  1.6134009882723974 0.15734957850022233 0  1.5058852810441401 0.16201936360594274 0  1.3992192179686262 0.16591103253637535 0  1.2938236087134154 0.16894851639258537 0  1.1901142416373778 0.17106094841550484 0  1.0885002440991107 0.17218447204524931 0  0.9893824660415671 0.17226402065540464 0  0.89315189142066476 0.17125497356704125 0  0.80018808142965481 0.16912459330448901 0  0.71085765257145639 0.16585315534652109 0  0.62551279116711012 0.16143469377449232 0  0.54448980333126329 0.15587730380497039 0  0.46810769479777992 0.14920296444338668 0  0.3966667662819221 0.14144687020536803 0  0.33044719336806871 0.13265628744364613 0  0.26970753009460824 0.12288897817857623 0  0.21468298744981715 0.11221123463764987 0  0.16558330888569178 0.10069553959403185 0  0.12258942417226401 0.088417858896887511 0  0.085848187988871255 0.075452771613911201 0  0.055463302446467799 0.061867410461256489 0  0.031475588735990497 0.047690333354347691 0  0.013871236136415492 0.032863261393045268 0  0.0026705445629514046 0.01703239960715653 0  -0.0012485650958976788 4.6656632866202882e-17 0  0.0026705445629515816 -0.01703239960715686 0  0.013871236136414925 -0.032863261393044602 0  0.031475588735990712 -0.047690333354347927 0  0.055463302446467584 -0.061867410461256309 0  0.085848187988870936 -0.075452771613911118 0  0.12258942417226397 -0.088417858896887483 0  0.1655833088856915 -0.10069553959403177 0  0.21468298744981684 -0.1122112346376498 0  0.26970753009460791 -0.12288897817857618 0  0.33044719336806849 -0.13265628744364613 0  0.3966667662819211 -0.14144687020536789 0  0.46810769479777914 -0.1492029644433866 0  0.54448980333126373 -0.1558773038049705 0  0.62551279116711056 -0.16143469377449232 0  0.71085765257145572 -0.16585315534652109 0  0.8001880814296557 -0.16912459330448895 0  0.89315189142066553 -0.17125497356704134 0  0.98938246604156665 -0.17226402065540453 0  1.0885002440991118 -0.17218447204524942 0  1.1901142416373771 -0.1710609484155049 0  1.2938236087134152 -0.16894851639258524 0  1.3992192179686265 -0.16591103253637543 0  1.5058852810441403 -0.16201936360594263 0  1.6134009882723968 -0.15734957850022235 0  1.7213421666003226 -0.15198120194580197 0  1.8292829502947521 -0.14599560956752236 0  1.9367974586253192 -0.13947462927291962 0  2.0434614744141197 -0.13249939597965249 0  2.1488541170951923 -0.12514948684757191 0  2.2525595037517832 -0.117502343660321 0  2.354168391502256 -0.10963296915538548 0  2.4532797945872895 -0.10161386616884378 0  2.5495025695649614 -0.093515173530671916 0  2.6424569621352361 -0.085404941587547259 0  2.7317761092769715 -0.077349483641011518 0  2.8171074905753763 -0.069413737763001082 0  2.8981143228356343 -0.061661576363425903 0  2.974476892253592 -0.054156008206504465 0  3.0458938204011945 -0.046959228467053658 0  3.1120832364911521 -0.040132489249957923 0  3.1727840411529549 -0.03373575408063894 0  3.2277561087601954 -0.027827272862613835 0  3.2767846723154412 -0.022462483059507678 0  3.3196700806329904 -0.017694465362511225 0  3.3562569744020645 -0.013569695149433163 0  3.3863765974119588 -0.010133853352194543 0  3.4099436824349669 -0.0074197007044174562 0  3.4268300326664596 -0.0054607619733855993 0  3.4369957698653733 -0.0042758720114342815 0  3.4415197719889741 -0.0037471039565466647 0  3.4426518632954815 -0.0036147844564601442 0 
 0 4 0.00048960609879410925 1 0.0019564440961383359 1 0.0043945832302579391 1 0.0077941724423938189 1 0.012141489875179282 1 0.017419010614298645 1 0.023605491292800276 1 0.030676070007887236 1 0.038602379958691424 1 0.047352675292247882 1 0.056891967823057818 1 0.067182173540385928 1 0.078182268104302358 1 0.089848450825007628 1 0.10213431689330502 1 0.11499103786293575 1 0.12836755056441085 1 0.1422107547470611 1 0.15646571979672294 1 0.17107590085733027 1 0.1859833645917526 1 0.20112902464596447 1 0.21645288662738066 1 0.23189430207316925 1 0.2473922304755875 1 0.26288550796859089 1 0.27831312079740517 1 0.2936144812400559 1 0.30872970329028249 1 0.32359987521742395 1 0.33816732616647099 1 0.35237588432276329 1 0.36617112490477594 1 0.37950060742111891 1 0.39231410329208138 1 0.40456381717698725 1 0.41620460833123496 1 0.42719422238539612 1 0.43749354980517163 1 0.4470669364047129 1 0.45588258659385322 1 0.46391312763813991 1 0.47113645612459204 1 0.47753709509836939 1 0.48310851973796382 1 0.48785742476218469 1 0.49181209916514396 1 0.49503969814924736 1 0.49768087869968081 1 0.49999999999999989 1 0.50231912130031897 1 0.50496030185075247 1 0.50818790083485588 1 0.51214257523781503 1 0.51689148026203591 1 0.52246290490163028 1 0.52886354387540757 1 0.53608687236185981 1 0.54411741340614639 1 0.55293306359528671 1 0.56250645019482814 1 0.57280577761460361 1 0.58379539166876482 1 0.59543618282301258 1 0.6076858967079185 1 0.62049939257888109 1 0.63382887509522401 1 0.64762411567723677 1 0.66183267383352884 1 0.67640012478257594 1 0.69127029670971762 1 0.70638551875994404 1 0.72168687920259467 1 0.73711449203140911 1 0.75260776952441244 1 0.76810569792683059 1 0.78354711337261929 1 0.7988709753540354 1 0.81401663540824742 1 0.82892409914266962 1 0.84353428020327692 1 0.85778924525293865 1 0.87163244943558926 1 0.88500896213706437 1 0.8978656831066949 1 0.9101515491749923 1 0.92181773189569749 1 0.93281782645961409 1 0.94310803217694239 1 0.95264732470775226 1 0.96139762004130869 1 0.9693239299921127 1 0.97639450870719968 1 0.98258098938570138 1 0.98785851012482073 1 0.99220582755760611 1 0.99560541676974201 1 0.99804355590386162 1 0.99951039390120588 1 1 4
7 0 0  1 2 2  6.1870692464069812 0.52946134810726742 -7.745966692414834  3.4426518632954815 0.0036147844564601442 0 
 0 2 1 2
7 0 0  3 103 101  6.1870692464069812 0.52946134810726742 -7.745966692414834  6.1865111209304864 0.52957659022882608 -7.745966692414834  6.1842807700519256 0.53003711457786296 -7.745966692414834  6.1792688782844047 0.53107030631489627 -7.745966692414834  6.1709431983790877 0.53278191970212807 -7.745966692414834  6.1593227727993627 0.53516083534068026 -7.745966692414834  6.1444699950957737 0.5381847680889793 -7.745966692414834  6.1264259090053672 0.54183368414817346 -7.745966692414834  6.1052725808715547 0.54607747593072753 -7.745966692414834  6.0810853694571456 0.55088622394609721 -7.745966692414834  6.0539614073449437 0.55622478846902446 -7.745966692414834  6.024005253560369 0.56205619715725086 -7.745966692414834  5.9913339756345714 0.56834097172459064 -7.745966692414834  5.956075013389043 0.57503786634320841 -7.745966692414834  5.9183660966793576 0.58210408817312487 -7.745966692414834  5.8783546309682579 0.58949552453226794 -7.745966692414834  5.8361971190662274 0.59716685847517981 -7.745966692414834  5.7920585283661428 0.60507159902906238 -7.745966692414834  5.7461116184891488 0.61316203862313967 -7.745966692414834  5.6985362331410148 0.62138915966816044 -7.745966692414834  5.6495185614426244 0.62970251758280171 -7.745966692414834  5.5992503744045825 0.63805013120318754 -7.745966692414834  5.5479282424513485 0.64637841295302534 -7.745966692414834  5.4957527399177346 0.65463217023394671 -7.745966692414834  5.4429276422340029 0.66275470620655974 -7.745966692414834  5.3896591210910865 0.67068804261933179 -7.745966692414834  5.3361549422537138 0.67837327990324825 -7.745966692414834  5.2826236698986611 0.68575110081879886 -7.745966692414834  5.2292738804421539 0.69276241406083139 -7.745966692414834  5.1763133878391612 0.69934912401510152 -7.745966692414834  5.1239484813488518 0.7054550029751393 -7.745966692414834  5.0723831758280333 0.71102663322449589 -7.745966692414834  5.0218184737964906 0.7160143790805652 -7.745966692414834  4.9724516378618127 0.72037334381545526 -7.745966692414834  4.9244754716217525 0.72406426373873833 -7.745966692414834  4.8780776068709679 0.72705429193171067 -7.745966692414834  4.8334397947650283 0.72931762729583038 -7.745966692414834  4.7907371983947797 0.73083595069263774 -7.745966692414834  4.7501376837167024 0.73159863882343856 -7.745966692414834  4.7118011044394361 0.73160273778173512 -7.745966692414834  4.6758785732552441 0.73085269139651909 -7.745966692414834  4.6425117046470126 0.7293598334572069 -7.745966692414834  4.6118318008417409 0.72714166783838485 -7.745966692414834  4.5839589086833197 0.72422096452863627 -7.745966692414834  4.5590006594741332 0.72062468683195324 -7.745966692414834  4.5370504842830019 0.71638278860217697 -7.745966692414834  4.5181847810334181 0.71152601786089342 -7.745966692414834  4.5024581289728074 0.70608329411880077 -7.745966692414834  4.4898921055213252 0.70006706309725797 -7.745966692414834  4.4804772919250277 0.6934488980724246 -7.745966692414834  4.4742083818861627 0.6860516900804482 -7.745966692414834  4.4715140480352016 0.67773868344484689 -7.745966692414834  4.472723910447626 0.6690841038960188 -7.745966692414834  4.4776130699692063 0.66071069131067017 -7.745966692414834  4.4857356190959443 0.6525582058594287 -7.745966692414834  4.4970660288621822 0.64445130783263138 -7.745966692414834  4.5116086386810377 0.63636036682278785 -7.745966692414834  4.529344360118686 0.62830138635247357 -7.745966692414834  4.550224464929439 0.6203123241668913 -7.745966692414834  4.5741790551838433 0.61243672751628064 -7.745966692414834  4.6011213206730863 0.6047203193229751 -7.745966692414834  4.6309499473847149 0.59720834323731198 -7.745966692414834  4.6635506662231627 0.5899440692362603 -7.745966692414834  4.69879720925322 0.58296753566366222 -7.745966692414834  4.736552081526078 0.57631449522009071 -7.745966692414834  4.7766672377536237 0.57001556466642389 -7.745966692414834  4.8189847398237591 0.56409559327783954 -7.745966692414834  4.8633374273246197 0.55857326876485602 -7.745966692414834  4.9095496172012876 0.55346096704940972 -7.745966692414834  4.9574378391928926 0.54876483976657431 -7.745966692414834  5.0068116082457745 0.54448512093536139 -7.745966692414834  5.0574742318137602 0.54061662336242433 -7.745966692414834  5.1092236479165409 0.5371493866943795 -7.745966692414834  5.1618532885684223 0.53406943304743726 -7.745966692414834  5.2151529624675756 0.53135958304839259 -7.745966692414834  5.2689097505134423 0.52900028496990648 -7.745966692414834  5.3229089077144449 0.52697041231522945 -7.745966692414834  5.3769347653013311 0.52524799042349346 -7.745966692414834  5.4307716273252664 0.52381082000656565 -7.745966692414834  5.4842046566475116 0.52263697445865809 -7.745966692414834  5.5370207459706595 0.52170515768657166 -7.745966692414834  5.5890093703682764 0.52099491943542153 -7.745966692414834  5.6399634185862553 0.5204867349741511 -7.745966692414834  5.6896800011616087 0.52016196493815403 -7.745966692414834  5.7379612340819071 0.52000271856075486 -7.745966692414834  5.7846149972477594 0.51999164902871264 -7.745966692414834  5.8294556673683475 0.52011171297186987 -7.745966692414834  5.8723048250966325 0.5203459269980355 -7.745966692414834  5.9129919361924106 0.5206771527239008 -7.745966692414834  5.9513550062695568 0.52108793809807563 -7.745966692414834  5.9872412091986682 0.52156043729923285 -7.745966692414834  6.0205074766514759 0.52207642414521882 -7.745966692414834  6.0510211426408924 0.52261740911776511 -7.745966692414834  6.0786600628221628 0.52316484225800897 -7.745966692414834  6.1033148464765459 0.52370046940087034 -7.745966692414834  6.1248837347341745 0.52420655156847185 -7.745966692414834  6.1432873182361654 0.52466670972639273 -7.745966692414834  6.158439549283556 0.52506554435998487 -7.745966692414834  6.1702965288532283 0.52539045319895972 -7.745966692414834  6.1787929415186458 0.52563032418946865 -7.745966692414834  6.1839081032508751 0.52577751355035318 -7.745966692414834  6.1861845393020012 0.52584374513411558 -7.745966692414834  6.1867541971828057 0.52586031899699737 -7.745966692414834 
 0 4 0.00048960609879410925 1 0.0019564440961383359 1 0.0043945832302579391 1 0.0077941724423938189 1 0.012141489875179282 1 0.017419010614298645 1 0.023605491292800276 1 0.030676070007887236 1 0.038602379958691424 1 0.047352675292247882 1 0.056891967823057818 1 0.067182173540385928 1 0.078182268104302358 1 0.089848450825007628 1 0.10213431689330502 1 0.11499103786293575 1 0.12836755056441085 1 0.1422107547470611 1 0.15646571979672294 1 0.17107590085733027 1 0.1859833645917526 1 0.20112902464596447 1 0.21645288662738066 1 0.23189430207316925 1 0.2473922304755875 1 0.26288550796859089 1 0.27831312079740517 1 0.2936144812400559 1 0.30872970329028249 1 0.32359987521742395 1 0.33816732616647099 1 0.35237588432276329 1 0.36617112490477594 1 0.37950060742111891 1 0.39231410329208138 1 0.40456381717698725 1 0.41620460833123496 1 0.42719422238539612 1 0.43749354980517163 1 0.4470669364047129 1 0.45588258659385322 1 0.46391312763813991 1 0.47113645612459204 1 0.47753709509836939 1 0.48310851973796382 1 0.48785742476218469 1 0.49181209916514396 1 0.49503969814924736 1 0.49768087869968081 1 0.49999999999999989 1 0.50231912130031897 1 0.50496030185075247 1 0.50818790083485588 1 0.51214257523781503 1 0.51689148026203591 1 0.52246290490163028 1 0.52886354387540757 1 0.53608687236185981 1 0.54411741340614639 1 0.55293306359528671 1 0.56250645019482814 1 0.57280577761460361 1 0.58379539166876482 1 0.59543618282301258 1 0.6076858967079185 1 0.62049939257888109 1 0.63382887509522401 1 0.64762411567723677 1 0.66183267383352884 1 0.67640012478257594 1 0.69127029670971762 1 0.70638551875994404 1 0.72168687920259467 1 0.73711449203140911 1 0.75260776952441244 1 0.76810569792683059 1 0.78354711337261929 1 0.7988709753540354 1 0.81401663540824742 1 0.82892409914266962 1 0.84353428020327692 1 0.85778924525293865 1 0.87163244943558926 1 0.88500896213706437 1 0.8978656831066949 1 0.9101515491749923 1 0.92181773189569749 1 0.93281782645961409 1 0.94310803217694239 1 0.95264732470775226 1 0.96139762004130869 1 0.9693239299921127 1 0.97639450870719968 1 0.98258098938570138 1 0.98785851012482073 1 0.99220582755760611 1 0.99560541676974201 1 0.99804355590386162 1 0.99951039390120588 1 1 4
1 6.1867541971828057 0.52586031899699737 -7.745966692414834 0.087155742747658166 0.99619469809174555 0 
7 0 0  1 2 2  6.1867541971828057 0.52586031899699737 -7.745966692414834  3.4426518632954815 -0.0036147844564601442 0 
 0 2 1 2
7 0 0  3 103 101  3.4426518632954815 0.0036147844564601442 0  3.4415197719889741 0.0037471039565466669 0  3.4369957698653728 0.0042758720114342858 0  3.4268300326664609 0.0054607619733854423 0  3.4099436824349669 0.0074197007044175265 0  3.3863765974119597 0.010133853352194565 0  3.3562569744020649 0.013569695149433127 0  3.3196700806329904 0.017694465362511194 0  3.2767846723154421 0.022462483059507724 0  3.2277561087601954 0.027827272862613793 0  3.1727840411529562 0.033735754080638745 0  3.1120832364911521 0.040132489249957999 0  3.0458938204011945 0.046959228467053533 0  2.9744768922535925 0.054156008206504465 0  2.898114322835637 0.061661576363425841 0  2.8171074905753759 0.069413737763000916 0  2.7317761092769706 0.077349483641011518 0  2.6424569621352365 0.085404941587547342 0  2.5495025695649614 0.093515173530671777 0  2.4532797945872895 0.10161386616884389 0  2.3541683915022569 0.1096329691553851 0  2.2525595037517836 0.11750234366032117 0  2.1488541170951931 0.12514948684757179 0  2.0434614744141193 0.1324993959796526 0  1.9367974586253207 0.13947462927291956 0  1.8292829502947527 0.14599560956752231 0  1.7213421666003235 0.151981201945802 0  1.6134009882723974 0.15734957850022233 0  1.5058852810441401 0.16201936360594274 0  1.3992192179686262 0.16591103253637535 0  1.2938236087134154 0.16894851639258537 0  1.1901142416373778 0.17106094841550484 0  1.0885002440991107 0.17218447204524931 0  0.9893824660415671 0.17226402065540464 0  0.89315189142066476 0.17125497356704125 0  0.80018808142965481 0.16912459330448901 0  0.71085765257145639 0.16585315534652109 0  0.62551279116711012 0.16143469377449232 0  0.54448980333126329 0.15587730380497039 0  0.46810769479777992 0.14920296444338668 0  0.3966667662819221 0.14144687020536803 0  0.33044719336806871 0.13265628744364613 0  0.26970753009460824 0.12288897817857623 0  0.21468298744981715 0.11221123463764987 0  0.16558330888569178 0.10069553959403185 0  0.12258942417226401 0.088417858896887511 0  0.085848187988871255 0.075452771613911201 0  0.055463302446467799 0.061867410461256489 0  0.031475588735990497 0.047690333354347691 0  0.013871236136415492 0.032863261393045268 0  0.0026705445629514046 0.01703239960715653 0  -0.0012485650958976788 4.6656632866202882e-17 0  0.0026705445629515816 -0.01703239960715686 0  0.013871236136414925 -0.032863261393044602 0  0.031475588735990712 -0.047690333354347927 0  0.055463302446467584 -0.061867410461256309 0  0.085848187988870936 -0.075452771613911118 0  0.12258942417226397 -0.088417858896887483 0  0.1655833088856915 -0.10069553959403177 0  0.21468298744981684 -0.1122112346376498 0  0.26970753009460791 -0.12288897817857618 0  0.33044719336806849 -0.13265628744364613 0  0.3966667662819211 -0.14144687020536789 0  0.46810769479777914 -0.1492029644433866 0  0.54448980333126373 -0.1558773038049705 0  0.62551279116711056 -0.16143469377449232 0  0.71085765257145572 -0.16585315534652109 0  0.8001880814296557 -0.16912459330448895 0  0.89315189142066553 -0.17125497356704134 0  0.98938246604156665 -0.17226402065540453 0  1.0885002440991118 -0.17218447204524942 0  1.1901142416373771 -0.1710609484155049 0  1.2938236087134152 -0.16894851639258524 0  1.3992192179686265 -0.16591103253637543 0  1.5058852810441403 -0.16201936360594263 0  1.6134009882723968 -0.15734957850022235 0  1.7213421666003226 -0.15198120194580197 0  1.8292829502947521 -0.14599560956752236 0  1.9367974586253192 -0.13947462927291962 0  2.0434614744141197 -0.13249939597965249 0  2.1488541170951923 -0.12514948684757191 0  2.2525595037517832 -0.117502343660321 0  2.354168391502256 -0.10963296915538548 0  2.4532797945872895 -0.10161386616884378 0  2.5495025695649614 -0.093515173530671916 0  2.6424569621352361 -0.085404941587547259 0  2.7317761092769715 -0.077349483641011518 0  2.8171074905753763 -0.069413737763001082 0  2.8981143228356343 -0.061661576363425903 0  2.974476892253592 -0.054156008206504465 0  3.0458938204011945 -0.046959228467053658 0  3.1120832364911521 -0.040132489249957923 0  3.1727840411529549 -0.03373575408063894 0  3.2277561087601954 -0.027827272862613835 0  3.2767846723154412 -0.022462483059507678 0  3.3196700806329904 -0.017694465362511225 0  3.3562569744020645 -0.013569695149433163 0  3.3863765974119588 -0.010133853352194543 0  3.4099436824349669 -0.0074197007044174562 0  3.4268300326664596 -0.0054607619733855993 0  3.4369957698653733 -0.0042758720114342815 0  3.4415197719889741 -0.0037471039565466647 0  3.4426518632954815 -0.0036147844564601442 0 
 0 4 0.00048960609879410925 1 0.0019564440961383359 1 0.0043945832302579391 1 0.0077941724423938189 1 0.012141489875179282 1 0.017419010614298645 1 0.023605491292800276 1 0.030676070007887236 1 0.038602379958691424 1 0.047352675292247882 1 0.056891967823057818 1 0.067182173540385928 1 0.078182268104302358 1 0.089848450825007628 1 0.10213431689330502 1 0.11499103786293575 1 0.12836755056441085 1 0.1422107547470611 1 0.15646571979672294 1 0.17107590085733027 1 0.1859833645917526 1 0.20112902464596447 1 0.21645288662738066 1 0.23189430207316925 1 0.2473922304755875 1 0.26288550796859089 1 0.27831312079740517 1 0.2936144812400559 1 0.30872970329028249 1 0.32359987521742395 1 0.33816732616647099 1 0.35237588432276329 1 0.36617112490477594 1 0.37950060742111891 1 0.39231410329208138 1 0.40456381717698725 1 0.41620460833123496 1 0.42719422238539612 1 0.43749354980517163 1 0.4470669364047129 1 0.45588258659385322 1 0.46391312763813991 1 0.47113645612459204 1 0.47753709509836939 1 0.48310851973796382 1 0.48785742476218469 1 0.49181209916514396 1 0.49503969814924736 1 0.49768087869968081 1 0.49999999999999989 1 0.50231912130031897 1 0.50496030185075247 1 0.50818790083485588 1 0.51214257523781503 1 0.51689148026203591 1 0.52246290490163028 1 0.52886354387540757 1 0.53608687236185981 1 0.54411741340614639 1 0.55293306359528671 1 0.56250645019482814 1 0.57280577761460361 1 0.58379539166876482 1 0.59543618282301258 1 0.6076858967079185 1 0.62049939257888109 1 0.63382887509522401 1 0.64762411567723677 1 0.66183267383352884 1 0.67640012478257594 1 0.69127029670971762 1 0.70638551875994404 1 0.72168687920259467 1 0.73711449203140911 1 0.75260776952441244 1 0.76810569792683059 1 0.78354711337261929 1 0.7988709753540354 1 0.81401663540824742 1 0.82892409914266962 1 0.84353428020327692 1 0.85778924525293865 1 0.87163244943558926 1 0.88500896213706437 1 0.8978656831066949 1 0.9101515491749923 1 0.92181773189569749 1 0.93281782645961409 1 0.94310803217694239 1 0.95264732470775226 1 0.96139762004130869 1 0.9693239299921127 1 0.97639450870719968 1 0.98258098938570138 1 0.98785851012482073 1 0.99220582755760611 1 0.99560541676974201 1 0.99804355590386162 1 0.99951039390120588 1 1 4
1 3.4426518632954815 -0.0036147844564601442 0 0 1 0 
Polygon3D 0
PolygonOnTriangulations 0
Surfaces 11
1 -50 -50 -50 1 0 -0 0 0 1 0 -1 0 
1 -50 -50 -50 -0 1 0 0 0 1 1 0 -0 
1 -50 -50 50 0 0 1 1 0 -0 -0 1 0 
1 -50 50 -50 -0 1 0 0 0 1 1 0 -0 
1 -50 -50 -50 0 0 1 1 0 -0 -0 1 0 
1 50 -50 -50 1 0 -0 0 0 1 0 -1 0 
9 0 0 0 0 3 1 53 2 51 2 6.1870692464069812 0.52946134810726742 -7.745966692414834  3.4426518632954815 0.0036147844564601442 0  
6.1865111209304864 0.52957659022882608 -7.745966692414834  3.4415197719889741 0.0037471039565466669 0  
6.1842807700519256 0.53003711457786296 -7.745966692414834  3.4369957698653728 0.0042758720114342858 0  
6.1792688782844047 0.53107030631489627 -7.745966692414834  3.4268300326664609 0.0054607619733854423 0  
6.1709431983790877 0.53278191970212807 -7.745966692414834  3.4099436824349669 0.0074197007044175265 0  
6.1593227727993627 0.53516083534068026 -7.745966692414834  3.3863765974119597 0.010133853352194565 0  
6.1444699950957737 0.5381847680889793 -7.745966692414834  3.3562569744020649 0.013569695149433127 0  
6.1264259090053672 0.54183368414817346 -7.745966692414834  3.3196700806329904 0.017694465362511194 0  
6.1052725808715547 0.54607747593072753 -7.745966692414834  3.2767846723154421 0.022462483059507724 0  
6.0810853694571456 0.55088622394609721 -7.745966692414834  3.2277561087601954 0.027827272862613793 0  
6.0539614073449437 0.55622478846902446 -7.745966692414834  3.1727840411529562 0.033735754080638745 0  
6.024005253560369 0.56205619715725086 -7.745966692414834  3.1120832364911521 0.040132489249957999 0  
5.9913339756345714 0.56834097172459064 -7.745966692414834  3.0458938204011945 0.046959228467053533 0  
5.956075013389043 0.57503786634320841 -7.745966692414834  2.9744768922535925 0.054156008206504465 0  
5.9183660966793576 0.58210408817312487 -7.745966692414834  2.898114322835637 0.061661576363425841 0  
5.8783546309682579 0.58949552453226794 -7.745966692414834  2.8171074905753759 0.069413737763000916 0  
5.8361971190662274 0.59716685847517981 -7.745966692414834  2.7317761092769706 0.077349483641011518 0  
5.7920585283661428 0.60507159902906238 -7.745966692414834  2.6424569621352365 0.085404941587547342 0  
5.7461116184891488 0.61316203862313967 -7.745966692414834  2.5495025695649614 0.093515173530671777 0  
5.6985362331410148 0.62138915966816044 -7.745966692414834  2.4532797945872895 0.10161386616884389 0  
5.6495185614426244 0.62970251758280171 -7.745966692414834  2.3541683915022569 0.1096329691553851 0  
5.5992503744045825 0.63805013120318754 -7.745966692414834  2.2525595037517836 0.11750234366032117 0  
5.5479282424513485 0.64637841295302534 -7.745966692414834  2.1488541170951931 0.12514948684757179 0  
5.4957527399177346 0.65463217023394671 -7.745966692414834  2.0434614744141193 0.1324993959796526 0  
5.4429276422340029 0.66275470620655974 -7.745966692414834  1.9367974586253207 0.13947462927291956 0  
5.3896591210910865 0.67068804261933179 -7.745966692414834  1.8292829502947527 0.14599560956752231 0  
5.3361549422537138 0.67837327990324825 -7.745966692414834  1.7213421666003235 0.151981201945802 0  
5.2826236698986611 0.68575110081879886 -7.745966692414834  1.6134009882723974 0.15734957850022233 0  
5.2292738804421539 0.69276241406083139 -7.745966692414834  1.5058852810441401 0.16201936360594274 0  
5.1763133878391612 0.69934912401510152 -7.745966692414834  1.3992192179686262 0.16591103253637535 0  
5.1239484813488518 0.7054550029751393 -7.745966692414834  1.2938236087134154 0.16894851639258537 0  
5.0723831758280333 0.71102663322449589 -7.745966692414834  1.1901142416373778 0.17106094841550484 0  
5.0218184737964906 0.7160143790805652 -7.745966692414834  1.0885002440991107 0.17218447204524931 0  
4.9724516378618127 0.72037334381545526 -7.745966692414834  0.9893824660415671 0.17226402065540464 0  
4.9244754716217525 0.72406426373873833 -7.745966692414834  0.89315189142066476 0.17125497356704125 0  
4.8780776068709679 0.72705429193171067 -7.745966692414834  0.80018808142965481 0.16912459330448901 0  
4.8334397947650283 0.72931762729583038 -7.745966692414834  0.71085765257145639 0.16585315534652109 0  
4.7907371983947797 0.73083595069263774 -7.745966692414834  0.62551279116711012 0.16143469377449232 0  
4.7501376837167024 0.73159863882343856 -7.745966692414834  0.54448980333126329 0.15587730380497039 0  
4.7118011044394361 0.73160273778173512 -7.745966692414834  0.46810769479777992 0.14920296444338668 0  
4.6758785732552441 0.73085269139651909 -7.745966692414834  0.3966667662819221 0.14144687020536803 0  
4.6425117046470126 0.7293598334572069 -7.745966692414834  0.33044719336806871 0.13265628744364613 0  
4.6118318008417409 0.72714166783838485 -7.745966692414834  0.26970753009460824 0.12288897817857623 0  
4.5839589086833197 0.72422096452863627 -7.745966692414834  0.21468298744981715 0.11221123463764987 0  
4.5590006594741332 0.72062468683195324 -7.745966692414834  0.16558330888569178 0.10069553959403185 0  
4.5370504842830019 0.71638278860217697 -7.745966692414834  0.12258942417226401 0.088417858896887511 0  
4.5181847810334181 0.71152601786089342 -7.745966692414834  0.085848187988871255 0.075452771613911201 0  
4.5024581289728074 0.70608329411880077 -7.745966692414834  0.055463302446467799 0.061867410461256489 0  
4.4898921055213252 0.70006706309725797 -7.745966692414834  0.031475588735990497 0.047690333354347691 0  
4.4804772919250277 0.6934488980724246 -7.745966692414834  0.013871236136415492 0.032863261393045268 0  
4.4742083818861627 0.6860516900804482 -7.745966692414834  0.0026705445629514046 0.01703239960715653 0  
4.4723724247079488 0.68038708983065821 -7.745966692414834  7.8335091166547091e-09 0.00542628171281635 0  
4.47213595890143 0.67768427329432956 -7.745966692414834  7.8335088709744968e-09 2.3379735647477418e-15 0  

0 4
0.00048960609879410925 1
0.0019564440961383359 1
0.0043945832302579391 1
0.0077941724423938189 1
0.012141489875179282 1
0.017419010614298645 1
0.023605491292800276 1
0.030676070007887236 1
0.038602379958691424 1
0.047352675292247882 1
0.056891967823057818 1
0.067182173540385928 1
0.078182268104302358 1
0.089848450825007628 1
0.10213431689330502 1
0.11499103786293575 1
0.12836755056441085 1
0.1422107547470611 1
0.15646571979672294 1
0.17107590085733027 1
0.1859833645917526 1
0.20112902464596447 1
0.21645288662738066 1
0.23189430207316925 1
0.2473922304755875 1
0.26288550796859089 1
0.27831312079740517 1
0.2936144812400559 1
0.30872970329028249 1
0.32359987521742395 1
0.33816732616647099 1
0.35237588432276329 1
0.36617112490477594 1
0.37950060742111891 1
0.39231410329208138 1
0.40456381717698725 1
0.41620460833123496 1
0.42719422238539612 1
0.43749354980517163 1
0.4470669364047129 1
0.45588258659385322 1
0.46391312763813991 1
0.47113645612459204 1
0.47753709509836939 1
0.48310851973796382 1
0.48785742476218469 1
0.49181209916514396 1
0.49503969814924736 1
0.49768087869968081 1
0.49999999999999989 4

0 2
1 2

9 0 0 0 0 3 1 53 2 51 2 4.47213595890143 0.67768427329432956 -7.745966692414834  7.8335088709744968e-09 2.3379735647477418e-15 0  
4.4718994930949103 0.67498145675799959 -7.745966692414834  7.8335086252942845e-09 -0.0054262817128140108 0  
4.472723910447626 0.6690841038960188 -7.745966692414834  0.0026705445629515816 -0.01703239960715686 0  
4.4776130699692063 0.66071069131067017 -7.745966692414834  0.013871236136414925 -0.032863261393044602 0  
4.4857356190959443 0.6525582058594287 -7.745966692414834  0.031475588735990712 -0.047690333354347927 0  
4.4970660288621822 0.64445130783263138 -7.745966692414834  0.055463302446467584 -0.061867410461256309 0  
4.5116086386810377 0.63636036682278785 -7.745966692414834  0.085848187988870936 -0.075452771613911118 0  
4.529344360118686 0.62830138635247357 -7.745966692414834  0.12258942417226397 -0.088417858896887483 0  
4.550224464929439 0.6203123241668913 -7.745966692414834  0.1655833088856915 -0.10069553959403177 0  
4.5741790551838433 0.61243672751628064 -7.745966692414834  0.21468298744981684 -0.1122112346376498 0  
4.6011213206730863 0.6047203193229751 -7.745966692414834  0.26970753009460791 -0.12288897817857618 0  
4.6309499473847149 0.59720834323731198 -7.745966692414834  0.33044719336806849 -0.13265628744364613 0  
4.6635506662231627 0.5899440692362603 -7.745966692414834  0.3966667662819211 -0.14144687020536789 0  
4.69879720925322 0.58296753566366222 -7.745966692414834  0.46810769479777914 -0.1492029644433866 0  
4.736552081526078 0.57631449522009071 -7.745966692414834  0.54448980333126373 -0.1558773038049705 0  
4.7766672377536237 0.57001556466642389 -7.745966692414834  0.62551279116711056 -0.16143469377449232 0  
4.8189847398237591 0.56409559327783954 -7.745966692414834  0.71085765257145572 -0.16585315534652109 0  
4.8633374273246197 0.55857326876485602 -7.745966692414834  0.8001880814296557 -0.16912459330448895 0  
4.9095496172012876 0.55346096704940972 -7.745966692414834  0.89315189142066553 -0.17125497356704134 0  
4.9574378391928926 0.54876483976657431 -7.745966692414834  0.98938246604156665 -0.17226402065540453 0  
5.0068116082457745 0.54448512093536139 -7.745966692414834  1.0885002440991118 -0.17218447204524942 0  
5.0574742318137602 0.54061662336242433 -7.745966692414834  1.1901142416373771 -0.1710609484155049 0  
5.1092236479165409 0.5371493866943795 -7.745966692414834  1.2938236087134152 -0.16894851639258524 0  
5.1618532885684223 0.53406943304743726 -7.745966692414834  1.3992192179686265 -0.16591103253637543 0  
5.2151529624675756 0.53135958304839259 -7.745966692414834  1.5058852810441403 -0.16201936360594263 0  
5.2689097505134423 0.52900028496990648 -7.745966692414834  1.6134009882723968 -0.15734957850022235 0  
5.3229089077144449 0.52697041231522945 -7.745966692414834  1.7213421666003226 -0.15198120194580197 0  
5.3769347653013311 0.52524799042349346 -7.745966692414834  1.8292829502947521 -0.14599560956752236 0  
5.4307716273252664 0.52381082000656565 -7.745966692414834  1.9367974586253192 -0.13947462927291962 0  
5.4842046566475116 0.52263697445865809 -7.745966692414834  2.0434614744141197 -0.13249939597965249 0  
5.5370207459706595 0.52170515768657166 -7.745966692414834  2.1488541170951923 -0.12514948684757191 0  
5.5890093703682764 0.52099491943542153 -7.745966692414834  2.2525595037517832 -0.117502343660321 0  
5.6399634185862553 0.5204867349741511 -7.745966692414834  2.354168391502256 -0.10963296915538548 0  
5.6896800011616087 0.52016196493815403 -7.745966692414834  2.4532797945872895 -0.10161386616884378 0  
5.7379612340819071 0.52000271856075486 -7.745966692414834  2.5495025695649614 -0.093515173530671916 0  
5.7846149972477594 0.51999164902871264 -7.745966692414834  2.6424569621352361 -0.085404941587547259 0  
5.8294556673683475 0.52011171297186987 -7.745966692414834  2.7317761092769715 -0.077349483641011518 0  
5.8723048250966325 0.5203459269980355 -7.745966692414834  2.8171074905753763 -0.069413737763001082 0  
5.9129919361924106 0.5206771527239008 -7.745966692414834  2.8981143228356343 -0.061661576363425903 0  
5.9513550062695568 0.52108793809807563 -7.745966692414834  2.974476892253592 -0.054156008206504465 0  
5.9872412091986682 0.52156043729923285 -7.745966692414834  3.0458938204011945 -0.046959228467053658 0  
6.0205074766514759 0.52207642414521882 -7.745966692414834  3.1120832364911521 -0.040132489249957923 0  
6.0510211426408924 0.52261740911776511 -7.745966692414834  3.1727840411529549 -0.03373575408063894 0  
6.0786600628221628 0.52316484225800897 -7.745966692414834  3.2277561087601954 -0.027827272862613835 0  
6.1033148464765459 0.52370046940087034 -7.745966692414834  3.2767846723154412 -0.022462483059507678 0  
6.1248837347341745 0.52420655156847185 -7.745966692414834  3.3196700806329904 -0.017694465362511225 0  
6.1432873182361654 0.52466670972639273 -7.745966692414834  3.3562569744020645 -0.013569695149433163 0  
6.158439549283556 0.52506554435998487 -7.745966692414834  3.3863765974119588 -0.010133853352194543 0  
6.1702965288532283 0.52539045319895972 -7.745966692414834  3.4099436824349669 -0.0074197007044174562 0  
6.1787929415186458 0.52563032418946865 -7.745966692414834  3.4268300326664596 -0.0054607619733855993 0  
6.1839081032508751 0.52577751355035318 -7.745966692414834  3.4369957698653733 -0.0042758720114342815 0  
6.1861845393020012 0.52584374513411558 -7.745966692414834  3.4415197719889741 -0.0037471039565466647 0  
6.1867541971828057 0.52586031899699737 -7.745966692414834  3.4426518632954815 -0.0036147844564601442 0  

0.49999999999999989 4
0.50231912130031897 1
0.50496030185075247 1
0.50818790083485588 1
0.51214257523781503 1
0.51689148026203591 1
0.52246290490163028 1
0.52886354387540757 1
0.53608687236185981 1
0.54411741340614639 1
0.55293306359528671 1
0.56250645019482814 1
0.57280577761460361 1
0.58379539166876482 1
0.59543618282301258 1
0.6076858967079185 1
0.62049939257888109 1
0.63382887509522401 1
0.64762411567723677 1
0.66183267383352884 1
0.67640012478257594 1
0.69127029670971762 1
0.70638551875994404 1
0.72168687920259467 1
0.73711449203140911 1
0.75260776952441244 1
0.76810569792683059 1
0.78354711337261929 1
0.7988709753540354 1
0.81401663540824742 1
0.82892409914266962 1
0.84353428020327692 1
0.85778924525293865 1
0.87163244943558926 1
0.88500896213706437 1
0.8978656831066949 1
0.9101515491749923 1
0.92181773189569749 1
0.93281782645961409 1
0.94310803217694239 1
0.95264732470775226 1
0.96139762004130869 1
0.9693239299921127 1
0.97639450870719968 1
0.98258098938570138 1
0.98785851012482073 1
0.99220582755760611 1
0.99560541676974201 1
0.99804355590386162 1
0.99951039390120588 1
1 4

0 2
1 2

9 0 0 0 0 1 1 2 2 2 2 6.1867541971828057 0.52586031899699737 -7.745966692414834  3.4426518632954815 -0.0036147844564601442 0  
6.1870692464069812 0.52946134810726742 -7.745966692414834  3.4426518632954815 0.0036147844564601442 0  

0 2
0.0072295689129202884 2

0 2
1 2

1 6.1870692464069812 0.52946134810726742 -7.745966692414834 9.8785260692011024e-17 7.1351213062422938e-15 1 -0.99628566241951622 0.086109690844328679 -5.1598475093148172e-16 -0.086109690844328679 -0.99628566241951622 7.1171254252913734e-15 
1 3.4426518632954815 0.0036147844564601442 0 0 0 1 -0.99999944875045332 -0.0010499994235761239 0 0.0010499994235761239 -0.99999944875045332 0 
Triangulations 0

TShapes 61
Ve
1e-07
-50 -50 50
0 0

0101101
*
Ve
1e-07
-50 -50 -50
0 0

0101101
*
Ed
 1e-07 1 1 0
1  1 0 0 100
0

0101000
-61 0 +60 0 *
Ve
1e-07
-50 50 50
0 0

0101101
*
Ed
 1e-07 1 1 0
1  2 0 0 100
0

0101000
-58 0 +61 0 *
Ve
1e-07
-50 50 -50
0 0

0101101
*
Ed
 1e-07 1 1 0
1  3 0 0 100
0

0101000
-58 0 +56 0 *
Ed
 1e-07 1 1 0
1  4 0 0 100
0

0101000
-56 0 +60 0 *
Wi

0101100
-59 0 -57 0 +55 0 +54 0 *
Fa
0  1e-07 1 0

0111000
+53 0 *
Ve
1e-07
50 -50 -50
0 0

0101101
*
Ed
 1e-07 1 1 0
1  5 0 0 100
0

0101000
-51 0 +60 0 *
Ve
1e-07
50 -50 50
0 0

0101101
*
Ed
 1e-07 1 1 0
1  6 0 0 100
0

0101000
-49 0 +51 0 *
Ed
 1e-07 1 1 0
1  7 0 0 100
0

0101000
-49 0 +61 0 *
Wi

0101100
-50 0 -48 0 +47 0 +59 0 *
Fa
0  1e-07 2 0

0111000
+46 0 *
Ve
1e-07
50 50 50
0 0

0101101
*
Ed
 1e-07 1 1 0
1  8 0 0 100
0

0101000
-44 0 +58 0 *
Ed
 1e-07 1 1 0
1  9 0 0 100
0

0101000
-44 0 +49 0 *
Wi

0101100
-57 0 -43 0 +42 0 +47 0 *
Fa
0  1e-07 3 0

0111000
+41 0 *
Ve
1e-07
50 50 -50
0 0

0101101
*
Ed
 1e-07 1 1 0
1  10 0 0 100
0

0101000
-39 0 +56 0 *
Ed
 1e-07 1 1 0
1  11 0 0 100
0

0101000
-44 0 +39 0 *
Wi

0101100
-38 0 -37 0 +43 0 +55 0 *
Fa
0  1e-07 4 0

0111000
+36 0 *
Ed
 1e-07 1 1 0
1  12 0 0 100
0

0101000
-39 0 +51 0 *
Wi

0101100
-54 0 -38 0 +34 0 +50 0 *
Fa
0  1e-07 5 0

0111000
+33 0 *
Wi

0101100
-48 0 -42 0 +37 0 +34 0 *
Fa
0  1e-07 6 0

0111000
+31 0 *
Sh

0101100
-52 0 -45 0 +40 0 +35 0 -32 0 +30 0 *
Ve
1.72132593164774e-07
6.18706924640698 0.529461348107267 -7.74596669241483
0 0

0101101
*
Ve
1.72132593164774e-07
4.47213595499958 0.677684273635696 -7.74596669241483
0 0

0101101
*
Ed
 1e-07 1 1 0
1  13 0 0 0.499999999999999
2  1 7 0 0 0.499999999999999
0

0101000
+28 0 -27 0 *
Ve
3.44265186329548e-07
0 0 0
0 0

0101101
*
Ed
 1e-07 1 1 0
1  14 0 0 1
2  2 7 0 0 1
2  3 8 0 0 1
4 C2 7 0 8 0
0

0101000
+27 0 -25 0 *
Ve
3.44265186329548e-07
3.44265186329548 0.00361478445646014 0
0 0

0101101
*
Ed
 1e-07 1 1 0
1  15 0 0 0.499999999999999
2  4 7 0 0 0.499999999999999
0

0101000
+23 0 -25 0 *
Ed
 1e-07 1 1 0
1  16 0 0 1
2  5 7 0 0 1
2  6 9 0 0 1
0

0101000
+28 0 -23 0 *
Wi

0101000
+26 0 +24 0 -22 0 -21 0 *
Fa
0  1e-07 7 0

0111000
+20 0 *
Ve
1.72132593164774e-07
6.18675419718281 0.525860318996997 -7.74596669241483
0 0

0101101
*
Ed
 1e-07 1 1 0
1  17 0 0.499999999999999 1
2  7 8 0 0.499999999999999 1
0

0101000
+27 0 -18 0 *
Ed
 1e-07 1 1 0
1  18 0 0 0.00361478445646014
2  8 9 0 0 0.00361478445646014
0

0101000
+18 0 -28 0 *
Wi

0101100
+26 0 +17 0 +16 0 *
Fa
0  1e-07 10 0

0111000
+15 0 *
Ve
3.44265186329548e-07
3.44265186329548 -0.00361478445646014 0
0 0

0101101
*
Ed
 1e-07 1 1 0
1  19 0 0 1
2  9 8 0 0 1
2  10 9 0 0 1
0

0101000
+18 0 -13 0 *
Ed
 1e-07 1 1 0
1  20 0 0.499999999999999 1
2  11 8 0 0.499999999999999 1
0

0101000
+25 0 -13 0 *
Wi

0101000
+17 0 +12 0 -11 0 -24 0 *
Fa
0  1e-07 8 0

0111000
+10 0 *
Ed
 1e-07 1 1 0
1  21 0 0 0.00722956891292029
2  12 9 0 0 0.00722956891292029
0

0101000
+13 0 -23 0 *
Wi

0101100
+22 0 +11 0 +8 0 *
Fa
0  1e-07 11 0

0111000
+7 0 *
Wi

0101000
+16 0 +21 0 -8 0 -12 0 *
Fa
0  1e-07 9 0

0111000
+5 0 *
Sh

0101100
-19 0 +14 0 -9 0 -6 0 -4 0 *
So

0100000
+29 0 +3 0 *
Co

1100000
+2 0 *

+1 0 
##EGADS HEADER FILE-REV 1 ##
17
2 14 1
_cfgpmtr_nspar
 1.000000000000e+00
2 13 1
_cfgpmtr_nrib
 1.000000000000e+00
2 14 1
_cfgpmtr_cfdOn
 1.000000000000e+00
2 13 1
_despmtr_area
 4.000000000000e+01
2 15 1
_despmtr_aspect
 6.000000000000e+00
2 14 1
_despmtr_taper
 5.000000000000e-01
2 15 1
_despmtr_ctwist
 5.000000000000e+00
2 16 1
_despmtr_lesweep
 3.000000000000e+01
2 17 1
_despmtr_dihedral
 5.000000000000e+00
2 12 1
_despmtr_tc0
 1.000000000000e-01
2 12 1
_despmtr_tcf
 1.000000000000e-01
2 14 1
_despmtr_camb0
 0.000000000000e+00
2 14 1
_despmtr_cambf
 0.000000000000e+00
2 18 2
_cfgpmtr_rootFaces
 1.100000000000e+01  1.800000000000e+01 
2 18 5
_cfgpmtr_rootEdges
 1.300000000000e+01  1.800000000000e+01  2.100000000000e+01  2.600000000000e+01  8.000000000000e+00 
2 20 4
_cfgpmtr_bottomFaces
 2.000000000000e+00  9.000000000000e+00  3.000000000000e+00  1.200000000000e+01 
2 18 4
_cfgpmtr_rootNodes
 6.000000000000e+00  9.000000000000e+00  7.000000000000e+00  1.500000000000e+01 
  1  2  11  11  21  14  4
1 5 1
_body
11
1 5 1
_brch
59
3 7 42
capsAIM
#egadsTessAIM;tacsAIM;pointwiseAIM;fun3dAIM
2 14 1
capsMeshLength
 1.000000000000e+00
    2 0 7
1 5 2
_body
8 1 
1 5 4
_brch
57 8 52 1 
1 5 2
_hist
8 11 
1 9 4
__trace__
8 1 11 1 
3 9 8
capsGroup
#Farfield
3 8 8
capsMesh
#Farfield
1 7 3
_faceID
8 1 1 
    2 1 7
1 5 2
_body
8 3 
1 5 4
_brch
57 8 52 1 
1 5 2
_hist
8 11 
1 9 4
__trace__
8 3 11 2 
3 9 8
capsGroup
#Farfield
3 8 8
capsMesh
#Farfield
1 7 3
_faceID
8 3 1 
    2 2 7
1 5 2
_body
8 6 
1 5 4
_brch
57 8 52 1 
1 5 2
_hist
8 11 
1 9 4
__trace__
8 6 11 3 
3 9 8
capsGroup
#Farfield
3 8 8
capsMesh
#Farfield
1 7 3
_faceID
8 6 1 
    2 3 7
1 5 2
_body
8 4 
1 5 4
_brch
57 8 52 1 
1 5 2
_hist
8 11 
1 9 4
__trace__
8 4 11 4 
3 9 8
capsGroup
#Farfield
3 8 8
capsMesh
#Farfield
1 7 3
_faceID
8 4 1 
    2 4 7
1 5 2
_body
8 5 
1 5 4
_brch
57 8 52 1 
1 5 2
_hist
8 11 
1 9 4
__trace__
8 5 11 5 
3 9 8
capsGroup
#Farfield
3 8 8
capsMesh
#Farfield
1 7 3
_faceID
8 5 1 
    2 5 7
1 5 2
_body
8 2 
1 5 4
_brch
57 8 52 1 
1 5 2
_hist
8 11 
1 9 4
__trace__
8 2 11 6 
3 9 8
capsGroup
#Farfield
3 8 8
capsMesh
#Farfield
1 7 3
_faceID
8 2 1 
    2 6 9
1 5 2
_body
7 3 
1 5 4
_brch
58 7 52 1 
2 3 1
OML
 0.000000000000e+00
1 5 2
_hist
7 11 
1 9 4
__trace__
7 1 11 7 
3 9 3
capsGroup
#OML
3 8 3
capsMesh
#OML
1 7 3
_faceID
7 3 1 
1 11 1
__trimmed__
1
    2 7 9
1 5 2
_body
7 1 
1 5 4
_brch
58 7 52 1 
2 3 1
OML
 0.000000000000e+00
1 5 2
_hist
7 11 
1 9 4
__trace__
7 4 11 8 
3 9 3
capsGroup
#OML
3 8 3
capsMesh
#OML
1 7 3
_faceID
7 1 1 
1 11 1
__trimmed__
1
    2 8 10
1 5 2
_body
7 4 
1 5 4
_brch
58 7 52 1 
2 3 1
OML
 0.000000000000e+00
1 5 2
_hist
7 11 
1 9 4
__trace__
7 2 11 9 
3 9 3
capsGroup
#OML
3 8 3
capsMesh
#OML
1 7 3
_faceID
7 4 1 
1 11 1
__trimmed__
1
3 8 10
capsLoad
#bottomWing
    2 9 10
1 5 2
_body
7 2 
1 5 4
_brch
58 7 52 1 
2 3 1
OML
 0.000000000000e+00
1 5 2
_hist
7 11 
1 9 4
__trace__
7 5 11 10 
3 9 3
capsGroup
#OML
3 8 3
capsMesh
#OML
1 7 3
_faceID
7 2 1 
1 11 1
__trimmed__
1
3 14 8
capsConstraint
#wingRoot
    2 10 9
1 5 2
_body
7 5 
1 5 4
_brch
58 7 52 1 
2 3 1
OML
 0.000000000000e+00
1 5 2
_hist
7 11 
1 9 4
__trace__
7 3 11 11 
3 9 3
capsGroup
#OML
3 8 3
capsMesh
#OML
1 7 3
_faceID
7 5 1 
1 11 1
__trimmed__
1
    4 0 4
1 9 4
__trace__
8 1 11 1 
1 5 2
_body
8 10003 
1 7 5
_edgeID
8 1 8 3 1 
1 6 1
_nface
2
    4 1 4
1 9 4
__trace__
8 2 11 2 
1 5 2
_body
8 10006 
1 7 5
_edgeID
8 1 8 6 1 
1 6 1
_nface
2
    4 2 4
1 9 4
__trace__
8 3 11 3 
1 5 2
_body
8 40001 
1 7 5
_edgeID
8 1 8 4 1 
1 6 1
_nface
2
    4 3 4
1 9 4
__trace__
8 4 11 4 
1 5 2
_body
8 50001 
1 7 5
_edgeID
8 1 8 5 1 
1 6 1
_nface
2
    4 4 4
1 9 4
__trace__
8 9 11 5 
1 5 2
_body
8 30005 
1 7 5
_edgeID
8 3 8 5 1 
1 6 1
_nface
2
    4 5 4
1 9 4
__trace__
8 5 11 6 
1 5 2
_body
8 30002 
1 7 5
_edgeID
8 2 8 3 1 
1 6 1
_nface
2
    4 6 4
1 9 4
__trace__
8 10 11 7 
1 5 2
_body
8 60003 
1 7 5
_edgeID
8 3 8 6 1 
1 6 1
_nface
2
    4 7 4
1 9 4
__trace__
8 12 11 8 
1 5 2
_body
8 40006 
1 7 5
_edgeID
8 4 8 6 1 
1 6 1
_nface
2
    4 8 4
1 9 4
__trace__
8 6 11 9 
1 5 2
_body
8 60002 
1 7 5
_edgeID
8 2 8 6 1 
1 6 1
_nface
2
    4 9 4
1 9 4
__trace__
8 11 11 10 
1 5 2
_body
8 50004 
1 7 5
_edgeID
8 4 8 5 1 
1 6 1
_nface
2
    4 10 4
1 9 4
__trace__
8 7 11 11 
1 5 2
_body
8 20004 
1 7 5
_edgeID
8 2 8 4 1 
1 6 1
_nface
2
    4 11 4
1 9 4
__trace__
8 8 11 12 
1 5 2
_body
8 20005 
1 7 5
_edgeID
8 2 8 5 1 
1 6 1
_nface
2
    4 12 4
1 9 4
__trace__
7 1 11 13 
1 5 2
_body
7 10003 
1 7 5
_edgeID
7 1 7 3 1 
1 6 1
_nface
2
    4 13 4
1 9 4
__trace__
7 2 11 14 
1 5 2
_body
7 40003 
1 7 5
_edgeID
7 3 7 4 1 
1 6 1
_nface
2
    4 14 5
1 9 4
__trace__
7 3 11 15 
1 5 2
_body
7 30002 
1 7 5
_edgeID
7 2 7 3 1 
1 6 1
_nface
2
3 14 8
capsConstraint
#wingRoot
    4 15 4
1 9 4
__trace__
7 4 11 16 
1 5 2
_body
7 30005 
1 7 5
_edgeID
7 3 7 5 1 
1 6 1
_nface
2
    4 16 4
1 9 4
__trace__
7 5 11 17 
1 5 2
_body
7 10004 
1 7 5
_edgeID
7 1 7 4 1 
1 6 1
_nface
2
    4 17 4
1 9 4
__trace__
7 8 11 18 
1 5 2
_body
7 10005 
1 7 5
_edgeID
7 1 7 5 1 
1 6 1
_nface
2
    4 18 4
1 9 4
__trace__
7 6 11 19 
1 5 2
_body
7 50004 
1 7 5
_edgeID
7 4 7 5 1 
1 6 1
_nface
2
    4 19 5
1 9 4
__trace__
7 7 11 20 
1 5 2
_body
7 40002 
1 7 5
_edgeID
7 2 7 4 1 
1 6 1
_nface
2
3 14 8
capsConstraint
#wingRoot
    4 20 4
1 9 4
__trace__
7 9 11 21 
1 5 2
_body
7 50002 
1 7 5
_edgeID
7 2 7 5 1 
1 6 1
_nface
2
    5 0 3
1 9 4
__trace__
8 1 11 1 
1 7 1
_nodeID
1
1 6 1
_nedge
3
    5 1 3
1 9 4
__trace__
8 2 11 2 
1 7 1
_nodeID
2
1 6 1
_nedge
3
    5 2 3
1 9 4
__trace__
8 3 11 3 
1 7 1
_nodeID
3
1 6 1
_nedge
3
    5 3 3
1 9 4
__trace__
8 4 11 4 
1 7 1
_nodeID
4
1 6 1
_nedge
3
    5 4 3
1 9 4
__trace__
8 6 11 5 
1 7 1
_nodeID
5
1 6 1
_nedge
3
    5 5 3
1 9 4
__trace__
8 5 11 6 
1 7 1
_nodeID
6
1 6 1
_nedge
3
    5 6 3
1 9 4
__trace__
8 7 11 7 
1 7 1
_nodeID
7
1 6 1
_nedge
3
    5 7 3
1 9 4
__trace__
8 8 11 8 
1 7 1
_nodeID
8
1 6 1
_nedge
3
    5 8 3
1 9 12
__trace__
3 1 4 1 5 1 6 1 7 1 11 9 
1 7 1
_nodeID
9
1 6 1
_nedge
3
    5 9 3
1 9 12
__trace__
3 2 4 2 5 2 6 2 7 2 11 10 
1 7 1
_nodeID
10
1 6 1
_nedge
3
    5 10 4
1 9 8
__trace__
1 2 2 2 7 3 11 11 
1 7 1
_nodeID
11
1 6 1
_nedge
3
3 14 8
capsConstraint
#wingRoot
    5 11 4
1 9 8
__trace__
1 1 2 1 7 4 11 12 
1 7 1
_nodeID
12
1 6 1
_nedge
3
3 14 8
capsConstraint
#wingRoot
    5 12 3
1 9 12
__trace__
3 3 4 3 5 3 6 3 7 5 11 13 
1 7 1
_nodeID
13
1 6 1
_nedge
3
    5 13 3
1 9 8
__trace__
1 3 2 3 7 6 11 14 
1 7 1
_nodeID
14
1 6 1
_nedge
3
    0 0 0
