DBRep_DrawableShape

CASCADE Topology V1, (c) Matra-Datavision
Locations 0
Curve2ds 12
1 0 0 1 0 
1 0.49999999999999989 0 0 1 
1 0.49999999999999989 0 0 1 
1 0 1 1 0 
1 0 0 0 1 
1 0.0044271887242355945 0 0 1 
1 0 0 1 0 
7 0 0  1 2 2  0 0  0.0044271887242355945 0 
 0 2 0.0022135943621177973 2
1 1 0 0 1 
1 0 0 0 1 
1 0 1 1 0 
1 0 1 1 0 
Curves 21
1 -31.622776601683796 -31.622776601683796 -31.622776601683796 0 0 1 
1 -31.622776601683796 -31.622776601683796 31.622776601683796 -0 1 0 
1 -31.622776601683796 31.622776601683796 -31.622776601683796 0 0 1 
1 -31.622776601683796 -31.622776601683796 -31.622776601683796 -0 1 0 
1 -31.622776601683796 -31.622776601683796 -31.622776601683796 1 0 -0 
1 31.622776601683796 -31.622776601683796 -31.622776601683796 0 0 1 
1 -31.622776601683796 -31.622776601683796 31.622776601683796 1 0 -0 
1 -31.622776601683796 31.622776601683796 31.622776601683796 1 0 -0 
1 31.622776601683796 -31.622776601683796 31.622776601683796 -0 1 0 
1 -31.622776601683796 31.622776601683796 -31.622776601683796 1 0 -0 
1 31.622776601683796 31.622776601683796 -31.622776601683796 0 0 1 
1 31.622776601683796 -31.622776601683796 -31.622776601683796 -0 1 0 
7 0 0  3 103 101  3.7887906642407869 0.32422753534722626 -4.7434164902525691  3.7884488835833223 0.32429810644589985 -4.7434164902525691  3.7870830781833615 0.3245801188632168 -4.7434164902525691  3.7840139338142409 0.32521281700376464 -4.7434164902525691  3.7789155169317983 0.32626096186267334 -4.7434164902525691  3.7717994886157205 0.32771774422656841 -4.7434164902525691  3.762704056956526 0.32956951728902451 -4.7434164902525691  3.7516543560074389 0.33180401290384276 -4.7434164902525691  3.7387006409350634 0.33440279401431122 -4.7434164902525691  3.723889059368533 0.33734753874913043 -4.7434164902525691  3.7072790926241632 0.34061672850915453 -4.7434164902525691  3.6889347697670254 0.34418772245110135 -4.7434164902525691  3.6689277797263107 0.34803634516070225 -4.7434164902525691  3.6473361631359102 0.35213733882990328 -4.7434164902525691  3.6242442619629505 0.35646449830305599 -4.7434164902525691  3.5997423432496856 0.36099081018959489 -4.7434164902525691  3.5739262450033644 0.36568852364125165 -4.7434164902525691  3.5468969887081743 0.37052916886777604 -4.7434164902525691  3.5187603675941039 0.37548353106785087 -4.7434164902525691  3.4896265129893016 0.38052159322095436 -4.7434164902525691  3.4596094419792212 0.38561246445595415 -4.7434164902525691  3.4288265898447237 0.3907243129409172 -4.7434164902525691  3.3973983308954212 0.39582432312122623 -4.7434164902525691  3.3654474913252592 0.4008786965709859 -4.7434164902525691  3.3330988575908043 0.40585271370856169 -4.7434164902525691  3.3004786835526034 0.41071087025084502 -4.7434164902525691  3.2677141992380587 0.41541709772529706 -4.7434164902525691  3.2349331236000998 0.4199350718894802 -4.7434164902525691  3.2022631830867612 0.42422860685692981 -4.7434164902525691  3.1698316372358168 0.42826212647484796 -4.7434164902525691  3.1377648119033639 0.43200119844566998 -4.7434164902525691  3.1061876401641819 0.43541311123226489 -4.7434164902525691  3.0752232104208943 0.43846746931077762 -4.7434164902525691  3.0449923208569807 0.44113677916259431 -4.7434164902525691  3.0156130390812095 0.44339699678597333 -4.7434164902525691  2.987200265632687 0.44522800763330289 -4.7434164902525691  2.9598652999092416 0.44661401182302529 -4.7434164902525691  2.9337154069594584 0.44754379121970211 -4.7434164902525691  2.908853383267977 0.4480108404080369 -4.7434164902525691  2.8853771188397124 0.44801335049711283 -4.7434164902525691  2.8633791509220901 0.44755404276531324 -4.7434164902525691  2.842946200320926 0.44663985771286879 -4.7434164902525691  2.8241586729007793 0.4452815142300941 -4.7434164902525691  2.8070900820398408 0.4434929560303586 -4.7434164902525691  2.7918063381809084 0.44129069469780235 -4.7434164902525691  2.778364655935166 0.43869307314686057 -4.7434164902525691  2.7668118192851043 0.43571892061840473 -4.7434164902525691  2.7571812510574074 0.43238594662364005 -4.7434164902525691  2.7494861646694133 0.42870177257926928 -4.7434164902525691  2.7437207923358269 0.42464899074317541 -4.7434164902525691  2.7398818846261692 0.42011914446778037 -4.7434164902525691  2.7382319488432785 0.4150284883463819 -4.7434164902525691  2.7389728352356317 0.40972866238814304 -4.7434164902525691  2.741966821760367 0.40460101532816728 -4.7434164902525691  2.7469408469531658 0.39960865795541606 -4.7434164902525691  2.7538792775791485 0.39464421706480868 -4.7434164902525691  2.7627847709752951 0.3896895478115398 -4.7434164902525691  2.7736456379108896 0.38475445031170863 -4.7434164902525691  2.7864320385514341 0.37986216884219848 -4.7434164902525691  2.8011011693316186 0.3750393705387064 -4.7434164902525691  2.8175998700724287 0.37031405485854885 -4.7434164902525691  2.8358660988652891 0.3657139277660828 -4.7434164902525691  2.8558298804658238 0.36126548660249713 -4.7434164902525691  2.8774138918709959 0.35699324974593177 -4.7434164902525691  2.9005339349641099 0.35291911116471925 -4.7434164902525691  2.9250993508914891 0.34906181971929162 -4.7434164902525691  2.9510134227067399 0.34543659242081481 -4.7434164902525691  2.9781737859812965 0.34205487310809651 -4.7434164902525691  3.006472857254908 0.3389242404545969 -4.7434164902525691  3.0357982843970479 0.33604846155206947 -4.7434164902525691  3.0660334196114429 0.33342767970730647 -4.7434164902525691  3.0970578138045095 0.33105871842608375 -4.7434164902525691  3.1287477297892048 0.32893547826253933 -4.7434164902525691  3.1609766710249918 0.32704939954593115 -4.7434164902525691  3.1936159221524076 0.32538996210164595 -4.7434164902525691  3.2265350973832381 0.323945192990791 -4.7434164902525691  3.2596026928039361 0.32270215492909415 -4.7434164902525691  3.2926866388049714 0.32164739123995606 -4.7434164902525691  3.3256548491327873 0.32076730769123196 -4.7434164902525691  3.3583757634454554 0.32004847703392914 -4.7434164902525691  3.3907188807081985 0.31947785812758445 -4.7434164902525691  3.4225552812590405 0.31904292779980326 -4.7434164902525691  3.4537581358748453 0.31873172964347235 -4.7434164902525691  3.4842032006409851 0.31853284942548782 -4.7434164902525691  3.5137692968427841 0.31843533133348417 -4.7434164902525691  3.5423387754270323 0.31842855265718539 -4.7434164902525691  3.5697979658070085 0.31850207650649587 -4.7434164902525691  3.5960376088925918 0.31864550272017306 -4.7434164902525691  3.6209532742157386 0.31884833622468628 -4.7434164902525691  3.6444457608796492 0.31909988986481796 -4.7434164902525691  3.666421482375223 0.31938923535149494 -4.7434164902525691  3.6867928276018063 0.31970521147315828 -4.7434164902525691  3.7054785555657528 0.32003649575847132 -4.7434164902525691  3.7224038684371594 0.32037172872394304 -4.7434164902525691  3.7375017783551465 0.32069973202204183 -4.7434164902525691  3.7507099709927214 0.32100964279167815 -4.7434164902525691  3.761979818247366 0.32129143096364948 -4.7434164902525691  3.7712586268800825 0.32153566629966213 -4.7434164902525691  3.7785195143391581 0.32173463151676429 -4.7434164902525691  3.7837224832577556 0.32188152189947494 -4.7434164902525691  3.7868548673066993 0.32197165660690835 -4.7434164902525691  3.788248893996033 0.322012215003177 -4.7434164902525691  3.7885977367800145 0.32202236437995874 -4.7434164902525691 
 0 4 0.00048960609879410925 1 0.0019564440961383359 1 0.0043945832302579391 1 0.0077941724423938189 1 0.012141489875179282 1 0.017419010614298645 1 0.023605491292800276 1 0.030676070007887236 1 0.038602379958691424 1 0.047352675292247882 1 0.056891967823057818 1 0.067182173540385928 1 0.078182268104302358 1 0.089848450825007628 1 0.10213431689330502 1 0.11499103786293575 1 0.12836755056441085 1 0.1422107547470611 1 0.15646571979672294 1 0.17107590085733027 1 0.1859833645917526 1 0.20112902464596447 1 0.21645288662738066 1 0.23189430207316925 1 0.2473922304755875 1 0.26288550796859089 1 0.27831312079740517 1 0.2936144812400559 1 0.30872970329028249 1 0.32359987521742395 1 0.33816732616647099 1 0.35237588432276329 1 0.36617112490477594 1 0.37950060742111891 1 0.39231410329208138 1 0.40456381717698725 1 0.41620460833123496 1 0.42719422238539612 1 0.43749354980517163 1 0.4470669364047129 1 0.45588258659385322 1 0.46391312763813991 1 0.47113645612459204 1 0.47753709509836939 1 0.48310851973796382 1 0.48785742476218469 1 0.49181209916514396 1 0.49503969814924736 1 0.49768087869968081 1 0.49999999999999989 1 0.50231912130031897 1 0.50496030185075247 1 0.50818790083485588 1 0.51214257523781503 1 0.51689148026203591 1 0.52246290490163028 1 0.52886354387540757 1 0.53608687236185981 1 0.54411741340614639 1 0.55293306359528671 1 0.56250645019482814 1 0.57280577761460361 1 0.58379539166876482 1 0.59543618282301258 1 0.6076858967079185 1 0.62049939257888109 1 0.63382887509522401 1 0.64762411567723677 1 0.66183267383352884 1 0.67640012478257594 1 0.69127029670971762 1 0.70638551875994404 1 0.72168687920259467 1 0.73711449203140911 1 0.75260776952441244 1 0.76810569792683059 1 0.78354711337261929 1 0.7988709753540354 1 0.81401663540824742 1 0.82892409914266962 1 0.84353428020327692 1 0.85778924525293865 1 0.87163244943558926 1 0.88500896213706437 1 0.8978656831066949 1 0.9101515491749923 1 0.92181773189569749 1 0.93281782645961409 1 0.94310803217694239 1 0.95264732470775226 1 0.96139762004130869 1 0.9693239299921127 1 0.97639450870719968 1 0.98258098938570138 1 0.98785851012482073 1 0.99220582755760611 1 0.99560541676974201 1 0.99804355590386162 1 0.99951039390120588 1 1 4
7 0 0  1 2 2  2.7386127899152157 0.41499516906998296 -4.7434164902525691  4.7970249073448108e-09 1.4315805485498601e-15 0 
 0 2 1 2
7 0 0  3 103 101  2.1081851067789197 0.0022135943621177973 0  2.1074918452681235 0.0022946231766758315 0  2.1047214710686011 0.0026184261583654905 0  2.09849625381946 0.0033440201103970171 0  2.0881555183981879 0.0045436201924979637 0  2.0737236851403988 0.0062056924602673794 0  2.0552792582355908 0.0083097072703077739 0  2.0328744529836791 0.01083560285237585 0  2.0066126110364535 0.013755405462926269 0  1.9765888701534609 0.017040654861650295 0  1.9429254912175822 0.020658845896395092 0  1.9057539916181385 0.024576030192532072 0  1.8652214176698487 0.02875653711476487 0  1.8214876594301899 0.033163646652978579 0  1.7747253267997274 0.037759849706513318 0  1.7251189756205108 0.042507059664678035 0  1.6728643898135198 0.04736669169705824 0  1.618167806124065 0.052299632100423432 0  1.5612450983371826 0.057266114589492378 0  1.5023209232546972 0.062225530726281439 0  1.4416278319422882 0.067136208354245094 0  1.3794053498621901 0.071955196387235187 0  1.3158990296405197 0.076638096086926344 0  1.2513594803374939 0.081138977844281451 0  1.1860413771878127 0.085410418445625719 0  1.1202024558487869 0.089403687031755885 0  1.0541024952269162 0.093069098815525206 0  0.98800229294237008 0.096356544641887781 0  0.92216263743144622 0.099216192321253741 0  0.85684328057981252 0.10159934310310439 0  0.79230191462855692 0.10345941449051838 0  0.7287931569077345 0.10475300963363539 0  0.66656754573443944 0.10544102453534378 0  0.60587055056458616 0.10548973791150081 0  0.54694159919557839 0.10487182528826797 0  0.49001312443982253 0.1035672391379306 0  0.43530963213817764 0.10156390070738211 0  0.38304679148587811 0.098858156632490604 0  0.33343054707748987 0.095454964200743078 0  0.28665624923126015 0.091367782749229742 0  0.24290779382763511 0.086618164429208139 0  0.20235675267164346 0.08123505385222704 0  0.16516145712953206 0.075253822887382082 0  0.13146594392709424 0.068715067067489963 0  0.10139865417290019 0.061663172844899604 0  0.075070384270914225 0.054144659611694082 0  0.052571063978815551 0.046205197533209313 0  0.033964197610876011 0.037885896834351118 0  0.019274782939217618 0.02920424559534629 0  0.0084943626589682776 0.020124555424166701 0  0.0016353678786487128 0.010430172033178539 0  -0.00076458684889961492 2.8571235909641125e-17 0  0.0016353678786488212 -0.010430172033178741 0  0.0084943626589679307 -0.020124555424166295 0  0.019274782939217749 -0.029204245595346436 0  0.033964197610875879 -0.037885896834351007 0  0.052571063978815356 -0.046205197533209265 0  0.075070384270914198 -0.054144659611694068 0  0.10139865417290002 -0.061663172844899555 0  0.13146594392709404 -0.068715067067489921 0  0.16516145712953187 -0.075253822887382055 0  0.20235675267164335 -0.08123505385222704 0  0.2429077938276345 -0.086618164429208042 0  0.28665624923125965 -0.091367782749229687 0  0.33343054707749015 -0.095454964200743134 0  0.38304679148587839 -0.098858156632490604 0  0.4353096321381773 -0.10156390070738212 0  0.49001312443982309 -0.10356723913793058 0  0.54694159919557883 -0.10487182528826802 0  0.60587055056458594 -0.10548973791150074 0  0.6665675457344401 -0.10544102453534383 0  0.72879315690773405 -0.10475300963363542 0  0.79230191462855681 -0.10345941449051831 0  0.85684328057981274 -0.10159934310310445 0  0.92216263743144633 -0.099216192321253671 0  0.98800229294236974 -0.096356544641887795 0  1.0541024952269158 -0.093069098815525192 0  1.1202024558487864 -0.089403687031755927 0  1.1860413771878116 -0.08541041844562576 0  1.2513594803374941 -0.081138977844281368 0  1.3158990296405193 -0.076638096086926413 0  1.3794053498621899 -0.071955196387235076 0  1.4416278319422873 -0.06713620835424533 0  1.5023209232546972 -0.062225530726281369 0  1.5612450983371822 -0.057266114589492462 0  1.6181678061240647 -0.052299632100423384 0  1.6728643898135203 -0.04736669169705824 0  1.725118975620511 -0.042507059664678132 0  1.7747253267997258 -0.037759849706513353 0  1.8214876594301896 -0.033163646652978579 0  1.8652214176698485 -0.028756537114764943 0  1.9057539916181385 -0.024576030192532027 0  1.9429254912175811 -0.02065884589639521 0  1.9765888701534609 -0.017040654861650319 0  2.0066126110364531 -0.013755405462926241 0  2.0328744529836791 -0.010835602852375871 0  2.0552792582355903 -0.0083097072703077948 0  2.0737236851403984 -0.0062056924602673655 0  2.0881555183981879 -0.0045436201924979212 0  2.0984962538194591 -0.0033440201103971134 0  2.1047214710686011 -0.0026184261583654875 0  2.1074918452681235 -0.0022946231766758298 0  2.1081851067789197 -0.0022135943621177973 0 
 0 4 0.00048960609879410925 1 0.0019564440961383359 1 0.0043945832302579391 1 0.0077941724423938189 1 0.012141489875179282 1 0.017419010614298645 1 0.023605491292800276 1 0.030676070007887236 1 0.038602379958691424 1 0.047352675292247882 1 0.056891967823057818 1 0.067182173540385928 1 0.078182268104302358 1 0.089848450825007628 1 0.10213431689330502 1 0.11499103786293575 1 0.12836755056441085 1 0.1422107547470611 1 0.15646571979672294 1 0.17107590085733027 1 0.1859833645917526 1 0.20112902464596447 1 0.21645288662738066 1 0.23189430207316925 1 0.2473922304755875 1 0.26288550796859089 1 0.27831312079740517 1 0.2936144812400559 1 0.30872970329028249 1 0.32359987521742395 1 0.33816732616647099 1 0.35237588432276329 1 0.36617112490477594 1 0.37950060742111891 1 0.39231410329208138 1 0.40456381717698725 1 0.41620460833123496 1 0.42719422238539612 1 0.43749354980517163 1 0.4470669364047129 1 0.45588258659385322 1 0.46391312763813991 1 0.47113645612459204 1 0.47753709509836939 1 0.48310851973796382 1 0.48785742476218469 1 0.49181209916514396 1 0.49503969814924736 1 0.49768087869968081 1 0.49999999999999989 1 0.50231912130031897 1 0.50496030185075247 1 0.50818790083485588 1 0.51214257523781503 1 0.51689148026203591 1 0.52246290490163028 1 0.52886354387540757 1 0.53608687236185981 1 0.54411741340614639 1 0.55293306359528671 1 0.56250645019482814 1 0.57280577761460361 1 0.58379539166876482 1 0.59543618282301258 1 0.6076858967079185 1 0.62049939257888109 1 0.63382887509522401 1 0.64762411567723677 1 0.66183267383352884 1 0.67640012478257594 1 0.69127029670971762 1 0.70638551875994404 1 0.72168687920259467 1 0.73711449203140911 1 0.75260776952441244 1 0.76810569792683059 1 0.78354711337261929 1 0.7988709753540354 1 0.81401663540824742 1 0.82892409914266962 1 0.84353428020327692 1 0.85778924525293865 1 0.87163244943558926 1 0.88500896213706437 1 0.8978656831066949 1 0.9101515491749923 1 0.92181773189569749 1 0.93281782645961409 1 0.94310803217694239 1 0.95264732470775226 1 0.96139762004130869 1 0.9693239299921127 1 0.97639450870719968 1 0.98258098938570138 1 0.98785851012482073 1 0.99220582755760611 1 0.99560541676974201 1 0.99804355590386162 1 0.99951039390120588 1 1 4
7 0 0  1 2 2  3.7887906642407869 0.32422753534722626 -4.7434164902525691  2.1081851067789197 0.0022135943621177973 0 
 0 2 1 2
7 0 0  3 103 101  3.7887906642407869 0.32422753534722626 -4.7434164902525691  3.7884488835833223 0.32429810644589985 -4.7434164902525691  3.7870830781833615 0.3245801188632168 -4.7434164902525691  3.7840139338142409 0.32521281700376464 -4.7434164902525691  3.7789155169317983 0.32626096186267334 -4.7434164902525691  3.7717994886157205 0.32771774422656841 -4.7434164902525691  3.762704056956526 0.32956951728902451 -4.7434164902525691  3.7516543560074389 0.33180401290384276 -4.7434164902525691  3.7387006409350634 0.33440279401431122 -4.7434164902525691  3.723889059368533 0.33734753874913043 -4.7434164902525691  3.7072790926241632 0.34061672850915453 -4.7434164902525691  3.6889347697670254 0.34418772245110135 -4.7434164902525691  3.6689277797263107 0.34803634516070225 -4.7434164902525691  3.6473361631359102 0.35213733882990328 -4.7434164902525691  3.6242442619629505 0.35646449830305599 -4.7434164902525691  3.5997423432496856 0.36099081018959489 -4.7434164902525691  3.5739262450033644 0.36568852364125165 -4.7434164902525691  3.5468969887081743 0.37052916886777604 -4.7434164902525691  3.5187603675941039 0.37548353106785087 -4.7434164902525691  3.4896265129893016 0.38052159322095436 -4.7434164902525691  3.4596094419792212 0.38561246445595415 -4.7434164902525691  3.4288265898447237 0.3907243129409172 -4.7434164902525691  3.3973983308954212 0.39582432312122623 -4.7434164902525691  3.3654474913252592 0.4008786965709859 -4.7434164902525691  3.3330988575908043 0.40585271370856169 -4.7434164902525691  3.3004786835526034 0.41071087025084502 -4.7434164902525691  3.2677141992380587 0.41541709772529706 -4.7434164902525691  3.2349331236000998 0.4199350718894802 -4.7434164902525691  3.2022631830867612 0.42422860685692981 -4.7434164902525691  3.1698316372358168 0.42826212647484796 -4.7434164902525691  3.1377648119033639 0.43200119844566998 -4.7434164902525691  3.1061876401641819 0.43541311123226489 -4.7434164902525691  3.0752232104208943 0.43846746931077762 -4.7434164902525691  3.0449923208569807 0.44113677916259431 -4.7434164902525691  3.0156130390812095 0.44339699678597333 -4.7434164902525691  2.987200265632687 0.44522800763330289 -4.7434164902525691  2.9598652999092416 0.44661401182302529 -4.7434164902525691  2.9337154069594584 0.44754379121970211 -4.7434164902525691  2.908853383267977 0.4480108404080369 -4.7434164902525691  2.8853771188397124 0.44801335049711283 -4.7434164902525691  2.8633791509220901 0.44755404276531324 -4.7434164902525691  2.842946200320926 0.44663985771286879 -4.7434164902525691  2.8241586729007793 0.4452815142300941 -4.7434164902525691  2.8070900820398408 0.4434929560303586 -4.7434164902525691  2.7918063381809084 0.44129069469780235 -4.7434164902525691  2.778364655935166 0.43869307314686057 -4.7434164902525691  2.7668118192851043 0.43571892061840473 -4.7434164902525691  2.7571812510574074 0.43238594662364005 -4.7434164902525691  2.7494861646694133 0.42870177257926928 -4.7434164902525691  2.7437207923358269 0.42464899074317541 -4.7434164902525691  2.7398818846261692 0.42011914446778037 -4.7434164902525691  2.7382319488432785 0.4150284883463819 -4.7434164902525691  2.7389728352356317 0.40972866238814304 -4.7434164902525691  2.741966821760367 0.40460101532816728 -4.7434164902525691  2.7469408469531658 0.39960865795541606 -4.7434164902525691  2.7538792775791485 0.39464421706480868 -4.7434164902525691  2.7627847709752951 0.3896895478115398 -4.7434164902525691  2.7736456379108896 0.38475445031170863 -4.7434164902525691  2.7864320385514341 0.37986216884219848 -4.7434164902525691  2.8011011693316186 0.3750393705387064 -4.7434164902525691  2.8175998700724287 0.37031405485854885 -4.7434164902525691  2.8358660988652891 0.3657139277660828 -4.7434164902525691  2.8558298804658238 0.36126548660249713 -4.7434164902525691  2.8774138918709959 0.35699324974593177 -4.7434164902525691  2.9005339349641099 0.35291911116471925 -4.7434164902525691  2.9250993508914891 0.34906181971929162 -4.7434164902525691  2.9510134227067399 0.34543659242081481 -4.7434164902525691  2.9781737859812965 0.34205487310809651 -4.7434164902525691  3.006472857254908 0.3389242404545969 -4.7434164902525691  3.0357982843970479 0.33604846155206947 -4.7434164902525691  3.0660334196114429 0.33342767970730647 -4.7434164902525691  3.0970578138045095 0.33105871842608375 -4.7434164902525691  3.1287477297892048 0.32893547826253933 -4.7434164902525691  3.1609766710249918 0.32704939954593115 -4.7434164902525691  3.1936159221524076 0.32538996210164595 -4.7434164902525691  3.2265350973832381 0.323945192990791 -4.7434164902525691  3.2596026928039361 0.32270215492909415 -4.7434164902525691  3.2926866388049714 0.32164739123995606 -4.7434164902525691  3.3256548491327873 0.32076730769123196 -4.7434164902525691  3.3583757634454554 0.32004847703392914 -4.7434164902525691  3.3907188807081985 0.31947785812758445 -4.7434164902525691  3.4225552812590405 0.31904292779980326 -4.7434164902525691  3.4537581358748453 0.31873172964347235 -4.7434164902525691  3.4842032006409851 0.31853284942548782 -4.7434164902525691  3.5137692968427841 0.31843533133348417 -4.7434164902525691  3.5423387754270323 0.31842855265718539 -4.7434164902525691  3.5697979658070085 0.31850207650649587 -4.7434164902525691  3.5960376088925918 0.31864550272017306 -4.7434164902525691  3.6209532742157386 0.31884833622468628 -4.7434164902525691  3.6444457608796492 0.31909988986481796 -4.7434164902525691  3.666421482375223 0.31938923535149494 -4.7434164902525691  3.6867928276018063 0.31970521147315828 -4.7434164902525691  3.7054785555657528 0.32003649575847132 -4.7434164902525691  3.7224038684371594 0.32037172872394304 -4.7434164902525691  3.7375017783551465 0.32069973202204183 -4.7434164902525691  3.7507099709927214 0.32100964279167815 -4.7434164902525691  3.761979818247366 0.32129143096364948 -4.7434164902525691  3.7712586268800825 0.32153566629966213 -4.7434164902525691  3.7785195143391581 0.32173463151676429 -4.7434164902525691  3.7837224832577556 0.32188152189947494 -4.7434164902525691  3.7868548673066993 0.32197165660690835 -4.7434164902525691  3.788248893996033 0.322012215003177 -4.7434164902525691  3.7885977367800145 0.32202236437995874 -4.7434164902525691 
 0 4 0.00048960609879410925 1 0.0019564440961383359 1 0.0043945832302579391 1 0.0077941724423938189 1 0.012141489875179282 1 0.017419010614298645 1 0.023605491292800276 1 0.030676070007887236 1 0.038602379958691424 1 0.047352675292247882 1 0.056891967823057818 1 0.067182173540385928 1 0.078182268104302358 1 0.089848450825007628 1 0.10213431689330502 1 0.11499103786293575 1 0.12836755056441085 1 0.1422107547470611 1 0.15646571979672294 1 0.17107590085733027 1 0.1859833645917526 1 0.20112902464596447 1 0.21645288662738066 1 0.23189430207316925 1 0.2473922304755875 1 0.26288550796859089 1 0.27831312079740517 1 0.2936144812400559 1 0.30872970329028249 1 0.32359987521742395 1 0.33816732616647099 1 0.35237588432276329 1 0.36617112490477594 1 0.37950060742111891 1 0.39231410329208138 1 0.40456381717698725 1 0.41620460833123496 1 0.42719422238539612 1 0.43749354980517163 1 0.4470669364047129 1 0.45588258659385322 1 0.46391312763813991 1 0.47113645612459204 1 0.47753709509836939 1 0.48310851973796382 1 0.48785742476218469 1 0.49181209916514396 1 0.49503969814924736 1 0.49768087869968081 1 0.49999999999999989 1 0.50231912130031897 1 0.50496030185075247 1 0.50818790083485588 1 0.51214257523781503 1 0.51689148026203591 1 0.52246290490163028 1 0.52886354387540757 1 0.53608687236185981 1 0.54411741340614639 1 0.55293306359528671 1 0.56250645019482814 1 0.57280577761460361 1 0.58379539166876482 1 0.59543618282301258 1 0.6076858967079185 1 0.62049939257888109 1 0.63382887509522401 1 0.64762411567723677 1 0.66183267383352884 1 0.67640012478257594 1 0.69127029670971762 1 0.70638551875994404 1 0.72168687920259467 1 0.73711449203140911 1 0.75260776952441244 1 0.76810569792683059 1 0.78354711337261929 1 0.7988709753540354 1 0.81401663540824742 1 0.82892409914266962 1 0.84353428020327692 1 0.85778924525293865 1 0.87163244943558926 1 0.88500896213706437 1 0.8978656831066949 1 0.9101515491749923 1 0.92181773189569749 1 0.93281782645961409 1 0.94310803217694239 1 0.95264732470775226 1 0.96139762004130869 1 0.9693239299921127 1 0.97639450870719968 1 0.98258098938570138 1 0.98785851012482073 1 0.99220582755760611 1 0.99560541676974201 1 0.99804355590386162 1 0.99951039390120588 1 1 4
1 3.7885977367800145 0.32202236437995874 -4.7434164902525691 0.087155742747658166 0.99619469809174555 0 
7 0 0  1 2 2  3.7885977367800145 0.32202236437995874 -4.7434164902525691  2.1081851067789197 -0.0022135943621177973 0 
 0 2 1 2
7 0 0  3 103 101  2.1081851067789197 0.0022135943621177973 0  2.1074918452681235 0.0022946231766758315 0  2.1047214710686011 0.0026184261583654905 0  2.09849625381946 0.0033440201103970171 0  2.0881555183981879 0.0045436201924979637 0  2.0737236851403988 0.0062056924602673794 0  2.0552792582355908 0.0083097072703077739 0  2.0328744529836791 0.01083560285237585 0  2.0066126110364535 0.013755405462926269 0  1.9765888701534609 0.017040654861650295 0  1.9429254912175822 0.020658845896395092 0  1.9057539916181385 0.024576030192532072 0  1.8652214176698487 0.02875653711476487 0  1.8214876594301899 0.033163646652978579 0  1.7747253267997274 0.037759849706513318 0  1.7251189756205108 0.042507059664678035 0  1.6728643898135198 0.04736669169705824 0  1.618167806124065 0.052299632100423432 0  1.5612450983371826 0.057266114589492378 0  1.5023209232546972 0.062225530726281439 0  1.4416278319422882 0.067136208354245094 0  1.3794053498621901 0.071955196387235187 0  1.3158990296405197 0.076638096086926344 0  1.2513594803374939 0.081138977844281451 0  1.1860413771878127 0.085410418445625719 0  1.1202024558487869 0.089403687031755885 0  1.0541024952269162 0.093069098815525206 0  0.98800229294237008 0.096356544641887781 0  0.92216263743144622 0.099216192321253741 0  0.85684328057981252 0.10159934310310439 0  0.79230191462855692 0.10345941449051838 0  0.7287931569077345 0.10475300963363539 0  0.66656754573443944 0.10544102453534378 0  0.60587055056458616 0.10548973791150081 0  0.54694159919557839 0.10487182528826797 0  0.49001312443982253 0.1035672391379306 0  0.43530963213817764 0.10156390070738211 0  0.38304679148587811 0.098858156632490604 0  0.33343054707748987 0.095454964200743078 0  0.28665624923126015 0.091367782749229742 0  0.24290779382763511 0.086618164429208139 0  0.20235675267164346 0.08123505385222704 0  0.16516145712953206 0.075253822887382082 0  0.13146594392709424 0.068715067067489963 0  0.10139865417290019 0.061663172844899604 0  0.075070384270914225 0.054144659611694082 0  0.052571063978815551 0.046205197533209313 0  0.033964197610876011 0.037885896834351118 0  0.019274782939217618 0.02920424559534629 0  0.0084943626589682776 0.020124555424166701 0  0.0016353678786487128 0.010430172033178539 0  -0.00076458684889961492 2.8571235909641125e-17 0  0.0016353678786488212 -0.010430172033178741 0  0.0084943626589679307 -0.020124555424166295 0  0.019274782939217749 -0.029204245595346436 0  0.033964197610875879 -0.037885896834351007 0  0.052571063978815356 -0.046205197533209265 0  0.075070384270914198 -0.054144659611694068 0  0.10139865417290002 -0.061663172844899555 0  0.13146594392709404 -0.068715067067489921 0  0.16516145712953187 -0.075253822887382055 0  0.20235675267164335 -0.08123505385222704 0  0.2429077938276345 -0.086618164429208042 0  0.28665624923125965 -0.091367782749229687 0  0.33343054707749015 -0.095454964200743134 0  0.38304679148587839 -0.098858156632490604 0  0.4353096321381773 -0.10156390070738212 0  0.49001312443982309 -0.10356723913793058 0  0.54694159919557883 -0.10487182528826802 0  0.60587055056458594 -0.10548973791150074 0  0.6665675457344401 -0.10544102453534383 0  0.72879315690773405 -0.10475300963363542 0  0.79230191462855681 -0.10345941449051831 0  0.85684328057981274 -0.10159934310310445 0  0.92216263743144633 -0.099216192321253671 0  0.98800229294236974 -0.096356544641887795 0  1.0541024952269158 -0.093069098815525192 0  1.1202024558487864 -0.089403687031755927 0  1.1860413771878116 -0.08541041844562576 0  1.2513594803374941 -0.081138977844281368 0  1.3158990296405193 -0.076638096086926413 0  1.3794053498621899 -0.071955196387235076 0  1.4416278319422873 -0.06713620835424533 0  1.5023209232546972 -0.062225530726281369 0  1.5612450983371822 -0.057266114589492462 0  1.6181678061240647 -0.052299632100423384 0  1.6728643898135203 -0.04736669169705824 0  1.725118975620511 -0.042507059664678132 0  1.7747253267997258 -0.037759849706513353 0  1.8214876594301896 -0.033163646652978579 0  1.8652214176698485 -0.028756537114764943 0  1.9057539916181385 -0.024576030192532027 0  1.9429254912175811 -0.02065884589639521 0  1.9765888701534609 -0.017040654861650319 0  2.0066126110364531 -0.013755405462926241 0  2.0328744529836791 -0.010835602852375871 0  2.0552792582355903 -0.0083097072703077948 0  2.0737236851403984 -0.0062056924602673655 0  2.0881555183981879 -0.0045436201924979212 0  2.0984962538194591 -0.0033440201103971134 0  2.1047214710686011 -0.0026184261583654875 0  2.1074918452681235 -0.0022946231766758298 0  2.1081851067789197 -0.0022135943621177973 0 
 0 4 0.00048960609879410925 1 0.0019564440961383359 1 0.0043945832302579391 1 0.0077941724423938189 1 0.012141489875179282 1 0.017419010614298645 1 0.023605491292800276 1 0.030676070007887236 1 0.038602379958691424 1 0.047352675292247882 1 0.056891967823057818 1 0.067182173540385928 1 0.078182268104302358 1 0.089848450825007628 1 0.10213431689330502 1 0.11499103786293575 1 0.12836755056441085 1 0.1422107547470611 1 0.15646571979672294 1 0.17107590085733027 1 0.1859833645917526 1 0.20112902464596447 1 0.21645288662738066 1 0.23189430207316925 1 0.2473922304755875 1 0.26288550796859089 1 0.27831312079740517 1 0.2936144812400559 1 0.30872970329028249 1 0.32359987521742395 1 0.33816732616647099 1 0.35237588432276329 1 0.36617112490477594 1 0.37950060742111891 1 0.39231410329208138 1 0.40456381717698725 1 0.41620460833123496 1 0.42719422238539612 1 0.43749354980517163 1 0.4470669364047129 1 0.45588258659385322 1 0.46391312763813991 1 0.47113645612459204 1 0.47753709509836939 1 0.48310851973796382 1 0.48785742476218469 1 0.49181209916514396 1 0.49503969814924736 1 0.49768087869968081 1 0.49999999999999989 1 0.50231912130031897 1 0.50496030185075247 1 0.50818790083485588 1 0.51214257523781503 1 0.51689148026203591 1 0.52246290490163028 1 0.52886354387540757 1 0.53608687236185981 1 0.54411741340614639 1 0.55293306359528671 1 0.56250645019482814 1 0.57280577761460361 1 0.58379539166876482 1 0.59543618282301258 1 0.6076858967079185 1 0.62049939257888109 1 0.63382887509522401 1 0.64762411567723677 1 0.66183267383352884 1 0.67640012478257594 1 0.69127029670971762 1 0.70638551875994404 1 0.72168687920259467 1 0.73711449203140911 1 0.75260776952441244 1 0.76810569792683059 1 0.78354711337261929 1 0.7988709753540354 1 0.81401663540824742 1 0.82892409914266962 1 0.84353428020327692 1 0.85778924525293865 1 0.87163244943558926 1 0.88500896213706437 1 0.8978656831066949 1 0.9101515491749923 1 0.92181773189569749 1 0.93281782645961409 1 0.94310803217694239 1 0.95264732470775226 1 0.96139762004130869 1 0.9693239299921127 1 0.97639450870719968 1 0.98258098938570138 1 0.98785851012482073 1 0.99220582755760611 1 0.99560541676974201 1 0.99804355590386162 1 0.99951039390120588 1 1 4
1 2.1081851067789197 -0.0022135943621177973 0 0 1 0 
Polygon3D 0
PolygonOnTriangulations 0
Surfaces 11
1 -31.622776601683796 -31.622776601683796 -31.622776601683796 1 0 -0 0 0 1 0 -1 0 
1 -31.622776601683796 -31.622776601683796 -31.622776601683796 -0 1 0 0 0 1 1 0 -0 
1 -31.622776601683796 -31.622776601683796 31.622776601683796 0 0 1 1 0 -0 -0 1 0 
1 -31.622776601683796 31.622776601683796 -31.622776601683796 -0 1 0 0 0 1 1 0 -0 
1 -31.622776601683796 -31.622776601683796 -31.622776601683796 0 0 1 1 0 -0 -0 1 0 
1 31.622776601683796 -31.622776601683796 -31.622776601683796 1 0 -0 0 0 1 0 -1 0 
9 0 0 0 0 3 1 53 2 51 2 3.7887906642407869 0.32422753534722626 -4.7434164902525691  2.1081851067789197 0.0022135943621177973 0  
3.7884488835833223 0.32429810644589985 -4.7434164902525691  2.1074918452681235 0.0022946231766758315 0  
3.7870830781833615 0.3245801188632168 -4.7434164902525691  2.1047214710686011 0.0026184261583654905 0  
3.7840139338142409 0.32521281700376464 -4.7434164902525691  2.09849625381946 0.0033440201103970171 0  
3.7789155169317983 0.32626096186267334 -4.7434164902525691  2.0881555183981879 0.0045436201924979637 0  
3.7717994886157205 0.32771774422656841 -4.7434164902525691  2.0737236851403988 0.0062056924602673794 0  
3.762704056956526 0.32956951728902451 -4.7434164902525691  2.0552792582355908 0.0083097072703077739 0  
3.7516543560074389 0.33180401290384276 -4.7434164902525691  2.0328744529836791 0.01083560285237585 0  
3.7387006409350634 0.33440279401431122 -4.7434164902525691  2.0066126110364535 0.013755405462926269 0  
3.723889059368533 0.33734753874913043 -4.7434164902525691  1.9765888701534609 0.017040654861650295 0  
3.7072790926241632 0.34061672850915453 -4.7434164902525691  1.9429254912175822 0.020658845896395092 0  
3.6889347697670254 0.34418772245110135 -4.7434164902525691  1.9057539916181385 0.024576030192532072 0  
3.6689277797263107 0.34803634516070225 -4.7434164902525691  1.8652214176698487 0.02875653711476487 0  
3.6473361631359102 0.35213733882990328 -4.7434164902525691  1.8214876594301899 0.033163646652978579 0  
3.6242442619629505 0.35646449830305599 -4.7434164902525691  1.7747253267997274 0.037759849706513318 0  
3.5997423432496856 0.36099081018959489 -4.7434164902525691  1.7251189756205108 0.042507059664678035 0  
3.5739262450033644 0.36568852364125165 -4.7434164902525691  1.6728643898135198 0.04736669169705824 0  
3.5468969887081743 0.37052916886777604 -4.7434164902525691  1.618167806124065 0.052299632100423432 0  
3.5187603675941039 0.37548353106785087 -4.7434164902525691  1.5612450983371826 0.057266114589492378 0  
3.4896265129893016 0.38052159322095436 -4.7434164902525691  1.5023209232546972 0.062225530726281439 0  
3.4596094419792212 0.38561246445595415 -4.7434164902525691  1.4416278319422882 0.067136208354245094 0  
3.4288265898447237 0.3907243129409172 -4.7434164902525691  1.3794053498621901 0.071955196387235187 0  
3.3973983308954212 0.39582432312122623 -4.7434164902525691  1.3158990296405197 0.076638096086926344 0  
3.3654474913252592 0.4008786965709859 -4.7434164902525691  1.2513594803374939 0.081138977844281451 0  
3.3330988575908043 0.40585271370856169 -4.7434164902525691  1.1860413771878127 0.085410418445625719 0  
3.3004786835526034 0.41071087025084502 -4.7434164902525691  1.1202024558487869 0.089403687031755885 0  
3.2677141992380587 0.41541709772529706 -4.7434164902525691  1.0541024952269162 0.093069098815525206 0  
3.2349331236000998 0.4199350718894802 -4.7434164902525691  0.98800229294237008 0.096356544641887781 0  
3.2022631830867612 0.42422860685692981 -4.7434164902525691  0.92216263743144622 0.099216192321253741 0  
3.1698316372358168 0.42826212647484796 -4.7434164902525691  0.85684328057981252 0.10159934310310439 0  
3.1377648119033639 0.43200119844566998 -4.7434164902525691  0.79230191462855692 0.10345941449051838 0  
3.1061876401641819 0.43541311123226489 -4.7434164902525691  0.7287931569077345 0.10475300963363539 0  
3.0752232104208943 0.43846746931077762 -4.7434164902525691  0.66656754573443944 0.10544102453534378 0  
3.0449923208569807 0.44113677916259431 -4.7434164902525691  0.60587055056458616 0.10548973791150081 0  
3.0156130390812095 0.44339699678597333 -4.7434164902525691  0.54694159919557839 0.10487182528826797 0  
2.987200265632687 0.44522800763330289 -4.7434164902525691  0.49001312443982253 0.1035672391379306 0  
2.9598652999092416 0.44661401182302529 -4.7434164902525691  0.43530963213817764 0.10156390070738211 0  
2.9337154069594584 0.44754379121970211 -4.7434164902525691  0.38304679148587811 0.098858156632490604 0  
2.908853383267977 0.4480108404080369 -4.7434164902525691  0.33343054707748987 0.095454964200743078 0  
2.8853771188397124 0.44801335049711283 -4.7434164902525691  0.28665624923126015 0.091367782749229742 0  
2.8633791509220901 0.44755404276531324 -4.7434164902525691  0.24290779382763511 0.086618164429208139 0  
2.842946200320926 0.44663985771286879 -4.7434164902525691  0.20235675267164346 0.08123505385222704 0  
2.8241586729007793 0.4452815142300941 -4.7434164902525691  0.16516145712953206 0.075253822887382082 0  
2.8070900820398408 0.4434929560303586 -4.7434164902525691  0.13146594392709424 0.068715067067489963 0  
2.7918063381809084 0.44129069469780235 -4.7434164902525691  0.10139865417290019 0.061663172844899604 0  
2.778364655935166 0.43869307314686057 -4.7434164902525691  0.075070384270914225 0.054144659611694082 0  
2.7668118192851043 0.43571892061840473 -4.7434164902525691  0.052571063978815551 0.046205197533209313 0  
2.7571812510574074 0.43238594662364005 -4.7434164902525691  0.033964197610876011 0.037885896834351118 0  
2.7494861646694133 0.42870177257926928 -4.7434164902525691  0.019274782939217618 0.02920424559534629 0  
2.7437207923358269 0.42464899074317541 -4.7434164902525691  0.0084943626589682776 0.020124555424166701 0  
2.7398818846261692 0.42011914446778037 -4.7434164902525691  0.0016353678786487128 0.010430172033178539 0  
2.738757595057113 0.41665029941557347 -4.7434164902525691  4.7970250577778623e-09 0.003322905349248896 0  
2.7386127899152157 0.41499516906998296 -4.7434164902525691  4.7970249073448108e-09 1.4315805485498601e-15 0  

0 4
0.00048960609879410925 1
0.0019564440961383359 1
0.0043945832302579391 1
0.0077941724423938189 1
0.012141489875179282 1
0.017419010614298645 1
0.023605491292800276 1
0.030676070007887236 1
0.038602379958691424 1
0.047352675292247882 1
0.056891967823057818 1
0.067182173540385928 1
0.078182268104302358 1
0.089848450825007628 1
0.10213431689330502 1
0.11499103786293575 1
0.12836755056441085 1
0.1422107547470611 1
0.15646571979672294 1
0.17107590085733027 1
0.1859833645917526 1
0.20112902464596447 1
0.21645288662738066 1
0.23189430207316925 1
0.2473922304755875 1
0.26288550796859089 1
0.27831312079740517 1
0.2936144812400559 1
0.30872970329028249 1
0.32359987521742395 1
0.33816732616647099 1
0.35237588432276329 1
0.36617112490477594 1
0.37950060742111891 1
0.39231410329208138 1
0.40456381717698725 1
0.41620460833123496 1
0.42719422238539612 1
0.43749354980517163 1
0.4470669364047129 1
0.45588258659385322 1
0.46391312763813991 1
0.47113645612459204 1
0.47753709509836939 1
0.48310851973796382 1
0.48785742476218469 1
0.49181209916514396 1
0.49503969814924736 1
0.49768087869968081 1
0.49999999999999989 4

0 2
1 2

9 0 0 0 0 3 1 53 2 51 2 2.7386127899152157 0.41499516906998296 -4.7434164902525691  4.7970249073448108e-09 1.4315805485498601e-15 0  
2.7384679847733189 0.41334003872439173 -4.7434164902525691  4.7970247569117594e-09 -0.003322905349247464 0  
2.7389728352356317 0.40972866238814304 -4.7434164902525691  0.0016353678786488212 -0.010430172033178741 0  
2.741966821760367 0.40460101532816728 -4.7434164902525691  0.0084943626589679307 -0.020124555424166295 0  
2.7469408469531658 0.39960865795541606 -4.7434164902525691  0.019274782939217749 -0.029204245595346436 0  
2.7538792775791485 0.39464421706480868 -4.7434164902525691  0.033964197610875879 -0.037885896834351007 0  
2.7627847709752951 0.3896895478115398 -4.7434164902525691  0.052571063978815356 -0.046205197533209265 0  
2.7736456379108896 0.38475445031170863 -4.7434164902525691  0.075070384270914198 -0.054144659611694068 0  
2.7864320385514341 0.37986216884219848 -4.7434164902525691  0.10139865417290002 -0.061663172844899555 0  
2.8011011693316186 0.3750393705387064 -4.7434164902525691  0.13146594392709404 -0.068715067067489921 0  
2.8175998700724287 0.37031405485854885 -4.7434164902525691  0.16516145712953187 -0.075253822887382055 0  
2.8358660988652891 0.3657139277660828 -4.7434164902525691  0.20235675267164335 -0.08123505385222704 0  
2.8558298804658238 0.36126548660249713 -4.7434164902525691  0.2429077938276345 -0.086618164429208042 0  
2.8774138918709959 0.35699324974593177 -4.7434164902525691  0.28665624923125965 -0.091367782749229687 0  
2.9005339349641099 0.35291911116471925 -4.7434164902525691  0.33343054707749015 -0.095454964200743134 0  
2.9250993508914891 0.34906181971929162 -4.7434164902525691  0.38304679148587839 -0.098858156632490604 0  
2.9510134227067399 0.34543659242081481 -4.7434164902525691  0.4353096321381773 -0.10156390070738212 0  
2.9781737859812965 0.34205487310809651 -4.7434164902525691  0.49001312443982309 -0.10356723913793058 0  
3.006472857254908 0.3389242404545969 -4.7434164902525691  0.54694159919557883 -0.10487182528826802 0  
3.0357982843970479 0.33604846155206947 -4.7434164902525691  0.60587055056458594 -0.10548973791150074 0  
3.0660334196114429 0.33342767970730647 -4.7434164902525691  0.6665675457344401 -0.10544102453534383 0  
3.0970578138045095 0.33105871842608375 -4.7434164902525691  0.72879315690773405 -0.10475300963363542 0  
3.1287477297892048 0.32893547826253933 -4.7434164902525691  0.79230191462855681 -0.10345941449051831 0  
3.1609766710249918 0.32704939954593115 -4.7434164902525691  0.85684328057981274 -0.10159934310310445 0  
3.1936159221524076 0.32538996210164595 -4.7434164902525691  0.92216263743144633 -0.099216192321253671 0  
3.2265350973832381 0.323945192990791 -4.7434164902525691  0.98800229294236974 -0.096356544641887795 0  
3.2596026928039361 0.32270215492909415 -4.7434164902525691  1.0541024952269158 -0.093069098815525192 0  
3.2926866388049714 0.32164739123995606 -4.7434164902525691  1.1202024558487864 -0.089403687031755927 0  
3.3256548491327873 0.32076730769123196 -4.7434164902525691  1.1860413771878116 -0.08541041844562576 0  
3.3583757634454554 0.32004847703392914 -4.7434164902525691  1.2513594803374941 -0.081138977844281368 0  
3.3907188807081985 0.31947785812758445 -4.7434164902525691  1.3158990296405193 -0.076638096086926413 0  
3.4225552812590405 0.31904292779980326 -4.7434164902525691  1.3794053498621899 -0.071955196387235076 0  
3.4537581358748453 0.31873172964347235 -4.7434164902525691  1.4416278319422873 -0.06713620835424533 0  
3.4842032006409851 0.31853284942548782 -4.7434164902525691  1.5023209232546972 -0.062225530726281369 0  
3.5137692968427841 0.31843533133348417 -4.7434164902525691  1.5612450983371822 -0.057266114589492462 0  
3.5423387754270323 0.31842855265718539 -4.7434164902525691  1.6181678061240647 -0.052299632100423384 0  
3.5697979658070085 0.31850207650649587 -4.7434164902525691  1.6728643898135203 -0.04736669169705824 0  
3.5960376088925918 0.31864550272017306 -4.7434164902525691  1.725118975620511 -0.042507059664678132 0  
3.6209532742157386 0.31884833622468628 -4.7434164902525691  1.7747253267997258 -0.037759849706513353 0  
3.6444457608796492 0.31909988986481796 -4.7434164902525691  1.8214876594301896 -0.033163646652978579 0  
3.666421482375223 0.31938923535149494 -4.7434164902525691  1.8652214176698485 -0.028756537114764943 0  
3.6867928276018063 0.31970521147315828 -4.7434164902525691  1.9057539916181385 -0.024576030192532027 0  
3.7054785555657528 0.32003649575847132 -4.7434164902525691  1.9429254912175811 -0.02065884589639521 0  
3.7224038684371594 0.32037172872394304 -4.7434164902525691  1.9765888701534609 -0.017040654861650319 0  
3.7375017783551465 0.32069973202204183 -4.7434164902525691  2.0066126110364531 -0.013755405462926241 0  
3.7507099709927214 0.32100964279167815 -4.7434164902525691  2.0328744529836791 -0.010835602852375871 0  
3.761979818247366 0.32129143096364948 -4.7434164902525691  2.0552792582355903 -0.0083097072703077948 0  
3.7712586268800825 0.32153566629966213 -4.7434164902525691  2.0737236851403984 -0.0062056924602673655 0  
3.7785195143391581 0.32173463151676429 -4.7434164902525691  2.0881555183981879 -0.0045436201924979212 0  
3.7837224832577556 0.32188152189947494 -4.7434164902525691  2.0984962538194591 -0.0033440201103971134 0  
3.7868548673066993 0.32197165660690835 -4.7434164902525691  2.1047214710686011 -0.0026184261583654875 0  
3.788248893996033 0.322012215003177 -4.7434164902525691  2.1074918452681235 -0.0022946231766758298 0  
3.7885977367800145 0.32202236437995874 -4.7434164902525691  2.1081851067789197 -0.0022135943621177973 0  

0.49999999999999989 4
0.50231912130031897 1
0.50496030185075247 1
0.50818790083485588 1
0.51214257523781503 1
0.51689148026203591 1
0.52246290490163028 1
0.52886354387540757 1
0.53608687236185981 1
0.54411741340614639 1
0.55293306359528671 1
0.56250645019482814 1
0.57280577761460361 1
0.58379539166876482 1
0.59543618282301258 1
0.6076858967079185 1
0.62049939257888109 1
0.63382887509522401 1
0.64762411567723677 1
0.66183267383352884 1
0.67640012478257594 1
0.69127029670971762 1
0.70638551875994404 1
0.72168687920259467 1
0.73711449203140911 1
0.75260776952441244 1
0.76810569792683059 1
0.78354711337261929 1
0.7988709753540354 1
0.81401663540824742 1
0.82892409914266962 1
0.84353428020327692 1
0.85778924525293865 1
0.87163244943558926 1
0.88500896213706437 1
0.8978656831066949 1
0.9101515491749923 1
0.92181773189569749 1
0.93281782645961409 1
0.94310803217694239 1
0.95264732470775226 1
0.96139762004130869 1
0.9693239299921127 1
0.97639450870719968 1
0.98258098938570138 1
0.98785851012482073 1
0.99220582755760611 1
0.99560541676974201 1
0.99804355590386162 1
0.99951039390120588 1
1 4

0 2
1 2

9 0 0 0 0 1 1 2 2 2 2 3.7885977367800145 0.32202236437995874 -4.7434164902525691  2.1081851067789197 -0.0022135943621177973 0  
3.7887906642407869 0.32422753534722626 -4.7434164902525691  2.1081851067789197 0.0022135943621177973 0  

0 2
0.0044271887242355945 2

0 2
1 2

1 3.7887906642407869 0.32422753534722626 -4.7434164902525691 1.6131565520216209e-16 1.1651604302102808e-14 1 -0.99628566241951622 0.086109690844328596 -8.4259956989279736e-16 -0.086109690844328596 -0.99628566241951622 1.1622217151568388e-14 
1 2.1081851067789197 0.0022135943621177973 0 0 0 1 -0.99999944875045332 -0.0010499994235761236 0 0.0010499994235761236 -0.99999944875045332 0 
Triangulations 0

TShapes 60
Ve
1e-07
-31.6227766016838 -31.6227766016838 31.6227766016838
0 0

0101101
*
Ve
1e-07
-31.6227766016838 -31.6227766016838 -31.6227766016838
0 0

0101101
*
Ed
 1e-07 1 1 0
1  1 0 0 63.2455532033676
0

0101000
-60 0 +59 0 *
Ve
1e-07
-31.6227766016838 31.6227766016838 31.6227766016838
0 0

0101101
*
Ed
 1e-07 1 1 0
1  2 0 0 63.2455532033676
0

0101000
-57 0 +60 0 *
Ve
1e-07
-31.6227766016838 31.6227766016838 -31.6227766016838
0 0

0101101
*
Ed
 1e-07 1 1 0
1  3 0 0 63.2455532033676
0

0101000
-57 0 +55 0 *
Ed
 1e-07 1 1 0
1  4 0 0 63.2455532033676
0

0101000
-55 0 +59 0 *
Wi

0101100
-58 0 -56 0 +54 0 +53 0 *
Fa
0  1e-07 1 0

0111000
+52 0 *
Ve
1e-07
31.6227766016838 -31.6227766016838 -31.6227766016838
0 0

0101101
*
Ed
 1e-07 1 1 0
1  5 0 0 63.2455532033676
0

0101000
-50 0 +59 0 *
Ve
1e-07
31.6227766016838 -31.6227766016838 31.6227766016838
0 0

0101101
*
Ed
 1e-07 1 1 0
1  6 0 0 63.2455532033676
0

0101000
-48 0 +50 0 *
Ed
 1e-07 1 1 0
1  7 0 0 63.2455532033676
0

0101000
-48 0 +60 0 *
Wi

0101100
-49 0 -47 0 +46 0 +58 0 *
Fa
0  1e-07 2 0

0111000
+45 0 *
Ve
1e-07
31.6227766016838 31.6227766016838 31.6227766016838
0 0

0101101
*
Ed
 1e-07 1 1 0
1  8 0 0 63.2455532033676
0

0101000
-43 0 +57 0 *
Ed
 1e-07 1 1 0
1  9 0 0 63.2455532033676
0

0101000
-43 0 +48 0 *
Wi

0101100
-56 0 -42 0 +41 0 +46 0 *
Fa
0  1e-07 3 0

0111000
+40 0 *
Ve
1e-07
31.6227766016838 31.6227766016838 -31.6227766016838
0 0

0101101
*
Ed
 1e-07 1 1 0
1  10 0 0 63.2455532033676
0

0101000
-38 0 +55 0 *
Ed
 1e-07 1 1 0
1  11 0 0 63.2455532033676
0

0101000
-43 0 +38 0 *
Wi

0101100
-37 0 -36 0 +42 0 +54 0 *
Fa
0  1e-07 4 0

0111000
+35 0 *
Ed
 1e-07 1 1 0
1  12 0 0 63.2455532033676
0

0101000
-38 0 +50 0 *
Wi

0101100
-53 0 -37 0 +33 0 +49 0 *
Fa
0  1e-07 5 0

0111000
+32 0 *
Wi

0101100
-47 0 -41 0 +36 0 +33 0 *
Fa
0  1e-07 6 0

0111000
+30 0 *
Sh

0101100
-51 0 -44 0 +39 0 +34 0 -31 0 +29 0 *
Ve
1.05409255338946e-07
3.78879066424079 0.324227535347226 -4.74341649025257
0 0

0101101
*
Ve
1.05409255338946e-07
2.73861278752583 0.414995169279026 -4.74341649025257
0 0

0101101
*
Ed
 1e-07 1 1 0
1  13 0 0 0.499999999999999
2  1 7 0 0 0.499999999999999
0

0101000
+27 0 -26 0 *
Ve
2.10818510677892e-07
0 0 0
0 0

0101101
*
Ed
 1e-07 1 1 0
1  14 0 0 1
2  2 7 0 0 1
2  3 8 0 0 1
4 C2 7 0 8 0
0

0101000
+26 0 -24 0 *
Ve
2.10818510677892e-07
2.10818510677892 0.0022135943621178 0
0 0

0101101
*
Ed
 1e-07 1 1 0
1  15 0 0 0.499999999999999
2  4 7 0 0 0.499999999999999
0

0101000
+22 0 -24 0 *
Ed
 1e-07 1 1 0
1  16 0 0 1
2  5 7 0 0 1
2  6 9 0 0 1
0

0101000
+27 0 -22 0 *
Wi

0101000
+25 0 +23 0 -21 0 -20 0 *
Fa
0  1e-07 7 0

0111000
+19 0 *
Ve
1.05409255338946e-07
3.78859773678001 0.322022364379959 -4.74341649025257
0 0

0101101
*
Ed
 1e-07 1 1 0
1  17 0 0.499999999999999 1
2  7 8 0 0.499999999999999 1
0

0101000
+26 0 -17 0 *
Ed
 1e-07 1 1 0
1  18 0 0 0.0022135943621178
2  8 9 0 0 0.0022135943621178
0

0101000
+17 0 -27 0 *
Wi

0101100
+25 0 +16 0 +15 0 *
Fa
0  1e-07 10 0

0111000
+14 0 *
Ve
2.10818510677892e-07
2.10818510677892 -0.0022135943621178 0
0 0

0101101
*
Ed
 1e-07 1 1 0
1  19 0 0 1
2  9 8 0 0 1
2  10 9 0 0 1
0

0101000
+17 0 -12 0 *
Ed
 1e-07 1 1 0
1  20 0 0.499999999999999 1
2  11 8 0 0.499999999999999 1
0

0101000
+24 0 -12 0 *
Wi

0101000
+16 0 +11 0 -10 0 -23 0 *
Fa
0  1e-07 8 0

0111000
+9 0 *
Ed
 1e-07 1 1 0
1  21 0 0 0.00442718872423559
2  12 9 0 0 0.00442718872423559
0

0101000
+12 0 -22 0 *
Wi

0101100
+21 0 +10 0 +7 0 *
Fa
0  1e-07 11 0

0111000
+6 0 *
Wi

0101000
+15 0 +20 0 -7 0 -11 0 *
Fa
0  1e-07 9 0

0111000
+4 0 *
Sh

0101100
-18 0 +13 0 -8 0 -5 0 -3 0 *
So

1100000
+28 0 +2 0 *

+1 0 
##EGADS HEADER FILE-REV 1 ##
0
  1  2  11  11  21  14  4
1 5 1
_body
11
1 5 1
_brch
61
3 7 42
capsAIM
#egadsTessAIM;tacsAIM;pointwiseAIM;fun3dAIM
2 14 1
capsMeshLength
 1.000000000000e+00
    2 0 7
1 5 2
_body
8 1 
1 5 4
_brch
59 8 52 1 
1 5 2
_hist
8 11 
1 9 4
__trace__
8 1 11 1 
3 9 8
capsGroup
#Farfield
3 8 8
capsMesh
#Farfield
1 7 3
_faceID
8 1 1 
    2 1 7
1 5 2
_body
8 3 
1 5 4
_brch
59 8 52 1 
1 5 2
_hist
8 11 
1 9 4
__trace__
8 3 11 2 
3 9 8
capsGroup
#Farfield
3 8 8
capsMesh
#Farfield
1 7 3
_faceID
8 3 1 
    2 2 7
1 5 2
_body
8 6 
1 5 4
_brch
59 8 52 1 
1 5 2
_hist
8 11 
1 9 4
__trace__
8 6 11 3 
3 9 8
capsGroup
#Farfield
3 8 8
capsMesh
#Farfield
1 7 3
_faceID
8 6 1 
    2 3 7
1 5 2
_body
8 4 
1 5 4
_brch
59 8 52 1 
1 5 2
_hist
8 11 
1 9 4
__trace__
8 4 11 4 
3 9 8
capsGroup
#Farfield
3 8 8
capsMesh
#Farfield
1 7 3
_faceID
8 4 1 
    2 4 7
1 5 2
_body
8 5 
1 5 4
_brch
59 8 52 1 
1 5 2
_hist
8 11 
1 9 4
__trace__
8 5 11 5 
3 9 8
capsGroup
#Farfield
3 8 8
capsMesh
#Farfield
1 7 3
_faceID
8 5 1 
    2 5 7
1 5 2
_body
8 2 
1 5 4
_brch
59 8 52 1 
1 5 2
_hist
8 11 
1 9 4
__trace__
8 2 11 6 
3 9 8
capsGroup
#Farfield
3 8 8
capsMesh
#Farfield
1 7 3
_faceID
8 2 1 
    2 6 9
1 5 2
_body
7 3 
1 5 4
_brch
60 7 52 1 
2 3 1
OML
 0.000000000000e+00
1 5 2
_hist
7 11 
1 9 4
__trace__
7 1 11 7 
3 9 3
capsGroup
#OML
3 8 3
capsMesh
#OML
1 7 3
_faceID
7 3 1 
1 11 1
__trimmed__
1
    2 7 9
1 5 2
_body
7 1 
1 5 4
_brch
60 7 52 1 
2 3 1
OML
 0.000000000000e+00
1 5 2
_hist
7 11 
1 9 4
__trace__
7 4 11 8 
3 9 3
capsGroup
#OML
3 8 3
capsMesh
#OML
1 7 3
_faceID
7 1 1 
1 11 1
__trimmed__
1
    2 8 10
1 5 2
_body
7 4 
1 5 4
_brch
60 7 52 1 
2 3 1
OML
 0.000000000000e+00
1 5 2
_hist
7 11 
1 9 4
__trace__
7 2 11 9 
3 9 3
capsGroup
#OML
3 8 3
capsMesh
#OML
1 7 3
_faceID
7 4 1 
1 11 1
__trimmed__
1
3 8 10
capsLoad
#bottomWing
    2 9 10
1 5 2
_body
7 2 
1 5 4
_brch
60 7 52 1 
2 3 1
OML
 0.000000000000e+00
1 5 2
_hist
7 11 
1 9 4
__trace__
7 5 11 10 
3 9 3
capsGroup
#OML
3 8 3
capsMesh
#OML
1 7 3
_faceID
7 2 1 
1 11 1
__trimmed__
1
3 14 8
capsConstraint
#wingRoot
    2 10 9
1 5 2
_body
7 5 
1 5 4
_brch
60 7 52 1 
2 3 1
OML
 0.000000000000e+00
1 5 2
_hist
7 11 
1 9 4
__trace__
7 3 11 11 
3 9 3
capsGroup
#OML
3 8 3
capsMesh
#OML
1 7 3
_faceID
7 5 1 
1 11 1
__trimmed__
1
    4 0 4
1 9 4
__trace__
8 1 11 1 
1 5 2
_body
8 10003 
1 7 5
_edgeID
8 1 8 3 1 
1 6 1
_nface
2
    4 1 4
1 9 4
__trace__
8 2 11 2 
1 5 2
_body
8 10006 
1 7 5
_edgeID
8 1 8 6 1 
1 6 1
_nface
2
    4 2 4
1 9 4
__trace__
8 3 11 3 
1 5 2
_body
8 40001 
1 7 5
_edgeID
8 1 8 4 1 
1 6 1
_nface
2
    4 3 4
1 9 4
__trace__
8 4 11 4 
1 5 2
_body
8 50001 
1 7 5
_edgeID
8 1 8 5 1 
1 6 1
_nface
2
    4 4 4
1 9 4
__trace__
8 9 11 5 
1 5 2
_body
8 30005 
1 7 5
_edgeID
8 3 8 5 1 
1 6 1
_nface
2
    4 5 4
1 9 4
__trace__
8 5 11 6 
1 5 2
_body
8 30002 
1 7 5
_edgeID
8 2 8 3 1 
1 6 1
_nface
2
    4 6 4
1 9 4
__trace__
8 10 11 7 
1 5 2
_body
8 60003 
1 7 5
_edgeID
8 3 8 6 1 
1 6 1
_nface
2
    4 7 4
1 9 4
__trace__
8 12 11 8 
1 5 2
_body
8 40006 
1 7 5
_edgeID
8 4 8 6 1 
1 6 1
_nface
2
    4 8 4
1 9 4
__trace__
8 6 11 9 
1 5 2
_body
8 60002 
1 7 5
_edgeID
8 2 8 6 1 
1 6 1
_nface
2
    4 9 4
1 9 4
__trace__
8 11 11 10 
1 5 2
_body
8 50004 
1 7 5
_edgeID
8 4 8 5 1 
1 6 1
_nface
2
    4 10 4
1 9 4
__trace__
8 7 11 11 
1 5 2
_body
8 20004 
1 7 5
_edgeID
8 2 8 4 1 
1 6 1
_nface
2
    4 11 4
1 9 4
__trace__
8 8 11 12 
1 5 2
_body
8 20005 
1 7 5
_edgeID
8 2 8 5 1 
1 6 1
_nface
2
    4 12 4
1 9 4
__trace__
7 1 11 13 
1 5 2
_body
7 10003 
1 7 5
_edgeID
7 1 7 3 1 
1 6 1
_nface
2
    4 13 4
1 9 4
__trace__
7 2 11 14 
1 5 2
_body
7 40003 
1 7 5
_edgeID
7 3 7 4 1 
1 6 1
_nface
2
    4 14 5
1 9 4
__trace__
7 3 11 15 
1 5 2
_body
7 30002 
1 7 5
_edgeID
7 2 7 3 1 
1 6 1
_nface
2
3 14 8
capsConstraint
#wingRoot
    4 15 4
1 9 4
__trace__
7 4 11 16 
1 5 2
_body
7 30005 
1 7 5
_edgeID
7 3 7 5 1 
1 6 1
_nface
2
    4 16 4
1 9 4
__trace__
7 5 11 17 
1 5 2
_body
7 10004 
1 7 5
_edgeID
7 1 7 4 1 
1 6 1
_nface
2
    4 17 4
1 9 4
__trace__
7 8 11 18 
1 5 2
_body
7 10005 
1 7 5
_edgeID
7 1 7 5 1 
1 6 1
_nface
2
    4 18 4
1 9 4
__trace__
7 6 11 19 
1 5 2
_body
7 50004 
1 7 5
_edgeID
7 4 7 5 1 
1 6 1
_nface
2
    4 19 5
1 9 4
__trace__
7 7 11 20 
1 5 2
_body
7 40002 
1 7 5
_edgeID
7 2 7 4 1 
1 6 1
_nface
2
3 14 8
capsConstraint
#wingRoot
    4 20 4
1 9 4
__trace__
7 9 11 21 
1 5 2
_body
7 50002 
1 7 5
_edgeID
7 2 7 5 1 
1 6 1
_nface
2
    5 0 3
1 9 4
__trace__
8 1 11 1 
1 7 1
_nodeID
1
1 6 1
_nedge
3
    5 1 3
1 9 4
__trace__
8 2 11 2 
1 7 1
_nodeID
2
1 6 1
_nedge
3
    5 2 3
1 9 4
__trace__
8 3 11 3 
1 7 1
_nodeID
3
1 6 1
_nedge
3
    5 3 3
1 9 4
__trace__
8 4 11 4 
1 7 1
_nodeID
4
1 6 1
_nedge
3
    5 4 3
1 9 4
__trace__
8 6 11 5 
1 7 1
_nodeID
5
1 6 1
_nedge
3
    5 5 3
1 9 4
__trace__
8 5 11 6 
1 7 1
_nodeID
6
1 6 1
_nedge
3
    5 6 3
1 9 4
__trace__
8 7 11 7 
1 7 1
_nodeID
7
1 6 1
_nedge
3
    5 7 3
1 9 4
__trace__
8 8 11 8 
1 7 1
_nodeID
8
1 6 1
_nedge
3
    5 8 3
1 9 12
__trace__
3 1 4 1 5 1 6 1 7 1 11 9 
1 7 1
_nodeID
9
1 6 1
_nedge
3
    5 9 3
1 9 12
__trace__
3 2 4 2 5 2 6 2 7 2 11 10 
1 7 1
_nodeID
10
1 6 1
_nedge
3
    5 10 4
1 9 8
__trace__
1 2 2 2 7 3 11 11 
1 7 1
_nodeID
11
1 6 1
_nedge
3
3 14 8
capsConstraint
#wingRoot
    5 11 4
1 9 8
__trace__
1 1 2 1 7 4 11 12 
1 7 1
_nodeID
12
1 6 1
_nedge
3
3 14 8
capsConstraint
#wingRoot
    5 12 3
1 9 12
__trace__
3 3 4 3 5 3 6 3 7 5 11 13 
1 7 1
_nodeID
13
1 6 1
_nedge
3
    5 13 3
1 9 8
__trace__
1 3 2 3 7 6 11 14 
1 7 1
_nodeID
14
1 6 1
_nedge
3
    0 0 0
