DBRep_DrawableShape

CASCADE Topology V1, (c) Matra-Datavision
Locations 0
Curve2ds 12
1 0 1 1 0 
1 0 1 1 0 
1 0 1 1 0 
1 0 0 1 0 
1 0.50741192251320455 0 0 1 
1 0.50741192251320455 0 0 1 
1 0 0 0 1 
1 0.0072295689129203136 0 0 1 
1 0 0 1 0 
1 1 0 0 1 
1 0 0 0 1 
7 0 0  1 2 2  0 0  0.0072295689129203136 0 
 0 2 0.0036147844564601568 2
Curves 21
1 -51.639777949432222 -51.639777949432222 -51.639777949432222 0 0 1 
1 -51.639777949432222 -51.639777949432222 0 -0 1 0 
1 -51.639777949432222 51.639777949432222 -51.639777949432222 0 0 1 
1 -51.639777949432222 -51.639777949432222 -51.639777949432222 -0 1 0 
1 -51.639777949432222 -51.639777949432222 -51.639777949432222 1 0 -0 
1 51.639777949432222 -51.639777949432222 -51.639777949432222 0 0 1 
1 -51.639777949432222 -51.639777949432222 0 1 0 -0 
1 -51.639777949432222 51.639777949432222 0 1 0 -0 
1 51.639777949432222 -51.639777949432222 0 -0 1 0 
7 0 0  3 103 101  3.4432461301994506 0.0035656014238151642 0  3.442135456254853 0.0038847616380434796 0  3.4376971274710471 0.0051601476569867449 0  3.4277219731512658 0.0080166922869029551 0  3.4111466745375245 0.012735236391197755 0  3.3880018503669871 0.019263747070842645 0  3.3584021330755816 0.027511897029603185 0  3.3224174376295492 0.037387737292731926 0  3.2801975915594523 0.04876446222658911 0  3.2318778004294568 0.061509336572931395 0  3.1776357926422678 0.075469580974604447 0  3.1176637818149215 0.090482704078069257 0  3.0521790642623774 0.10637577462965707 0  2.9814202480087895 0.12296875405178945 0  2.9056475400299662 0.1400765443797215 0  2.8251419465106178 0.15751118298630323 0  2.7402045147859191 0.17508383072193928 0  2.6511554384344742 0.19260659217050002 0  2.5583330580317787 0.20989416238050193 0  2.4620927677811073 0.22676531540342532 0  2.3628058383999551 0.24304426131034962 0  2.260858171094871 0.25856190766883463 0  2.1566489549018852 0.27315705975514598 0  2.0505893727050104 0.2866776379906873 0  1.9431008290255127 0.29898173545072287 0  1.834614278474954 0.30993956091348646 0  1.7255665173239771 0.31943190112289815 0  1.6164028209794432 0.3273626423433606 0  1.5075664752785154 0.33361810401545533 0  1.3990422616315847 0.33824482182898286 0  1.2911271195709448 0.34080792867942161 0  1.1842749324531188 0.3402432535822863 0  1.0794439306251957 0.33683797136078708 0  0.97723096084784955 0.33062249264727361 0  0.87810099663509888 0.32174791771509953 0  0.78250512485110058 0.31038077779460199 0  0.69087553831985682 0.29672640735224914 0  0.60362265155609618 0.28101903753746099 0  0.52113160453488938 0.2635189117780099 0  0.44375948153249722 0.24450699305178328 0  0.37183290189123841 0.22427945241950212 0  0.30564607176066722 0.20314164614434146 0  0.24545923749072246 0.18140178916388766 0  0.19149736887639202 0.15936442204413354 0  0.14394887265785419 0.1373237213208868 0  0.10296344500623901 0.1155566318054275 0  0.06864858874581832 0.094313623364752075 0  0.041063067383719766 0.073808770221395023 0  0.020202300114075162 0.054180337818860128 0  0.0060208996906724946 0.035444389220886066 0  -0.0014466167348042519 0.017280839988905481 0  -0.0012570092215728546 -0.00031487852822813679 0  0.0068419492065111423 -0.015909060092564254 0  0.021823965366158042 -0.028465442552037645 0  0.042823230308747615 -0.038536168204805377 0  0.069902116281675405 -0.046541700375729314 0  0.10305075726740259 -0.052622356590385194 0  0.14218703680345665 -0.056867806906063925 0  0.18716092247412963 -0.059364800968742727 0  0.23778595620894219 -0.060218125018111218 0  0.29384991115496106 -0.059550715618094038 0  0.35512203639533707 -0.05750374333959396 0  0.42135740764636204 -0.054235053079553376 0  0.49229977758094656 -0.049917607933552051 0  0.56768361581749893 -0.044737703598281033 0  0.64723548721787838 -0.038892938483410223 0  0.73067489170301902 -0.032589875320023935 0  0.81771462582322185 -0.026041424453712686 0  0.90806081107274683 -0.019463545778309575 0  1.0014122847036198 -0.013073295432313817 0  1.0974606808174034 -0.0070790539391933655 0  1.1958884076425382 -0.0017021316538717505 0  1.2964900289262662 0.002934073755907637 0  1.3993982822244835 0.0064135682309732767 0  1.5042133948918865 0.009593050174940148 0  1.6104171227920605 0.012717301432840014 0  1.7171439398518176 0.015583770965284989 0  1.8239857992882298 0.018140171617688966 0  1.9305358494607414 0.020314808321942653 0  2.0363822617134164 0.022060048465276826 0  2.141114036660833 0.023341643638588375 0  2.2443206438223458 0.024141700101136577 0  2.3455946471166325 0.024457549592327824 0  2.4445331667332955 0.024301024271611293 0  2.5407397609934241 0.023697148518495373 0  2.6338261788125092 0.022682542370966036 0  2.7234141185155258 0.021303579632529806 0  2.8091369522274983 0.019614394792261684 0  2.8906414190726113 0.017674825399323416 0  2.9675892861990545 0.015548371815407318 0  3.0396589805172831 0.013300246485129905 0  3.1065471690855802 0.010995573224618199 0  3.1679704782817035 0.0086977712365830309 0  3.223666185668606 0.0064672104490431275 0  3.2733971844890286 0.0043598841283141697 0  3.3169421597493178 0.0024270513029842314 0  3.354125744638432 0.00071309171654243564 0  3.3847605257352593 -0.00074205759353923248 0  3.4087459801994879 -0.0019080817018143361 0  3.4259404769170612 -0.0027582796624685615 0  3.436295101158227 -0.0032758050954616413 0  3.4409041064710602 -0.0035075923302324637 0  3.4420575963915123 -0.0035656014238151642 0 
 0 4 0.00049315832751912103 1 0.0019706002802099038 1 0.0044262388147369653 1 0.0078499687290972137 1 0.012227725493782166 1 0.017541565735953349 1 0.023769767649666471 1 0.030886949309841281 1 0.038864202690063639 1 0.047669241123050626 1 0.057266557987541086 1 0.067617594540736486 1 0.078680915023339071 1 0.09041238742775301 1 0.10276536862490689 1 0.11569089288022394 1 0.12913786314506431 1 0.14305324487641921 1 0.1573822625012832 1 0.17206859898394714 1 0.18705459924907827 1 0.20228147843050409 1 0.21768953602323099 1 0.23321837698644707 1 0.2488071406605101 1 0.26439473802027408 1 0.27992009731112283 1 0.29532241754696986 1 0.31074304513832129 1 0.32597559348047273 1 0.34091097598217718 1 0.35549258547648876 1 0.36966480041923439 1 0.38337324136687861 1 0.39656505243479473 1 0.40918920787722229 1 0.4211968457694778 1 0.4325416339578208 1 0.44318017867219239 1 0.45307249488500595 1 0.46218257253519263 1 0.47047910015019151 1 0.47793646019381414 1 0.48453621795322105 1 0.49026955730208821 1 0.49514164329535054 1 0.49918013625018554 1 0.50245293139100322 1 0.5051046628554009 1 0.50741192251320455 1 0.50971889992330432 1 0.51236407129865369 1 0.51561265401058443 1 0.51959835728499582 1 0.52437961464817495 1 0.52997589442237591 1 0.53638534263030557 1 0.54359332656696002 1 0.55157688091087609 1 0.56030723894825007 1 0.56975140604911245 1 0.57987321473799025 1 0.59063407372745436 1 0.60199351891378661 1 0.61390962428170059 1 0.62633930594787357 1 0.63923854021203685 1 0.65256251034918866 1 0.66626569392889246 1 0.68030190112118483 1 0.69462427391246828 1 0.70923699710341381 1 0.72423792858781322 1 0.73936943033581259 1 0.75457427278526423 1 0.76979462198294513 1 0.78497224197659576 1 0.80004870238076076 1 0.81496559025191839 1 0.8296647255901396 1 0.84408838000430075 1 0.85817949828781759 1 0.87188192281583121 1 0.88514062076853095 1 0.8979019141951794 1 0.91011371285377074 1 0.9217257495922333 1 0.93268981778257209 1 0.94296000998651386 1 0.95249295663086431 1 0.96124806301859689 1 0.9691877425196449 1 0.97627764330254974 1 0.98248686552040265 1 0.98778816549267179 1 0.99215814317068585 1 0.99557740907768988 1 0.99803072700484474 1 0.99950712903936423 1 1 4
7 0 0  3 103 101  3.4432461301994506 0.0035656014238151642 0  3.442135456254853 0.0038847616380434796 0  3.4376971274710471 0.0051601476569867449 0  3.4277219731512658 0.0080166922869029551 0  3.4111466745375245 0.012735236391197755 0  3.3880018503669871 0.019263747070842645 0  3.3584021330755816 0.027511897029603185 0  3.3224174376295492 0.037387737292731926 0  3.2801975915594523 0.04876446222658911 0  3.2318778004294568 0.061509336572931395 0  3.1776357926422678 0.075469580974604447 0  3.1176637818149215 0.090482704078069257 0  3.0521790642623774 0.10637577462965707 0  2.9814202480087895 0.12296875405178945 0  2.9056475400299662 0.1400765443797215 0  2.8251419465106178 0.15751118298630323 0  2.7402045147859191 0.17508383072193928 0  2.6511554384344742 0.19260659217050002 0  2.5583330580317787 0.20989416238050193 0  2.4620927677811073 0.22676531540342532 0  2.3628058383999551 0.24304426131034962 0  2.260858171094871 0.25856190766883463 0  2.1566489549018852 0.27315705975514598 0  2.0505893727050104 0.2866776379906873 0  1.9431008290255127 0.29898173545072287 0  1.834614278474954 0.30993956091348646 0  1.7255665173239771 0.31943190112289815 0  1.6164028209794432 0.3273626423433606 0  1.5075664752785154 0.33361810401545533 0  1.3990422616315847 0.33824482182898286 0  1.2911271195709448 0.34080792867942161 0  1.1842749324531188 0.3402432535822863 0  1.0794439306251957 0.33683797136078708 0  0.97723096084784955 0.33062249264727361 0  0.87810099663509888 0.32174791771509953 0  0.78250512485110058 0.31038077779460199 0  0.69087553831985682 0.29672640735224914 0  0.60362265155609618 0.28101903753746099 0  0.52113160453488938 0.2635189117780099 0  0.44375948153249722 0.24450699305178328 0  0.37183290189123841 0.22427945241950212 0  0.30564607176066722 0.20314164614434146 0  0.24545923749072246 0.18140178916388766 0  0.19149736887639202 0.15936442204413354 0  0.14394887265785419 0.1373237213208868 0  0.10296344500623901 0.1155566318054275 0  0.06864858874581832 0.094313623364752075 0  0.041063067383719766 0.073808770221395023 0  0.020202300114075162 0.054180337818860128 0  0.0060208996906724946 0.035444389220886066 0  -0.0014466167348042519 0.017280839988905481 0  -0.0012570092215728546 -0.00031487852822813679 0  0.0068419492065111423 -0.015909060092564254 0  0.021823965366158042 -0.028465442552037645 0  0.042823230308747615 -0.038536168204805377 0  0.069902116281675405 -0.046541700375729314 0  0.10305075726740259 -0.052622356590385194 0  0.14218703680345665 -0.056867806906063925 0  0.18716092247412963 -0.059364800968742727 0  0.23778595620894219 -0.060218125018111218 0  0.29384991115496106 -0.059550715618094038 0  0.35512203639533707 -0.05750374333959396 0  0.42135740764636204 -0.054235053079553376 0  0.49229977758094656 -0.049917607933552051 0  0.56768361581749893 -0.044737703598281033 0  0.64723548721787838 -0.038892938483410223 0  0.73067489170301902 -0.032589875320023935 0  0.81771462582322185 -0.026041424453712686 0  0.90806081107274683 -0.019463545778309575 0  1.0014122847036198 -0.013073295432313817 0  1.0974606808174034 -0.0070790539391933655 0  1.1958884076425382 -0.0017021316538717505 0  1.2964900289262662 0.002934073755907637 0  1.3993982822244835 0.0064135682309732767 0  1.5042133948918865 0.009593050174940148 0  1.6104171227920605 0.012717301432840014 0  1.7171439398518176 0.015583770965284989 0  1.8239857992882298 0.018140171617688966 0  1.9305358494607414 0.020314808321942653 0  2.0363822617134164 0.022060048465276826 0  2.141114036660833 0.023341643638588375 0  2.2443206438223458 0.024141700101136577 0  2.3455946471166325 0.024457549592327824 0  2.4445331667332955 0.024301024271611293 0  2.5407397609934241 0.023697148518495373 0  2.6338261788125092 0.022682542370966036 0  2.7234141185155258 0.021303579632529806 0  2.8091369522274983 0.019614394792261684 0  2.8906414190726113 0.017674825399323416 0  2.9675892861990545 0.015548371815407318 0  3.0396589805172831 0.013300246485129905 0  3.1065471690855802 0.010995573224618199 0  3.1679704782817035 0.0086977712365830309 0  3.223666185668606 0.0064672104490431275 0  3.2733971844890286 0.0043598841283141697 0  3.3169421597493178 0.0024270513029842314 0  3.354125744638432 0.00071309171654243564 0  3.3847605257352593 -0.00074205759353923248 0  3.4087459801994879 -0.0019080817018143361 0  3.4259404769170612 -0.0027582796624685615 0  3.436295101158227 -0.0032758050954616413 0  3.4409041064710602 -0.0035075923302324637 0  3.4420575963915123 -0.0035656014238151642 0 
 0 4 0.00049315832751912103 1 0.0019706002802099038 1 0.0044262388147369653 1 0.0078499687290972137 1 0.012227725493782166 1 0.017541565735953349 1 0.023769767649666471 1 0.030886949309841281 1 0.038864202690063639 1 0.047669241123050626 1 0.057266557987541086 1 0.067617594540736486 1 0.078680915023339071 1 0.09041238742775301 1 0.10276536862490689 1 0.11569089288022394 1 0.12913786314506431 1 0.14305324487641921 1 0.1573822625012832 1 0.17206859898394714 1 0.18705459924907827 1 0.20228147843050409 1 0.21768953602323099 1 0.23321837698644707 1 0.2488071406605101 1 0.26439473802027408 1 0.27992009731112283 1 0.29532241754696986 1 0.31074304513832129 1 0.32597559348047273 1 0.34091097598217718 1 0.35549258547648876 1 0.36966480041923439 1 0.38337324136687861 1 0.39656505243479473 1 0.40918920787722229 1 0.4211968457694778 1 0.4325416339578208 1 0.44318017867219239 1 0.45307249488500595 1 0.46218257253519263 1 0.47047910015019151 1 0.47793646019381414 1 0.48453621795322105 1 0.49026955730208821 1 0.49514164329535054 1 0.49918013625018554 1 0.50245293139100322 1 0.5051046628554009 1 0.50741192251320455 1 0.50971889992330432 1 0.51236407129865369 1 0.51561265401058443 1 0.51959835728499582 1 0.52437961464817495 1 0.52997589442237591 1 0.53638534263030557 1 0.54359332656696002 1 0.55157688091087609 1 0.56030723894825007 1 0.56975140604911245 1 0.57987321473799025 1 0.59063407372745436 1 0.60199351891378661 1 0.61390962428170059 1 0.62633930594787357 1 0.63923854021203685 1 0.65256251034918866 1 0.66626569392889246 1 0.68030190112118483 1 0.69462427391246828 1 0.70923699710341381 1 0.72423792858781322 1 0.73936943033581259 1 0.75457427278526423 1 0.76979462198294513 1 0.78497224197659576 1 0.80004870238076076 1 0.81496559025191839 1 0.8296647255901396 1 0.84408838000430075 1 0.85817949828781759 1 0.87188192281583121 1 0.88514062076853095 1 0.8979019141951794 1 0.91011371285377074 1 0.9217257495922333 1 0.93268981778257209 1 0.94296000998651386 1 0.95249295663086431 1 0.96124806301859689 1 0.9691877425196449 1 0.97627764330254974 1 0.98248686552040265 1 0.98778816549267179 1 0.99215814317068585 1 0.99557740907768988 1 0.99803072700484474 1 0.99950712903936423 1 1 4
1 3.4420575963915123 -0.0035656014238151642 0 0.16439898730537897 0.9863939238321402 0 
1 -51.639777949432222 51.639777949432222 -51.639777949432222 1 0 -0 
1 51.639777949432222 51.639777949432222 -51.639777949432222 0 0 1 
1 51.639777949432222 -51.639777949432222 -51.639777949432222 -0 1 0 
7 0 0  3 103 101  6.1873631058846037 0.52941095328238608 -7.745966692414834  6.1868237904599077 0.52961832694531008 -7.745966692414834  6.1846686492663858 0.53044700626121133 -7.745966692414834  6.1798245334778361 0.53230453956068535 -7.745966692414834  6.1717740452867362 0.535377150101363 -7.745966692414834  6.1605301683219187 0.5396375861347853 -7.745966692414834  6.1461460644245367 0.54503586043660346 -7.745966692414834  6.1286525511133405 0.55152312672084192 -7.745966692414834  6.1081187311645238 0.55902969427268578 -7.745966692414834  6.084606165791163 0.56748355604119483 -7.745966692414834  6.0581967232403215 0.57680086800810915 -7.745966692414834  6.0289790635777925 0.58689231740070824 -7.745966692414834  5.9970538855460847 0.59766229830910944 -7.745966692414834  5.9625321934715156 0.60901073596530952 -7.745966692414834  5.9255355295836374 0.62083409429763303 -7.745966692414834  5.8861956713069317 0.6330265039684041 -7.745966692414834  5.8446543403128164 0.64548078569576373 -7.745966692414834  5.8010628360916972 0.65808939591645654 -7.745966692414834  5.7555816099919648 0.67074529056330423 -7.745966692414834  5.7083797854830607 0.68334271414889336 -7.745966692414834  5.6596346309742378 0.69577792698806784 -7.745966692414834  5.6095309941451994 0.70794988783534341 -7.745966692414834  5.5582606854736234 0.71976091021768196 -7.745966692414834  5.5060218867596955 0.73111732522530981 -7.745966692414834  5.4530183144766209 0.74193008548318096 -7.745966692414834  5.3994589699488094 0.75211576224317356 -7.745966692414834  5.3455562251808031 0.76159594104676431 -7.745966692414834  5.2915276822403463 0.77030334374263942 -7.745966692414834  5.2375891866710047 0.77816202889232045 -7.745966692414834  5.1837351860599412 0.78519583899327372 -7.745966692414834  5.1300946346182741 0.79117522790080563 -7.745966692414834  5.0768472361363797 0.79555035559808329 -7.745966692414834  5.0244827970774288 0.79842250546444837 -7.745966692414834  4.9732999304613221 0.79978081564389047 -7.745966692414834  4.9235368229910472 0.79968028622602116 -7.745966692414834  4.8754254169143643 0.79818420856985994 -7.745966692414834  4.829189934370155 0.7953760251855293 -7.745966692414834  4.785045009035116 0.79135452099668668 -7.745966692414834  4.743193818964464 0.78623253898451728 -7.745966692414834  4.7038264706580994 0.78013446509082662 -7.745966692414834  4.6671185588489692 0.77319358796013593 -7.745966692414834  4.6332299336161986 0.76554918385990467 -7.745966692414834  4.6023036543276961 0.75734343285151784 -7.745966692414834  4.5744650490715744 0.74871822207878436 -7.745966692414834  4.5498207823328958 0.73981186972965218 -7.745966692414834  4.5284574860430276 0.73075579783996114 -7.745966692414834  4.510439622017401 0.72167008004222966 -7.745966692414834  4.4958057891020706 0.7126587853506462 -7.745966692414834  4.4845597309234906 0.70379098303785337 -7.745966692414834  4.4766795402087665 0.69507665195289459 -7.745966692414834  4.4721684612611563 0.68635485470145219 -7.745966692414834  4.4714961203025867 0.67758221126168749 -7.745966692414834  4.4748506287872569 0.66946185539531056 -7.745966692414834  4.4817659508999999 0.66255467020551506 -7.745966692414834  4.4917867683126786 0.65662336518829012 -7.745966692414834  4.5049258255796856 0.6514557906263766 -7.745966692414834  4.5211720937247586 0.6469824846723039 -7.745966692414834  4.5404807631254052 0.64316236136888594 -7.745966692414834  4.5627733226681748 0.63995874904074457 -7.745966692414834  4.587952331721179 0.63732757938548557 -7.745966692414834  4.6159067233378064 0.63521686642101671 -7.745966692414834  4.6465154091851026 0.63356634909398168 -7.745966692414834  4.6796495145820201 0.63230807855858495 -7.745966692414834  4.7151738660507041 0.63136706906849527 -7.745966692414834  4.7529480852420853 0.63066209847986698 -7.745966692414834  4.7928273639206385 0.6301066592699468 -7.745966692414834  4.8346629841764486 0.62961008668633589 -7.745966692414834  4.878302612552929 0.62907884636530009 -7.745966692414834  4.9235904578729537 0.62841817585594384 -7.745966692414834  4.9703670529256421 0.62753308410258024 -7.745966692414834  5.0184697206947959 0.6263332152483353 -7.745966692414834  5.0677306253267442 0.62472217516547557 -7.745966692414834  5.118042062160896 0.6226474522774178 -7.745966692414834  5.1694520192863598 0.61989605662593261 -7.745966692414834  5.2217987041011273 0.61691212865570833 -7.745966692414834  5.2748346476464496 0.61384017753116649 -7.745966692414834  5.3281199069365996 0.61061703090042985 -7.745966692414834  5.3814489563878194 0.60723442648063064 -7.745966692414834  5.4346160199580344 0.60367438287686459 -7.745966692414834  5.4874138911575914 0.59993112102717938 -7.745966692414834  5.5396363598093847 0.59600549236814448 -7.745966692414834  5.5910781619981691 0.59190647411941311 -7.745966692414834  5.6415362386148171 0.58765049242460177 -7.745966692414834  5.6908104319141071 0.58326099749552229 -7.745966692414834  5.7387043658559138 0.57876772999376014 -7.745966692414834  5.7850262494275846 0.57420584941897956 -7.745966692414834  5.8295896724392939 0.56961494002150703 -7.745966692414834  5.8722143775842319 0.56503794290922049 -7.745966692414834  5.9127270141496542 0.56052005736373856 -7.745966692414834  5.9509618764593064 0.55610765221459424 -7.745966692414834  5.986761631629288 0.55184722307830925 -7.745966692414834  6.0199780282827318 0.54778442655897375 -7.745966692414834  6.0504726824434689 0.54396320041259749 -7.745966692414834  6.0781173635550285 0.54042506362485732 -7.745966692414834  6.1027964094375369 0.5372082389010393 -7.745966692414834  6.1244018174387058 0.53434790266372412 -7.745966692414834  6.1428481717895984 0.53187380245783 -7.745966692414834  6.1580438627330638 0.52981399789380945 -7.745966692414834  6.1699401411687473 0.52818796932706902 -7.745966692414834  6.1784676245845773 0.52701518841040684 -7.745966692414834  6.1836026828127162 0.52630617788086331 -7.745966692414834  6.1858883153464737 0.5259898746329974 -7.745966692414834  6.1864603377051832 0.52591071382187882 -7.745966692414834 
 0 4 0.00049315832751912103 1 0.0019706002802099038 1 0.0044262388147369653 1 0.0078499687290972137 1 0.012227725493782166 1 0.017541565735953349 1 0.023769767649666471 1 0.030886949309841281 1 0.038864202690063639 1 0.047669241123050626 1 0.057266557987541086 1 0.067617594540736486 1 0.078680915023339071 1 0.09041238742775301 1 0.10276536862490689 1 0.11569089288022394 1 0.12913786314506431 1 0.14305324487641921 1 0.1573822625012832 1 0.17206859898394714 1 0.18705459924907827 1 0.20228147843050409 1 0.21768953602323099 1 0.23321837698644707 1 0.2488071406605101 1 0.26439473802027408 1 0.27992009731112283 1 0.29532241754696986 1 0.31074304513832129 1 0.32597559348047273 1 0.34091097598217718 1 0.35549258547648876 1 0.36966480041923439 1 0.38337324136687861 1 0.39656505243479473 1 0.40918920787722229 1 0.4211968457694778 1 0.4325416339578208 1 0.44318017867219239 1 0.45307249488500595 1 0.46218257253519263 1 0.47047910015019151 1 0.47793646019381414 1 0.48453621795322105 1 0.49026955730208821 1 0.49514164329535054 1 0.49918013625018554 1 0.50245293139100322 1 0.5051046628554009 1 0.50741192251320455 1 0.50971889992330432 1 0.51236407129865369 1 0.51561265401058443 1 0.51959835728499582 1 0.52437961464817495 1 0.52997589442237591 1 0.53638534263030557 1 0.54359332656696002 1 0.55157688091087609 1 0.56030723894825007 1 0.56975140604911245 1 0.57987321473799025 1 0.59063407372745436 1 0.60199351891378661 1 0.61390962428170059 1 0.62633930594787357 1 0.63923854021203685 1 0.65256251034918866 1 0.66626569392889246 1 0.68030190112118483 1 0.69462427391246828 1 0.70923699710341381 1 0.72423792858781322 1 0.73936943033581259 1 0.75457427278526423 1 0.76979462198294513 1 0.78497224197659576 1 0.80004870238076076 1 0.81496559025191839 1 0.8296647255901396 1 0.84408838000430075 1 0.85817949828781759 1 0.87188192281583121 1 0.88514062076853095 1 0.8979019141951794 1 0.91011371285377074 1 0.9217257495922333 1 0.93268981778257209 1 0.94296000998651386 1 0.95249295663086431 1 0.96124806301859689 1 0.9691877425196449 1 0.97627764330254974 1 0.98248686552040265 1 0.98778816549267179 1 0.99215814317068585 1 0.99557740907768988 1 0.99803072700484474 1 0.99950712903936423 1 1 4
7 0 0  1 2 2  4.4721359642962035 0.6776842755645025 -7.745966692414834  1.8186280494568441e-08 5.4634418668840501e-09 0 
 0 2 1 2
7 0 0  1 2 2  6.1873631058846037 0.52941095328238608 -7.745966692414834  3.4432461301994506 0.0035656014238151642 0 
 0 2 1 2
7 0 0  3 103 101  6.1873631058846037 0.52941095328238608 -7.745966692414834  6.1868237904599077 0.52961832694531008 -7.745966692414834  6.1846686492663858 0.53044700626121133 -7.745966692414834  6.1798245334778361 0.53230453956068535 -7.745966692414834  6.1717740452867362 0.535377150101363 -7.745966692414834  6.1605301683219187 0.5396375861347853 -7.745966692414834  6.1461460644245367 0.54503586043660346 -7.745966692414834  6.1286525511133405 0.55152312672084192 -7.745966692414834  6.1081187311645238 0.55902969427268578 -7.745966692414834  6.084606165791163 0.56748355604119483 -7.745966692414834  6.0581967232403215 0.57680086800810915 -7.745966692414834  6.0289790635777925 0.58689231740070824 -7.745966692414834  5.9970538855460847 0.59766229830910944 -7.745966692414834  5.9625321934715156 0.60901073596530952 -7.745966692414834  5.9255355295836374 0.62083409429763303 -7.745966692414834  5.8861956713069317 0.6330265039684041 -7.745966692414834  5.8446543403128164 0.64548078569576373 -7.745966692414834  5.8010628360916972 0.65808939591645654 -7.745966692414834  5.7555816099919648 0.67074529056330423 -7.745966692414834  5.7083797854830607 0.68334271414889336 -7.745966692414834  5.6596346309742378 0.69577792698806784 -7.745966692414834  5.6095309941451994 0.70794988783534341 -7.745966692414834  5.5582606854736234 0.71976091021768196 -7.745966692414834  5.5060218867596955 0.73111732522530981 -7.745966692414834  5.4530183144766209 0.74193008548318096 -7.745966692414834  5.3994589699488094 0.75211576224317356 -7.745966692414834  5.3455562251808031 0.76159594104676431 -7.745966692414834  5.2915276822403463 0.77030334374263942 -7.745966692414834  5.2375891866710047 0.77816202889232045 -7.745966692414834  5.1837351860599412 0.78519583899327372 -7.745966692414834  5.1300946346182741 0.79117522790080563 -7.745966692414834  5.0768472361363797 0.79555035559808329 -7.745966692414834  5.0244827970774288 0.79842250546444837 -7.745966692414834  4.9732999304613221 0.79978081564389047 -7.745966692414834  4.9235368229910472 0.79968028622602116 -7.745966692414834  4.8754254169143643 0.79818420856985994 -7.745966692414834  4.829189934370155 0.7953760251855293 -7.745966692414834  4.785045009035116 0.79135452099668668 -7.745966692414834  4.743193818964464 0.78623253898451728 -7.745966692414834  4.7038264706580994 0.78013446509082662 -7.745966692414834  4.6671185588489692 0.77319358796013593 -7.745966692414834  4.6332299336161986 0.76554918385990467 -7.745966692414834  4.6023036543276961 0.75734343285151784 -7.745966692414834  4.5744650490715744 0.74871822207878436 -7.745966692414834  4.5498207823328958 0.73981186972965218 -7.745966692414834  4.5284574860430276 0.73075579783996114 -7.745966692414834  4.510439622017401 0.72167008004222966 -7.745966692414834  4.4958057891020706 0.7126587853506462 -7.745966692414834  4.4845597309234906 0.70379098303785337 -7.745966692414834  4.4766795402087665 0.69507665195289459 -7.745966692414834  4.4721684612611563 0.68635485470145219 -7.745966692414834  4.4714961203025867 0.67758221126168749 -7.745966692414834  4.4748506287872569 0.66946185539531056 -7.745966692414834  4.4817659508999999 0.66255467020551506 -7.745966692414834  4.4917867683126786 0.65662336518829012 -7.745966692414834  4.5049258255796856 0.6514557906263766 -7.745966692414834  4.5211720937247586 0.6469824846723039 -7.745966692414834  4.5404807631254052 0.64316236136888594 -7.745966692414834  4.5627733226681748 0.63995874904074457 -7.745966692414834  4.587952331721179 0.63732757938548557 -7.745966692414834  4.6159067233378064 0.63521686642101671 -7.745966692414834  4.6465154091851026 0.63356634909398168 -7.745966692414834  4.6796495145820201 0.63230807855858495 -7.745966692414834  4.7151738660507041 0.63136706906849527 -7.745966692414834  4.7529480852420853 0.63066209847986698 -7.745966692414834  4.7928273639206385 0.6301066592699468 -7.745966692414834  4.8346629841764486 0.62961008668633589 -7.745966692414834  4.878302612552929 0.62907884636530009 -7.745966692414834  4.9235904578729537 0.62841817585594384 -7.745966692414834  4.9703670529256421 0.62753308410258024 -7.745966692414834  5.0184697206947959 0.6263332152483353 -7.745966692414834  5.0677306253267442 0.62472217516547557 -7.745966692414834  5.118042062160896 0.6226474522774178 -7.745966692414834  5.1694520192863598 0.61989605662593261 -7.745966692414834  5.2217987041011273 0.61691212865570833 -7.745966692414834  5.2748346476464496 0.61384017753116649 -7.745966692414834  5.3281199069365996 0.61061703090042985 -7.745966692414834  5.3814489563878194 0.60723442648063064 -7.745966692414834  5.4346160199580344 0.60367438287686459 -7.745966692414834  5.4874138911575914 0.59993112102717938 -7.745966692414834  5.5396363598093847 0.59600549236814448 -7.745966692414834  5.5910781619981691 0.59190647411941311 -7.745966692414834  5.6415362386148171 0.58765049242460177 -7.745966692414834  5.6908104319141071 0.58326099749552229 -7.745966692414834  5.7387043658559138 0.57876772999376014 -7.745966692414834  5.7850262494275846 0.57420584941897956 -7.745966692414834  5.8295896724392939 0.56961494002150703 -7.745966692414834  5.8722143775842319 0.56503794290922049 -7.745966692414834  5.9127270141496542 0.56052005736373856 -7.745966692414834  5.9509618764593064 0.55610765221459424 -7.745966692414834  5.986761631629288 0.55184722307830925 -7.745966692414834  6.0199780282827318 0.54778442655897375 -7.745966692414834  6.0504726824434689 0.54396320041259749 -7.745966692414834  6.0781173635550285 0.54042506362485732 -7.745966692414834  6.1027964094375369 0.5372082389010393 -7.745966692414834  6.1244018174387058 0.53434790266372412 -7.745966692414834  6.1428481717895984 0.53187380245783 -7.745966692414834  6.1580438627330638 0.52981399789380945 -7.745966692414834  6.1699401411687473 0.52818796932706902 -7.745966692414834  6.1784676245845773 0.52701518841040684 -7.745966692414834  6.1836026828127162 0.52630617788086331 -7.745966692414834  6.1858883153464737 0.5259898746329974 -7.745966692414834  6.1864603377051832 0.52591071382187882 -7.745966692414834 
 0 4 0.00049315832751912103 1 0.0019706002802099038 1 0.0044262388147369653 1 0.0078499687290972137 1 0.012227725493782166 1 0.017541565735953349 1 0.023769767649666471 1 0.030886949309841281 1 0.038864202690063639 1 0.047669241123050626 1 0.057266557987541086 1 0.067617594540736486 1 0.078680915023339071 1 0.09041238742775301 1 0.10276536862490689 1 0.11569089288022394 1 0.12913786314506431 1 0.14305324487641921 1 0.1573822625012832 1 0.17206859898394714 1 0.18705459924907827 1 0.20228147843050409 1 0.21768953602323099 1 0.23321837698644707 1 0.2488071406605101 1 0.26439473802027408 1 0.27992009731112283 1 0.29532241754696986 1 0.31074304513832129 1 0.32597559348047273 1 0.34091097598217718 1 0.35549258547648876 1 0.36966480041923439 1 0.38337324136687861 1 0.39656505243479473 1 0.40918920787722229 1 0.4211968457694778 1 0.4325416339578208 1 0.44318017867219239 1 0.45307249488500595 1 0.46218257253519263 1 0.47047910015019151 1 0.47793646019381414 1 0.48453621795322105 1 0.49026955730208821 1 0.49514164329535054 1 0.49918013625018554 1 0.50245293139100322 1 0.5051046628554009 1 0.50741192251320455 1 0.50971889992330432 1 0.51236407129865369 1 0.51561265401058443 1 0.51959835728499582 1 0.52437961464817495 1 0.52997589442237591 1 0.53638534263030557 1 0.54359332656696002 1 0.55157688091087609 1 0.56030723894825007 1 0.56975140604911245 1 0.57987321473799025 1 0.59063407372745436 1 0.60199351891378661 1 0.61390962428170059 1 0.62633930594787357 1 0.63923854021203685 1 0.65256251034918866 1 0.66626569392889246 1 0.68030190112118483 1 0.69462427391246828 1 0.70923699710341381 1 0.72423792858781322 1 0.73936943033581259 1 0.75457427278526423 1 0.76979462198294513 1 0.78497224197659576 1 0.80004870238076076 1 0.81496559025191839 1 0.8296647255901396 1 0.84408838000430075 1 0.85817949828781759 1 0.87188192281583121 1 0.88514062076853095 1 0.8979019141951794 1 0.91011371285377074 1 0.9217257495922333 1 0.93268981778257209 1 0.94296000998651386 1 0.95249295663086431 1 0.96124806301859689 1 0.9691877425196449 1 0.97627764330254974 1 0.98248686552040265 1 0.98778816549267179 1 0.99215814317068585 1 0.99557740907768988 1 0.99803072700484474 1 0.99950712903936423 1 1 4
7 0 0  1 2 2  6.1864603377051832 0.52591071382187882 -7.745966692414834  3.4420575963915123 -0.0035656014238151642 0 
 0 2 1 2
1 6.1864603377051832 0.52591071382187882 -7.745966692414834 0.24974329459863784 0.96831208130592805 0 
Polygon3D 0
PolygonOnTriangulations 0
Surfaces 10
1 -51.639777949432222 -51.639777949432222 -51.639777949432222 1 0 -0 0 0 1 0 -1 0 
1 -51.639777949432222 -51.639777949432222 -51.639777949432222 -0 1 0 0 0 1 1 0 -0 
1 -51.639777949432222 -51.639777949432222 0 0 0 1 1 0 -0 -0 1 0 
9 0 0 0 0 3 1 53 2 51 2 6.1873631058846037 0.52941095328238608 -7.745966692414834  3.4432461301994506 0.0035656014238151642 0  
6.1868237904599077 0.52961832694531008 -7.745966692414834  3.442135456254853 0.0038847616380434796 0  
6.1846686492663858 0.53044700626121133 -7.745966692414834  3.4376971274710471 0.0051601476569867449 0  
6.1798245334778361 0.53230453956068535 -7.745966692414834  3.4277219731512658 0.0080166922869029551 0  
6.1717740452867362 0.535377150101363 -7.745966692414834  3.4111466745375245 0.012735236391197755 0  
6.1605301683219187 0.5396375861347853 -7.745966692414834  3.3880018503669871 0.019263747070842645 0  
6.1461460644245367 0.54503586043660346 -7.745966692414834  3.3584021330755816 0.027511897029603185 0  
6.1286525511133405 0.55152312672084192 -7.745966692414834  3.3224174376295492 0.037387737292731926 0  
6.1081187311645238 0.55902969427268578 -7.745966692414834  3.2801975915594523 0.04876446222658911 0  
6.084606165791163 0.56748355604119483 -7.745966692414834  3.2318778004294568 0.061509336572931395 0  
6.0581967232403215 0.57680086800810915 -7.745966692414834  3.1776357926422678 0.075469580974604447 0  
6.0289790635777925 0.58689231740070824 -7.745966692414834  3.1176637818149215 0.090482704078069257 0  
5.9970538855460847 0.59766229830910944 -7.745966692414834  3.0521790642623774 0.10637577462965707 0  
5.9625321934715156 0.60901073596530952 -7.745966692414834  2.9814202480087895 0.12296875405178945 0  
5.9255355295836374 0.62083409429763303 -7.745966692414834  2.9056475400299662 0.1400765443797215 0  
5.8861956713069317 0.6330265039684041 -7.745966692414834  2.8251419465106178 0.15751118298630323 0  
5.8446543403128164 0.64548078569576373 -7.745966692414834  2.7402045147859191 0.17508383072193928 0  
5.8010628360916972 0.65808939591645654 -7.745966692414834  2.6511554384344742 0.19260659217050002 0  
5.7555816099919648 0.67074529056330423 -7.745966692414834  2.5583330580317787 0.20989416238050193 0  
5.7083797854830607 0.68334271414889336 -7.745966692414834  2.4620927677811073 0.22676531540342532 0  
5.6596346309742378 0.69577792698806784 -7.745966692414834  2.3628058383999551 0.24304426131034962 0  
5.6095309941451994 0.70794988783534341 -7.745966692414834  2.260858171094871 0.25856190766883463 0  
5.5582606854736234 0.71976091021768196 -7.745966692414834  2.1566489549018852 0.27315705975514598 0  
5.5060218867596955 0.73111732522530981 -7.745966692414834  2.0505893727050104 0.2866776379906873 0  
5.4530183144766209 0.74193008548318096 -7.745966692414834  1.9431008290255127 0.29898173545072287 0  
5.3994589699488094 0.75211576224317356 -7.745966692414834  1.834614278474954 0.30993956091348646 0  
5.3455562251808031 0.76159594104676431 -7.745966692414834  1.7255665173239771 0.31943190112289815 0  
5.2915276822403463 0.77030334374263942 -7.745966692414834  1.6164028209794432 0.3273626423433606 0  
5.2375891866710047 0.77816202889232045 -7.745966692414834  1.5075664752785154 0.33361810401545533 0  
5.1837351860599412 0.78519583899327372 -7.745966692414834  1.3990422616315847 0.33824482182898286 0  
5.1300946346182741 0.79117522790080563 -7.745966692414834  1.2911271195709448 0.34080792867942161 0  
5.0768472361363797 0.79555035559808329 -7.745966692414834  1.1842749324531188 0.3402432535822863 0  
5.0244827970774288 0.79842250546444837 -7.745966692414834  1.0794439306251957 0.33683797136078708 0  
4.9732999304613221 0.79978081564389047 -7.745966692414834  0.97723096084784955 0.33062249264727361 0  
4.9235368229910472 0.79968028622602116 -7.745966692414834  0.87810099663509888 0.32174791771509953 0  
4.8754254169143643 0.79818420856985994 -7.745966692414834  0.78250512485110058 0.31038077779460199 0  
4.829189934370155 0.7953760251855293 -7.745966692414834  0.69087553831985682 0.29672640735224914 0  
4.785045009035116 0.79135452099668668 -7.745966692414834  0.60362265155609618 0.28101903753746099 0  
4.743193818964464 0.78623253898451728 -7.745966692414834  0.52113160453488938 0.2635189117780099 0  
4.7038264706580994 0.78013446509082662 -7.745966692414834  0.44375948153249722 0.24450699305178328 0  
4.6671185588489692 0.77319358796013593 -7.745966692414834  0.37183290189123841 0.22427945241950212 0  
4.6332299336161986 0.76554918385990467 -7.745966692414834  0.30564607176066722 0.20314164614434146 0  
4.6023036543276961 0.75734343285151784 -7.745966692414834  0.24545923749072246 0.18140178916388766 0  
4.5744650490715744 0.74871822207878436 -7.745966692414834  0.19149736887639202 0.15936442204413354 0  
4.5498207823328958 0.73981186972965218 -7.745966692414834  0.14394887265785419 0.1373237213208868 0  
4.5284574860430276 0.73075579783996114 -7.745966692414834  0.10296344500623901 0.1155566318054275 0  
4.510439622017401 0.72167008004222966 -7.745966692414834  0.06864858874581832 0.094313623364752075 0  
4.4958057891020706 0.7126587853506462 -7.745966692414834  0.041063067383719766 0.073808770221395023 0  
4.4845597309234906 0.70379098303785337 -7.745966692414834  0.020202300114075162 0.054180337818860128 0  
4.4766795402087665 0.69507665195289459 -7.745966692414834  0.0060208996906724946 0.035444389220886066 0  
4.4721684612611563 0.68635485470145219 -7.745966692414834  -0.0014466167348042519 0.017280839988905481 0  
4.4717095915200993 0.68036756421693312 -7.745966692414834  -0.0013172104426691044 0.0052718396494665634 0  
4.4721359642962035 0.6776842755645025 -7.745966692414834  1.8186280494568441e-08 5.4634418668840501e-09 0  

0 4
0.00049315832751912103 1
0.0019706002802099038 1
0.0044262388147369653 1
0.0078499687290972137 1
0.012227725493782166 1
0.017541565735953349 1
0.023769767649666471 1
0.030886949309841281 1
0.038864202690063639 1
0.047669241123050626 1
0.057266557987541086 1
0.067617594540736486 1
0.078680915023339071 1
0.09041238742775301 1
0.10276536862490689 1
0.11569089288022394 1
0.12913786314506431 1
0.14305324487641921 1
0.1573822625012832 1
0.17206859898394714 1
0.18705459924907827 1
0.20228147843050409 1
0.21768953602323099 1
0.23321837698644707 1
0.2488071406605101 1
0.26439473802027408 1
0.27992009731112283 1
0.29532241754696986 1
0.31074304513832129 1
0.32597559348047273 1
0.34091097598217718 1
0.35549258547648876 1
0.36966480041923439 1
0.38337324136687861 1
0.39656505243479473 1
0.40918920787722229 1
0.4211968457694778 1
0.4325416339578208 1
0.44318017867219239 1
0.45307249488500595 1
0.46218257253519263 1
0.47047910015019151 1
0.47793646019381414 1
0.48453621795322105 1
0.49026955730208821 1
0.49514164329535054 1
0.49918013625018554 1
0.50245293139100322 1
0.5051046628554009 1
0.50741192251320455 4

0 2
1 2

9 0 0 0 0 3 1 53 2 51 2 4.4721359642962035 0.6776842755645025 -7.745966692414834  1.8186280494568441e-08 5.4634418668840501e-09 0  
4.4725622847742201 0.67500131603923741 -7.745966692414834  0.0013170852464311007 -0.0052711820892655716 0  
4.4748506287872569 0.66946185539531056 -7.745966692414834  0.0068419492065111423 -0.015909060092564254 0  
4.4817659508999999 0.66255467020551506 -7.745966692414834  0.021823965366158042 -0.028465442552037645 0  
4.4917867683126786 0.65662336518829012 -7.745966692414834  0.042823230308747615 -0.038536168204805377 0  
4.5049258255796856 0.6514557906263766 -7.745966692414834  0.069902116281675405 -0.046541700375729314 0  
4.5211720937247586 0.6469824846723039 -7.745966692414834  0.10305075726740259 -0.052622356590385194 0  
4.5404807631254052 0.64316236136888594 -7.745966692414834  0.14218703680345665 -0.056867806906063925 0  
4.5627733226681748 0.63995874904074457 -7.745966692414834  0.18716092247412963 -0.059364800968742727 0  
4.587952331721179 0.63732757938548557 -7.745966692414834  0.23778595620894219 -0.060218125018111218 0  
4.6159067233378064 0.63521686642101671 -7.745966692414834  0.29384991115496106 -0.059550715618094038 0  
4.6465154091851026 0.63356634909398168 -7.745966692414834  0.35512203639533707 -0.05750374333959396 0  
4.6796495145820201 0.63230807855858495 -7.745966692414834  0.42135740764636204 -0.054235053079553376 0  
4.7151738660507041 0.63136706906849527 -7.745966692414834  0.49229977758094656 -0.049917607933552051 0  
4.7529480852420853 0.63066209847986698 -7.745966692414834  0.56768361581749893 -0.044737703598281033 0  
4.7928273639206385 0.6301066592699468 -7.745966692414834  0.64723548721787838 -0.038892938483410223 0  
4.8346629841764486 0.62961008668633589 -7.745966692414834  0.73067489170301902 -0.032589875320023935 0  
4.878302612552929 0.62907884636530009 -7.745966692414834  0.81771462582322185 -0.026041424453712686 0  
4.9235904578729537 0.62841817585594384 -7.745966692414834  0.90806081107274683 -0.019463545778309575 0  
4.9703670529256421 0.62753308410258024 -7.745966692414834  1.0014122847036198 -0.013073295432313817 0  
5.0184697206947959 0.6263332152483353 -7.745966692414834  1.0974606808174034 -0.0070790539391933655 0  
5.0677306253267442 0.62472217516547557 -7.745966692414834  1.1958884076425382 -0.0017021316538717505 0  
5.118042062160896 0.6226474522774178 -7.745966692414834  1.2964900289262662 0.002934073755907637 0  
5.1694520192863598 0.61989605662593261 -7.745966692414834  1.3993982822244835 0.0064135682309732767 0  
5.2217987041011273 0.61691212865570833 -7.745966692414834  1.5042133948918865 0.009593050174940148 0  
5.2748346476464496 0.61384017753116649 -7.745966692414834  1.6104171227920605 0.012717301432840014 0  
5.3281199069365996 0.61061703090042985 -7.745966692414834  1.7171439398518176 0.015583770965284989 0  
5.3814489563878194 0.60723442648063064 -7.745966692414834  1.8239857992882298 0.018140171617688966 0  
5.4346160199580344 0.60367438287686459 -7.745966692414834  1.9305358494607414 0.020314808321942653 0  
5.4874138911575914 0.59993112102717938 -7.745966692414834  2.0363822617134164 0.022060048465276826 0  
5.5396363598093847 0.59600549236814448 -7.745966692414834  2.141114036660833 0.023341643638588375 0  
5.5910781619981691 0.59190647411941311 -7.745966692414834  2.2443206438223458 0.024141700101136577 0  
5.6415362386148171 0.58765049242460177 -7.745966692414834  2.3455946471166325 0.024457549592327824 0  
5.6908104319141071 0.58326099749552229 -7.745966692414834  2.4445331667332955 0.024301024271611293 0  
5.7387043658559138 0.57876772999376014 -7.745966692414834  2.5407397609934241 0.023697148518495373 0  
5.7850262494275846 0.57420584941897956 -7.745966692414834  2.6338261788125092 0.022682542370966036 0  
5.8295896724392939 0.56961494002150703 -7.745966692414834  2.7234141185155258 0.021303579632529806 0  
5.8722143775842319 0.56503794290922049 -7.745966692414834  2.8091369522274983 0.019614394792261684 0  
5.9127270141496542 0.56052005736373856 -7.745966692414834  2.8906414190726113 0.017674825399323416 0  
5.9509618764593064 0.55610765221459424 -7.745966692414834  2.9675892861990545 0.015548371815407318 0  
5.986761631629288 0.55184722307830925 -7.745966692414834  3.0396589805172831 0.013300246485129905 0  
6.0199780282827318 0.54778442655897375 -7.745966692414834  3.1065471690855802 0.010995573224618199 0  
6.0504726824434689 0.54396320041259749 -7.745966692414834  3.1679704782817035 0.0086977712365830309 0  
6.0781173635550285 0.54042506362485732 -7.745966692414834  3.223666185668606 0.0064672104490431275 0  
6.1027964094375369 0.5372082389010393 -7.745966692414834  3.2733971844890286 0.0043598841283141697 0  
6.1244018174387058 0.53434790266372412 -7.745966692414834  3.3169421597493178 0.0024270513029842314 0  
6.1428481717895984 0.53187380245783 -7.745966692414834  3.354125744638432 0.00071309171654243564 0  
6.1580438627330638 0.52981399789380945 -7.745966692414834  3.3847605257352593 -0.00074205759353923248 0  
6.1699401411687473 0.52818796932706902 -7.745966692414834  3.4087459801994879 -0.0019080817018143361 0  
6.1784676245845773 0.52701518841040684 -7.745966692414834  3.4259404769170612 -0.0027582796624685615 0  
6.1836026828127162 0.52630617788086331 -7.745966692414834  3.436295101158227 -0.0032758050954616413 0  
6.1858883153464737 0.5259898746329974 -7.745966692414834  3.4409041064710602 -0.0035075923302324637 0  
6.1864603377051832 0.52591071382187882 -7.745966692414834  3.4420575963915123 -0.0035656014238151642 0  

0.50741192251320455 4
0.50971889992330432 1
0.51236407129865369 1
0.51561265401058443 1
0.51959835728499582 1
0.52437961464817495 1
0.52997589442237591 1
0.53638534263030557 1
0.54359332656696002 1
0.55157688091087609 1
0.56030723894825007 1
0.56975140604911245 1
0.57987321473799025 1
0.59063407372745436 1
0.60199351891378661 1
0.61390962428170059 1
0.62633930594787357 1
0.63923854021203685 1
0.65256251034918866 1
0.66626569392889246 1
0.68030190112118483 1
0.69462427391246828 1
0.70923699710341381 1
0.72423792858781322 1
0.73936943033581259 1
0.75457427278526423 1
0.76979462198294513 1
0.78497224197659576 1
0.80004870238076076 1
0.81496559025191839 1
0.8296647255901396 1
0.84408838000430075 1
0.85817949828781759 1
0.87188192281583121 1
0.88514062076853095 1
0.8979019141951794 1
0.91011371285377074 1
0.9217257495922333 1
0.93268981778257209 1
0.94296000998651386 1
0.95249295663086431 1
0.96124806301859689 1
0.9691877425196449 1
0.97627764330254974 1
0.98248686552040265 1
0.98778816549267179 1
0.99215814317068585 1
0.99557740907768988 1
0.99803072700484474 1
0.99950712903936423 1
1 4

0 2
1 2

9 0 0 0 0 1 1 2 2 2 2 6.1864603377051832 0.52591071382187882 -7.745966692414834  3.4420575963915123 -0.0035656014238151642 0  
6.1873631058846037 0.52941095328238608 -7.745966692414834  3.443246130199451 0.0035656014238151642 0  

0 2
0.0072295689129203136 2

0 2
1 2

1 -51.639777949432222 51.639777949432222 -51.639777949432222 -0 1 0 0 0 1 1 0 -0 
1 -51.639777949432222 -51.639777949432222 -51.639777949432222 0 0 1 1 0 -0 -0 1 0 
1 51.639777949432222 -51.639777949432222 -51.639777949432222 1 0 -0 0 0 1 0 -1 0 
1 6.1873631058846037 0.52941095328238608 -7.745966692414834 0 0 -1 -0.99628441661375111 0.086124103551779768 0 0.086124103551779768 0.99628441661375111 0 
Triangulations 0

TShapes 59
Ve
1e-07
-51.6397779494322 -51.6397779494322 0
0 0

0101101
*
Ve
1e-07
-51.6397779494322 -51.6397779494322 -51.6397779494322
0 0

0101101
*
Ed
 1e-07 1 1 0
1  1 0 0 51.6397779494322
0

0101000
-59 0 +58 0 *
Ve
1e-07
-51.6397779494322 51.6397779494322 0
0 0

0101101
*
Ed
 1e-07 1 1 0
1  2 0 0 103.279555898864
0

0101000
-56 0 +59 0 *
Ve
1e-07
-51.6397779494322 51.6397779494322 -51.6397779494322
0 0

0101101
*
Ed
 1e-07 1 1 0
1  3 0 0 51.6397779494322
0

0101000
-56 0 +54 0 *
Ed
 1e-07 1 1 0
1  4 0 0 103.279555898864
0

0101000
-54 0 +58 0 *
Wi

0101100
-57 0 -55 0 +53 0 +52 0 *
Fa
0  1e-07 1 0

0111000
+51 0 *
Ve
1e-07
51.6397779494322 -51.6397779494322 -51.6397779494322
0 0

0101101
*
Ed
 1e-07 1 1 0
1  5 0 0 103.279555898864
0

0101000
-49 0 +58 0 *
Ve
1e-07
51.6397779494322 -51.6397779494322 0
0 0

0101101
*
Ed
 1e-07 1 1 0
1  6 0 0 51.6397779494322
0

0101000
-47 0 +49 0 *
Ed
 1e-07 1 1 0
1  7 0 0 103.279555898864
0

0101000
-47 0 +59 0 *
Wi

0101100
-48 0 -46 0 +45 0 +57 0 *
Fa
0  1e-07 2 0

0111000
+44 0 *
Ve
1e-07
51.6397779494322 51.6397779494322 0
0 0

0101101
*
Ed
 1e-07 1 1 0
1  8 0 0 103.279555898864
0

0101000
-42 0 +56 0 *
Ed
 1e-07 1 1 0
1  9 0 0 103.279555898864
0

0101000
-42 0 +47 0 *
Wi

0101100
-55 0 -41 0 +45 0 +40 0 *
Ve
3.44265186329548e-07
3.44324613019945 0.00356560142381516 0
0 0

0101101
*
Ve
3.44265186329548e-07
0 0 0
0 0

0101101
*
Ed
 1e-07 1 1 0
1  10 0 0 0.507411922891452
2  1 4 0 0 0.507411922891452
0

0101000
+38 0 -37 0 *
Ve
3.44265186329548e-07
3.44205759639151 -0.00356560142381516 0
0 0

0101101
*
Ed
 1e-07 1 1 0
1  11 0 0.507411922891452 1
2  2 5 0 0.507411922891452 1
0

0101000
+37 0 -35 0 *
Ed
 1e-07 1 1 0
1  12 0 0 0.00722956891292031
2  3 6 0 0 0.00722956891292031
0

0101000
+35 0 -38 0 *
Wi

0101100
-36 0 -34 0 -33 0 *
Fa
0  1e-07 3 0

0111000
+39 0 +32 0 *
Ve
1e-07
51.6397779494322 51.6397779494322 -51.6397779494322
0 0

0101101
*
Ed
 1e-07 1 1 0
1  13 0 0 103.279555898864
0

0101000
-30 0 +54 0 *
Ed
 1e-07 1 1 0
1  14 0 0 51.6397779494322
0

0101000
-42 0 +30 0 *
Wi

0101100
-29 0 -28 0 +41 0 +53 0 *
Fa
0  1e-07 7 0

0111000
+27 0 *
Ed
 1e-07 1 1 0
1  15 0 0 103.279555898864
0

0101000
-30 0 +49 0 *
Wi

0101100
-52 0 -29 0 +25 0 +48 0 *
Fa
0  1e-07 8 0

0111000
+24 0 *
Wi

0101100
-46 0 -40 0 +28 0 +25 0 *
Fa
0  1e-07 9 0

0111000
+22 0 *
Ve
1.72132593164774e-07
6.1873631058846 0.529410953282386 -7.74596669241483
0 0

0101101
*
Ve
1.72132593164774e-07
4.47213595499958 0.677684273635696 -7.74596669241483
0 0

0101101
*
Ed
 1e-07 1 1 0
1  16 0 0 0.507411922891452
2  4 4 0 0 0.507411922891452
0

0101000
+20 0 -19 0 *
Ed
 1e-07 1 1 0
1  17 0 0 1
2  5 4 0 0 1
2  6 5 0 0 1
4 G1 4 0 5 0
0

0101000
+19 0 -37 0 *
Ed
 1e-07 1 1 0
1  18 0 0 1
2  7 4 0 0 1
2  8 6 0 0 1
0

0101000
+20 0 -38 0 *
Wi

0101100
+18 0 +17 0 -36 0 -16 0 *
Fa
0  1e-07 4 0

0111000
+15 0 *
Ve
1.72132593164774e-07
6.18646033770518 0.525910713821879 -7.74596669241483
0 0

0101101
*
Ed
 1e-07 1 1 0
1  19 0 0.507411922891452 1
2  9 5 0 0.507411922891452 1
0

0101000
+19 0 -13 0 *
Ed
 1e-07 1 1 0
1  20 0 0 1
2  10 5 0 0 1
2  11 6 0 0 1
0

0101000
+13 0 -35 0 *
Wi

0101100
+12 0 +11 0 -34 0 -17 0 *
Fa
0  1e-07 5 0

0111000
+10 0 *
Ed
 1e-07 1 1 0
1  21 0 0 0.00361478445646016
2  12 6 0 0 0.00361478445646016
0

0101000
+13 0 -20 0 *
Wi

0101100
+8 0 +16 0 -33 0 -11 0 *
Fa
0  1e-07 6 0

0111000
+7 0 *
Wi

0101100
+18 0 +12 0 +8 0 *
Fa
0  1e-07 10 0

0111000
-5 0 *
Sh

0101100
-50 0 -43 0 +31 0 +26 0 -23 0 +21 0 -14 0 -9 0 -6 0 -4 0 
*
So

0100000
+3 0 *
Co

1100000
+2 0 *

+1 0 
##EGADS HEADER FILE-REV 1 ##
0
  1  1  10  11  21  14  4
1 5 1
_body
11
1 5 1
_brch
27
3 7 52
capsAIM
#egadsTessAIM;tacsAIM;pointwiseAIM;fun3dAIM;tetgenAIM
2 14 1
capsMeshLength
 1.000000000000e+00
    2 0 8
1 5 2
_body
8 1 
1 5 2
_brch
25 8 
1 5 2
_hist
8 11 
1 9 4
__trace__
8 1 11 1 
3 9 8
capsGroup
#Farfield
3 8 8
capsMesh
#Farfield
1 7 3
_faceID
8 1 1 
3 7 8
PW:Name
#Farfield
    2 1 8
1 5 2
_body
8 3 
1 5 2
_brch
25 8 
1 5 2
_hist
8 11 
1 9 4
__trace__
8 3 11 2 
3 9 8
capsGroup
#Farfield
3 8 8
capsMesh
#Farfield
1 7 3
_faceID
8 3 1 
3 7 8
PW:Name
#Farfield
    2 2 9
1 5 2
_body
8 6 
1 5 2
_brch
25 8 
1 5 2
_hist
8 11 
1 9 4
__trace__
8 6 11 3 
3 9 8
capsGroup
#Symmetry
3 8 8
capsMesh
#Symmetry
1 7 3
_faceID
8 6 1 
1 11 1
__trimmed__
1
3 7 8
PW:Name
#Symmetry
    2 3 8
1 5 2
_body
8 4 
1 5 2
_brch
25 8 
1 5 2
_hist
8 11 
1 9 4
__trace__
8 4 11 4 
3 9 8
capsGroup
#Farfield
3 8 8
capsMesh
#Farfield
1 7 3
_faceID
8 4 1 
3 7 8
PW:Name
#Farfield
    2 4 8
1 5 2
_body
8 5 
1 5 2
_brch
25 8 
1 5 2
_hist
8 11 
1 9 4
__trace__
8 5 11 5 
3 9 8
capsGroup
#Farfield
3 8 8
capsMesh
#Farfield
1 7 3
_faceID
8 5 1 
3 7 8
PW:Name
#Farfield
    2 5 8
1 5 2
_body
8 2 
1 5 2
_brch
25 8 
1 5 2
_hist
8 11 
1 9 4
__trace__
8 2 11 6 
3 9 8
capsGroup
#Farfield
3 8 8
capsMesh
#Farfield
1 7 3
_faceID
8 2 1 
3 7 8
PW:Name
#Farfield
    2 6 11
1 5 2
_body
7 3 
1 5 2
_brch
26 7 
2 3 1
OML
 0.000000000000e+00
1 5 2
_hist
7 11 
1 9 4
__trace__
7 1 11 7 
3 9 3
capsGroup
#OML
3 8 3
capsMesh
#OML
1 7 3
_faceID
7 3 1 
1 11 1
__trimmed__
1
3 7 3
PW:Name
#OML
2 14 1
PW:WallSpacing
 1.000000000000e-03
    2 7 11
1 5 2
_body
7 4 
1 5 2
_brch
26 7 
2 3 1
OML
 0.000000000000e+00
1 5 2
_hist
7 11 
1 9 4
__trace__
7 2 11 8 
3 9 3
capsGroup
#OML
3 8 3
capsMesh
#OML
1 7 3
_faceID
7 4 1 
1 11 1
__trimmed__
1
3 7 3
PW:Name
#OML
2 14 1
PW:WallSpacing
 1.000000000000e-03
    2 8 11
1 5 2
_body
7 5 
1 5 2
_brch
26 7 
2 3 1
OML
 0.000000000000e+00
1 5 2
_hist
7 11 
1 9 4
__trace__
7 3 11 9 
3 9 3
capsGroup
#OML
3 8 3
capsMesh
#OML
1 7 3
_faceID
7 5 1 
1 11 1
__trimmed__
1
3 7 3
PW:Name
#OML
2 14 1
PW:WallSpacing
 1.000000000000e-03
    2 9 11
1 5 2
_body
7 1 
1 5 2
_brch
26 7 
2 3 1
OML
 0.000000000000e+00
1 5 2
_hist
7 11 
1 9 4
__trace__
7 4 11 10 
3 9 3
capsGroup
#OML
3 8 3
capsMesh
#OML
1 7 3
_faceID
7 1 1 
1 11 1
__trimmed__
1
3 7 3
PW:Name
#OML
2 14 1
PW:WallSpacing
 1.000000000000e-03
    4 0 4
1 9 4
__trace__
8 1 11 1 
1 5 2
_body
8 10003 
1 7 5
_edgeID
8 1 8 3 1 
1 6 1
_nface
2
    4 1 4
1 9 4
__trace__
8 2 11 2 
1 5 2
_body
8 10006 
1 7 5
_edgeID
8 1 8 6 1 
1 6 1
_nface
2
    4 2 4
1 9 4
__trace__
8 3 11 3 
1 5 2
_body
8 40001 
1 7 5
_edgeID
8 1 8 4 1 
1 6 1
_nface
2
    4 3 4
1 9 4
__trace__
8 4 11 4 
1 5 2
_body
8 50001 
1 7 5
_edgeID
8 1 8 5 1 
1 6 1
_nface
2
    4 4 4
1 9 4
__trace__
8 9 11 5 
1 5 2
_body
8 30005 
1 7 5
_edgeID
8 3 8 5 1 
1 6 1
_nface
2
    4 5 4
1 9 4
__trace__
8 5 11 6 
1 5 2
_body
8 30002 
1 7 5
_edgeID
8 2 8 3 1 
1 6 1
_nface
2
    4 6 4
1 9 4
__trace__
8 10 11 7 
1 5 2
_body
8 60003 
1 7 5
_edgeID
8 3 8 6 1 
1 6 1
_nface
2
    4 7 4
1 9 4
__trace__
8 12 11 8 
1 5 2
_body
8 40006 
1 7 5
_edgeID
8 4 8 6 1 
1 6 1
_nface
2
    4 8 4
1 9 4
__trace__
8 6 11 9 
1 5 2
_body
8 60002 
1 7 5
_edgeID
8 2 8 6 1 
1 6 1
_nface
2
    4 9 4
1 5 2
_body
11 0 
1 7 5
_edgeID
7 3 8 6 1 
1 6 1
_nface
2
1 9 2
__trace__
11 10 
    4 10 4
1 5 2
_body
11 0 
1 7 5
_edgeID
7 4 8 6 1 
1 6 1
_nface
2
1 9 2
__trace__
11 11 
    4 11 4
1 5 2
_body
11 0 
1 7 5
_edgeID
7 5 8 6 1 
1 6 1
_nface
2
1 9 2
__trace__
11 12 
    4 12 4
1 9 4
__trace__
8 11 11 13 
1 5 2
_body
8 50004 
1 7 5
_edgeID
8 4 8 5 1 
1 6 1
_nface
2
    4 13 4
1 9 4
__trace__
8 7 11 14 
1 5 2
_body
8 20004 
1 7 5
_edgeID
8 2 8 4 1 
1 6 1
_nface
2
    4 14 4
1 9 4
__trace__
8 8 11 15 
1 5 2
_body
8 20005 
1 7 5
_edgeID
8 2 8 5 1 
1 6 1
_nface
2
    4 15 4
1 9 4
__trace__
7 1 11 16 
1 5 2
_body
7 10003 
1 7 5
_edgeID
7 1 7 3 1 
1 6 1
_nface
2
    4 16 4
1 5 2
_body
7 40003 
1 7 5
_edgeID
7 3 7 4 1 
1 9 4
__trace__
7 2 11 17 
1 6 1
_nface
2
    4 17 4
1 5 2
_body
7 30005 
1 7 5
_edgeID
7 3 7 5 1 
1 9 4
__trace__
7 4 11 18 
1 6 1
_nface
2
    4 18 4
1 9 4
__trace__
7 5 11 19 
1 5 2
_body
7 10004 
1 7 5
_edgeID
7 1 7 4 1 
1 6 1
_nface
2
    4 19 4
1 5 2
_body
7 50004 
1 7 5
_edgeID
7 4 7 5 1 
1 9 4
__trace__
7 6 11 20 
1 6 1
_nface
2
    4 20 4
1 9 4
__trace__
7 8 11 21 
1 5 2
_body
7 10005 
1 7 5
_edgeID
7 1 7 5 1 
1 6 1
_nface
2
    5 0 3
1 9 4
__trace__
8 1 11 1 
1 7 1
_nodeID
1
1 6 1
_nedge
3
    5 1 3
1 9 4
__trace__
8 2 11 2 
1 7 1
_nodeID
2
1 6 1
_nedge
3
    5 2 3
1 9 4
__trace__
8 3 11 3 
1 7 1
_nodeID
3
1 6 1
_nedge
3
    5 3 3
1 9 4
__trace__
8 4 11 4 
1 7 1
_nodeID
4
1 6 1
_nedge
3
    5 4 3
1 9 4
__trace__
8 6 11 5 
1 7 1
_nodeID
5
1 6 1
_nedge
3
    5 5 3
1 9 4
__trace__
8 5 11 6 
1 7 1
_nodeID
6
1 6 1
_nedge
3
    5 6 3
1 9 4
__trace__
8 7 11 7 
1 7 1
_nodeID
7
1 6 1
_nedge
3
    5 7 3
1 9 8
__trace__
1 1 2 1 7 4 11 8 
1 7 1
_nodeID
8
1 6 1
_nedge
3
    5 8 3
1 9 8
__trace__
1 2 2 2 7 3 11 9 
1 7 1
_nodeID
9
1 6 1
_nedge
3
    5 9 3
1 9 8
__trace__
1 3 2 3 7 6 11 10 
1 7 1
_nodeID
10
1 6 1
_nedge
3
    5 10 3
1 9 4
__trace__
8 8 11 11 
1 7 1
_nodeID
11
1 6 1
_nedge
3
    5 11 3
1 9 12
__trace__
3 1 4 1 5 1 6 1 7 1 11 12 
1 7 1
_nodeID
12
1 6 1
_nedge
3
    5 12 3
1 9 12
__trace__
3 2 4 2 5 2 6 2 7 2 11 13 
1 7 1
_nodeID
13
1 6 1
_nedge
3
    5 13 3
1 9 12
__trace__
3 3 4 3 5 3 6 3 7 5 11 14 
1 7 1
_nodeID
14
1 6 1
_nedge
3
    0 0 0
