DBRep_DrawableShape

CASCADE Topology V1, (c) Matra-Datavision
Locations 0
Curve2ds 12
1 0 0 1 0 
1 0.49999999999999989 0 0 1 
1 0.49999999999999989 0 0 1 
1 0 1 1 0 
1 0 0 0 1 
1 0.0033203915431766961 0 0 1 
1 0 0 1 0 
1 0 0 1 0 
1 1 0 0 1 
1 0 0 0 1 
1 0 1 1 0 
1 0 1 1 0 
Curves 21
1 -31.622776601683796 -31.622776601683796 -31.622776601683796 0 0 1 
1 -31.622776601683796 -31.622776601683796 31.622776601683796 -0 1 0 
1 -31.622776601683796 31.622776601683796 -31.622776601683796 0 0 1 
1 -31.622776601683796 -31.622776601683796 -31.622776601683796 -0 1 0 
1 -31.622776601683796 -31.622776601683796 -31.622776601683796 1 0 -0 
1 31.622776601683796 -31.622776601683796 -31.622776601683796 0 0 1 
1 -31.622776601683796 -31.622776601683796 31.622776601683796 1 0 -0 
1 -31.622776601683796 31.622776601683796 31.622776601683796 1 0 -0 
1 31.622776601683796 -31.622776601683796 31.622776601683796 -0 1 0 
1 -31.622776601683796 31.622776601683796 -31.622776601683796 1 0 -0 
1 31.622776601683796 31.622776601683796 -31.622776601683796 0 0 1 
1 31.622776601683796 -31.622776601683796 -31.622776601683796 -0 1 0 
7 0 0  3 103 101  4.3138796025982646 0.27884371838132627 -4.7434164902525691  4.3133669316120677 0.27894957502933659 -4.7434164902525691  4.311318223512127 0.27937259365531197 -4.7434164902525691  4.3067145069584463 0.28032164086613376 -4.7434164902525691  4.2990668816347828 0.28189385815449675 -4.7434164902525691  4.2883928391606654 0.28407903170033938 -4.7434164902525691  4.2747496916718735 0.28685669129402358 -4.7434164902525691  4.2581751402482428 0.29020843471625102 -4.7434164902525691  4.2387445676396798 0.29410660638195363 -4.7434164902525691  4.2165271952898848 0.29852372348418243 -4.7434164902525691  4.1916122451733298 0.30342750812421859 -4.7434164902525691  4.1640957608876228 0.30878399903713888 -4.7434164902525691  4.1340852758265507 0.31455693310154015 -4.7434164902525691  4.1016978509409503 0.32070842360534169 -4.7434164902525691  4.0670599991815104 0.32719916281507078 -4.7434164902525691  4.0303071211116137 0.3339886306448791 -4.7434164902525691  3.9915829737421316 0.34103520082236427 -4.7434164902525691  3.9510390892993459 0.34829616866215085 -4.7434164902525691  3.9088341576282408 0.3557277119622631 -4.7434164902525691  3.8651333757210367 0.3632848051919183 -4.7434164902525691  3.820107769205916 0.37092111204441802 -4.7434164902525691  3.7739334910041702 0.37858888477186259 -4.7434164902525691  3.7267911025802163 0.38623890004232614 -4.7434164902525691  3.6788648432249738 0.39382046021696565 -4.7434164902525691  3.6303418926232913 0.40128148592332935 -4.7434164902525691  3.5814116315659903 0.40856872073675432 -4.7434164902525691  3.5322649050941726 0.41562806194843238 -4.7434164902525691  3.4830932916372341 0.42240502319470713 -4.7434164902525691  3.4340883808672262 0.42884532564588151 -4.7434164902525691  3.38544106209081 0.43489560507275876 -4.7434164902525691  3.3373408240921303 0.44050421302899179 -4.7434164902525691  3.2899750664833576 0.44562208220888411 -4.7434164902525691  3.2435284218684264 0.45020361932665326 -4.7434164902525691  3.1981820875225559 0.45420758410437828 -4.7434164902525691  3.1541131648588987 0.45759791053944676 -4.7434164902525691  3.111494004686115 0.46034442681044119 -4.7434164902525691  3.0704915561009472 0.46242343309502476 -4.7434164902525691  3.0312667166762721 0.46381810219003994 -4.7434164902525691  2.99397368113905 0.46451867597254215 -4.7434164902525691  2.958759284496653 0.46452244110615604 -4.7434164902525691  2.92576233262022 0.4638334795084566 -4.7434164902525691  2.8951129067184738 0.46246220192978998 -4.7434164902525691  2.8669316155882538 0.46042468670562797 -4.7434164902525691  2.8413287292968459 0.45774184940602469 -4.7434164902525691  2.8184031135084475 0.4544384574071903 -4.7434164902525691  2.7982405901398337 0.45054202508077762 -4.7434164902525691  2.780911335164741 0.44608079628809383 -4.7434164902525691  2.7664654828231963 0.4410813352959469 -4.7434164902525691  2.7549228532412045 0.43555507422939077 -4.7434164902525691  2.7462747947408248 0.42947590147524989 -4.7434164902525691  2.7405164331763383 0.42268113206215741 -4.7434164902525691  2.7380415295020022 0.41504514788005964 -4.7434164902525691  2.7391528590905319 0.40709540894270135 -4.7434164902525691  2.743643838877635 0.39940393835273769 -4.7434164902525691  2.7511048766668336 0.39191540229361088 -4.7434164902525691  2.7615125226058077 0.38446874095769984 -4.7434164902525691  2.7748707627000271 0.3770367370777965 -4.7434164902525691  2.7911620631034193 0.36963409082804977 -4.7434164902525691  2.8103416640642358 0.36229566862378448 -4.7434164902525691  2.8323453602345121 0.35506147116854636 -4.7434164902525691  2.857093411345728 0.34797349764831009 -4.7434164902525691  2.8844927545350183 0.34107330700961097 -4.7434164902525691  2.9144384269358201 0.33440064526423247 -4.7434164902525691  2.9468144440435791 0.3279922899793844 -4.7434164902525691  2.9814945086832498 0.32188108210756566 -4.7434164902525691  3.0183426325743188 0.31609514493942426 -4.7434164902525691  3.0572137402971951 0.31065730399170899 -4.7434164902525691  3.0979542852090294 0.30558472502263156 -4.7434164902525691  3.1404028921194467 0.30088877604238207 -4.7434164902525691  3.1843910328326568 0.29657510768859097 -4.7434164902525691  3.2297437356542491 0.29264393492144647 -4.7434164902525691  3.2762803269438492 0.28909049299961243 -4.7434164902525691  3.3238152009208917 0.28590563275429581 -4.7434164902525691  3.3721586127745722 0.28307651467938355 -4.7434164902525691  3.4211174894656962 0.28058735851295569 -4.7434164902525691  3.4704962523119418 0.27842020484667329 -4.7434164902525691  3.5200976454429886 0.27655564775412794 -4.7434164902525691  3.569723564444542 0.27497350222042083 -4.7434164902525691  3.6191758799362654 0.27365337689733471 -4.7434164902525691  3.6682572514052678 0.27257513091138053 -4.7434164902525691  3.7167719272993822 0.27171920255186344 -4.7434164902525691  3.7645265281256455 0.27106680706019165 -4.7434164902525691  3.8113308100493519 0.27060000982569532 -4.7434164902525691  3.8569984071985628 0.27030168949871852 -4.7434164902525691  3.901347551501261 0.27015541236071305 -4.7434164902525691  3.9442017693776332 0.27014524434626491 -4.7434164902525691  3.985390554947597 0.27025553012023062 -4.7434164902525691  4.024750019575972 0.27047066944074638 -4.7434164902525691  4.0621235175606927 0.27077491969751621 -4.7434164902525691  4.0973622475565579 0.27115225015771371 -4.7434164902525691  4.1303258297999186 0.2715862683877292 -4.7434164902525691  4.1608828476397939 0.27206023257022427 -4.7434164902525691  4.1889114395857145 0.27255715899819377 -4.7434164902525691  4.2142994088928241 0.27306000844640138 -4.7434164902525691  4.2369462737698047 0.27355201339354962 -4.7434164902525691  4.2567585627261666 0.27401687954800402 -4.7434164902525691  4.273663333608134 0.27443956180596107 -4.7434164902525691  4.2875815465572078 0.27480591480998001 -4.7434164902525691  4.2984728777458212 0.2751043626356332 -4.7434164902525691  4.3062773311237184 0.27532469820969918 -4.7434164902525691  4.3109759071971343 0.27545990027084932 -4.7434164902525691  4.3130669472311345 0.27552073786525222 -4.7434164902525691  4.3135902114071065 0.27553596193042496 -4.7434164902525691 
 0 4 0.00048960609879410925 1 0.0019564440961383359 1 0.0043945832302579391 1 0.0077941724423938189 1 0.012141489875179282 1 0.017419010614298645 1 0.023605491292800276 1 0.030676070007887236 1 0.038602379958691424 1 0.047352675292247882 1 0.056891967823057818 1 0.067182173540385928 1 0.078182268104302358 1 0.089848450825007628 1 0.10213431689330502 1 0.11499103786293575 1 0.12836755056441085 1 0.1422107547470611 1 0.15646571979672294 1 0.17107590085733027 1 0.1859833645917526 1 0.20112902464596447 1 0.21645288662738066 1 0.23189430207316925 1 0.2473922304755875 1 0.26288550796859089 1 0.27831312079740517 1 0.2936144812400559 1 0.30872970329028249 1 0.32359987521742395 1 0.33816732616647099 1 0.35237588432276329 1 0.36617112490477594 1 0.37950060742111891 1 0.39231410329208138 1 0.40456381717698725 1 0.41620460833123496 1 0.42719422238539612 1 0.43749354980517163 1 0.4470669364047129 1 0.45588258659385322 1 0.46391312763813991 1 0.47113645612459204 1 0.47753709509836939 1 0.48310851973796382 1 0.48785742476218469 1 0.49181209916514396 1 0.49503969814924736 1 0.49768087869968081 1 0.49999999999999989 1 0.50231912130031897 1 0.50496030185075247 1 0.50818790083485588 1 0.51214257523781503 1 0.51689148026203591 1 0.52246290490163028 1 0.52886354387540757 1 0.53608687236185981 1 0.54411741340614639 1 0.55293306359528671 1 0.56250645019482814 1 0.57280577761460361 1 0.58379539166876482 1 0.59543618282301258 1 0.6076858967079185 1 0.62049939257888109 1 0.63382887509522401 1 0.64762411567723677 1 0.66183267383352884 1 0.67640012478257594 1 0.69127029670971762 1 0.70638551875994404 1 0.72168687920259467 1 0.73711449203140911 1 0.75260776952441244 1 0.76810569792683059 1 0.78354711337261929 1 0.7988709753540354 1 0.81401663540824742 1 0.82892409914266962 1 0.84353428020327692 1 0.85778924525293865 1 0.87163244943558926 1 0.88500896213706437 1 0.8978656831066949 1 0.9101515491749923 1 0.92181773189569749 1 0.93281782645961409 1 0.94310803217694239 1 0.95264732470775226 1 0.96139762004130869 1 0.9693239299921127 1 0.97639450870719968 1 0.98258098938570138 1 0.98785851012482073 1 0.99220582755760611 1 0.99560541676974201 1 0.99804355590386162 1 0.99951039390120588 1 1 4
7 0 0  1 2 2  2.738612791109909 0.41499516896546124 -4.7434164902525691  3.5977686804679505e-09 1.0740106720641407e-15 0 
 0 2 1 2
7 0 0  3 103 101  1.5811388300841898 0.0016601957715883481 0  1.5806188839510926 0.0017209673825068735 0  1.5785411033014507 0.0019638196187741178 0  1.5738721903645951 0.0025080150827977627 0  1.5661166387986409 0.0034077151443734728 0  1.5552927638552994 0.0046542693452005348 0  1.5414594436766931 0.00623228045273083 0  1.5246558397377594 0.0081267021392818876 0  1.50495945827734 0.010316554097194701 0  1.4824416526150956 0.012780491146237721 0  1.4571941184131867 0.015494134422296319 0  1.4293154937136039 0.018432022644399054 0  1.3989160632523865 0.021567402836073651 0  1.3661157445726424 0.024872734989733938 0  1.3310439950997954 0.028319887279884989 0  1.2938392317153831 0.031880294748508523 0  1.2546482923601399 0.035525018772793682 0  1.2136258545930487 0.039224724075317574 0  1.1709338237528868 0.042949585942119284 0  1.1267406924410228 0.046669148044711076 0  1.081220873956716 0.050352156265683824 0  1.0345540123966426 0.053966397290426391 0  0.98692427223038981 0.057478572065194758 0  0.93851961025312036 0.060854233383211082 0  0.88953103289085944 0.064057813834219296 0  0.8401518418865902 0.067052765273816914 0  0.79057687142018718 0.069801824111643915 0  0.74100171970677753 0.072267408481415843 0  0.69162197807358472 0.074412144240940309 0  0.64263246043485944 0.076199507327328289 0  0.59422643597141767 0.077594560867888782 0  0.5465948676808009 0.078564757225226545 0  0.49992565930082955 0.079080768401507837 0  0.45440291292343965 0.079117303433625608 0  0.41020619939668379 0.078653868966200982 0  0.36750984332986691 0.077675429353447956 0  0.32648222410363326 0.076172925530536589 0  0.28728509361440857 0.074143617474367943 0  0.2500729103081174 0.071591223150557312 0  0.2149921869234451 0.068525837061922307 0  0.18218084537072635 0.064963623321906097 0  0.1517675645037326 0.06092629038917028 0  0.12387109284714905 0.056440367165536562 0  0.09859945794532067 0.051536300300617476 0  0.076048990629675142 0.046247379633674701 0  0.056302788203185676 0.040608494708770565 0  0.039428297984111661 0.034653898149906985 0  0.025473148208157007 0.028414422625763339 0  0.014456087204413215 0.021903184196509717 0  0.0063707719942262082 0.015093416568125026 0  0.0012265259089865347 0.007822629024883905 0  -0.00057344013667471119 2.1428426932230842e-17 0  0.0012265259089866158 -0.007822629024884056 0  0.006370771994225948 -0.015093416568124721 0  0.014456087204413314 -0.021903184196509825 0  0.025473148208156909 -0.028414422625763255 0  0.039428297984111516 -0.03465389814990695 0  0.056302788203185655 -0.040608494708770551 0  0.076048990629675017 -0.046247379633674666 0  0.098599457945320532 -0.051536300300617441 0  0.12387109284714891 -0.056440367165536534 0  0.15176756450373249 -0.06092629038917028 0  0.18218084537072587 -0.064963623321906042 0  0.21499218692344474 -0.068525837061922265 0  0.25007291030811762 -0.071591223150557354 0  0.28728509361440879 -0.074143617474367943 0  0.32648222410363298 -0.076172925530536589 0  0.3675098433298673 -0.077675429353447942 0  0.41020619939668412 -0.078653868966201024 0  0.45440291292343948 -0.079117303433625552 0  0.49992565930083011 -0.079080768401507878 0  0.54659486768080057 -0.078564757225226559 0  0.59422643597141755 -0.077594560867888726 0  0.64263246043485955 -0.076199507327328331 0  0.69162197807358472 -0.074412144240940253 0  0.74100171970677731 -0.072267408481415857 0  0.79057687142018684 -0.069801824111643901 0  0.84015184188658987 -0.067052765273816942 0  0.88953103289085877 -0.064057813834219324 0  0.93851961025312047 -0.060854233383211033 0  0.98692427223038937 -0.057478572065194813 0  1.0345540123966424 -0.053966397290426314 0  1.0812208739567155 -0.050352156265683998 0  1.1267406924410228 -0.046669148044711027 0  1.1709338237528868 -0.042949585942119346 0  1.2136258545930485 -0.039224724075317532 0  1.2546482923601401 -0.035525018772793682 0  1.2938392317153833 -0.031880294748508599 0  1.3310439950997943 -0.028319887279885016 0  1.3661157445726422 -0.024872734989733938 0  1.3989160632523865 -0.021567402836073706 0  1.4293154937136039 -0.01843202264439902 0  1.4571941184131858 -0.015494134422296408 0  1.4824416526150956 -0.01278049114623774 0  1.5049594582773398 -0.010316554097194681 0  1.5246558397377594 -0.0081267021392819033 0  1.5414594436766926 -0.0062322804527308465 0  1.5552927638552989 -0.0046542693452005244 0  1.5661166387986409 -0.0034077151443734407 0  1.5738721903645945 -0.0025080150827978352 0  1.5785411033014509 -0.0019638196187741156 0  1.5806188839510926 -0.0017209673825068724 0  1.5811388300841898 -0.0016601957715883481 0 
 0 4 0.00048960609879410925 1 0.0019564440961383359 1 0.0043945832302579391 1 0.0077941724423938189 1 0.012141489875179282 1 0.017419010614298645 1 0.023605491292800276 1 0.030676070007887236 1 0.038602379958691424 1 0.047352675292247882 1 0.056891967823057818 1 0.067182173540385928 1 0.078182268104302358 1 0.089848450825007628 1 0.10213431689330502 1 0.11499103786293575 1 0.12836755056441085 1 0.1422107547470611 1 0.15646571979672294 1 0.17107590085733027 1 0.1859833645917526 1 0.20112902464596447 1 0.21645288662738066 1 0.23189430207316925 1 0.2473922304755875 1 0.26288550796859089 1 0.27831312079740517 1 0.2936144812400559 1 0.30872970329028249 1 0.32359987521742395 1 0.33816732616647099 1 0.35237588432276329 1 0.36617112490477594 1 0.37950060742111891 1 0.39231410329208138 1 0.40456381717698725 1 0.41620460833123496 1 0.42719422238539612 1 0.43749354980517163 1 0.4470669364047129 1 0.45588258659385322 1 0.46391312763813991 1 0.47113645612459204 1 0.47753709509836939 1 0.48310851973796382 1 0.48785742476218469 1 0.49181209916514396 1 0.49503969814924736 1 0.49768087869968081 1 0.49999999999999989 1 0.50231912130031897 1 0.50496030185075247 1 0.50818790083485588 1 0.51214257523781503 1 0.51689148026203591 1 0.52246290490163028 1 0.52886354387540757 1 0.53608687236185981 1 0.54411741340614639 1 0.55293306359528671 1 0.56250645019482814 1 0.57280577761460361 1 0.58379539166876482 1 0.59543618282301258 1 0.6076858967079185 1 0.62049939257888109 1 0.63382887509522401 1 0.64762411567723677 1 0.66183267383352884 1 0.67640012478257594 1 0.69127029670971762 1 0.70638551875994404 1 0.72168687920259467 1 0.73711449203140911 1 0.75260776952441244 1 0.76810569792683059 1 0.78354711337261929 1 0.7988709753540354 1 0.81401663540824742 1 0.82892409914266962 1 0.84353428020327692 1 0.85778924525293865 1 0.87163244943558926 1 0.88500896213706437 1 0.8978656831066949 1 0.9101515491749923 1 0.92181773189569749 1 0.93281782645961409 1 0.94310803217694239 1 0.95264732470775226 1 0.96139762004130869 1 0.9693239299921127 1 0.97639450870719968 1 0.98258098938570138 1 0.98785851012482073 1 0.99220582755760611 1 0.99560541676974201 1 0.99804355590386162 1 0.99951039390120588 1 1 4
7 0 0  1 2 2  4.3138796025982646 0.27884371838132627 -4.7434164902525691  1.5811388300841898 0.0016601957715883481 0 
 0 2 1 2
7 0 0  3 103 101  4.3138796025982646 0.27884371838132627 -4.7434164902525691  4.3133669316120677 0.27894957502933659 -4.7434164902525691  4.311318223512127 0.27937259365531197 -4.7434164902525691  4.3067145069584463 0.28032164086613376 -4.7434164902525691  4.2990668816347828 0.28189385815449675 -4.7434164902525691  4.2883928391606654 0.28407903170033938 -4.7434164902525691  4.2747496916718735 0.28685669129402358 -4.7434164902525691  4.2581751402482428 0.29020843471625102 -4.7434164902525691  4.2387445676396798 0.29410660638195363 -4.7434164902525691  4.2165271952898848 0.29852372348418243 -4.7434164902525691  4.1916122451733298 0.30342750812421859 -4.7434164902525691  4.1640957608876228 0.30878399903713888 -4.7434164902525691  4.1340852758265507 0.31455693310154015 -4.7434164902525691  4.1016978509409503 0.32070842360534169 -4.7434164902525691  4.0670599991815104 0.32719916281507078 -4.7434164902525691  4.0303071211116137 0.3339886306448791 -4.7434164902525691  3.9915829737421316 0.34103520082236427 -4.7434164902525691  3.9510390892993459 0.34829616866215085 -4.7434164902525691  3.9088341576282408 0.3557277119622631 -4.7434164902525691  3.8651333757210367 0.3632848051919183 -4.7434164902525691  3.820107769205916 0.37092111204441802 -4.7434164902525691  3.7739334910041702 0.37858888477186259 -4.7434164902525691  3.7267911025802163 0.38623890004232614 -4.7434164902525691  3.6788648432249738 0.39382046021696565 -4.7434164902525691  3.6303418926232913 0.40128148592332935 -4.7434164902525691  3.5814116315659903 0.40856872073675432 -4.7434164902525691  3.5322649050941726 0.41562806194843238 -4.7434164902525691  3.4830932916372341 0.42240502319470713 -4.7434164902525691  3.4340883808672262 0.42884532564588151 -4.7434164902525691  3.38544106209081 0.43489560507275876 -4.7434164902525691  3.3373408240921303 0.44050421302899179 -4.7434164902525691  3.2899750664833576 0.44562208220888411 -4.7434164902525691  3.2435284218684264 0.45020361932665326 -4.7434164902525691  3.1981820875225559 0.45420758410437828 -4.7434164902525691  3.1541131648588987 0.45759791053944676 -4.7434164902525691  3.111494004686115 0.46034442681044119 -4.7434164902525691  3.0704915561009472 0.46242343309502476 -4.7434164902525691  3.0312667166762721 0.46381810219003994 -4.7434164902525691  2.99397368113905 0.46451867597254215 -4.7434164902525691  2.958759284496653 0.46452244110615604 -4.7434164902525691  2.92576233262022 0.4638334795084566 -4.7434164902525691  2.8951129067184738 0.46246220192978998 -4.7434164902525691  2.8669316155882538 0.46042468670562797 -4.7434164902525691  2.8413287292968459 0.45774184940602469 -4.7434164902525691  2.8184031135084475 0.4544384574071903 -4.7434164902525691  2.7982405901398337 0.45054202508077762 -4.7434164902525691  2.780911335164741 0.44608079628809383 -4.7434164902525691  2.7664654828231963 0.4410813352959469 -4.7434164902525691  2.7549228532412045 0.43555507422939077 -4.7434164902525691  2.7462747947408248 0.42947590147524989 -4.7434164902525691  2.7405164331763383 0.42268113206215741 -4.7434164902525691  2.7380415295020022 0.41504514788005964 -4.7434164902525691  2.7391528590905319 0.40709540894270135 -4.7434164902525691  2.743643838877635 0.39940393835273769 -4.7434164902525691  2.7511048766668336 0.39191540229361088 -4.7434164902525691  2.7615125226058077 0.38446874095769984 -4.7434164902525691  2.7748707627000271 0.3770367370777965 -4.7434164902525691  2.7911620631034193 0.36963409082804977 -4.7434164902525691  2.8103416640642358 0.36229566862378448 -4.7434164902525691  2.8323453602345121 0.35506147116854636 -4.7434164902525691  2.857093411345728 0.34797349764831009 -4.7434164902525691  2.8844927545350183 0.34107330700961097 -4.7434164902525691  2.9144384269358201 0.33440064526423247 -4.7434164902525691  2.9468144440435791 0.3279922899793844 -4.7434164902525691  2.9814945086832498 0.32188108210756566 -4.7434164902525691  3.0183426325743188 0.31609514493942426 -4.7434164902525691  3.0572137402971951 0.31065730399170899 -4.7434164902525691  3.0979542852090294 0.30558472502263156 -4.7434164902525691  3.1404028921194467 0.30088877604238207 -4.7434164902525691  3.1843910328326568 0.29657510768859097 -4.7434164902525691  3.2297437356542491 0.29264393492144647 -4.7434164902525691  3.2762803269438492 0.28909049299961243 -4.7434164902525691  3.3238152009208917 0.28590563275429581 -4.7434164902525691  3.3721586127745722 0.28307651467938355 -4.7434164902525691  3.4211174894656962 0.28058735851295569 -4.7434164902525691  3.4704962523119418 0.27842020484667329 -4.7434164902525691  3.5200976454429886 0.27655564775412794 -4.7434164902525691  3.569723564444542 0.27497350222042083 -4.7434164902525691  3.6191758799362654 0.27365337689733471 -4.7434164902525691  3.6682572514052678 0.27257513091138053 -4.7434164902525691  3.7167719272993822 0.27171920255186344 -4.7434164902525691  3.7645265281256455 0.27106680706019165 -4.7434164902525691  3.8113308100493519 0.27060000982569532 -4.7434164902525691  3.8569984071985628 0.27030168949871852 -4.7434164902525691  3.901347551501261 0.27015541236071305 -4.7434164902525691  3.9442017693776332 0.27014524434626491 -4.7434164902525691  3.985390554947597 0.27025553012023062 -4.7434164902525691  4.024750019575972 0.27047066944074638 -4.7434164902525691  4.0621235175606927 0.27077491969751621 -4.7434164902525691  4.0973622475565579 0.27115225015771371 -4.7434164902525691  4.1303258297999186 0.2715862683877292 -4.7434164902525691  4.1608828476397939 0.27206023257022427 -4.7434164902525691  4.1889114395857145 0.27255715899819377 -4.7434164902525691  4.2142994088928241 0.27306000844640138 -4.7434164902525691  4.2369462737698047 0.27355201339354962 -4.7434164902525691  4.2567585627261666 0.27401687954800402 -4.7434164902525691  4.273663333608134 0.27443956180596107 -4.7434164902525691  4.2875815465572078 0.27480591480998001 -4.7434164902525691  4.2984728777458212 0.2751043626356332 -4.7434164902525691  4.3062773311237184 0.27532469820969918 -4.7434164902525691  4.3109759071971343 0.27545990027084932 -4.7434164902525691  4.3130669472311345 0.27552073786525222 -4.7434164902525691  4.3135902114071065 0.27553596193042496 -4.7434164902525691 
 0 4 0.00048960609879410925 1 0.0019564440961383359 1 0.0043945832302579391 1 0.0077941724423938189 1 0.012141489875179282 1 0.017419010614298645 1 0.023605491292800276 1 0.030676070007887236 1 0.038602379958691424 1 0.047352675292247882 1 0.056891967823057818 1 0.067182173540385928 1 0.078182268104302358 1 0.089848450825007628 1 0.10213431689330502 1 0.11499103786293575 1 0.12836755056441085 1 0.1422107547470611 1 0.15646571979672294 1 0.17107590085733027 1 0.1859833645917526 1 0.20112902464596447 1 0.21645288662738066 1 0.23189430207316925 1 0.2473922304755875 1 0.26288550796859089 1 0.27831312079740517 1 0.2936144812400559 1 0.30872970329028249 1 0.32359987521742395 1 0.33816732616647099 1 0.35237588432276329 1 0.36617112490477594 1 0.37950060742111891 1 0.39231410329208138 1 0.40456381717698725 1 0.41620460833123496 1 0.42719422238539612 1 0.43749354980517163 1 0.4470669364047129 1 0.45588258659385322 1 0.46391312763813991 1 0.47113645612459204 1 0.47753709509836939 1 0.48310851973796382 1 0.48785742476218469 1 0.49181209916514396 1 0.49503969814924736 1 0.49768087869968081 1 0.49999999999999989 1 0.50231912130031897 1 0.50496030185075247 1 0.50818790083485588 1 0.51214257523781503 1 0.51689148026203591 1 0.52246290490163028 1 0.52886354387540757 1 0.53608687236185981 1 0.54411741340614639 1 0.55293306359528671 1 0.56250645019482814 1 0.57280577761460361 1 0.58379539166876482 1 0.59543618282301258 1 0.6076858967079185 1 0.62049939257888109 1 0.63382887509522401 1 0.64762411567723677 1 0.66183267383352884 1 0.67640012478257594 1 0.69127029670971762 1 0.70638551875994404 1 0.72168687920259467 1 0.73711449203140911 1 0.75260776952441244 1 0.76810569792683059 1 0.78354711337261929 1 0.7988709753540354 1 0.81401663540824742 1 0.82892409914266962 1 0.84353428020327692 1 0.85778924525293865 1 0.87163244943558926 1 0.88500896213706437 1 0.8978656831066949 1 0.9101515491749923 1 0.92181773189569749 1 0.93281782645961409 1 0.94310803217694239 1 0.95264732470775226 1 0.96139762004130869 1 0.9693239299921127 1 0.97639450870719968 1 0.98258098938570138 1 0.98785851012482073 1 0.99220582755760611 1 0.99560541676974201 1 0.99804355590386162 1 0.99951039390120588 1 1 4
1 4.3135902114071065 0.27553596193042496 -4.7434164902525691 0.087155742747658166 0.99619469809174555 0 
7 0 0  1 2 2  4.3135902114071065 0.27553596193042496 -4.7434164902525691  1.5811388300841898 -0.0016601957715883481 0 
 0 2 1 2
7 0 0  3 103 101  1.5811388300841898 0.0016601957715883481 0  1.5806188839510926 0.0017209673825068735 0  1.5785411033014507 0.0019638196187741178 0  1.5738721903645951 0.0025080150827977627 0  1.5661166387986409 0.0034077151443734728 0  1.5552927638552994 0.0046542693452005348 0  1.5414594436766931 0.00623228045273083 0  1.5246558397377594 0.0081267021392818876 0  1.50495945827734 0.010316554097194701 0  1.4824416526150956 0.012780491146237721 0  1.4571941184131867 0.015494134422296319 0  1.4293154937136039 0.018432022644399054 0  1.3989160632523865 0.021567402836073651 0  1.3661157445726424 0.024872734989733938 0  1.3310439950997954 0.028319887279884989 0  1.2938392317153831 0.031880294748508523 0  1.2546482923601399 0.035525018772793682 0  1.2136258545930487 0.039224724075317574 0  1.1709338237528868 0.042949585942119284 0  1.1267406924410228 0.046669148044711076 0  1.081220873956716 0.050352156265683824 0  1.0345540123966426 0.053966397290426391 0  0.98692427223038981 0.057478572065194758 0  0.93851961025312036 0.060854233383211082 0  0.88953103289085944 0.064057813834219296 0  0.8401518418865902 0.067052765273816914 0  0.79057687142018718 0.069801824111643915 0  0.74100171970677753 0.072267408481415843 0  0.69162197807358472 0.074412144240940309 0  0.64263246043485944 0.076199507327328289 0  0.59422643597141767 0.077594560867888782 0  0.5465948676808009 0.078564757225226545 0  0.49992565930082955 0.079080768401507837 0  0.45440291292343965 0.079117303433625608 0  0.41020619939668379 0.078653868966200982 0  0.36750984332986691 0.077675429353447956 0  0.32648222410363326 0.076172925530536589 0  0.28728509361440857 0.074143617474367943 0  0.2500729103081174 0.071591223150557312 0  0.2149921869234451 0.068525837061922307 0  0.18218084537072635 0.064963623321906097 0  0.1517675645037326 0.06092629038917028 0  0.12387109284714905 0.056440367165536562 0  0.09859945794532067 0.051536300300617476 0  0.076048990629675142 0.046247379633674701 0  0.056302788203185676 0.040608494708770565 0  0.039428297984111661 0.034653898149906985 0  0.025473148208157007 0.028414422625763339 0  0.014456087204413215 0.021903184196509717 0  0.0063707719942262082 0.015093416568125026 0  0.0012265259089865347 0.007822629024883905 0  -0.00057344013667471119 2.1428426932230842e-17 0  0.0012265259089866158 -0.007822629024884056 0  0.006370771994225948 -0.015093416568124721 0  0.014456087204413314 -0.021903184196509825 0  0.025473148208156909 -0.028414422625763255 0  0.039428297984111516 -0.03465389814990695 0  0.056302788203185655 -0.040608494708770551 0  0.076048990629675017 -0.046247379633674666 0  0.098599457945320532 -0.051536300300617441 0  0.12387109284714891 -0.056440367165536534 0  0.15176756450373249 -0.06092629038917028 0  0.18218084537072587 -0.064963623321906042 0  0.21499218692344474 -0.068525837061922265 0  0.25007291030811762 -0.071591223150557354 0  0.28728509361440879 -0.074143617474367943 0  0.32648222410363298 -0.076172925530536589 0  0.3675098433298673 -0.077675429353447942 0  0.41020619939668412 -0.078653868966201024 0  0.45440291292343948 -0.079117303433625552 0  0.49992565930083011 -0.079080768401507878 0  0.54659486768080057 -0.078564757225226559 0  0.59422643597141755 -0.077594560867888726 0  0.64263246043485955 -0.076199507327328331 0  0.69162197807358472 -0.074412144240940253 0  0.74100171970677731 -0.072267408481415857 0  0.79057687142018684 -0.069801824111643901 0  0.84015184188658987 -0.067052765273816942 0  0.88953103289085877 -0.064057813834219324 0  0.93851961025312047 -0.060854233383211033 0  0.98692427223038937 -0.057478572065194813 0  1.0345540123966424 -0.053966397290426314 0  1.0812208739567155 -0.050352156265683998 0  1.1267406924410228 -0.046669148044711027 0  1.1709338237528868 -0.042949585942119346 0  1.2136258545930485 -0.039224724075317532 0  1.2546482923601401 -0.035525018772793682 0  1.2938392317153833 -0.031880294748508599 0  1.3310439950997943 -0.028319887279885016 0  1.3661157445726422 -0.024872734989733938 0  1.3989160632523865 -0.021567402836073706 0  1.4293154937136039 -0.01843202264439902 0  1.4571941184131858 -0.015494134422296408 0  1.4824416526150956 -0.01278049114623774 0  1.5049594582773398 -0.010316554097194681 0  1.5246558397377594 -0.0081267021392819033 0  1.5414594436766926 -0.0062322804527308465 0  1.5552927638552989 -0.0046542693452005244 0  1.5661166387986409 -0.0034077151443734407 0  1.5738721903645945 -0.0025080150827978352 0  1.5785411033014509 -0.0019638196187741156 0  1.5806188839510926 -0.0017209673825068724 0  1.5811388300841898 -0.0016601957715883481 0 
 0 4 0.00048960609879410925 1 0.0019564440961383359 1 0.0043945832302579391 1 0.0077941724423938189 1 0.012141489875179282 1 0.017419010614298645 1 0.023605491292800276 1 0.030676070007887236 1 0.038602379958691424 1 0.047352675292247882 1 0.056891967823057818 1 0.067182173540385928 1 0.078182268104302358 1 0.089848450825007628 1 0.10213431689330502 1 0.11499103786293575 1 0.12836755056441085 1 0.1422107547470611 1 0.15646571979672294 1 0.17107590085733027 1 0.1859833645917526 1 0.20112902464596447 1 0.21645288662738066 1 0.23189430207316925 1 0.2473922304755875 1 0.26288550796859089 1 0.27831312079740517 1 0.2936144812400559 1 0.30872970329028249 1 0.32359987521742395 1 0.33816732616647099 1 0.35237588432276329 1 0.36617112490477594 1 0.37950060742111891 1 0.39231410329208138 1 0.40456381717698725 1 0.41620460833123496 1 0.42719422238539612 1 0.43749354980517163 1 0.4470669364047129 1 0.45588258659385322 1 0.46391312763813991 1 0.47113645612459204 1 0.47753709509836939 1 0.48310851973796382 1 0.48785742476218469 1 0.49181209916514396 1 0.49503969814924736 1 0.49768087869968081 1 0.49999999999999989 1 0.50231912130031897 1 0.50496030185075247 1 0.50818790083485588 1 0.51214257523781503 1 0.51689148026203591 1 0.52246290490163028 1 0.52886354387540757 1 0.53608687236185981 1 0.54411741340614639 1 0.55293306359528671 1 0.56250645019482814 1 0.57280577761460361 1 0.58379539166876482 1 0.59543618282301258 1 0.6076858967079185 1 0.62049939257888109 1 0.63382887509522401 1 0.64762411567723677 1 0.66183267383352884 1 0.67640012478257594 1 0.69127029670971762 1 0.70638551875994404 1 0.72168687920259467 1 0.73711449203140911 1 0.75260776952441244 1 0.76810569792683059 1 0.78354711337261929 1 0.7988709753540354 1 0.81401663540824742 1 0.82892409914266962 1 0.84353428020327692 1 0.85778924525293865 1 0.87163244943558926 1 0.88500896213706437 1 0.8978656831066949 1 0.9101515491749923 1 0.92181773189569749 1 0.93281782645961409 1 0.94310803217694239 1 0.95264732470775226 1 0.96139762004130869 1 0.9693239299921127 1 0.97639450870719968 1 0.98258098938570138 1 0.98785851012482073 1 0.99220582755760611 1 0.99560541676974201 1 0.99804355590386162 1 0.99951039390120588 1 1 4
1 1.5811388300841898 -0.0016601957715883481 0 0 1 0 
Polygon3D 0
PolygonOnTriangulations 0
Surfaces 11
1 -31.622776601683796 -31.622776601683796 -31.622776601683796 1 0 -0 0 0 1 0 -1 0 
1 -31.622776601683796 -31.622776601683796 -31.622776601683796 -0 1 0 0 0 1 1 0 -0 
1 -31.622776601683796 -31.622776601683796 31.622776601683796 0 0 1 1 0 -0 -0 1 0 
1 -31.622776601683796 31.622776601683796 -31.622776601683796 -0 1 0 0 0 1 1 0 -0 
1 -31.622776601683796 -31.622776601683796 -31.622776601683796 0 0 1 1 0 -0 -0 1 0 
1 31.622776601683796 -31.622776601683796 -31.622776601683796 1 0 -0 0 0 1 0 -1 0 
9 0 0 0 0 3 1 53 2 51 2 4.3138796025982646 0.27884371838132627 -4.7434164902525691  1.5811388300841898 0.0016601957715883481 0  
4.3133669316120677 0.27894957502933659 -4.7434164902525691  1.5806188839510926 0.0017209673825068735 0  
4.311318223512127 0.27937259365531197 -4.7434164902525691  1.5785411033014507 0.0019638196187741178 0  
4.3067145069584463 0.28032164086613376 -4.7434164902525691  1.5738721903645951 0.0025080150827977627 0  
4.2990668816347828 0.28189385815449675 -4.7434164902525691  1.5661166387986409 0.0034077151443734728 0  
4.2883928391606654 0.28407903170033938 -4.7434164902525691  1.5552927638552994 0.0046542693452005348 0  
4.2747496916718735 0.28685669129402358 -4.7434164902525691  1.5414594436766931 0.00623228045273083 0  
4.2581751402482428 0.29020843471625102 -4.7434164902525691  1.5246558397377594 0.0081267021392818876 0  
4.2387445676396798 0.29410660638195363 -4.7434164902525691  1.50495945827734 0.010316554097194701 0  
4.2165271952898848 0.29852372348418243 -4.7434164902525691  1.4824416526150956 0.012780491146237721 0  
4.1916122451733298 0.30342750812421859 -4.7434164902525691  1.4571941184131867 0.015494134422296319 0  
4.1640957608876228 0.30878399903713888 -4.7434164902525691  1.4293154937136039 0.018432022644399054 0  
4.1340852758265507 0.31455693310154015 -4.7434164902525691  1.3989160632523865 0.021567402836073651 0  
4.1016978509409503 0.32070842360534169 -4.7434164902525691  1.3661157445726424 0.024872734989733938 0  
4.0670599991815104 0.32719916281507078 -4.7434164902525691  1.3310439950997954 0.028319887279884989 0  
4.0303071211116137 0.3339886306448791 -4.7434164902525691  1.2938392317153831 0.031880294748508523 0  
3.9915829737421316 0.34103520082236427 -4.7434164902525691  1.2546482923601399 0.035525018772793682 0  
3.9510390892993459 0.34829616866215085 -4.7434164902525691  1.2136258545930487 0.039224724075317574 0  
3.9088341576282408 0.3557277119622631 -4.7434164902525691  1.1709338237528868 0.042949585942119284 0  
3.8651333757210367 0.3632848051919183 -4.7434164902525691  1.1267406924410228 0.046669148044711076 0  
3.820107769205916 0.37092111204441802 -4.7434164902525691  1.081220873956716 0.050352156265683824 0  
3.7739334910041702 0.37858888477186259 -4.7434164902525691  1.0345540123966426 0.053966397290426391 0  
3.7267911025802163 0.38623890004232614 -4.7434164902525691  0.98692427223038981 0.057478572065194758 0  
3.6788648432249738 0.39382046021696565 -4.7434164902525691  0.93851961025312036 0.060854233383211082 0  
3.6303418926232913 0.40128148592332935 -4.7434164902525691  0.88953103289085944 0.064057813834219296 0  
3.5814116315659903 0.40856872073675432 -4.7434164902525691  0.8401518418865902 0.067052765273816914 0  
3.5322649050941726 0.41562806194843238 -4.7434164902525691  0.79057687142018718 0.069801824111643915 0  
3.4830932916372341 0.42240502319470713 -4.7434164902525691  0.74100171970677753 0.072267408481415843 0  
3.4340883808672262 0.42884532564588151 -4.7434164902525691  0.69162197807358472 0.074412144240940309 0  
3.38544106209081 0.43489560507275876 -4.7434164902525691  0.64263246043485944 0.076199507327328289 0  
3.3373408240921303 0.44050421302899179 -4.7434164902525691  0.59422643597141767 0.077594560867888782 0  
3.2899750664833576 0.44562208220888411 -4.7434164902525691  0.5465948676808009 0.078564757225226545 0  
3.2435284218684264 0.45020361932665326 -4.7434164902525691  0.49992565930082955 0.079080768401507837 0  
3.1981820875225559 0.45420758410437828 -4.7434164902525691  0.45440291292343965 0.079117303433625608 0  
3.1541131648588987 0.45759791053944676 -4.7434164902525691  0.41020619939668379 0.078653868966200982 0  
3.111494004686115 0.46034442681044119 -4.7434164902525691  0.36750984332986691 0.077675429353447956 0  
3.0704915561009472 0.46242343309502476 -4.7434164902525691  0.32648222410363326 0.076172925530536589 0  
3.0312667166762721 0.46381810219003994 -4.7434164902525691  0.28728509361440857 0.074143617474367943 0  
2.99397368113905 0.46451867597254215 -4.7434164902525691  0.2500729103081174 0.071591223150557312 0  
2.958759284496653 0.46452244110615604 -4.7434164902525691  0.2149921869234451 0.068525837061922307 0  
2.92576233262022 0.4638334795084566 -4.7434164902525691  0.18218084537072635 0.064963623321906097 0  
2.8951129067184738 0.46246220192978998 -4.7434164902525691  0.1517675645037326 0.06092629038917028 0  
2.8669316155882538 0.46042468670562797 -4.7434164902525691  0.12387109284714905 0.056440367165536562 0  
2.8413287292968459 0.45774184940602469 -4.7434164902525691  0.09859945794532067 0.051536300300617476 0  
2.8184031135084475 0.4544384574071903 -4.7434164902525691  0.076048990629675142 0.046247379633674701 0  
2.7982405901398337 0.45054202508077762 -4.7434164902525691  0.056302788203185676 0.040608494708770565 0  
2.780911335164741 0.44608079628809383 -4.7434164902525691  0.039428297984111661 0.034653898149906985 0  
2.7664654828231963 0.4410813352959469 -4.7434164902525691  0.025473148208157007 0.028414422625763339 0  
2.7549228532412045 0.43555507422939077 -4.7434164902525691  0.014456087204413215 0.021903184196509717 0  
2.7462747947408248 0.42947590147524989 -4.7434164902525691  0.0063707719942262082 0.015093416568125026 0  
2.7405164331763383 0.42268113206215741 -4.7434164902525691  0.0012265259089865347 0.007822629024883905 0  
2.7388299988227542 0.41747786448384699 -4.7434164902525691  3.5977687933333967e-09 0.0024921790119366723 0  
2.738612791109909 0.41499516896546124 -4.7434164902525691  3.5977686804679505e-09 1.0740106720641407e-15 0  

0 4
0.00048960609879410925 1
0.0019564440961383359 1
0.0043945832302579391 1
0.0077941724423938189 1
0.012141489875179282 1
0.017419010614298645 1
0.023605491292800276 1
0.030676070007887236 1
0.038602379958691424 1
0.047352675292247882 1
0.056891967823057818 1
0.067182173540385928 1
0.078182268104302358 1
0.089848450825007628 1
0.10213431689330502 1
0.11499103786293575 1
0.12836755056441085 1
0.1422107547470611 1
0.15646571979672294 1
0.17107590085733027 1
0.1859833645917526 1
0.20112902464596447 1
0.21645288662738066 1
0.23189430207316925 1
0.2473922304755875 1
0.26288550796859089 1
0.27831312079740517 1
0.2936144812400559 1
0.30872970329028249 1
0.32359987521742395 1
0.33816732616647099 1
0.35237588432276329 1
0.36617112490477594 1
0.37950060742111891 1
0.39231410329208138 1
0.40456381717698725 1
0.41620460833123496 1
0.42719422238539612 1
0.43749354980517163 1
0.4470669364047129 1
0.45588258659385322 1
0.46391312763813991 1
0.47113645612459204 1
0.47753709509836939 1
0.48310851973796382 1
0.48785742476218469 1
0.49181209916514396 1
0.49503969814924736 1
0.49768087869968081 1
0.49999999999999989 4

0 2
1 2

9 0 0 0 0 3 1 53 2 51 2 2.738612791109909 0.41499516896546124 -4.7434164902525691  3.5977686804679505e-09 1.0740106720641407e-15 0  
2.7383955833970632 0.41251247344707442 -4.7434164902525691  3.5977685676025044e-09 -0.0024921790119355981 0  
2.7391528590905319 0.40709540894270135 -4.7434164902525691  0.0012265259089866158 -0.007822629024884056 0  
2.743643838877635 0.39940393835273769 -4.7434164902525691  0.006370771994225948 -0.015093416568124721 0  
2.7511048766668336 0.39191540229361088 -4.7434164902525691  0.014456087204413314 -0.021903184196509825 0  
2.7615125226058077 0.38446874095769984 -4.7434164902525691  0.025473148208156909 -0.028414422625763255 0  
2.7748707627000271 0.3770367370777965 -4.7434164902525691  0.039428297984111516 -0.03465389814990695 0  
2.7911620631034193 0.36963409082804977 -4.7434164902525691  0.056302788203185655 -0.040608494708770551 0  
2.8103416640642358 0.36229566862378448 -4.7434164902525691  0.076048990629675017 -0.046247379633674666 0  
2.8323453602345121 0.35506147116854636 -4.7434164902525691  0.098599457945320532 -0.051536300300617441 0  
2.857093411345728 0.34797349764831009 -4.7434164902525691  0.12387109284714891 -0.056440367165536534 0  
2.8844927545350183 0.34107330700961097 -4.7434164902525691  0.15176756450373249 -0.06092629038917028 0  
2.9144384269358201 0.33440064526423247 -4.7434164902525691  0.18218084537072587 -0.064963623321906042 0  
2.9468144440435791 0.3279922899793844 -4.7434164902525691  0.21499218692344474 -0.068525837061922265 0  
2.9814945086832498 0.32188108210756566 -4.7434164902525691  0.25007291030811762 -0.071591223150557354 0  
3.0183426325743188 0.31609514493942426 -4.7434164902525691  0.28728509361440879 -0.074143617474367943 0  
3.0572137402971951 0.31065730399170899 -4.7434164902525691  0.32648222410363298 -0.076172925530536589 0  
3.0979542852090294 0.30558472502263156 -4.7434164902525691  0.3675098433298673 -0.077675429353447942 0  
3.1404028921194467 0.30088877604238207 -4.7434164902525691  0.41020619939668412 -0.078653868966201024 0  
3.1843910328326568 0.29657510768859097 -4.7434164902525691  0.45440291292343948 -0.079117303433625552 0  
3.2297437356542491 0.29264393492144647 -4.7434164902525691  0.49992565930083011 -0.079080768401507878 0  
3.2762803269438492 0.28909049299961243 -4.7434164902525691  0.54659486768080057 -0.078564757225226559 0  
3.3238152009208917 0.28590563275429581 -4.7434164902525691  0.59422643597141755 -0.077594560867888726 0  
3.3721586127745722 0.28307651467938355 -4.7434164902525691  0.64263246043485955 -0.076199507327328331 0  
3.4211174894656962 0.28058735851295569 -4.7434164902525691  0.69162197807358472 -0.074412144240940253 0  
3.4704962523119418 0.27842020484667329 -4.7434164902525691  0.74100171970677731 -0.072267408481415857 0  
3.5200976454429886 0.27655564775412794 -4.7434164902525691  0.79057687142018684 -0.069801824111643901 0  
3.569723564444542 0.27497350222042083 -4.7434164902525691  0.84015184188658987 -0.067052765273816942 0  
3.6191758799362654 0.27365337689733471 -4.7434164902525691  0.88953103289085877 -0.064057813834219324 0  
3.6682572514052678 0.27257513091138053 -4.7434164902525691  0.93851961025312047 -0.060854233383211033 0  
3.7167719272993822 0.27171920255186344 -4.7434164902525691  0.98692427223038937 -0.057478572065194813 0  
3.7645265281256455 0.27106680706019165 -4.7434164902525691  1.0345540123966424 -0.053966397290426314 0  
3.8113308100493519 0.27060000982569532 -4.7434164902525691  1.0812208739567155 -0.050352156265683998 0  
3.8569984071985628 0.27030168949871852 -4.7434164902525691  1.1267406924410228 -0.046669148044711027 0  
3.901347551501261 0.27015541236071305 -4.7434164902525691  1.1709338237528868 -0.042949585942119346 0  
3.9442017693776332 0.27014524434626491 -4.7434164902525691  1.2136258545930485 -0.039224724075317532 0  
3.985390554947597 0.27025553012023062 -4.7434164902525691  1.2546482923601401 -0.035525018772793682 0  
4.024750019575972 0.27047066944074638 -4.7434164902525691  1.2938392317153833 -0.031880294748508599 0  
4.0621235175606927 0.27077491969751621 -4.7434164902525691  1.3310439950997943 -0.028319887279885016 0  
4.0973622475565579 0.27115225015771371 -4.7434164902525691  1.3661157445726422 -0.024872734989733938 0  
4.1303258297999186 0.2715862683877292 -4.7434164902525691  1.3989160632523865 -0.021567402836073706 0  
4.1608828476397939 0.27206023257022427 -4.7434164902525691  1.4293154937136039 -0.01843202264439902 0  
4.1889114395857145 0.27255715899819377 -4.7434164902525691  1.4571941184131858 -0.015494134422296408 0  
4.2142994088928241 0.27306000844640138 -4.7434164902525691  1.4824416526150956 -0.01278049114623774 0  
4.2369462737698047 0.27355201339354962 -4.7434164902525691  1.5049594582773398 -0.010316554097194681 0  
4.2567585627261666 0.27401687954800402 -4.7434164902525691  1.5246558397377594 -0.0081267021392819033 0  
4.273663333608134 0.27443956180596107 -4.7434164902525691  1.5414594436766926 -0.0062322804527308465 0  
4.2875815465572078 0.27480591480998001 -4.7434164902525691  1.5552927638552989 -0.0046542693452005244 0  
4.2984728777458212 0.2751043626356332 -4.7434164902525691  1.5661166387986409 -0.0034077151443734407 0  
4.3062773311237184 0.27532469820969918 -4.7434164902525691  1.5738721903645945 -0.0025080150827978352 0  
4.3109759071971343 0.27545990027084932 -4.7434164902525691  1.5785411033014509 -0.0019638196187741156 0  
4.3130669472311345 0.27552073786525222 -4.7434164902525691  1.5806188839510926 -0.0017209673825068724 0  
4.3135902114071065 0.27553596193042496 -4.7434164902525691  1.5811388300841898 -0.0016601957715883481 0  

0.49999999999999989 4
0.50231912130031897 1
0.50496030185075247 1
0.50818790083485588 1
0.51214257523781503 1
0.51689148026203591 1
0.52246290490163028 1
0.52886354387540757 1
0.53608687236185981 1
0.54411741340614639 1
0.55293306359528671 1
0.56250645019482814 1
0.57280577761460361 1
0.58379539166876482 1
0.59543618282301258 1
0.6076858967079185 1
0.62049939257888109 1
0.63382887509522401 1
0.64762411567723677 1
0.66183267383352884 1
0.67640012478257594 1
0.69127029670971762 1
0.70638551875994404 1
0.72168687920259467 1
0.73711449203140911 1
0.75260776952441244 1
0.76810569792683059 1
0.78354711337261929 1
0.7988709753540354 1
0.81401663540824742 1
0.82892409914266962 1
0.84353428020327692 1
0.85778924525293865 1
0.87163244943558926 1
0.88500896213706437 1
0.8978656831066949 1
0.9101515491749923 1
0.92181773189569749 1
0.93281782645961409 1
0.94310803217694239 1
0.95264732470775226 1
0.96139762004130869 1
0.9693239299921127 1
0.97639450870719968 1
0.98258098938570138 1
0.98785851012482073 1
0.99220582755760611 1
0.99560541676974201 1
0.99804355590386162 1
0.99951039390120588 1
1 4

0 2
1 2

9 0 0 0 0 1 1 2 2 2 2 4.3135902114071065 0.27553596193042496 -4.7434164902525691  1.5811388300841898 -0.0016601957715883481 0  
4.3138796025982655 0.27884371838132627 -4.7434164902525691  1.5811388300841898 0.0016601957715883481 0  

0 2
0.0033203915431766961 2

0 2
1 2

1 4.3138796025982646 0.27884371838132627 -4.7434164902525691 1.075437701347735e-16 7.7677362014018644e-15 1 -0.99628566241951622 0.086109690844328582 -5.6173304659519883e-16 -0.086109690844328582 -0.99628566241951622 7.7481447677122525e-15 
1 1.5811388300841898 0.0016601957715883481 0 0 0 1 -0.99999944875045332 -0.0010499994235761239 0 0.0010499994235761239 -0.99999944875045332 0 
Triangulations 0

TShapes 61
Ve
1e-07
-31.6227766016838 -31.6227766016838 31.6227766016838
0 0

0101101
*
Ve
1e-07
-31.6227766016838 -31.6227766016838 -31.6227766016838
0 0

0101101
*
Ed
 1e-07 1 1 0
1  1 0 0 63.2455532033676
0

0101000
-61 0 +60 0 *
Ve
1e-07
-31.6227766016838 31.6227766016838 31.6227766016838
0 0

0101101
*
Ed
 1e-07 1 1 0
1  2 0 0 63.2455532033676
0

0101000
-58 0 +61 0 *
Ve
1e-07
-31.6227766016838 31.6227766016838 -31.6227766016838
0 0

0101101
*
Ed
 1e-07 1 1 0
1  3 0 0 63.2455532033676
0

0101000
-58 0 +56 0 *
Ed
 1e-07 1 1 0
1  4 0 0 63.2455532033676
0

0101000
-56 0 +60 0 *
Wi

0101100
-59 0 -57 0 +55 0 +54 0 *
Fa
0  1e-07 1 0

0111000
+53 0 *
Ve
1e-07
31.6227766016838 -31.6227766016838 -31.6227766016838
0 0

0101101
*
Ed
 1e-07 1 1 0
1  5 0 0 63.2455532033676
0

0101000
-51 0 +60 0 *
Ve
1e-07
31.6227766016838 -31.6227766016838 31.6227766016838
0 0

0101101
*
Ed
 1e-07 1 1 0
1  6 0 0 63.2455532033676
0

0101000
-49 0 +51 0 *
Ed
 1e-07 1 1 0
1  7 0 0 63.2455532033676
0

0101000
-49 0 +61 0 *
Wi

0101100
-50 0 -48 0 +47 0 +59 0 *
Fa
0  1e-07 2 0

0111000
+46 0 *
Ve
1e-07
31.6227766016838 31.6227766016838 31.6227766016838
0 0

0101101
*
Ed
 1e-07 1 1 0
1  8 0 0 63.2455532033676
0

0101000
-44 0 +58 0 *
Ed
 1e-07 1 1 0
1  9 0 0 63.2455532033676
0

0101000
-44 0 +49 0 *
Wi

0101100
-57 0 -43 0 +42 0 +47 0 *
Fa
0  1e-07 3 0

0111000
+41 0 *
Ve
1e-07
31.6227766016838 31.6227766016838 -31.6227766016838
0 0

0101101
*
Ed
 1e-07 1 1 0
1  10 0 0 63.2455532033676
0

0101000
-39 0 +56 0 *
Ed
 1e-07 1 1 0
1  11 0 0 63.2455532033676
0

0101000
-44 0 +39 0 *
Wi

0101100
-38 0 -37 0 +43 0 +55 0 *
Fa
0  1e-07 4 0

0111000
+36 0 *
Ed
 1e-07 1 1 0
1  12 0 0 63.2455532033676
0

0101000
-39 0 +51 0 *
Wi

0101100
-54 0 -38 0 +34 0 +50 0 *
Fa
0  1e-07 5 0

0111000
+33 0 *
Wi

0101100
-48 0 -42 0 +37 0 +34 0 *
Fa
0  1e-07 6 0

0111000
+31 0 *
Sh

0101100
-52 0 -45 0 +40 0 +35 0 -32 0 +30 0 *
Ve
1.58113883008419e-07
4.31387960259826 0.278843718381326 -4.74341649025257
0 0

0101101
*
Ve
1.58113883008419e-07
2.73861278752583 0.414995169279026 -4.74341649025257
0 0

0101101
*
Ed
 1e-07 1 1 0
1  13 0 0 0.499999999999999
2  1 7 0 0 0.499999999999999
0

0101000
+28 0 -27 0 *
Ve
1.58113883008419e-07
0 0 0
0 0

0101101
*
Ed
 1e-07 1 1 0
1  14 0 0 1
2  2 7 0 0 1
2  3 8 0 0 1
4 C2 7 0 8 0
0

0101000
+27 0 -25 0 *
Ve
1.58113883008419e-07
1.58113883008419 0.00166019577158835 0
0 0

0101101
*
Ed
 1e-07 1 1 0
1  15 0 0 0.499999999999999
2  4 7 0 0 0.499999999999999
0

0101000
+23 0 -25 0 *
Ed
 1e-07 1 1 0
1  16 0 0 1
2  5 7 0 0 1
2  6 9 0 0 1
0

0101000
+28 0 -23 0 *
Wi

0101000
+26 0 +24 0 -22 0 -21 0 *
Fa
0  1e-07 7 0

0111000
+20 0 *
Ve
1.58113883008419e-07
4.31359021140711 0.275535961930425 -4.74341649025257
0 0

0101101
*
Ed
 1e-07 1 1 0
1  17 0 0.499999999999999 1
2  7 8 0 0.499999999999999 1
0

0101000
+27 0 -18 0 *
Ed
 1e-07 1 1 0
1  18 0 0 0.0033203915431767
2  8 9 0 0 0.0033203915431767
0

0101000
+18 0 -28 0 *
Wi

0101100
+26 0 +17 0 +16 0 *
Fa
0  1e-07 10 0

0111000
+15 0 *
Ve
1.58113883008419e-07
1.58113883008419 -0.00166019577158835 0
0 0

0101101
*
Ed
 1e-07 1 1 0
1  19 0 0 1
2  9 8 0 0 1
2  10 9 0 0 1
0

0101000
+18 0 -13 0 *
Ed
 1e-07 1 1 0
1  20 0 0.499999999999999 1
2  11 8 0 0.499999999999999 1
0

0101000
+25 0 -13 0 *
Wi

0101000
+17 0 +12 0 -11 0 -24 0 *
Fa
0  1e-07 8 0

0111000
+10 0 *
Ed
 1e-07 1 1 0
1  21 0 0 0.0033203915431767
2  12 9 0 0 0.0033203915431767
0

0101000
+13 0 -23 0 *
Wi

0101100
+22 0 +11 0 +8 0 *
Fa
0  1e-07 11 0

0111000
+7 0 *
Wi

0101000
+16 0 +21 0 -8 0 -12 0 *
Fa
0  1e-07 9 0

0111000
+5 0 *
Sh

0101100
-19 0 +14 0 -9 0 -6 0 -4 0 *
So

0100000
+29 0 +3 0 *
Co

1100000
+2 0 *

+1 0 
##EGADS HEADER FILE-REV 1 ##
0
  1  2  11  11  21  14  4
1 5 1
_body
11
1 5 1
_brch
27
3 7 42
capsAIM
#egadsTessAIM;tacsAIM;pointwiseAIM;fun3dAIM
2 14 1
capsMeshLength
 1.000000000000e+00
    2 0 8
1 5 2
_body
8 1 
1 5 2
_brch
25 8 
1 5 2
_hist
8 11 
1 9 4
__trace__
8 1 11 1 
3 9 8
capsGroup
#Farfield
3 8 8
capsMesh
#Farfield
1 7 3
_faceID
8 1 1 
3 7 8
PW:Name
#Farfield
    2 1 8
1 5 2
_body
8 3 
1 5 2
_brch
25 8 
1 5 2
_hist
8 11 
1 9 4
__trace__
8 3 11 2 
3 9 8
capsGroup
#Farfield
3 8 8
capsMesh
#Farfield
1 7 3
_faceID
8 3 1 
3 7 8
PW:Name
#Farfield
    2 2 8
1 5 2
_body
8 6 
1 5 2
_brch
25 8 
1 5 2
_hist
8 11 
1 9 4
__trace__
8 6 11 3 
3 9 8
capsGroup
#Farfield
3 8 8
capsMesh
#Farfield
1 7 3
_faceID
8 6 1 
3 7 8
PW:Name
#Farfield
    2 3 8
1 5 2
_body
8 4 
1 5 2
_brch
25 8 
1 5 2
_hist
8 11 
1 9 4
__trace__
8 4 11 4 
3 9 8
capsGroup
#Farfield
3 8 8
capsMesh
#Farfield
1 7 3
_faceID
8 4 1 
3 7 8
PW:Name
#Farfield
    2 4 8
1 5 2
_body
8 5 
1 5 2
_brch
25 8 
1 5 2
_hist
8 11 
1 9 4
__trace__
8 5 11 5 
3 9 8
capsGroup
#Farfield
3 8 8
capsMesh
#Farfield
1 7 3
_faceID
8 5 1 
3 7 8
PW:Name
#Farfield
    2 5 8
1 5 2
_body
8 2 
1 5 2
_brch
25 8 
1 5 2
_hist
8 11 
1 9 4
__trace__
8 2 11 6 
3 9 8
capsGroup
#Farfield
3 8 8
capsMesh
#Farfield
1 7 3
_faceID
8 2 1 
3 7 8
PW:Name
#Farfield
    2 6 11
1 5 2
_body
7 3 
1 5 2
_brch
26 7 
2 3 1
OML
 0.000000000000e+00
1 5 2
_hist
7 11 
1 9 4
__trace__
7 1 11 7 
3 9 3
capsGroup
#OML
3 8 3
capsMesh
#OML
1 7 3
_faceID
7 3 1 
1 11 1
__trimmed__
1
3 7 3
PW:Name
#OML
2 14 1
PW:WallSpacing
 1.000000000000e-03
    2 7 11
1 5 2
_body
7 1 
1 5 2
_brch
26 7 
2 3 1
OML
 0.000000000000e+00
1 5 2
_hist
7 11 
1 9 4
__trace__
7 4 11 8 
3 9 3
capsGroup
#OML
3 8 3
capsMesh
#OML
1 7 3
_faceID
7 1 1 
1 11 1
__trimmed__
1
3 7 3
PW:Name
#OML
2 14 1
PW:WallSpacing
 1.000000000000e-03
    2 8 11
1 5 2
_body
7 4 
1 5 2
_brch
26 7 
2 3 1
OML
 0.000000000000e+00
1 5 2
_hist
7 11 
1 9 4
__trace__
7 2 11 9 
3 9 3
capsGroup
#OML
3 8 3
capsMesh
#OML
1 7 3
_faceID
7 4 1 
1 11 1
__trimmed__
1
3 7 3
PW:Name
#OML
2 14 1
PW:WallSpacing
 1.000000000000e-03
    2 9 11
1 5 2
_body
7 2 
1 5 2
_brch
26 7 
2 3 1
OML
 0.000000000000e+00
1 5 2
_hist
7 11 
1 9 4
__trace__
7 5 11 10 
3 9 3
capsGroup
#OML
3 8 3
capsMesh
#OML
1 7 3
_faceID
7 2 1 
1 11 1
__trimmed__
1
3 7 3
PW:Name
#OML
2 14 1
PW:WallSpacing
 1.000000000000e-03
    2 10 11
1 5 2
_body
7 5 
1 5 2
_brch
26 7 
2 3 1
OML
 0.000000000000e+00
1 5 2
_hist
7 11 
1 9 4
__trace__
7 3 11 11 
3 9 3
capsGroup
#OML
3 8 3
capsMesh
#OML
1 7 3
_faceID
7 5 1 
1 11 1
__trimmed__
1
3 7 3
PW:Name
#OML
2 14 1
PW:WallSpacing
 1.000000000000e-03
    4 0 4
1 9 4
__trace__
8 1 11 1 
1 5 2
_body
8 10003 
1 7 5
_edgeID
8 1 8 3 1 
1 6 1
_nface
2
    4 1 4
1 9 4
__trace__
8 2 11 2 
1 5 2
_body
8 10006 
1 7 5
_edgeID
8 1 8 6 1 
1 6 1
_nface
2
    4 2 4
1 9 4
__trace__
8 3 11 3 
1 5 2
_body
8 40001 
1 7 5
_edgeID
8 1 8 4 1 
1 6 1
_nface
2
    4 3 4
1 9 4
__trace__
8 4 11 4 
1 5 2
_body
8 50001 
1 7 5
_edgeID
8 1 8 5 1 
1 6 1
_nface
2
    4 4 4
1 9 4
__trace__
8 9 11 5 
1 5 2
_body
8 30005 
1 7 5
_edgeID
8 3 8 5 1 
1 6 1
_nface
2
    4 5 4
1 9 4
__trace__
8 5 11 6 
1 5 2
_body
8 30002 
1 7 5
_edgeID
8 2 8 3 1 
1 6 1
_nface
2
    4 6 4
1 9 4
__trace__
8 10 11 7 
1 5 2
_body
8 60003 
1 7 5
_edgeID
8 3 8 6 1 
1 6 1
_nface
2
    4 7 4
1 9 4
__trace__
8 12 11 8 
1 5 2
_body
8 40006 
1 7 5
_edgeID
8 4 8 6 1 
1 6 1
_nface
2
    4 8 4
1 9 4
__trace__
8 6 11 9 
1 5 2
_body
8 60002 
1 7 5
_edgeID
8 2 8 6 1 
1 6 1
_nface
2
    4 9 4
1 9 4
__trace__
8 11 11 10 
1 5 2
_body
8 50004 
1 7 5
_edgeID
8 4 8 5 1 
1 6 1
_nface
2
    4 10 4
1 9 4
__trace__
8 7 11 11 
1 5 2
_body
8 20004 
1 7 5
_edgeID
8 2 8 4 1 
1 6 1
_nface
2
    4 11 4
1 9 4
__trace__
8 8 11 12 
1 5 2
_body
8 20005 
1 7 5
_edgeID
8 2 8 5 1 
1 6 1
_nface
2
    4 12 4
1 9 4
__trace__
7 1 11 13 
1 5 2
_body
7 10003 
1 7 5
_edgeID
7 1 7 3 1 
1 6 1
_nface
2
    4 13 4
1 9 4
__trace__
7 2 11 14 
1 5 2
_body
7 40003 
1 7 5
_edgeID
7 3 7 4 1 
1 6 1
_nface
2
    4 14 4
1 9 4
__trace__
7 3 11 15 
1 5 2
_body
7 30002 
1 7 5
_edgeID
7 2 7 3 1 
1 6 1
_nface
2
    4 15 4
1 9 4
__trace__
7 4 11 16 
1 5 2
_body
7 30005 
1 7 5
_edgeID
7 3 7 5 1 
1 6 1
_nface
2
    4 16 4
1 9 4
__trace__
7 5 11 17 
1 5 2
_body
7 10004 
1 7 5
_edgeID
7 1 7 4 1 
1 6 1
_nface
2
    4 17 4
1 9 4
__trace__
7 8 11 18 
1 5 2
_body
7 10005 
1 7 5
_edgeID
7 1 7 5 1 
1 6 1
_nface
2
    4 18 4
1 9 4
__trace__
7 6 11 19 
1 5 2
_body
7 50004 
1 7 5
_edgeID
7 4 7 5 1 
1 6 1
_nface
2
    4 19 4
1 9 4
__trace__
7 7 11 20 
1 5 2
_body
7 40002 
1 7 5
_edgeID
7 2 7 4 1 
1 6 1
_nface
2
    4 20 4
1 9 4
__trace__
7 9 11 21 
1 5 2
_body
7 50002 
1 7 5
_edgeID
7 2 7 5 1 
1 6 1
_nface
2
    5 0 3
1 9 4
__trace__
8 1 11 1 
1 7 1
_nodeID
1
1 6 1
_nedge
3
    5 1 3
1 9 4
__trace__
8 2 11 2 
1 7 1
_nodeID
2
1 6 1
_nedge
3
    5 2 3
1 9 4
__trace__
8 3 11 3 
1 7 1
_nodeID
3
1 6 1
_nedge
3
    5 3 3
1 9 4
__trace__
8 4 11 4 
1 7 1
_nodeID
4
1 6 1
_nedge
3
    5 4 3
1 9 4
__trace__
8 6 11 5 
1 7 1
_nodeID
5
1 6 1
_nedge
3
    5 5 3
1 9 4
__trace__
8 5 11 6 
1 7 1
_nodeID
6
1 6 1
_nedge
3
    5 6 3
1 9 4
__trace__
8 7 11 7 
1 7 1
_nodeID
7
1 6 1
_nedge
3
    5 7 3
1 9 4
__trace__
8 8 11 8 
1 7 1
_nodeID
8
1 6 1
_nedge
3
    5 8 3
1 9 12
__trace__
3 1 4 1 5 1 6 1 7 1 11 9 
1 7 1
_nodeID
9
1 6 1
_nedge
3
    5 9 3
1 9 12
__trace__
3 2 4 2 5 2 6 2 7 2 11 10 
1 7 1
_nodeID
10
1 6 1
_nedge
3
    5 10 3
1 9 8
__trace__
1 2 2 2 7 3 11 11 
1 7 1
_nodeID
11
1 6 1
_nedge
3
    5 11 3
1 9 8
__trace__
1 1 2 1 7 4 11 12 
1 7 1
_nodeID
12
1 6 1
_nedge
3
    5 12 3
1 9 12
__trace__
3 3 4 3 5 3 6 3 7 5 11 13 
1 7 1
_nodeID
13
1 6 1
_nedge
3
    5 13 3
1 9 8
__trace__
1 3 2 3 7 6 11 14 
1 7 1
_nodeID
14
1 6 1
_nedge
3
    0 0 0
