DBRep_DrawableShape

CASCADE Topology V1, (c) Matra-Datavision
Locations 0
Curve2ds 12
1 0 1 1 0 
1 0 1 1 0 
1 0 1 1 0 
1 0 0 1 0 
1 0.49999999999999989 0 0 1 
1 0.49999999999999989 0 0 1 
1 0 0 0 1 
1 0.0044271887242355945 0 0 1 
1 0 0 1 0 
1 1 0 0 1 
1 0 0 0 1 
7 0 0  1 2 2  0 0  0.0044271887242355945 0 
 0 2 0.0022135943621177973 2
Curves 21
1 -31.622776601683796 -31.622776601683796 -31.622776601683796 0 0 1 
1 -31.622776601683796 -31.622776601683796 0 -0 1 0 
1 -31.622776601683796 31.622776601683796 -31.622776601683796 0 0 1 
1 -31.622776601683796 -31.622776601683796 -31.622776601683796 -0 1 0 
1 -31.622776601683796 -31.622776601683796 -31.622776601683796 1 0 -0 
1 31.622776601683796 -31.622776601683796 -31.622776601683796 0 0 1 
1 -31.622776601683796 -31.622776601683796 0 1 0 -0 
1 -31.622776601683796 31.622776601683796 0 1 0 -0 
1 31.622776601683796 -31.622776601683796 0 -0 1 0 
7 0 0  3 103 101  2.1081851067789197 0.0022135943621177973 0  2.1074918452681235 0.0022946231766758315 0  2.1047214710686011 0.0026184261583654905 0  2.09849625381946 0.0033440201103970171 0  2.0881555183981879 0.0045436201924979637 0  2.0737236851403988 0.0062056924602673794 0  2.0552792582355908 0.0083097072703077739 0  2.0328744529836791 0.01083560285237585 0  2.0066126110364535 0.013755405462926269 0  1.9765888701534609 0.017040654861650295 0  1.9429254912175822 0.020658845896395092 0  1.9057539916181385 0.024576030192532072 0  1.8652214176698487 0.02875653711476487 0  1.8214876594301899 0.033163646652978579 0  1.7747253267997274 0.037759849706513318 0  1.7251189756205108 0.042507059664678035 0  1.6728643898135198 0.04736669169705824 0  1.618167806124065 0.052299632100423432 0  1.5612450983371826 0.057266114589492378 0  1.5023209232546972 0.062225530726281439 0  1.4416278319422882 0.067136208354245094 0  1.3794053498621901 0.071955196387235187 0  1.3158990296405197 0.076638096086926344 0  1.2513594803374939 0.081138977844281451 0  1.1860413771878127 0.085410418445625719 0  1.1202024558487869 0.089403687031755885 0  1.0541024952269162 0.093069098815525206 0  0.98800229294237008 0.096356544641887781 0  0.92216263743144622 0.099216192321253741 0  0.85684328057981252 0.10159934310310439 0  0.79230191462855692 0.10345941449051838 0  0.7287931569077345 0.10475300963363539 0  0.66656754573443944 0.10544102453534378 0  0.60587055056458616 0.10548973791150081 0  0.54694159919557839 0.10487182528826797 0  0.49001312443982253 0.1035672391379306 0  0.43530963213817764 0.10156390070738211 0  0.38304679148587811 0.098858156632490604 0  0.33343054707748987 0.095454964200743078 0  0.28665624923126015 0.091367782749229742 0  0.24290779382763511 0.086618164429208139 0  0.20235675267164346 0.08123505385222704 0  0.16516145712953206 0.075253822887382082 0  0.13146594392709424 0.068715067067489963 0  0.10139865417290019 0.061663172844899604 0  0.075070384270914225 0.054144659611694082 0  0.052571063978815551 0.046205197533209313 0  0.033964197610876011 0.037885896834351118 0  0.019274782939217618 0.02920424559534629 0  0.0084943626589682776 0.020124555424166701 0  0.0016353678786487128 0.010430172033178539 0  -0.00076458684889961492 2.8571235909641125e-17 0  0.0016353678786488212 -0.010430172033178741 0  0.0084943626589679307 -0.020124555424166295 0  0.019274782939217749 -0.029204245595346436 0  0.033964197610875879 -0.037885896834351007 0  0.052571063978815356 -0.046205197533209265 0  0.075070384270914198 -0.054144659611694068 0  0.10139865417290002 -0.061663172844899555 0  0.13146594392709404 -0.068715067067489921 0  0.16516145712953187 -0.075253822887382055 0  0.20235675267164335 -0.08123505385222704 0  0.2429077938276345 -0.086618164429208042 0  0.28665624923125965 -0.091367782749229687 0  0.33343054707749015 -0.095454964200743134 0  0.38304679148587839 -0.098858156632490604 0  0.4353096321381773 -0.10156390070738212 0  0.49001312443982309 -0.10356723913793058 0  0.54694159919557883 -0.10487182528826802 0  0.60587055056458594 -0.10548973791150074 0  0.6665675457344401 -0.10544102453534383 0  0.72879315690773405 -0.10475300963363542 0  0.79230191462855681 -0.10345941449051831 0  0.85684328057981274 -0.10159934310310445 0  0.92216263743144633 -0.099216192321253671 0  0.98800229294236974 -0.096356544641887795 0  1.0541024952269158 -0.093069098815525192 0  1.1202024558487864 -0.089403687031755927 0  1.1860413771878116 -0.08541041844562576 0  1.2513594803374941 -0.081138977844281368 0  1.3158990296405193 -0.076638096086926413 0  1.3794053498621899 -0.071955196387235076 0  1.4416278319422873 -0.06713620835424533 0  1.5023209232546972 -0.062225530726281369 0  1.5612450983371822 -0.057266114589492462 0  1.6181678061240647 -0.052299632100423384 0  1.6728643898135203 -0.04736669169705824 0  1.725118975620511 -0.042507059664678132 0  1.7747253267997258 -0.037759849706513353 0  1.8214876594301896 -0.033163646652978579 0  1.8652214176698485 -0.028756537114764943 0  1.9057539916181385 -0.024576030192532027 0  1.9429254912175811 -0.02065884589639521 0  1.9765888701534609 -0.017040654861650319 0  2.0066126110364531 -0.013755405462926241 0  2.0328744529836791 -0.010835602852375871 0  2.0552792582355903 -0.0083097072703077948 0  2.0737236851403984 -0.0062056924602673655 0  2.0881555183981879 -0.0045436201924979212 0  2.0984962538194591 -0.0033440201103971134 0  2.1047214710686011 -0.0026184261583654875 0  2.1074918452681235 -0.0022946231766758298 0  2.1081851067789197 -0.0022135943621177973 0 
 0 4 0.00048960609879410925 1 0.0019564440961383359 1 0.0043945832302579391 1 0.0077941724423938189 1 0.012141489875179282 1 0.017419010614298645 1 0.023605491292800276 1 0.030676070007887236 1 0.038602379958691424 1 0.047352675292247882 1 0.056891967823057818 1 0.067182173540385928 1 0.078182268104302358 1 0.089848450825007628 1 0.10213431689330502 1 0.11499103786293575 1 0.12836755056441085 1 0.1422107547470611 1 0.15646571979672294 1 0.17107590085733027 1 0.1859833645917526 1 0.20112902464596447 1 0.21645288662738066 1 0.23189430207316925 1 0.2473922304755875 1 0.26288550796859089 1 0.27831312079740517 1 0.2936144812400559 1 0.30872970329028249 1 0.32359987521742395 1 0.33816732616647099 1 0.35237588432276329 1 0.36617112490477594 1 0.37950060742111891 1 0.39231410329208138 1 0.40456381717698725 1 0.41620460833123496 1 0.42719422238539612 1 0.43749354980517163 1 0.4470669364047129 1 0.45588258659385322 1 0.46391312763813991 1 0.47113645612459204 1 0.47753709509836939 1 0.48310851973796382 1 0.48785742476218469 1 0.49181209916514396 1 0.49503969814924736 1 0.49768087869968081 1 0.49999999999999989 1 0.50231912130031897 1 0.50496030185075247 1 0.50818790083485588 1 0.51214257523781503 1 0.51689148026203591 1 0.52246290490163028 1 0.52886354387540757 1 0.53608687236185981 1 0.54411741340614639 1 0.55293306359528671 1 0.56250645019482814 1 0.57280577761460361 1 0.58379539166876482 1 0.59543618282301258 1 0.6076858967079185 1 0.62049939257888109 1 0.63382887509522401 1 0.64762411567723677 1 0.66183267383352884 1 0.67640012478257594 1 0.69127029670971762 1 0.70638551875994404 1 0.72168687920259467 1 0.73711449203140911 1 0.75260776952441244 1 0.76810569792683059 1 0.78354711337261929 1 0.7988709753540354 1 0.81401663540824742 1 0.82892409914266962 1 0.84353428020327692 1 0.85778924525293865 1 0.87163244943558926 1 0.88500896213706437 1 0.8978656831066949 1 0.9101515491749923 1 0.92181773189569749 1 0.93281782645961409 1 0.94310803217694239 1 0.95264732470775226 1 0.96139762004130869 1 0.9693239299921127 1 0.97639450870719968 1 0.98258098938570138 1 0.98785851012482073 1 0.99220582755760611 1 0.99560541676974201 1 0.99804355590386162 1 0.99951039390120588 1 1 4
7 0 0  3 103 101  2.1081851067789197 0.0022135943621177973 0  2.1074918452681235 0.0022946231766758315 0  2.1047214710686011 0.0026184261583654905 0  2.09849625381946 0.0033440201103970171 0  2.0881555183981879 0.0045436201924979637 0  2.0737236851403988 0.0062056924602673794 0  2.0552792582355908 0.0083097072703077739 0  2.0328744529836791 0.01083560285237585 0  2.0066126110364535 0.013755405462926269 0  1.9765888701534609 0.017040654861650295 0  1.9429254912175822 0.020658845896395092 0  1.9057539916181385 0.024576030192532072 0  1.8652214176698487 0.02875653711476487 0  1.8214876594301899 0.033163646652978579 0  1.7747253267997274 0.037759849706513318 0  1.7251189756205108 0.042507059664678035 0  1.6728643898135198 0.04736669169705824 0  1.618167806124065 0.052299632100423432 0  1.5612450983371826 0.057266114589492378 0  1.5023209232546972 0.062225530726281439 0  1.4416278319422882 0.067136208354245094 0  1.3794053498621901 0.071955196387235187 0  1.3158990296405197 0.076638096086926344 0  1.2513594803374939 0.081138977844281451 0  1.1860413771878127 0.085410418445625719 0  1.1202024558487869 0.089403687031755885 0  1.0541024952269162 0.093069098815525206 0  0.98800229294237008 0.096356544641887781 0  0.92216263743144622 0.099216192321253741 0  0.85684328057981252 0.10159934310310439 0  0.79230191462855692 0.10345941449051838 0  0.7287931569077345 0.10475300963363539 0  0.66656754573443944 0.10544102453534378 0  0.60587055056458616 0.10548973791150081 0  0.54694159919557839 0.10487182528826797 0  0.49001312443982253 0.1035672391379306 0  0.43530963213817764 0.10156390070738211 0  0.38304679148587811 0.098858156632490604 0  0.33343054707748987 0.095454964200743078 0  0.28665624923126015 0.091367782749229742 0  0.24290779382763511 0.086618164429208139 0  0.20235675267164346 0.08123505385222704 0  0.16516145712953206 0.075253822887382082 0  0.13146594392709424 0.068715067067489963 0  0.10139865417290019 0.061663172844899604 0  0.075070384270914225 0.054144659611694082 0  0.052571063978815551 0.046205197533209313 0  0.033964197610876011 0.037885896834351118 0  0.019274782939217618 0.02920424559534629 0  0.0084943626589682776 0.020124555424166701 0  0.0016353678786487128 0.010430172033178539 0  -0.00076458684889961492 2.8571235909641125e-17 0  0.0016353678786488212 -0.010430172033178741 0  0.0084943626589679307 -0.020124555424166295 0  0.019274782939217749 -0.029204245595346436 0  0.033964197610875879 -0.037885896834351007 0  0.052571063978815356 -0.046205197533209265 0  0.075070384270914198 -0.054144659611694068 0  0.10139865417290002 -0.061663172844899555 0  0.13146594392709404 -0.068715067067489921 0  0.16516145712953187 -0.075253822887382055 0  0.20235675267164335 -0.08123505385222704 0  0.2429077938276345 -0.086618164429208042 0  0.28665624923125965 -0.091367782749229687 0  0.33343054707749015 -0.095454964200743134 0  0.38304679148587839 -0.098858156632490604 0  0.4353096321381773 -0.10156390070738212 0  0.49001312443982309 -0.10356723913793058 0  0.54694159919557883 -0.10487182528826802 0  0.60587055056458594 -0.10548973791150074 0  0.6665675457344401 -0.10544102453534383 0  0.72879315690773405 -0.10475300963363542 0  0.79230191462855681 -0.10345941449051831 0  0.85684328057981274 -0.10159934310310445 0  0.92216263743144633 -0.099216192321253671 0  0.98800229294236974 -0.096356544641887795 0  1.0541024952269158 -0.093069098815525192 0  1.1202024558487864 -0.089403687031755927 0  1.1860413771878116 -0.08541041844562576 0  1.2513594803374941 -0.081138977844281368 0  1.3158990296405193 -0.076638096086926413 0  1.3794053498621899 -0.071955196387235076 0  1.4416278319422873 -0.06713620835424533 0  1.5023209232546972 -0.062225530726281369 0  1.5612450983371822 -0.057266114589492462 0  1.6181678061240647 -0.052299632100423384 0  1.6728643898135203 -0.04736669169705824 0  1.725118975620511 -0.042507059664678132 0  1.7747253267997258 -0.037759849706513353 0  1.8214876594301896 -0.033163646652978579 0  1.8652214176698485 -0.028756537114764943 0  1.9057539916181385 -0.024576030192532027 0  1.9429254912175811 -0.02065884589639521 0  1.9765888701534609 -0.017040654861650319 0  2.0066126110364531 -0.013755405462926241 0  2.0328744529836791 -0.010835602852375871 0  2.0552792582355903 -0.0083097072703077948 0  2.0737236851403984 -0.0062056924602673655 0  2.0881555183981879 -0.0045436201924979212 0  2.0984962538194591 -0.0033440201103971134 0  2.1047214710686011 -0.0026184261583654875 0  2.1074918452681235 -0.0022946231766758298 0  2.1081851067789197 -0.0022135943621177973 0 
 0 4 0.00048960609879410925 1 0.0019564440961383359 1 0.0043945832302579391 1 0.0077941724423938189 1 0.012141489875179282 1 0.017419010614298645 1 0.023605491292800276 1 0.030676070007887236 1 0.038602379958691424 1 0.047352675292247882 1 0.056891967823057818 1 0.067182173540385928 1 0.078182268104302358 1 0.089848450825007628 1 0.10213431689330502 1 0.11499103786293575 1 0.12836755056441085 1 0.1422107547470611 1 0.15646571979672294 1 0.17107590085733027 1 0.1859833645917526 1 0.20112902464596447 1 0.21645288662738066 1 0.23189430207316925 1 0.2473922304755875 1 0.26288550796859089 1 0.27831312079740517 1 0.2936144812400559 1 0.30872970329028249 1 0.32359987521742395 1 0.33816732616647099 1 0.35237588432276329 1 0.36617112490477594 1 0.37950060742111891 1 0.39231410329208138 1 0.40456381717698725 1 0.41620460833123496 1 0.42719422238539612 1 0.43749354980517163 1 0.4470669364047129 1 0.45588258659385322 1 0.46391312763813991 1 0.47113645612459204 1 0.47753709509836939 1 0.48310851973796382 1 0.48785742476218469 1 0.49181209916514396 1 0.49503969814924736 1 0.49768087869968081 1 0.49999999999999989 1 0.50231912130031897 1 0.50496030185075247 1 0.50818790083485588 1 0.51214257523781503 1 0.51689148026203591 1 0.52246290490163028 1 0.52886354387540757 1 0.53608687236185981 1 0.54411741340614639 1 0.55293306359528671 1 0.56250645019482814 1 0.57280577761460361 1 0.58379539166876482 1 0.59543618282301258 1 0.6076858967079185 1 0.62049939257888109 1 0.63382887509522401 1 0.64762411567723677 1 0.66183267383352884 1 0.67640012478257594 1 0.69127029670971762 1 0.70638551875994404 1 0.72168687920259467 1 0.73711449203140911 1 0.75260776952441244 1 0.76810569792683059 1 0.78354711337261929 1 0.7988709753540354 1 0.81401663540824742 1 0.82892409914266962 1 0.84353428020327692 1 0.85778924525293865 1 0.87163244943558926 1 0.88500896213706437 1 0.8978656831066949 1 0.9101515491749923 1 0.92181773189569749 1 0.93281782645961409 1 0.94310803217694239 1 0.95264732470775226 1 0.96139762004130869 1 0.9693239299921127 1 0.97639450870719968 1 0.98258098938570138 1 0.98785851012482073 1 0.99220582755760611 1 0.99560541676974201 1 0.99804355590386162 1 0.99951039390120588 1 1 4
1 2.1081851067789197 -0.0022135943621177973 0 0 1 0 
1 -31.622776601683796 31.622776601683796 -31.622776601683796 1 0 -0 
1 31.622776601683796 31.622776601683796 -31.622776601683796 0 0 1 
1 31.622776601683796 -31.622776601683796 -31.622776601683796 -0 1 0 
7 0 0  3 103 101  3.7927053409152904 0.41610196646008529 -4.7434164902525691  3.7923587101598923 0.41614248086736433 -4.7434164902525691  3.7909735230601314 0.41630438235820916 -4.7434164902525691  3.7878609144355604 0.41666717933422492 -4.7434164902525691  3.7826905467249246 0.4172669793752754 -4.7434164902525691  3.77547463009603 0.41809801550916009 -4.7434164902525691  3.766252416643626 0.4191500229141803 -4.7434164902525691  3.7550500140176704 0.42041297070521433 -4.7434164902525691  3.7419190930440571 0.42187287201048956 -4.7434164902525691  3.726907222602561 0.42351549670985156 -4.7434164902525691  3.7100755331346216 0.42532459222722396 -4.7434164902525691  3.6914897833348999 0.42728318437529245 -4.7434164902525691  3.6712234963607551 0.42937343783640886 -4.7434164902525691  3.6493566172409255 0.43157699260551569 -4.7434164902525691  3.6259754509256945 0.43387509413228309 -4.7434164902525691  3.601172275336086 0.43624869911136543 -4.7434164902525691  3.5750449824325905 0.43867851512755551 -4.7434164902525691  3.5476966905878631 0.44114498532923813 -4.7434164902525691  3.5192353366944218 0.4436282265737726 -4.7434164902525691  3.4897732491531794 0.44610793464216714 -4.7434164902525691  3.4594267034969746 0.44856327345614894 -4.7434164902525691  3.4283154624569256 0.45097276747264403 -4.7434164902525691  3.3965623023460907 0.45331421732248955 -4.7434164902525691  3.3642925276945777 0.45556465820116715 -4.7434164902525691  3.331633476119737 0.45770037850183926 -4.7434164902525691  3.2987140154502241 0.45969701279490438 -4.7434164902525691  3.2656640351392889 0.46152971868678899 -4.7434164902525691  3.2326139339970155 0.46317344159997031 -4.7434164902525691  3.1996941062415538 0.4646032654396533 -4.7434164902525691  3.1670344278157367 0.46579484083057859 -4.7434164902525691  3.1347637448401091 0.46672487652428563 -4.7434164902525691  3.1030093659796978 0.46737167409584413 -4.7434164902525691  3.0718965603930504 0.46771568154669829 -4.7434164902525691  3.0415480628081237 0.46774003823477683 -4.7434164902525691  3.0120835871236196 0.46743108192316041 -4.7434164902525691  2.9836193497457417 0.46677878884799173 -4.7434164902525691  2.9562676035949194 0.46577711963271745 -4.7434164902525691  2.9301361832687696 0.46442424759527173 -4.7434164902525691  2.9053280610645755 0.46272265137939794 -4.7434164902525691  2.8819409121414608 0.46067906065364128 -4.7434164902525691  2.8600666844396483 0.45830425149363047 -4.7434164902525691  2.8397911638616522 0.45561269620513994 -4.7434164902525691  2.8211935160905965 0.45262208072271748 -4.7434164902525691  2.8043457594893777 0.4493527028127714 -4.7434164902525691  2.7893121146122808 0.44582675570147623 -4.7434164902525691  2.7761479796612876 0.44206749908487347 -4.7434164902525691  2.7648983195152383 0.43809776804563105 -4.7434164902525691  2.7555948863312687 0.43393811769620194 -4.7434164902525691  2.7482501789954394 0.42959729207669956 -4.7434164902525691  2.7428599688553148 0.42505744699110976 -4.7434164902525691  2.7394304714651549 0.42021025529561568 -4.7434164902525691  2.7382304941013809 0.41499516927902641 -4.7434164902525691  2.7394304714651549 0.40978008326243703 -4.7434164902525691  2.7428599688553144 0.40493289156694329 -4.7434164902525691  2.7482501789954394 0.40039304648135321 -4.7434164902525691  2.7555948863312687 0.39605222086185088 -4.7434164902525691  2.7648983195152383 0.39189257051242177 -4.7434164902525691  2.7761479796612876 0.3879228394731794 -4.7434164902525691  2.7893121146122808 0.38416358285657665 -4.7434164902525691  2.8043457594893777 0.38063763574528142 -4.7434164902525691  2.8211935160905965 0.3773682578353354 -4.7434164902525691  2.8397911638616522 0.37437764235291288 -4.7434164902525691  2.8600666844396478 0.37168608706442241 -4.7434164902525691  2.8819409121414603 0.36931127790441154 -4.7434164902525691  2.9053280610645755 0.36726768717865482 -4.7434164902525691  2.93013618326877 0.36556609096278109 -4.7434164902525691  2.9562676035949194 0.36421321892533537 -4.7434164902525691  2.9836193497457422 0.36321154971006114 -4.7434164902525691  3.01208358712362 0.36255925663489241 -4.7434164902525691  3.0415480628081237 0.36225030032327604 -4.7434164902525691  3.0718965603930508 0.36227465701135447 -4.7434164902525691  3.1030093659796978 0.3626186644622087 -4.7434164902525691  3.1347637448401091 0.36326546203376725 -4.7434164902525691  3.1670344278157367 0.36419549772747417 -4.7434164902525691  3.1996941062415538 0.36538707311839957 -4.7434164902525691  3.2326139339970155 0.36681689695808251 -4.7434164902525691  3.2656640351392885 0.36846061987126383 -4.7434164902525691  3.2987140154502237 0.37029332576314844 -4.7434164902525691  3.3316334761197366 0.37228996005621351 -4.7434164902525691  3.3642925276945777 0.37442568035688573 -4.7434164902525691  3.3965623023460902 0.37667612123556321 -4.7434164902525691  3.4283154624569256 0.3790175710854089 -4.7434164902525691  3.4594267034969741 0.38142706510190372 -4.7434164902525691  3.4897732491531794 0.38388240391588574 -4.7434164902525691  3.5192353366944218 0.38636211198428017 -4.7434164902525691  3.5476966905878631 0.38884535322881469 -4.7434164902525691  3.5750449824325905 0.39131182343049731 -4.7434164902525691  3.601172275336086 0.39374163944668733 -4.7434164902525691  3.6259754509256936 0.39611524442576973 -4.7434164902525691  3.6493566172409255 0.39841334595253713 -4.7434164902525691  3.6712234963607546 0.40061690072164396 -4.7434164902525691  3.6914897833348999 0.40270715418276037 -4.7434164902525691  3.7100755331346211 0.4046657463308288 -4.7434164902525691  3.726907222602561 0.40647484184820126 -4.7434164902525691  3.7419190930440571 0.40811746654756331 -4.7434164902525691  3.7550500140176704 0.40957736785283849 -4.7434164902525691  3.766252416643626 0.41084031564387252 -4.7434164902525691  3.7754746300960296 0.41189232304889273 -4.7434164902525691  3.7826905467249246 0.41272335918277747 -4.7434164902525691  3.7878609144355604 0.41332315922382784 -4.7434164902525691  3.7909735230601314 0.41368595619984366 -4.7434164902525691  3.7923587101598923 0.41384785769068849 -4.7434164902525691  3.7927053409152904 0.41388837209796753 -4.7434164902525691 
 0 4 0.00048960609879410925 1 0.0019564440961383359 1 0.0043945832302579391 1 0.0077941724423938189 1 0.012141489875179282 1 0.017419010614298645 1 0.023605491292800276 1 0.030676070007887236 1 0.038602379958691424 1 0.047352675292247882 1 0.056891967823057818 1 0.067182173540385928 1 0.078182268104302358 1 0.089848450825007628 1 0.10213431689330502 1 0.11499103786293575 1 0.12836755056441085 1 0.1422107547470611 1 0.15646571979672294 1 0.17107590085733027 1 0.1859833645917526 1 0.20112902464596447 1 0.21645288662738066 1 0.23189430207316925 1 0.2473922304755875 1 0.26288550796859089 1 0.27831312079740517 1 0.2936144812400559 1 0.30872970329028249 1 0.32359987521742395 1 0.33816732616647099 1 0.35237588432276329 1 0.36617112490477594 1 0.37950060742111891 1 0.39231410329208138 1 0.40456381717698725 1 0.41620460833123496 1 0.42719422238539612 1 0.43749354980517163 1 0.4470669364047129 1 0.45588258659385322 1 0.46391312763813991 1 0.47113645612459204 1 0.47753709509836939 1 0.48310851973796382 1 0.48785742476218469 1 0.49181209916514396 1 0.49503969814924736 1 0.49768087869968081 1 0.49999999999999989 1 0.50231912130031897 1 0.50496030185075247 1 0.50818790083485588 1 0.51214257523781503 1 0.51689148026203591 1 0.52246290490163028 1 0.52886354387540757 1 0.53608687236185981 1 0.54411741340614639 1 0.55293306359528671 1 0.56250645019482814 1 0.57280577761460361 1 0.58379539166876482 1 0.59543618282301258 1 0.6076858967079185 1 0.62049939257888109 1 0.63382887509522401 1 0.64762411567723677 1 0.66183267383352884 1 0.67640012478257594 1 0.69127029670971762 1 0.70638551875994404 1 0.72168687920259467 1 0.73711449203140911 1 0.75260776952441244 1 0.76810569792683059 1 0.78354711337261929 1 0.7988709753540354 1 0.81401663540824742 1 0.82892409914266962 1 0.84353428020327692 1 0.85778924525293865 1 0.87163244943558926 1 0.88500896213706437 1 0.8978656831066949 1 0.9101515491749923 1 0.92181773189569749 1 0.93281782645961409 1 0.94310803217694239 1 0.95264732470775226 1 0.96139762004130869 1 0.9693239299921127 1 0.97639450870719968 1 0.98258098938570138 1 0.98785851012482073 1 0.99220582755760611 1 0.99560541676974201 1 0.99804355590386162 1 0.99951039390120588 1 1 4
7 0 0  1 2 2  2.7386127899243431 0.41499516927902713 -4.7434164902525691  4.7970249073448108e-09 1.4315805485498601e-15 0 
 0 2 1 2
7 0 0  1 2 2  3.7927053409152904 0.41610196646008529 -4.7434164902525691  2.1081851067789197 0.0022135943621177973 0 
 0 2 1 2
7 0 0  3 103 101  3.7927053409152904 0.41610196646008529 -4.7434164902525691  3.7923587101598923 0.41614248086736433 -4.7434164902525691  3.7909735230601314 0.41630438235820916 -4.7434164902525691  3.7878609144355604 0.41666717933422492 -4.7434164902525691  3.7826905467249246 0.4172669793752754 -4.7434164902525691  3.77547463009603 0.41809801550916009 -4.7434164902525691  3.766252416643626 0.4191500229141803 -4.7434164902525691  3.7550500140176704 0.42041297070521433 -4.7434164902525691  3.7419190930440571 0.42187287201048956 -4.7434164902525691  3.726907222602561 0.42351549670985156 -4.7434164902525691  3.7100755331346216 0.42532459222722396 -4.7434164902525691  3.6914897833348999 0.42728318437529245 -4.7434164902525691  3.6712234963607551 0.42937343783640886 -4.7434164902525691  3.6493566172409255 0.43157699260551569 -4.7434164902525691  3.6259754509256945 0.43387509413228309 -4.7434164902525691  3.601172275336086 0.43624869911136543 -4.7434164902525691  3.5750449824325905 0.43867851512755551 -4.7434164902525691  3.5476966905878631 0.44114498532923813 -4.7434164902525691  3.5192353366944218 0.4436282265737726 -4.7434164902525691  3.4897732491531794 0.44610793464216714 -4.7434164902525691  3.4594267034969746 0.44856327345614894 -4.7434164902525691  3.4283154624569256 0.45097276747264403 -4.7434164902525691  3.3965623023460907 0.45331421732248955 -4.7434164902525691  3.3642925276945777 0.45556465820116715 -4.7434164902525691  3.331633476119737 0.45770037850183926 -4.7434164902525691  3.2987140154502241 0.45969701279490438 -4.7434164902525691  3.2656640351392889 0.46152971868678899 -4.7434164902525691  3.2326139339970155 0.46317344159997031 -4.7434164902525691  3.1996941062415538 0.4646032654396533 -4.7434164902525691  3.1670344278157367 0.46579484083057859 -4.7434164902525691  3.1347637448401091 0.46672487652428563 -4.7434164902525691  3.1030093659796978 0.46737167409584413 -4.7434164902525691  3.0718965603930504 0.46771568154669829 -4.7434164902525691  3.0415480628081237 0.46774003823477683 -4.7434164902525691  3.0120835871236196 0.46743108192316041 -4.7434164902525691  2.9836193497457417 0.46677878884799173 -4.7434164902525691  2.9562676035949194 0.46577711963271745 -4.7434164902525691  2.9301361832687696 0.46442424759527173 -4.7434164902525691  2.9053280610645755 0.46272265137939794 -4.7434164902525691  2.8819409121414608 0.46067906065364128 -4.7434164902525691  2.8600666844396483 0.45830425149363047 -4.7434164902525691  2.8397911638616522 0.45561269620513994 -4.7434164902525691  2.8211935160905965 0.45262208072271748 -4.7434164902525691  2.8043457594893777 0.4493527028127714 -4.7434164902525691  2.7893121146122808 0.44582675570147623 -4.7434164902525691  2.7761479796612876 0.44206749908487347 -4.7434164902525691  2.7648983195152383 0.43809776804563105 -4.7434164902525691  2.7555948863312687 0.43393811769620194 -4.7434164902525691  2.7482501789954394 0.42959729207669956 -4.7434164902525691  2.7428599688553148 0.42505744699110976 -4.7434164902525691  2.7394304714651549 0.42021025529561568 -4.7434164902525691  2.7382304941013809 0.41499516927902641 -4.7434164902525691  2.7394304714651549 0.40978008326243703 -4.7434164902525691  2.7428599688553144 0.40493289156694329 -4.7434164902525691  2.7482501789954394 0.40039304648135321 -4.7434164902525691  2.7555948863312687 0.39605222086185088 -4.7434164902525691  2.7648983195152383 0.39189257051242177 -4.7434164902525691  2.7761479796612876 0.3879228394731794 -4.7434164902525691  2.7893121146122808 0.38416358285657665 -4.7434164902525691  2.8043457594893777 0.38063763574528142 -4.7434164902525691  2.8211935160905965 0.3773682578353354 -4.7434164902525691  2.8397911638616522 0.37437764235291288 -4.7434164902525691  2.8600666844396478 0.37168608706442241 -4.7434164902525691  2.8819409121414603 0.36931127790441154 -4.7434164902525691  2.9053280610645755 0.36726768717865482 -4.7434164902525691  2.93013618326877 0.36556609096278109 -4.7434164902525691  2.9562676035949194 0.36421321892533537 -4.7434164902525691  2.9836193497457422 0.36321154971006114 -4.7434164902525691  3.01208358712362 0.36255925663489241 -4.7434164902525691  3.0415480628081237 0.36225030032327604 -4.7434164902525691  3.0718965603930508 0.36227465701135447 -4.7434164902525691  3.1030093659796978 0.3626186644622087 -4.7434164902525691  3.1347637448401091 0.36326546203376725 -4.7434164902525691  3.1670344278157367 0.36419549772747417 -4.7434164902525691  3.1996941062415538 0.36538707311839957 -4.7434164902525691  3.2326139339970155 0.36681689695808251 -4.7434164902525691  3.2656640351392885 0.36846061987126383 -4.7434164902525691  3.2987140154502237 0.37029332576314844 -4.7434164902525691  3.3316334761197366 0.37228996005621351 -4.7434164902525691  3.3642925276945777 0.37442568035688573 -4.7434164902525691  3.3965623023460902 0.37667612123556321 -4.7434164902525691  3.4283154624569256 0.3790175710854089 -4.7434164902525691  3.4594267034969741 0.38142706510190372 -4.7434164902525691  3.4897732491531794 0.38388240391588574 -4.7434164902525691  3.5192353366944218 0.38636211198428017 -4.7434164902525691  3.5476966905878631 0.38884535322881469 -4.7434164902525691  3.5750449824325905 0.39131182343049731 -4.7434164902525691  3.601172275336086 0.39374163944668733 -4.7434164902525691  3.6259754509256936 0.39611524442576973 -4.7434164902525691  3.6493566172409255 0.39841334595253713 -4.7434164902525691  3.6712234963607546 0.40061690072164396 -4.7434164902525691  3.6914897833348999 0.40270715418276037 -4.7434164902525691  3.7100755331346211 0.4046657463308288 -4.7434164902525691  3.726907222602561 0.40647484184820126 -4.7434164902525691  3.7419190930440571 0.40811746654756331 -4.7434164902525691  3.7550500140176704 0.40957736785283849 -4.7434164902525691  3.766252416643626 0.41084031564387252 -4.7434164902525691  3.7754746300960296 0.41189232304889273 -4.7434164902525691  3.7826905467249246 0.41272335918277747 -4.7434164902525691  3.7878609144355604 0.41332315922382784 -4.7434164902525691  3.7909735230601314 0.41368595619984366 -4.7434164902525691  3.7923587101598923 0.41384785769068849 -4.7434164902525691  3.7927053409152904 0.41388837209796753 -4.7434164902525691 
 0 4 0.00048960609879410925 1 0.0019564440961383359 1 0.0043945832302579391 1 0.0077941724423938189 1 0.012141489875179282 1 0.017419010614298645 1 0.023605491292800276 1 0.030676070007887236 1 0.038602379958691424 1 0.047352675292247882 1 0.056891967823057818 1 0.067182173540385928 1 0.078182268104302358 1 0.089848450825007628 1 0.10213431689330502 1 0.11499103786293575 1 0.12836755056441085 1 0.1422107547470611 1 0.15646571979672294 1 0.17107590085733027 1 0.1859833645917526 1 0.20112902464596447 1 0.21645288662738066 1 0.23189430207316925 1 0.2473922304755875 1 0.26288550796859089 1 0.27831312079740517 1 0.2936144812400559 1 0.30872970329028249 1 0.32359987521742395 1 0.33816732616647099 1 0.35237588432276329 1 0.36617112490477594 1 0.37950060742111891 1 0.39231410329208138 1 0.40456381717698725 1 0.41620460833123496 1 0.42719422238539612 1 0.43749354980517163 1 0.4470669364047129 1 0.45588258659385322 1 0.46391312763813991 1 0.47113645612459204 1 0.47753709509836939 1 0.48310851973796382 1 0.48785742476218469 1 0.49181209916514396 1 0.49503969814924736 1 0.49768087869968081 1 0.49999999999999989 1 0.50231912130031897 1 0.50496030185075247 1 0.50818790083485588 1 0.51214257523781503 1 0.51689148026203591 1 0.52246290490163028 1 0.52886354387540757 1 0.53608687236185981 1 0.54411741340614639 1 0.55293306359528671 1 0.56250645019482814 1 0.57280577761460361 1 0.58379539166876482 1 0.59543618282301258 1 0.6076858967079185 1 0.62049939257888109 1 0.63382887509522401 1 0.64762411567723677 1 0.66183267383352884 1 0.67640012478257594 1 0.69127029670971762 1 0.70638551875994404 1 0.72168687920259467 1 0.73711449203140911 1 0.75260776952441244 1 0.76810569792683059 1 0.78354711337261929 1 0.7988709753540354 1 0.81401663540824742 1 0.82892409914266962 1 0.84353428020327692 1 0.85778924525293865 1 0.87163244943558926 1 0.88500896213706437 1 0.8978656831066949 1 0.9101515491749923 1 0.92181773189569749 1 0.93281782645961409 1 0.94310803217694239 1 0.95264732470775226 1 0.96139762004130869 1 0.9693239299921127 1 0.97639450870719968 1 0.98258098938570138 1 0.98785851012482073 1 0.99220582755760611 1 0.99560541676974201 1 0.99804355590386162 1 0.99951039390120588 1 1 4
7 0 0  1 2 2  3.7927053409152904 0.41388837209796753 -4.7434164902525691  2.1081851067789197 -0.0022135943621177973 0 
 0 2 1 2
1 3.7927053409152904 0.41388837209796753 -4.7434164902525691 0 1 0 
Polygon3D 0
PolygonOnTriangulations 0
Surfaces 10
1 -31.622776601683796 -31.622776601683796 -31.622776601683796 1 0 -0 0 0 1 0 -1 0 
1 -31.622776601683796 -31.622776601683796 -31.622776601683796 -0 1 0 0 0 1 1 0 -0 
1 -31.622776601683796 -31.622776601683796 0 0 0 1 1 0 -0 -0 1 0 
9 0 0 0 0 3 1 53 2 51 2 3.7927053409152904 0.41610196646008529 -4.7434164902525691  2.1081851067789197 0.0022135943621177973 0  
3.7923587101598923 0.41614248086736433 -4.7434164902525691  2.1074918452681235 0.0022946231766758315 0  
3.7909735230601314 0.41630438235820916 -4.7434164902525691  2.1047214710686011 0.0026184261583654905 0  
3.7878609144355604 0.41666717933422492 -4.7434164902525691  2.09849625381946 0.0033440201103970171 0  
3.7826905467249246 0.4172669793752754 -4.7434164902525691  2.0881555183981879 0.0045436201924979637 0  
3.77547463009603 0.41809801550916009 -4.7434164902525691  2.0737236851403988 0.0062056924602673794 0  
3.766252416643626 0.4191500229141803 -4.7434164902525691  2.0552792582355908 0.0083097072703077739 0  
3.7550500140176704 0.42041297070521433 -4.7434164902525691  2.0328744529836791 0.01083560285237585 0  
3.7419190930440571 0.42187287201048956 -4.7434164902525691  2.0066126110364535 0.013755405462926269 0  
3.726907222602561 0.42351549670985156 -4.7434164902525691  1.9765888701534609 0.017040654861650295 0  
3.7100755331346216 0.42532459222722396 -4.7434164902525691  1.9429254912175822 0.020658845896395092 0  
3.6914897833348999 0.42728318437529245 -4.7434164902525691  1.9057539916181385 0.024576030192532072 0  
3.6712234963607551 0.42937343783640886 -4.7434164902525691  1.8652214176698487 0.02875653711476487 0  
3.6493566172409255 0.43157699260551569 -4.7434164902525691  1.8214876594301899 0.033163646652978579 0  
3.6259754509256945 0.43387509413228309 -4.7434164902525691  1.7747253267997274 0.037759849706513318 0  
3.601172275336086 0.43624869911136543 -4.7434164902525691  1.7251189756205108 0.042507059664678035 0  
3.5750449824325905 0.43867851512755551 -4.7434164902525691  1.6728643898135198 0.04736669169705824 0  
3.5476966905878631 0.44114498532923813 -4.7434164902525691  1.618167806124065 0.052299632100423432 0  
3.5192353366944218 0.4436282265737726 -4.7434164902525691  1.5612450983371826 0.057266114589492378 0  
3.4897732491531794 0.44610793464216714 -4.7434164902525691  1.5023209232546972 0.062225530726281439 0  
3.4594267034969746 0.44856327345614894 -4.7434164902525691  1.4416278319422882 0.067136208354245094 0  
3.4283154624569256 0.45097276747264403 -4.7434164902525691  1.3794053498621901 0.071955196387235187 0  
3.3965623023460907 0.45331421732248955 -4.7434164902525691  1.3158990296405197 0.076638096086926344 0  
3.3642925276945777 0.45556465820116715 -4.7434164902525691  1.2513594803374939 0.081138977844281451 0  
3.331633476119737 0.45770037850183926 -4.7434164902525691  1.1860413771878127 0.085410418445625719 0  
3.2987140154502241 0.45969701279490438 -4.7434164902525691  1.1202024558487869 0.089403687031755885 0  
3.2656640351392889 0.46152971868678899 -4.7434164902525691  1.0541024952269162 0.093069098815525206 0  
3.2326139339970155 0.46317344159997031 -4.7434164902525691  0.98800229294237008 0.096356544641887781 0  
3.1996941062415538 0.4646032654396533 -4.7434164902525691  0.92216263743144622 0.099216192321253741 0  
3.1670344278157367 0.46579484083057859 -4.7434164902525691  0.85684328057981252 0.10159934310310439 0  
3.1347637448401091 0.46672487652428563 -4.7434164902525691  0.79230191462855692 0.10345941449051838 0  
3.1030093659796978 0.46737167409584413 -4.7434164902525691  0.7287931569077345 0.10475300963363539 0  
3.0718965603930504 0.46771568154669829 -4.7434164902525691  0.66656754573443944 0.10544102453534378 0  
3.0415480628081237 0.46774003823477683 -4.7434164902525691  0.60587055056458616 0.10548973791150081 0  
3.0120835871236196 0.46743108192316041 -4.7434164902525691  0.54694159919557839 0.10487182528826797 0  
2.9836193497457417 0.46677878884799173 -4.7434164902525691  0.49001312443982253 0.1035672391379306 0  
2.9562676035949194 0.46577711963271745 -4.7434164902525691  0.43530963213817764 0.10156390070738211 0  
2.9301361832687696 0.46442424759527173 -4.7434164902525691  0.38304679148587811 0.098858156632490604 0  
2.9053280610645755 0.46272265137939794 -4.7434164902525691  0.33343054707748987 0.095454964200743078 0  
2.8819409121414608 0.46067906065364128 -4.7434164902525691  0.28665624923126015 0.091367782749229742 0  
2.8600666844396483 0.45830425149363047 -4.7434164902525691  0.24290779382763511 0.086618164429208139 0  
2.8397911638616522 0.45561269620513994 -4.7434164902525691  0.20235675267164346 0.08123505385222704 0  
2.8211935160905965 0.45262208072271748 -4.7434164902525691  0.16516145712953206 0.075253822887382082 0  
2.8043457594893777 0.4493527028127714 -4.7434164902525691  0.13146594392709424 0.068715067067489963 0  
2.7893121146122808 0.44582675570147623 -4.7434164902525691  0.10139865417290019 0.061663172844899604 0  
2.7761479796612876 0.44206749908487347 -4.7434164902525691  0.075070384270914225 0.054144659611694082 0  
2.7648983195152383 0.43809776804563105 -4.7434164902525691  0.052571063978815551 0.046205197533209313 0  
2.7555948863312687 0.43393811769620194 -4.7434164902525691  0.033964197610876011 0.037885896834351118 0  
2.7482501789954394 0.42959729207669956 -4.7434164902525691  0.019274782939217618 0.02920424559534629 0  
2.7428599688553148 0.42505744699110976 -4.7434164902525691  0.0084943626589682776 0.020124555424166701 0  
2.7394304714651549 0.42021025529561568 -4.7434164902525691  0.0016353678786487128 0.010430172033178539 0  
2.7386127899243431 0.41665662195365083 -4.7434164902525691  4.7970250577778623e-09 0.003322905349248896 0  
2.7386127899243431 0.41499516927902713 -4.7434164902525691  4.7970249073448108e-09 1.4315805485498601e-15 0  

0 4
0.00048960609879410925 1
0.0019564440961383359 1
0.0043945832302579391 1
0.0077941724423938189 1
0.012141489875179282 1
0.017419010614298645 1
0.023605491292800276 1
0.030676070007887236 1
0.038602379958691424 1
0.047352675292247882 1
0.056891967823057818 1
0.067182173540385928 1
0.078182268104302358 1
0.089848450825007628 1
0.10213431689330502 1
0.11499103786293575 1
0.12836755056441085 1
0.1422107547470611 1
0.15646571979672294 1
0.17107590085733027 1
0.1859833645917526 1
0.20112902464596447 1
0.21645288662738066 1
0.23189430207316925 1
0.2473922304755875 1
0.26288550796859089 1
0.27831312079740517 1
0.2936144812400559 1
0.30872970329028249 1
0.32359987521742395 1
0.33816732616647099 1
0.35237588432276329 1
0.36617112490477594 1
0.37950060742111891 1
0.39231410329208138 1
0.40456381717698725 1
0.41620460833123496 1
0.42719422238539612 1
0.43749354980517163 1
0.4470669364047129 1
0.45588258659385322 1
0.46391312763813991 1
0.47113645612459204 1
0.47753709509836939 1
0.48310851973796382 1
0.48785742476218469 1
0.49181209916514396 1
0.49503969814924736 1
0.49768087869968081 1
0.49999999999999989 4

0 2
1 2

9 0 0 0 0 3 1 53 2 51 2 2.7386127899243431 0.41499516927902713 -4.7434164902525691  4.7970249073448108e-09 1.4315805485498601e-15 0  
2.7386127899243431 0.41333371660440266 -4.7434164902525691  4.7970247569117594e-09 -0.003322905349247464 0  
2.7394304714651549 0.40978008326243703 -4.7434164902525691  0.0016353678786488212 -0.010430172033178741 0  
2.7428599688553144 0.40493289156694329 -4.7434164902525691  0.0084943626589679307 -0.020124555424166295 0  
2.7482501789954394 0.40039304648135321 -4.7434164902525691  0.019274782939217749 -0.029204245595346436 0  
2.7555948863312687 0.39605222086185088 -4.7434164902525691  0.033964197610875879 -0.037885896834351007 0  
2.7648983195152383 0.39189257051242177 -4.7434164902525691  0.052571063978815356 -0.046205197533209265 0  
2.7761479796612876 0.3879228394731794 -4.7434164902525691  0.075070384270914198 -0.054144659611694068 0  
2.7893121146122808 0.38416358285657665 -4.7434164902525691  0.10139865417290002 -0.061663172844899555 0  
2.8043457594893777 0.38063763574528142 -4.7434164902525691  0.13146594392709404 -0.068715067067489921 0  
2.8211935160905965 0.3773682578353354 -4.7434164902525691  0.16516145712953187 -0.075253822887382055 0  
2.8397911638616522 0.37437764235291288 -4.7434164902525691  0.20235675267164335 -0.08123505385222704 0  
2.8600666844396478 0.37168608706442241 -4.7434164902525691  0.2429077938276345 -0.086618164429208042 0  
2.8819409121414603 0.36931127790441154 -4.7434164902525691  0.28665624923125965 -0.091367782749229687 0  
2.9053280610645755 0.36726768717865482 -4.7434164902525691  0.33343054707749015 -0.095454964200743134 0  
2.93013618326877 0.36556609096278109 -4.7434164902525691  0.38304679148587839 -0.098858156632490604 0  
2.9562676035949194 0.36421321892533537 -4.7434164902525691  0.4353096321381773 -0.10156390070738212 0  
2.9836193497457422 0.36321154971006114 -4.7434164902525691  0.49001312443982309 -0.10356723913793058 0  
3.01208358712362 0.36255925663489241 -4.7434164902525691  0.54694159919557883 -0.10487182528826802 0  
3.0415480628081237 0.36225030032327604 -4.7434164902525691  0.60587055056458594 -0.10548973791150074 0  
3.0718965603930508 0.36227465701135447 -4.7434164902525691  0.6665675457344401 -0.10544102453534383 0  
3.1030093659796978 0.3626186644622087 -4.7434164902525691  0.72879315690773405 -0.10475300963363542 0  
3.1347637448401091 0.36326546203376725 -4.7434164902525691  0.79230191462855681 -0.10345941449051831 0  
3.1670344278157367 0.36419549772747417 -4.7434164902525691  0.85684328057981274 -0.10159934310310445 0  
3.1996941062415538 0.36538707311839957 -4.7434164902525691  0.92216263743144633 -0.099216192321253671 0  
3.2326139339970155 0.36681689695808251 -4.7434164902525691  0.98800229294236974 -0.096356544641887795 0  
3.2656640351392885 0.36846061987126383 -4.7434164902525691  1.0541024952269158 -0.093069098815525192 0  
3.2987140154502237 0.37029332576314844 -4.7434164902525691  1.1202024558487864 -0.089403687031755927 0  
3.3316334761197366 0.37228996005621351 -4.7434164902525691  1.1860413771878116 -0.08541041844562576 0  
3.3642925276945777 0.37442568035688573 -4.7434164902525691  1.2513594803374941 -0.081138977844281368 0  
3.3965623023460902 0.37667612123556321 -4.7434164902525691  1.3158990296405193 -0.076638096086926413 0  
3.4283154624569256 0.3790175710854089 -4.7434164902525691  1.3794053498621899 -0.071955196387235076 0  
3.4594267034969741 0.38142706510190372 -4.7434164902525691  1.4416278319422873 -0.06713620835424533 0  
3.4897732491531794 0.38388240391588574 -4.7434164902525691  1.5023209232546972 -0.062225530726281369 0  
3.5192353366944218 0.38636211198428017 -4.7434164902525691  1.5612450983371822 -0.057266114589492462 0  
3.5476966905878631 0.38884535322881469 -4.7434164902525691  1.6181678061240647 -0.052299632100423384 0  
3.5750449824325905 0.39131182343049731 -4.7434164902525691  1.6728643898135203 -0.04736669169705824 0  
3.601172275336086 0.39374163944668733 -4.7434164902525691  1.725118975620511 -0.042507059664678132 0  
3.6259754509256936 0.39611524442576973 -4.7434164902525691  1.7747253267997258 -0.037759849706513353 0  
3.6493566172409255 0.39841334595253713 -4.7434164902525691  1.8214876594301896 -0.033163646652978579 0  
3.6712234963607546 0.40061690072164396 -4.7434164902525691  1.8652214176698485 -0.028756537114764943 0  
3.6914897833348999 0.40270715418276037 -4.7434164902525691  1.9057539916181385 -0.024576030192532027 0  
3.7100755331346211 0.4046657463308288 -4.7434164902525691  1.9429254912175811 -0.02065884589639521 0  
3.726907222602561 0.40647484184820126 -4.7434164902525691  1.9765888701534609 -0.017040654861650319 0  
3.7419190930440571 0.40811746654756331 -4.7434164902525691  2.0066126110364531 -0.013755405462926241 0  
3.7550500140176704 0.40957736785283849 -4.7434164902525691  2.0328744529836791 -0.010835602852375871 0  
3.766252416643626 0.41084031564387252 -4.7434164902525691  2.0552792582355903 -0.0083097072703077948 0  
3.7754746300960296 0.41189232304889273 -4.7434164902525691  2.0737236851403984 -0.0062056924602673655 0  
3.7826905467249246 0.41272335918277747 -4.7434164902525691  2.0881555183981879 -0.0045436201924979212 0  
3.7878609144355604 0.41332315922382784 -4.7434164902525691  2.0984962538194591 -0.0033440201103971134 0  
3.7909735230601314 0.41368595619984366 -4.7434164902525691  2.1047214710686011 -0.0026184261583654875 0  
3.7923587101598923 0.41384785769068849 -4.7434164902525691  2.1074918452681235 -0.0022946231766758298 0  
3.7927053409152904 0.41388837209796753 -4.7434164902525691  2.1081851067789197 -0.0022135943621177973 0  

0.49999999999999989 4
0.50231912130031897 1
0.50496030185075247 1
0.50818790083485588 1
0.51214257523781503 1
0.51689148026203591 1
0.52246290490163028 1
0.52886354387540757 1
0.53608687236185981 1
0.54411741340614639 1
0.55293306359528671 1
0.56250645019482814 1
0.57280577761460361 1
0.58379539166876482 1
0.59543618282301258 1
0.6076858967079185 1
0.62049939257888109 1
0.63382887509522401 1
0.64762411567723677 1
0.66183267383352884 1
0.67640012478257594 1
0.69127029670971762 1
0.70638551875994404 1
0.72168687920259467 1
0.73711449203140911 1
0.75260776952441244 1
0.76810569792683059 1
0.78354711337261929 1
0.7988709753540354 1
0.81401663540824742 1
0.82892409914266962 1
0.84353428020327692 1
0.85778924525293865 1
0.87163244943558926 1
0.88500896213706437 1
0.8978656831066949 1
0.9101515491749923 1
0.92181773189569749 1
0.93281782645961409 1
0.94310803217694239 1
0.95264732470775226 1
0.96139762004130869 1
0.9693239299921127 1
0.97639450870719968 1
0.98258098938570138 1
0.98785851012482073 1
0.99220582755760611 1
0.99560541676974201 1
0.99804355590386162 1
0.99951039390120588 1
1 4

0 2
1 2

9 0 0 0 0 1 1 2 2 2 2 3.7927053409152904 0.41388837209796753 -4.7434164902525691  2.1081851067789197 -0.0022135943621177973 0  
3.7927053409152904 0.41610196646008535 -4.7434164902525691  2.1081851067789197 0.0022135943621177973 0  

0 2
0.0044271887242355945 2

0 2
1 2

1 -31.622776601683796 31.622776601683796 -31.622776601683796 -0 1 0 0 0 1 1 0 -0 
1 -31.622776601683796 -31.622776601683796 -31.622776601683796 0 0 1 1 0 -0 -0 1 0 
1 31.622776601683796 -31.622776601683796 -31.622776601683796 1 0 -0 0 0 1 0 -1 0 
1 3.7927053409152904 0.41610196646008529 -4.7434164902525691 -8.5480242671998939e-16 1.1621326015763768e-14 1 -0.99999944875045332 -0.0010499994235760742 -8.4259956989279755e-16 0.0010499994235760742 -0.99999944875045332 1.1622217151568398e-14 
Triangulations 0

TShapes 59
Ve
1e-07
-31.6227766016838 -31.6227766016838 0
0 0

0101101
*
Ve
1e-07
-31.6227766016838 -31.6227766016838 -31.6227766016838
0 0

0101101
*
Ed
 1e-07 1 1 0
1  1 0 0 31.6227766016838
0

0101000
-59 0 +58 0 *
Ve
1e-07
-31.6227766016838 31.6227766016838 0
0 0

0101101
*
Ed
 1e-07 1 1 0
1  2 0 0 63.2455532033676
0

0101000
-56 0 +59 0 *
Ve
1e-07
-31.6227766016838 31.6227766016838 -31.6227766016838
0 0

0101101
*
Ed
 1e-07 1 1 0
1  3 0 0 31.6227766016838
0

0101000
-56 0 +54 0 *
Ed
 1e-07 1 1 0
1  4 0 0 63.2455532033676
0

0101000
-54 0 +58 0 *
Wi

0101100
-57 0 -55 0 +53 0 +52 0 *
Fa
0  1e-07 1 0

0111000
+51 0 *
Ve
1e-07
31.6227766016838 -31.6227766016838 -31.6227766016838
0 0

0101101
*
Ed
 1e-07 1 1 0
1  5 0 0 63.2455532033676
0

0101000
-49 0 +58 0 *
Ve
1e-07
31.6227766016838 -31.6227766016838 0
0 0

0101101
*
Ed
 1e-07 1 1 0
1  6 0 0 31.6227766016838
0

0101000
-47 0 +49 0 *
Ed
 1e-07 1 1 0
1  7 0 0 63.2455532033676
0

0101000
-47 0 +59 0 *
Wi

0101100
-48 0 -46 0 +45 0 +57 0 *
Fa
0  1e-07 2 0

0111000
+44 0 *
Ve
1e-07
31.6227766016838 31.6227766016838 0
0 0

0101101
*
Ed
 1e-07 1 1 0
1  8 0 0 63.2455532033676
0

0101000
-42 0 +56 0 *
Ed
 1e-07 1 1 0
1  9 0 0 63.2455532033676
0

0101000
-42 0 +47 0 *
Wi

0101100
-55 0 -41 0 +45 0 +40 0 *
Ve
2.10818510677892e-07
2.10818510677892 0.0022135943621178 0
0 0

0101101
*
Ve
2.10818510677892e-07
0 0 0
0 0

0101101
*
Ed
 1e-07 1 1 0
1  10 0 0 0.499999999999999
2  1 4 0 0 0.499999999999999
0

0101000
+38 0 -37 0 *
Ve
2.10818510677892e-07
2.10818510677892 -0.0022135943621178 0
0 0

0101101
*
Ed
 1e-07 1 1 0
1  11 0 0.499999999999999 1
2  2 5 0 0.499999999999999 1
0

0101000
+37 0 -35 0 *
Ed
 1e-07 1 1 0
1  12 0 0 0.00442718872423559
2  3 6 0 0 0.00442718872423559
0

0101000
+35 0 -38 0 *
Wi

0101100
-36 0 -34 0 -33 0 *
Fa
0  1e-07 3 0

0111000
+39 0 +32 0 *
Ve
1e-07
31.6227766016838 31.6227766016838 -31.6227766016838
0 0

0101101
*
Ed
 1e-07 1 1 0
1  13 0 0 63.2455532033676
0

0101000
-30 0 +54 0 *
Ed
 1e-07 1 1 0
1  14 0 0 31.6227766016838
0

0101000
-42 0 +30 0 *
Wi

0101100
-29 0 -28 0 +41 0 +53 0 *
Fa
0  1e-07 7 0

0111000
+27 0 *
Ed
 1e-07 1 1 0
1  15 0 0 63.2455532033676
0

0101000
-30 0 +49 0 *
Wi

0101100
-52 0 -29 0 +25 0 +48 0 *
Fa
0  1e-07 8 0

0111000
+24 0 *
Wi

0101100
-46 0 -40 0 +28 0 +25 0 *
Fa
0  1e-07 9 0

0111000
+22 0 *
Ve
1.05409255338946e-07
3.79270534091529 0.416101966460085 -4.74341649025257
0 0

0101101
*
Ve
1.05409255338946e-07
2.73861278752583 0.414995169279026 -4.74341649025257
0 0

0101101
*
Ed
 1e-07 1 1 0
1  16 0 0 0.499999999999999
2  4 4 0 0 0.499999999999999
0

0101000
+20 0 -19 0 *
Ed
 1e-07 1 1 0
1  17 0 0 1
2  5 4 0 0 1
2  6 5 0 0 1
4 C2 4 0 5 0
0

0101000
+19 0 -37 0 *
Ed
 1e-07 1 1 0
1  18 0 0 1
2  7 4 0 0 1
2  8 6 0 0 1
0

0101000
+20 0 -38 0 *
Wi

0101100
+18 0 +17 0 -36 0 -16 0 *
Fa
0  1e-07 4 0

0111000
+15 0 *
Ve
1.05409255338946e-07
3.79270534091529 0.413888372097968 -4.74341649025257
0 0

0101101
*
Ed
 1e-07 1 1 0
1  19 0 0.499999999999999 1
2  9 5 0 0.499999999999999 1
0

0101000
+19 0 -13 0 *
Ed
 1e-07 1 1 0
1  20 0 0 1
2  10 5 0 0 1
2  11 6 0 0 1
0

0101000
+13 0 -35 0 *
Wi

0101100
+12 0 +11 0 -34 0 -17 0 *
Fa
0  1e-07 5 0

0111000
+10 0 *
Ed
 1e-07 1 1 0
1  21 0 0 0.0022135943621178
2  12 6 0 0 0.0022135943621178
0

0101000
+13 0 -20 0 *
Wi

0101100
+8 0 +16 0 -33 0 -11 0 *
Fa
0  1e-07 6 0

0111000
+7 0 *
Wi

0101100
+18 0 +12 0 +8 0 *
Fa
0  1e-07 10 0

0111000
+5 0 *
Sh

0101100
-50 0 -43 0 +31 0 +26 0 -23 0 +21 0 -14 0 -9 0 -6 0 +4 0 
*
So

0100000
+3 0 *
Co

1100000
+2 0 *

+1 0 
##EGADS HEADER FILE-REV 1 ##
0
  1  1  10  11  21  14  4
1 5 1
_body
11
1 5 1
_brch
27
3 7 52
capsAIM
#egadsTessAIM;tacsAIM;pointwiseAIM;fun3dAIM;tetgenAIM
2 14 1
capsMeshLength
 1.000000000000e+00
    2 0 8
1 5 2
_body
8 1 
1 5 2
_brch
25 8 
1 5 2
_hist
8 11 
1 9 4
__trace__
8 1 11 1 
3 9 8
capsGroup
#Farfield
3 8 8
capsMesh
#Farfield
1 7 3
_faceID
8 1 1 
3 7 8
PW:Name
#Farfield
    2 1 8
1 5 2
_body
8 3 
1 5 2
_brch
25 8 
1 5 2
_hist
8 11 
1 9 4
__trace__
8 3 11 2 
3 9 8
capsGroup
#Farfield
3 8 8
capsMesh
#Farfield
1 7 3
_faceID
8 3 1 
3 7 8
PW:Name
#Farfield
    2 2 9
1 5 2
_body
8 6 
1 5 2
_brch
25 8 
1 5 2
_hist
8 11 
1 9 4
__trace__
8 6 11 3 
3 9 8
capsGroup
#Symmetry
3 8 8
capsMesh
#Symmetry
1 7 3
_faceID
8 6 1 
1 11 1
__trimmed__
1
3 7 8
PW:Name
#Symmetry
    2 3 8
1 5 2
_body
8 4 
1 5 2
_brch
25 8 
1 5 2
_hist
8 11 
1 9 4
__trace__
8 4 11 4 
3 9 8
capsGroup
#Farfield
3 8 8
capsMesh
#Farfield
1 7 3
_faceID
8 4 1 
3 7 8
PW:Name
#Farfield
    2 4 8
1 5 2
_body
8 5 
1 5 2
_brch
25 8 
1 5 2
_hist
8 11 
1 9 4
__trace__
8 5 11 5 
3 9 8
capsGroup
#Farfield
3 8 8
capsMesh
#Farfield
1 7 3
_faceID
8 5 1 
3 7 8
PW:Name
#Farfield
    2 5 8
1 5 2
_body
8 2 
1 5 2
_brch
25 8 
1 5 2
_hist
8 11 
1 9 4
__trace__
8 2 11 6 
3 9 8
capsGroup
#Farfield
3 8 8
capsMesh
#Farfield
1 7 3
_faceID
8 2 1 
3 7 8
PW:Name
#Farfield
    2 6 11
1 5 2
_body
7 3 
1 5 2
_brch
26 7 
2 3 1
OML
 0.000000000000e+00
1 5 2
_hist
7 11 
1 9 4
__trace__
7 1 11 7 
3 9 3
capsGroup
#OML
3 8 3
capsMesh
#OML
1 7 3
_faceID
7 3 1 
1 11 1
__trimmed__
1
3 7 3
PW:Name
#OML
2 14 1
PW:WallSpacing
 1.000000000000e-03
    2 7 11
1 5 2
_body
7 4 
1 5 2
_brch
26 7 
2 3 1
OML
 0.000000000000e+00
1 5 2
_hist
7 11 
1 9 4
__trace__
7 2 11 8 
3 9 3
capsGroup
#OML
3 8 3
capsMesh
#OML
1 7 3
_faceID
7 4 1 
1 11 1
__trimmed__
1
3 7 3
PW:Name
#OML
2 14 1
PW:WallSpacing
 1.000000000000e-03
    2 8 11
1 5 2
_body
7 5 
1 5 2
_brch
26 7 
2 3 1
OML
 0.000000000000e+00
1 5 2
_hist
7 11 
1 9 4
__trace__
7 3 11 9 
3 9 3
capsGroup
#OML
3 8 3
capsMesh
#OML
1 7 3
_faceID
7 5 1 
1 11 1
__trimmed__
1
3 7 3
PW:Name
#OML
2 14 1
PW:WallSpacing
 1.000000000000e-03
    2 9 11
1 5 2
_body
7 1 
1 5 2
_brch
26 7 
2 3 1
OML
 0.000000000000e+00
1 5 2
_hist
7 11 
1 9 4
__trace__
7 4 11 10 
3 9 3
capsGroup
#OML
3 8 3
capsMesh
#OML
1 7 3
_faceID
7 1 1 
1 11 1
__trimmed__
1
3 7 3
PW:Name
#OML
2 14 1
PW:WallSpacing
 1.000000000000e-03
    4 0 4
1 9 4
__trace__
8 1 11 1 
1 5 2
_body
8 10003 
1 7 5
_edgeID
8 1 8 3 1 
1 6 1
_nface
2
    4 1 4
1 9 4
__trace__
8 2 11 2 
1 5 2
_body
8 10006 
1 7 5
_edgeID
8 1 8 6 1 
1 6 1
_nface
2
    4 2 4
1 9 4
__trace__
8 3 11 3 
1 5 2
_body
8 40001 
1 7 5
_edgeID
8 1 8 4 1 
1 6 1
_nface
2
    4 3 4
1 9 4
__trace__
8 4 11 4 
1 5 2
_body
8 50001 
1 7 5
_edgeID
8 1 8 5 1 
1 6 1
_nface
2
    4 4 4
1 9 4
__trace__
8 9 11 5 
1 5 2
_body
8 30005 
1 7 5
_edgeID
8 3 8 5 1 
1 6 1
_nface
2
    4 5 4
1 9 4
__trace__
8 5 11 6 
1 5 2
_body
8 30002 
1 7 5
_edgeID
8 2 8 3 1 
1 6 1
_nface
2
    4 6 4
1 9 4
__trace__
8 10 11 7 
1 5 2
_body
8 60003 
1 7 5
_edgeID
8 3 8 6 1 
1 6 1
_nface
2
    4 7 4
1 9 4
__trace__
8 12 11 8 
1 5 2
_body
8 40006 
1 7 5
_edgeID
8 4 8 6 1 
1 6 1
_nface
2
    4 8 4
1 9 4
__trace__
8 6 11 9 
1 5 2
_body
8 60002 
1 7 5
_edgeID
8 2 8 6 1 
1 6 1
_nface
2
    4 9 4
1 5 2
_body
11 0 
1 7 5
_edgeID
7 3 8 6 1 
1 6 1
_nface
2
1 9 2
__trace__
11 10 
    4 10 4
1 5 2
_body
11 0 
1 7 5
_edgeID
7 4 8 6 1 
1 6 1
_nface
2
1 9 2
__trace__
11 11 
    4 11 4
1 5 2
_body
11 0 
1 7 5
_edgeID
7 5 8 6 1 
1 6 1
_nface
2
1 9 2
__trace__
11 12 
    4 12 4
1 9 4
__trace__
8 11 11 13 
1 5 2
_body
8 50004 
1 7 5
_edgeID
8 4 8 5 1 
1 6 1
_nface
2
    4 13 4
1 9 4
__trace__
8 7 11 14 
1 5 2
_body
8 20004 
1 7 5
_edgeID
8 2 8 4 1 
1 6 1
_nface
2
    4 14 4
1 9 4
__trace__
8 8 11 15 
1 5 2
_body
8 20005 
1 7 5
_edgeID
8 2 8 5 1 
1 6 1
_nface
2
    4 15 4
1 9 4
__trace__
7 1 11 16 
1 5 2
_body
7 10003 
1 7 5
_edgeID
7 1 7 3 1 
1 6 1
_nface
2
    4 16 4
1 5 2
_body
7 40003 
1 7 5
_edgeID
7 3 7 4 1 
1 9 4
__trace__
7 2 11 17 
1 6 1
_nface
2
    4 17 4
1 5 2
_body
7 30005 
1 7 5
_edgeID
7 3 7 5 1 
1 9 4
__trace__
7 4 11 18 
1 6 1
_nface
2
    4 18 4
1 9 4
__trace__
7 5 11 19 
1 5 2
_body
7 10004 
1 7 5
_edgeID
7 1 7 4 1 
1 6 1
_nface
2
    4 19 4
1 5 2
_body
7 50004 
1 7 5
_edgeID
7 4 7 5 1 
1 9 4
__trace__
7 6 11 20 
1 6 1
_nface
2
    4 20 4
1 9 4
__trace__
7 8 11 21 
1 5 2
_body
7 10005 
1 7 5
_edgeID
7 1 7 5 1 
1 6 1
_nface
2
    5 0 3
1 9 4
__trace__
8 1 11 1 
1 7 1
_nodeID
1
1 6 1
_nedge
3
    5 1 3
1 9 4
__trace__
8 2 11 2 
1 7 1
_nodeID
2
1 6 1
_nedge
3
    5 2 3
1 9 4
__trace__
8 3 11 3 
1 7 1
_nodeID
3
1 6 1
_nedge
3
    5 3 3
1 9 4
__trace__
8 4 11 4 
1 7 1
_nodeID
4
1 6 1
_nedge
3
    5 4 3
1 9 4
__trace__
8 6 11 5 
1 7 1
_nodeID
5
1 6 1
_nedge
3
    5 5 3
1 9 4
__trace__
8 5 11 6 
1 7 1
_nodeID
6
1 6 1
_nedge
3
    5 6 3
1 9 4
__trace__
8 7 11 7 
1 7 1
_nodeID
7
1 6 1
_nedge
3
    5 7 3
1 9 8
__trace__
1 1 2 1 7 4 11 8 
1 7 1
_nodeID
8
1 6 1
_nedge
3
    5 8 3
1 9 8
__trace__
1 2 2 2 7 3 11 9 
1 7 1
_nodeID
9
1 6 1
_nedge
3
    5 9 3
1 9 8
__trace__
1 3 2 3 7 6 11 10 
1 7 1
_nodeID
10
1 6 1
_nedge
3
    5 10 3
1 9 4
__trace__
8 8 11 11 
1 7 1
_nodeID
11
1 6 1
_nedge
3
    5 11 3
1 9 12
__trace__
3 1 4 1 5 1 6 1 7 1 11 12 
1 7 1
_nodeID
12
1 6 1
_nedge
3
    5 12 3
1 9 12
__trace__
3 2 4 2 5 2 6 2 7 2 11 13 
1 7 1
_nodeID
13
1 6 1
_nedge
3
    5 13 3
1 9 12
__trace__
3 3 4 3 5 3 6 3 7 5 11 14 
1 7 1
_nodeID
14
1 6 1
_nedge
3
    0 0 0
