DBRep_DrawableShape

CASCADE Topology V1, (c) Matra-Datavision
Locations 0
Curve2ds 12
1 0 1 1 0 
1 0 1 1 0 
1 0 1 1 0 
1 0 0 1 0 
1 0.49999999999999989 0 0 1 
1 0.49999999999999989 0 0 1 
1 0 0 0 1 
1 0.0072295689129202884 0 0 1 
1 0 0 1 0 
1 1 0 0 1 
1 0 0 0 1 
7 0 0  1 2 2  0 0  0.0072295689129202884 0 
 0 2 0.0036147844564601442 2
Curves 21
1 -51.639777949432222 -51.639777949432222 -51.639777949432222 0 0 1 
1 -51.639777949432222 -51.639777949432222 0 -0 1 0 
1 -51.639777949432222 51.639777949432222 -51.639777949432222 0 0 1 
1 -51.639777949432222 -51.639777949432222 -51.639777949432222 -0 1 0 
1 -51.639777949432222 -51.639777949432222 -51.639777949432222 1 0 -0 
1 51.639777949432222 -51.639777949432222 -51.639777949432222 0 0 1 
1 -51.639777949432222 -51.639777949432222 0 1 0 -0 
1 -51.639777949432222 51.639777949432222 0 1 0 -0 
1 51.639777949432222 -51.639777949432222 0 -0 1 0 
7 0 0  3 103 101  3.4426518632954815 0.0036147844564601442 0  3.4415197719889741 0.0037471039565466669 0  3.4369957698653728 0.0042758720114342858 0  3.4268300326664609 0.0054607619733854423 0  3.4099436824349669 0.0074197007044175265 0  3.3863765974119597 0.010133853352194565 0  3.3562569744020649 0.013569695149433127 0  3.3196700806329904 0.017694465362511194 0  3.2767846723154421 0.022462483059507724 0  3.2277561087601954 0.027827272862613793 0  3.1727840411529562 0.033735754080638745 0  3.1120832364911521 0.040132489249957999 0  3.0458938204011945 0.046959228467053533 0  2.9744768922535925 0.054156008206504465 0  2.898114322835637 0.061661576363425841 0  2.8171074905753759 0.069413737763000916 0  2.7317761092769706 0.077349483641011518 0  2.6424569621352365 0.085404941587547342 0  2.5495025695649614 0.093515173530671777 0  2.4532797945872895 0.10161386616884389 0  2.3541683915022569 0.1096329691553851 0  2.2525595037517836 0.11750234366032117 0  2.1488541170951931 0.12514948684757179 0  2.0434614744141193 0.1324993959796526 0  1.9367974586253207 0.13947462927291956 0  1.8292829502947527 0.14599560956752231 0  1.7213421666003235 0.151981201945802 0  1.6134009882723974 0.15734957850022233 0  1.5058852810441401 0.16201936360594274 0  1.3992192179686262 0.16591103253637535 0  1.2938236087134154 0.16894851639258537 0  1.1901142416373778 0.17106094841550484 0  1.0885002440991107 0.17218447204524931 0  0.9893824660415671 0.17226402065540464 0  0.89315189142066476 0.17125497356704125 0  0.80018808142965481 0.16912459330448901 0  0.71085765257145639 0.16585315534652109 0  0.62551279116711012 0.16143469377449232 0  0.54448980333126329 0.15587730380497039 0  0.46810769479777992 0.14920296444338668 0  0.3966667662819221 0.14144687020536803 0  0.33044719336806871 0.13265628744364613 0  0.26970753009460824 0.12288897817857623 0  0.21468298744981715 0.11221123463764987 0  0.16558330888569178 0.10069553959403185 0  0.12258942417226401 0.088417858896887511 0  0.085848187988871255 0.075452771613911201 0  0.055463302446467799 0.061867410461256489 0  0.031475588735990497 0.047690333354347691 0  0.013871236136415492 0.032863261393045268 0  0.0026705445629514046 0.01703239960715653 0  -0.0012485650958976788 4.6656632866202882e-17 0  0.0026705445629515816 -0.01703239960715686 0  0.013871236136414925 -0.032863261393044602 0  0.031475588735990712 -0.047690333354347927 0  0.055463302446467584 -0.061867410461256309 0  0.085848187988870936 -0.075452771613911118 0  0.12258942417226397 -0.088417858896887483 0  0.1655833088856915 -0.10069553959403177 0  0.21468298744981684 -0.1122112346376498 0  0.26970753009460791 -0.12288897817857618 0  0.33044719336806849 -0.13265628744364613 0  0.3966667662819211 -0.14144687020536789 0  0.46810769479777914 -0.1492029644433866 0  0.54448980333126373 -0.1558773038049705 0  0.62551279116711056 -0.16143469377449232 0  0.71085765257145572 -0.16585315534652109 0  0.8001880814296557 -0.16912459330448895 0  0.89315189142066553 -0.17125497356704134 0  0.98938246604156665 -0.17226402065540453 0  1.0885002440991118 -0.17218447204524942 0  1.1901142416373771 -0.1710609484155049 0  1.2938236087134152 -0.16894851639258524 0  1.3992192179686265 -0.16591103253637543 0  1.5058852810441403 -0.16201936360594263 0  1.6134009882723968 -0.15734957850022235 0  1.7213421666003226 -0.15198120194580197 0  1.8292829502947521 -0.14599560956752236 0  1.9367974586253192 -0.13947462927291962 0  2.0434614744141197 -0.13249939597965249 0  2.1488541170951923 -0.12514948684757191 0  2.2525595037517832 -0.117502343660321 0  2.354168391502256 -0.10963296915538548 0  2.4532797945872895 -0.10161386616884378 0  2.5495025695649614 -0.093515173530671916 0  2.6424569621352361 -0.085404941587547259 0  2.7317761092769715 -0.077349483641011518 0  2.8171074905753763 -0.069413737763001082 0  2.8981143228356343 -0.061661576363425903 0  2.974476892253592 -0.054156008206504465 0  3.0458938204011945 -0.046959228467053658 0  3.1120832364911521 -0.040132489249957923 0  3.1727840411529549 -0.03373575408063894 0  3.2277561087601954 -0.027827272862613835 0  3.2767846723154412 -0.022462483059507678 0  3.3196700806329904 -0.017694465362511225 0  3.3562569744020645 -0.013569695149433163 0  3.3863765974119588 -0.010133853352194543 0  3.4099436824349669 -0.0074197007044174562 0  3.4268300326664596 -0.0054607619733855993 0  3.4369957698653733 -0.0042758720114342815 0  3.4415197719889741 -0.0037471039565466647 0  3.4426518632954815 -0.0036147844564601442 0 
 0 4 0.00048960609879410925 1 0.0019564440961383359 1 0.0043945832302579391 1 0.0077941724423938189 1 0.012141489875179282 1 0.017419010614298645 1 0.023605491292800276 1 0.030676070007887236 1 0.038602379958691424 1 0.047352675292247882 1 0.056891967823057818 1 0.067182173540385928 1 0.078182268104302358 1 0.089848450825007628 1 0.10213431689330502 1 0.11499103786293575 1 0.12836755056441085 1 0.1422107547470611 1 0.15646571979672294 1 0.17107590085733027 1 0.1859833645917526 1 0.20112902464596447 1 0.21645288662738066 1 0.23189430207316925 1 0.2473922304755875 1 0.26288550796859089 1 0.27831312079740517 1 0.2936144812400559 1 0.30872970329028249 1 0.32359987521742395 1 0.33816732616647099 1 0.35237588432276329 1 0.36617112490477594 1 0.37950060742111891 1 0.39231410329208138 1 0.40456381717698725 1 0.41620460833123496 1 0.42719422238539612 1 0.43749354980517163 1 0.4470669364047129 1 0.45588258659385322 1 0.46391312763813991 1 0.47113645612459204 1 0.47753709509836939 1 0.48310851973796382 1 0.48785742476218469 1 0.49181209916514396 1 0.49503969814924736 1 0.49768087869968081 1 0.49999999999999989 1 0.50231912130031897 1 0.50496030185075247 1 0.50818790083485588 1 0.51214257523781503 1 0.51689148026203591 1 0.52246290490163028 1 0.52886354387540757 1 0.53608687236185981 1 0.54411741340614639 1 0.55293306359528671 1 0.56250645019482814 1 0.57280577761460361 1 0.58379539166876482 1 0.59543618282301258 1 0.6076858967079185 1 0.62049939257888109 1 0.63382887509522401 1 0.64762411567723677 1 0.66183267383352884 1 0.67640012478257594 1 0.69127029670971762 1 0.70638551875994404 1 0.72168687920259467 1 0.73711449203140911 1 0.75260776952441244 1 0.76810569792683059 1 0.78354711337261929 1 0.7988709753540354 1 0.81401663540824742 1 0.82892409914266962 1 0.84353428020327692 1 0.85778924525293865 1 0.87163244943558926 1 0.88500896213706437 1 0.8978656831066949 1 0.9101515491749923 1 0.92181773189569749 1 0.93281782645961409 1 0.94310803217694239 1 0.95264732470775226 1 0.96139762004130869 1 0.9693239299921127 1 0.97639450870719968 1 0.98258098938570138 1 0.98785851012482073 1 0.99220582755760611 1 0.99560541676974201 1 0.99804355590386162 1 0.99951039390120588 1 1 4
7 0 0  3 103 101  3.4426518632954815 0.0036147844564601442 0  3.4415197719889741 0.0037471039565466669 0  3.4369957698653728 0.0042758720114342858 0  3.4268300326664609 0.0054607619733854423 0  3.4099436824349669 0.0074197007044175265 0  3.3863765974119597 0.010133853352194565 0  3.3562569744020649 0.013569695149433127 0  3.3196700806329904 0.017694465362511194 0  3.2767846723154421 0.022462483059507724 0  3.2277561087601954 0.027827272862613793 0  3.1727840411529562 0.033735754080638745 0  3.1120832364911521 0.040132489249957999 0  3.0458938204011945 0.046959228467053533 0  2.9744768922535925 0.054156008206504465 0  2.898114322835637 0.061661576363425841 0  2.8171074905753759 0.069413737763000916 0  2.7317761092769706 0.077349483641011518 0  2.6424569621352365 0.085404941587547342 0  2.5495025695649614 0.093515173530671777 0  2.4532797945872895 0.10161386616884389 0  2.3541683915022569 0.1096329691553851 0  2.2525595037517836 0.11750234366032117 0  2.1488541170951931 0.12514948684757179 0  2.0434614744141193 0.1324993959796526 0  1.9367974586253207 0.13947462927291956 0  1.8292829502947527 0.14599560956752231 0  1.7213421666003235 0.151981201945802 0  1.6134009882723974 0.15734957850022233 0  1.5058852810441401 0.16201936360594274 0  1.3992192179686262 0.16591103253637535 0  1.2938236087134154 0.16894851639258537 0  1.1901142416373778 0.17106094841550484 0  1.0885002440991107 0.17218447204524931 0  0.9893824660415671 0.17226402065540464 0  0.89315189142066476 0.17125497356704125 0  0.80018808142965481 0.16912459330448901 0  0.71085765257145639 0.16585315534652109 0  0.62551279116711012 0.16143469377449232 0  0.54448980333126329 0.15587730380497039 0  0.46810769479777992 0.14920296444338668 0  0.3966667662819221 0.14144687020536803 0  0.33044719336806871 0.13265628744364613 0  0.26970753009460824 0.12288897817857623 0  0.21468298744981715 0.11221123463764987 0  0.16558330888569178 0.10069553959403185 0  0.12258942417226401 0.088417858896887511 0  0.085848187988871255 0.075452771613911201 0  0.055463302446467799 0.061867410461256489 0  0.031475588735990497 0.047690333354347691 0  0.013871236136415492 0.032863261393045268 0  0.0026705445629514046 0.01703239960715653 0  -0.0012485650958976788 4.6656632866202882e-17 0  0.0026705445629515816 -0.01703239960715686 0  0.013871236136414925 -0.032863261393044602 0  0.031475588735990712 -0.047690333354347927 0  0.055463302446467584 -0.061867410461256309 0  0.085848187988870936 -0.075452771613911118 0  0.12258942417226397 -0.088417858896887483 0  0.1655833088856915 -0.10069553959403177 0  0.21468298744981684 -0.1122112346376498 0  0.26970753009460791 -0.12288897817857618 0  0.33044719336806849 -0.13265628744364613 0  0.3966667662819211 -0.14144687020536789 0  0.46810769479777914 -0.1492029644433866 0  0.54448980333126373 -0.1558773038049705 0  0.62551279116711056 -0.16143469377449232 0  0.71085765257145572 -0.16585315534652109 0  0.8001880814296557 -0.16912459330448895 0  0.89315189142066553 -0.17125497356704134 0  0.98938246604156665 -0.17226402065540453 0  1.0885002440991118 -0.17218447204524942 0  1.1901142416373771 -0.1710609484155049 0  1.2938236087134152 -0.16894851639258524 0  1.3992192179686265 -0.16591103253637543 0  1.5058852810441403 -0.16201936360594263 0  1.6134009882723968 -0.15734957850022235 0  1.7213421666003226 -0.15198120194580197 0  1.8292829502947521 -0.14599560956752236 0  1.9367974586253192 -0.13947462927291962 0  2.0434614744141197 -0.13249939597965249 0  2.1488541170951923 -0.12514948684757191 0  2.2525595037517832 -0.117502343660321 0  2.354168391502256 -0.10963296915538548 0  2.4532797945872895 -0.10161386616884378 0  2.5495025695649614 -0.093515173530671916 0  2.6424569621352361 -0.085404941587547259 0  2.7317761092769715 -0.077349483641011518 0  2.8171074905753763 -0.069413737763001082 0  2.8981143228356343 -0.061661576363425903 0  2.974476892253592 -0.054156008206504465 0  3.0458938204011945 -0.046959228467053658 0  3.1120832364911521 -0.040132489249957923 0  3.1727840411529549 -0.03373575408063894 0  3.2277561087601954 -0.027827272862613835 0  3.2767846723154412 -0.022462483059507678 0  3.3196700806329904 -0.017694465362511225 0  3.3562569744020645 -0.013569695149433163 0  3.3863765974119588 -0.010133853352194543 0  3.4099436824349669 -0.0074197007044174562 0  3.4268300326664596 -0.0054607619733855993 0  3.4369957698653733 -0.0042758720114342815 0  3.4415197719889741 -0.0037471039565466647 0  3.4426518632954815 -0.0036147844564601442 0 
 0 4 0.00048960609879410925 1 0.0019564440961383359 1 0.0043945832302579391 1 0.0077941724423938189 1 0.012141489875179282 1 0.017419010614298645 1 0.023605491292800276 1 0.030676070007887236 1 0.038602379958691424 1 0.047352675292247882 1 0.056891967823057818 1 0.067182173540385928 1 0.078182268104302358 1 0.089848450825007628 1 0.10213431689330502 1 0.11499103786293575 1 0.12836755056441085 1 0.1422107547470611 1 0.15646571979672294 1 0.17107590085733027 1 0.1859833645917526 1 0.20112902464596447 1 0.21645288662738066 1 0.23189430207316925 1 0.2473922304755875 1 0.26288550796859089 1 0.27831312079740517 1 0.2936144812400559 1 0.30872970329028249 1 0.32359987521742395 1 0.33816732616647099 1 0.35237588432276329 1 0.36617112490477594 1 0.37950060742111891 1 0.39231410329208138 1 0.40456381717698725 1 0.41620460833123496 1 0.42719422238539612 1 0.43749354980517163 1 0.4470669364047129 1 0.45588258659385322 1 0.46391312763813991 1 0.47113645612459204 1 0.47753709509836939 1 0.48310851973796382 1 0.48785742476218469 1 0.49181209916514396 1 0.49503969814924736 1 0.49768087869968081 1 0.49999999999999989 1 0.50231912130031897 1 0.50496030185075247 1 0.50818790083485588 1 0.51214257523781503 1 0.51689148026203591 1 0.52246290490163028 1 0.52886354387540757 1 0.53608687236185981 1 0.54411741340614639 1 0.55293306359528671 1 0.56250645019482814 1 0.57280577761460361 1 0.58379539166876482 1 0.59543618282301258 1 0.6076858967079185 1 0.62049939257888109 1 0.63382887509522401 1 0.64762411567723677 1 0.66183267383352884 1 0.67640012478257594 1 0.69127029670971762 1 0.70638551875994404 1 0.72168687920259467 1 0.73711449203140911 1 0.75260776952441244 1 0.76810569792683059 1 0.78354711337261929 1 0.7988709753540354 1 0.81401663540824742 1 0.82892409914266962 1 0.84353428020327692 1 0.85778924525293865 1 0.87163244943558926 1 0.88500896213706437 1 0.8978656831066949 1 0.9101515491749923 1 0.92181773189569749 1 0.93281782645961409 1 0.94310803217694239 1 0.95264732470775226 1 0.96139762004130869 1 0.9693239299921127 1 0.97639450870719968 1 0.98258098938570138 1 0.98785851012482073 1 0.99220582755760611 1 0.99560541676974201 1 0.99804355590386162 1 0.99951039390120588 1 1 4
1 3.4426518632954815 -0.0036147844564601442 0 0 1 0 
1 -51.639777949432222 51.639777949432222 -51.639777949432222 1 0 -0 
1 51.639777949432222 51.639777949432222 -51.639777949432222 0 0 1 
1 51.639777949432222 -51.639777949432222 -51.639777949432222 -0 1 0 
7 0 0  3 103 101  1.7213259316477407 0.67949166586392606 -7.745966692414834  1.720759885994487 0.67955782561396927 -7.745966692414834  1.7184978849326864 0.67982220964141304 -7.745966692414834  1.7134150163332305 0.6804146546223887 -7.745966692414834  1.7049718412174835 0.68139412398790467 -7.745966692414834  1.6931882987059799 0.68275120031179326 -7.745966692414834  1.6781284872010325 0.68446912121041248 -7.745966692414834  1.6598350403164952 0.68653150631695159 -7.745966692414834  1.6383923361577211 0.6889155151654498 -7.745966692414834  1.6138780543800977 0.69159791006700289 -7.745966692414834  1.5863920205764781 0.69455215067601528 -7.745966692414834  1.5560416182455761 0.69775051826067491 -7.745966692414834  1.5229469102005972 0.70116388786922268 -7.745966692414834  1.4872384461267962 0.70476227773894817 -7.745966692414834  1.4490571614178185 0.70851506181740886 -7.745966692414834  1.408553745287688 0.71239114251719637 -7.745966692414834  1.3658880546384853 0.71635901545620173 -7.745966692414834  1.3212284810676183 0.72038674442946959 -7.745966692414834  1.2747512847824807 0.72444186040103187 -7.745966692414834  1.2266398972936448 0.72849120672011791 -7.745966692414834  1.1770841957511284 0.73250075821338845 -7.745966692414834  1.1262797518758918 0.73643544546585649 -7.745966692414834  1.0744270585475966 0.74025901705948183 -7.745966692414834  1.0217307372070596 0.74393397162552222 -7.745966692414834  0.96839872931266036 0.74742158827215577 -7.745966692414834  0.91464147514737637 0.75068207841945711 -7.745966692414834  0.86067108330016173 0.75367487460859695 -7.745966692414834  0.80670049413619871 0.75635906288580712 -7.745966692414834  0.75294264052207005 0.75869395543866736 -7.745966692414834  0.69960960898431312 0.76063978990388359 -7.745966692414834  0.6469118043567077 0.76215853183198867 -7.745966692414834  0.59505712081868889 0.76321474784344834 -7.745966692414834  0.54425012204955536 0.76377650965832056 -7.745966692414834  0.49469123302078355 0.76381628396339829 -7.745966692414834  0.44657594571033238 0.76331176041921656 -7.745966692414834  0.4000940407148274 0.76224657028794041 -7.745966692414834  0.35542882628572819 0.76061085130895645 -7.745966692414834  0.31275639558355506 0.75840162052294213 -7.745966692414834  0.27224490166563164 0.75562292553818111 -7.745966692414834  0.23405384739888996 0.75228575585738933 -7.745966692414834  0.19833338314096105 0.74840770873837992 -7.745966692414834  0.16522359668403436 0.744012417357519 -7.745966692414834  0.13485376504730412 0.73912876272498407 -7.745966692414834  0.10734149372490857 0.73378989095452085 -7.745966692414834  0.082791654442845891 0.72803204343271188 -7.745966692414834  0.061294712086132006 0.72189320308413973 -7.745966692414834  0.042924093994435628 0.71541065944265159 -7.745966692414834  0.0277316512232339 0.70861797886632416 -7.745966692414834  0.015737794367995248 0.70152944031286979 -7.745966692414834  0.006935618068207746 0.69411590433221859 -7.745966692414834  0.0013352722814757023 0.68620047343927426 -7.745966692414834  -0.00062428254794883939 0.67768427363569594 -7.745966692414834  0.0013352722814757908 0.66916807383211752 -7.745966692414834  0.0069356180682074624 0.66125264293917363 -7.745966692414834  0.015737794367995356 0.65383910695852199 -7.745966692414834  0.027731651223233792 0.64675056840506784 -7.745966692414834  0.042924093994435468 0.63995788782874041 -7.745966692414834  0.061294712086131985 0.63347534418725215 -7.745966692414834  0.082791654442845752 0.62733650383868 -7.745966692414834  0.10734149372490842 0.62157865631687104 -7.745966692414834  0.13485376504730395 0.61623978454640782 -7.745966692414834  0.16522359668403425 0.61135612991387289 -7.745966692414834  0.19833338314096055 0.60696083853301197 -7.745966692414834  0.23405384739888957 0.60308279141400267 -7.745966692414834  0.27224490166563187 0.59974562173321067 -7.745966692414834  0.31275639558355528 0.59696692674844976 -7.745966692414834  0.35542882628572786 0.59475769596243544 -7.745966692414834  0.40009404071482785 0.59312197698345148 -7.745966692414834  0.44657594571033277 0.59205678685217533 -7.745966692414834  0.49469123302078333 0.59155226330799371 -7.745966692414834  0.54425012204955592 0.59159203761307122 -7.745966692414834  0.59505712081868856 0.59215379942794355 -7.745966692414834  0.64691180435670759 0.59321001543940333 -7.745966692414834  0.69960960898431324 0.59472875736750819 -7.745966692414834  0.75294264052207016 0.59667459183272464 -7.745966692414834  0.80670049413619838 0.59900948438558477 -7.745966692414834  0.86067108330016129 0.60169367266279494 -7.745966692414834  0.91464147514737604 0.60468646885193478 -7.745966692414834  0.96839872931265958 0.60794695899923612 -7.745966692414834  1.0217307372070599 0.61143457564586967 -7.745966692414834  1.0744270585475961 0.61510953021190995 -7.745966692414834  1.1262797518758916 0.6189331018055354 -7.745966692414834  1.177084195751128 0.62286778905800322 -7.745966692414834  1.2266398972936448 0.62687734055127409 -7.745966692414834  1.2747512847824807 0.63092668687036002 -7.745966692414834  1.321228481067618 0.63498180284192229 -7.745966692414834  1.3658880546384857 0.63900953181519016 -7.745966692414834  1.4085537452876882 0.6429774047541954 -7.745966692414834  1.4490571614178172 0.64685348545398302 -7.745966692414834  1.487238446126796 0.65060626953244372 -7.745966692414834  1.5229469102005972 0.6542046594021691 -7.745966692414834  1.5560416182455761 0.65761802901071698 -7.745966692414834  1.5863920205764774 0.6608163965953765 -7.745966692414834  1.6138780543800977 0.663770637204389 -7.745966692414834  1.6383923361577206 0.66645303210594209 -7.745966692414834  1.6598350403164952 0.6688370409544403 -7.745966692414834  1.6781284872010322 0.67089942606097941 -7.745966692414834  1.6931882987059794 0.67261734695959863 -7.745966692414834  1.7049718412174835 0.67397442328348722 -7.745966692414834  1.7134150163332298 0.67495389264900318 -7.745966692414834  1.7184978849326866 0.67554633762997884 -7.745966692414834  1.720759885994487 0.67581072165742262 -7.745966692414834  1.7213259316477407 0.67587688140746582 -7.745966692414834 
 0 4 0.00048960609879410925 1 0.0019564440961383359 1 0.0043945832302579391 1 0.0077941724423938189 1 0.012141489875179282 1 0.017419010614298645 1 0.023605491292800276 1 0.030676070007887236 1 0.038602379958691424 1 0.047352675292247882 1 0.056891967823057818 1 0.067182173540385928 1 0.078182268104302358 1 0.089848450825007628 1 0.10213431689330502 1 0.11499103786293575 1 0.12836755056441085 1 0.1422107547470611 1 0.15646571979672294 1 0.17107590085733027 1 0.1859833645917526 1 0.20112902464596447 1 0.21645288662738066 1 0.23189430207316925 1 0.2473922304755875 1 0.26288550796859089 1 0.27831312079740517 1 0.2936144812400559 1 0.30872970329028249 1 0.32359987521742395 1 0.33816732616647099 1 0.35237588432276329 1 0.36617112490477594 1 0.37950060742111891 1 0.39231410329208138 1 0.40456381717698725 1 0.41620460833123496 1 0.42719422238539612 1 0.43749354980517163 1 0.4470669364047129 1 0.45588258659385322 1 0.46391312763813991 1 0.47113645612459204 1 0.47753709509836939 1 0.48310851973796382 1 0.48785742476218469 1 0.49181209916514396 1 0.49503969814924736 1 0.49768087869968081 1 0.49999999999999989 1 0.50231912130031897 1 0.50496030185075247 1 0.50818790083485588 1 0.51214257523781503 1 0.51689148026203591 1 0.52246290490163028 1 0.52886354387540757 1 0.53608687236185981 1 0.54411741340614639 1 0.55293306359528671 1 0.56250645019482814 1 0.57280577761460361 1 0.58379539166876482 1 0.59543618282301258 1 0.6076858967079185 1 0.62049939257888109 1 0.63382887509522401 1 0.64762411567723677 1 0.66183267383352884 1 0.67640012478257594 1 0.69127029670971762 1 0.70638551875994404 1 0.72168687920259467 1 0.73711449203140911 1 0.75260776952441244 1 0.76810569792683059 1 0.78354711337261929 1 0.7988709753540354 1 0.81401663540824742 1 0.82892409914266962 1 0.84353428020327692 1 0.85778924525293865 1 0.87163244943558926 1 0.88500896213706437 1 0.8978656831066949 1 0.9101515491749923 1 0.92181773189569749 1 0.93281782645961409 1 0.94310803217694239 1 0.95264732470775226 1 0.96139762004130869 1 0.9693239299921127 1 0.97639450870719968 1 0.98258098938570138 1 0.98785851012482073 1 0.99220582755760611 1 0.99560541676974201 1 0.99804355590386162 1 0.99951039390120588 1 1 4
7 0 0  1 2 2  3.9167544354872484e-09 0.67768427363569717 -7.745966692414834  7.8335088709744968e-09 2.3379735647477418e-15 0 
 0 2 1 2
7 0 0  1 2 2  1.7213259316477407 0.67949166586392606 -7.745966692414834  3.4426518632954815 0.0036147844564601442 0 
 0 2 1 2
7 0 0  3 103 101  1.7213259316477407 0.67949166586392606 -7.745966692414834  1.720759885994487 0.67955782561396927 -7.745966692414834  1.7184978849326864 0.67982220964141304 -7.745966692414834  1.7134150163332305 0.6804146546223887 -7.745966692414834  1.7049718412174835 0.68139412398790467 -7.745966692414834  1.6931882987059799 0.68275120031179326 -7.745966692414834  1.6781284872010325 0.68446912121041248 -7.745966692414834  1.6598350403164952 0.68653150631695159 -7.745966692414834  1.6383923361577211 0.6889155151654498 -7.745966692414834  1.6138780543800977 0.69159791006700289 -7.745966692414834  1.5863920205764781 0.69455215067601528 -7.745966692414834  1.5560416182455761 0.69775051826067491 -7.745966692414834  1.5229469102005972 0.70116388786922268 -7.745966692414834  1.4872384461267962 0.70476227773894817 -7.745966692414834  1.4490571614178185 0.70851506181740886 -7.745966692414834  1.408553745287688 0.71239114251719637 -7.745966692414834  1.3658880546384853 0.71635901545620173 -7.745966692414834  1.3212284810676183 0.72038674442946959 -7.745966692414834  1.2747512847824807 0.72444186040103187 -7.745966692414834  1.2266398972936448 0.72849120672011791 -7.745966692414834  1.1770841957511284 0.73250075821338845 -7.745966692414834  1.1262797518758918 0.73643544546585649 -7.745966692414834  1.0744270585475966 0.74025901705948183 -7.745966692414834  1.0217307372070596 0.74393397162552222 -7.745966692414834  0.96839872931266036 0.74742158827215577 -7.745966692414834  0.91464147514737637 0.75068207841945711 -7.745966692414834  0.86067108330016173 0.75367487460859695 -7.745966692414834  0.80670049413619871 0.75635906288580712 -7.745966692414834  0.75294264052207005 0.75869395543866736 -7.745966692414834  0.69960960898431312 0.76063978990388359 -7.745966692414834  0.6469118043567077 0.76215853183198867 -7.745966692414834  0.59505712081868889 0.76321474784344834 -7.745966692414834  0.54425012204955536 0.76377650965832056 -7.745966692414834  0.49469123302078355 0.76381628396339829 -7.745966692414834  0.44657594571033238 0.76331176041921656 -7.745966692414834  0.4000940407148274 0.76224657028794041 -7.745966692414834  0.35542882628572819 0.76061085130895645 -7.745966692414834  0.31275639558355506 0.75840162052294213 -7.745966692414834  0.27224490166563164 0.75562292553818111 -7.745966692414834  0.23405384739888996 0.75228575585738933 -7.745966692414834  0.19833338314096105 0.74840770873837992 -7.745966692414834  0.16522359668403436 0.744012417357519 -7.745966692414834  0.13485376504730412 0.73912876272498407 -7.745966692414834  0.10734149372490857 0.73378989095452085 -7.745966692414834  0.082791654442845891 0.72803204343271188 -7.745966692414834  0.061294712086132006 0.72189320308413973 -7.745966692414834  0.042924093994435628 0.71541065944265159 -7.745966692414834  0.0277316512232339 0.70861797886632416 -7.745966692414834  0.015737794367995248 0.70152944031286979 -7.745966692414834  0.006935618068207746 0.69411590433221859 -7.745966692414834  0.0013352722814757023 0.68620047343927426 -7.745966692414834  -0.00062428254794883939 0.67768427363569594 -7.745966692414834  0.0013352722814757908 0.66916807383211752 -7.745966692414834  0.0069356180682074624 0.66125264293917363 -7.745966692414834  0.015737794367995356 0.65383910695852199 -7.745966692414834  0.027731651223233792 0.64675056840506784 -7.745966692414834  0.042924093994435468 0.63995788782874041 -7.745966692414834  0.061294712086131985 0.63347534418725215 -7.745966692414834  0.082791654442845752 0.62733650383868 -7.745966692414834  0.10734149372490842 0.62157865631687104 -7.745966692414834  0.13485376504730395 0.61623978454640782 -7.745966692414834  0.16522359668403425 0.61135612991387289 -7.745966692414834  0.19833338314096055 0.60696083853301197 -7.745966692414834  0.23405384739888957 0.60308279141400267 -7.745966692414834  0.27224490166563187 0.59974562173321067 -7.745966692414834  0.31275639558355528 0.59696692674844976 -7.745966692414834  0.35542882628572786 0.59475769596243544 -7.745966692414834  0.40009404071482785 0.59312197698345148 -7.745966692414834  0.44657594571033277 0.59205678685217533 -7.745966692414834  0.49469123302078333 0.59155226330799371 -7.745966692414834  0.54425012204955592 0.59159203761307122 -7.745966692414834  0.59505712081868856 0.59215379942794355 -7.745966692414834  0.64691180435670759 0.59321001543940333 -7.745966692414834  0.69960960898431324 0.59472875736750819 -7.745966692414834  0.75294264052207016 0.59667459183272464 -7.745966692414834  0.80670049413619838 0.59900948438558477 -7.745966692414834  0.86067108330016129 0.60169367266279494 -7.745966692414834  0.91464147514737604 0.60468646885193478 -7.745966692414834  0.96839872931265958 0.60794695899923612 -7.745966692414834  1.0217307372070599 0.61143457564586967 -7.745966692414834  1.0744270585475961 0.61510953021190995 -7.745966692414834  1.1262797518758916 0.6189331018055354 -7.745966692414834  1.177084195751128 0.62286778905800322 -7.745966692414834  1.2266398972936448 0.62687734055127409 -7.745966692414834  1.2747512847824807 0.63092668687036002 -7.745966692414834  1.321228481067618 0.63498180284192229 -7.745966692414834  1.3658880546384857 0.63900953181519016 -7.745966692414834  1.4085537452876882 0.6429774047541954 -7.745966692414834  1.4490571614178172 0.64685348545398302 -7.745966692414834  1.487238446126796 0.65060626953244372 -7.745966692414834  1.5229469102005972 0.6542046594021691 -7.745966692414834  1.5560416182455761 0.65761802901071698 -7.745966692414834  1.5863920205764774 0.6608163965953765 -7.745966692414834  1.6138780543800977 0.663770637204389 -7.745966692414834  1.6383923361577206 0.66645303210594209 -7.745966692414834  1.6598350403164952 0.6688370409544403 -7.745966692414834  1.6781284872010322 0.67089942606097941 -7.745966692414834  1.6931882987059794 0.67261734695959863 -7.745966692414834  1.7049718412174835 0.67397442328348722 -7.745966692414834  1.7134150163332298 0.67495389264900318 -7.745966692414834  1.7184978849326866 0.67554633762997884 -7.745966692414834  1.720759885994487 0.67581072165742262 -7.745966692414834  1.7213259316477407 0.67587688140746582 -7.745966692414834 
 0 4 0.00048960609879410925 1 0.0019564440961383359 1 0.0043945832302579391 1 0.0077941724423938189 1 0.012141489875179282 1 0.017419010614298645 1 0.023605491292800276 1 0.030676070007887236 1 0.038602379958691424 1 0.047352675292247882 1 0.056891967823057818 1 0.067182173540385928 1 0.078182268104302358 1 0.089848450825007628 1 0.10213431689330502 1 0.11499103786293575 1 0.12836755056441085 1 0.1422107547470611 1 0.15646571979672294 1 0.17107590085733027 1 0.1859833645917526 1 0.20112902464596447 1 0.21645288662738066 1 0.23189430207316925 1 0.2473922304755875 1 0.26288550796859089 1 0.27831312079740517 1 0.2936144812400559 1 0.30872970329028249 1 0.32359987521742395 1 0.33816732616647099 1 0.35237588432276329 1 0.36617112490477594 1 0.37950060742111891 1 0.39231410329208138 1 0.40456381717698725 1 0.41620460833123496 1 0.42719422238539612 1 0.43749354980517163 1 0.4470669364047129 1 0.45588258659385322 1 0.46391312763813991 1 0.47113645612459204 1 0.47753709509836939 1 0.48310851973796382 1 0.48785742476218469 1 0.49181209916514396 1 0.49503969814924736 1 0.49768087869968081 1 0.49999999999999989 1 0.50231912130031897 1 0.50496030185075247 1 0.50818790083485588 1 0.51214257523781503 1 0.51689148026203591 1 0.52246290490163028 1 0.52886354387540757 1 0.53608687236185981 1 0.54411741340614639 1 0.55293306359528671 1 0.56250645019482814 1 0.57280577761460361 1 0.58379539166876482 1 0.59543618282301258 1 0.6076858967079185 1 0.62049939257888109 1 0.63382887509522401 1 0.64762411567723677 1 0.66183267383352884 1 0.67640012478257594 1 0.69127029670971762 1 0.70638551875994404 1 0.72168687920259467 1 0.73711449203140911 1 0.75260776952441244 1 0.76810569792683059 1 0.78354711337261929 1 0.7988709753540354 1 0.81401663540824742 1 0.82892409914266962 1 0.84353428020327692 1 0.85778924525293865 1 0.87163244943558926 1 0.88500896213706437 1 0.8978656831066949 1 0.9101515491749923 1 0.92181773189569749 1 0.93281782645961409 1 0.94310803217694239 1 0.95264732470775226 1 0.96139762004130869 1 0.9693239299921127 1 0.97639450870719968 1 0.98258098938570138 1 0.98785851012482073 1 0.99220582755760611 1 0.99560541676974201 1 0.99804355590386162 1 0.99951039390120588 1 1 4
7 0 0  1 2 2  1.7213259316477407 0.67587688140746582 -7.745966692414834  3.4426518632954815 -0.0036147844564601442 0 
 0 2 1 2
1 1.7213259316477407 0.67587688140746582 -7.745966692414834 0 1 0 
Polygon3D 0
PolygonOnTriangulations 0
Surfaces 10
1 -51.639777949432222 -51.639777949432222 -51.639777949432222 1 0 -0 0 0 1 0 -1 0 
1 -51.639777949432222 -51.639777949432222 -51.639777949432222 -0 1 0 0 0 1 1 0 -0 
1 -51.639777949432222 -51.639777949432222 0 0 0 1 1 0 -0 -0 1 0 
9 0 0 0 0 3 1 53 2 51 2 1.7213259316477407 0.67949166586392606 -7.745966692414834  3.4426518632954815 0.0036147844564601442 0  
1.720759885994487 0.67955782561396927 -7.745966692414834  3.4415197719889741 0.0037471039565466669 0  
1.7184978849326864 0.67982220964141304 -7.745966692414834  3.4369957698653728 0.0042758720114342858 0  
1.7134150163332305 0.6804146546223887 -7.745966692414834  3.4268300326664609 0.0054607619733854423 0  
1.7049718412174835 0.68139412398790467 -7.745966692414834  3.4099436824349669 0.0074197007044175265 0  
1.6931882987059799 0.68275120031179326 -7.745966692414834  3.3863765974119597 0.010133853352194565 0  
1.6781284872010325 0.68446912121041248 -7.745966692414834  3.3562569744020649 0.013569695149433127 0  
1.6598350403164952 0.68653150631695159 -7.745966692414834  3.3196700806329904 0.017694465362511194 0  
1.6383923361577211 0.6889155151654498 -7.745966692414834  3.2767846723154421 0.022462483059507724 0  
1.6138780543800977 0.69159791006700289 -7.745966692414834  3.2277561087601954 0.027827272862613793 0  
1.5863920205764781 0.69455215067601528 -7.745966692414834  3.1727840411529562 0.033735754080638745 0  
1.5560416182455761 0.69775051826067491 -7.745966692414834  3.1120832364911521 0.040132489249957999 0  
1.5229469102005972 0.70116388786922268 -7.745966692414834  3.0458938204011945 0.046959228467053533 0  
1.4872384461267962 0.70476227773894817 -7.745966692414834  2.9744768922535925 0.054156008206504465 0  
1.4490571614178185 0.70851506181740886 -7.745966692414834  2.898114322835637 0.061661576363425841 0  
1.408553745287688 0.71239114251719637 -7.745966692414834  2.8171074905753759 0.069413737763000916 0  
1.3658880546384853 0.71635901545620173 -7.745966692414834  2.7317761092769706 0.077349483641011518 0  
1.3212284810676183 0.72038674442946959 -7.745966692414834  2.6424569621352365 0.085404941587547342 0  
1.2747512847824807 0.72444186040103187 -7.745966692414834  2.5495025695649614 0.093515173530671777 0  
1.2266398972936448 0.72849120672011791 -7.745966692414834  2.4532797945872895 0.10161386616884389 0  
1.1770841957511284 0.73250075821338845 -7.745966692414834  2.3541683915022569 0.1096329691553851 0  
1.1262797518758918 0.73643544546585649 -7.745966692414834  2.2525595037517836 0.11750234366032117 0  
1.0744270585475966 0.74025901705948183 -7.745966692414834  2.1488541170951931 0.12514948684757179 0  
1.0217307372070596 0.74393397162552222 -7.745966692414834  2.0434614744141193 0.1324993959796526 0  
0.96839872931266036 0.74742158827215577 -7.745966692414834  1.9367974586253207 0.13947462927291956 0  
0.91464147514737637 0.75068207841945711 -7.745966692414834  1.8292829502947527 0.14599560956752231 0  
0.86067108330016173 0.75367487460859695 -7.745966692414834  1.7213421666003235 0.151981201945802 0  
0.80670049413619871 0.75635906288580712 -7.745966692414834  1.6134009882723974 0.15734957850022233 0  
0.75294264052207005 0.75869395543866736 -7.745966692414834  1.5058852810441401 0.16201936360594274 0  
0.69960960898431312 0.76063978990388359 -7.745966692414834  1.3992192179686262 0.16591103253637535 0  
0.6469118043567077 0.76215853183198867 -7.745966692414834  1.2938236087134154 0.16894851639258537 0  
0.59505712081868889 0.76321474784344834 -7.745966692414834  1.1901142416373778 0.17106094841550484 0  
0.54425012204955536 0.76377650965832056 -7.745966692414834  1.0885002440991107 0.17218447204524931 0  
0.49469123302078355 0.76381628396339829 -7.745966692414834  0.9893824660415671 0.17226402065540464 0  
0.44657594571033238 0.76331176041921656 -7.745966692414834  0.89315189142066476 0.17125497356704125 0  
0.4000940407148274 0.76224657028794041 -7.745966692414834  0.80018808142965481 0.16912459330448901 0  
0.35542882628572819 0.76061085130895645 -7.745966692414834  0.71085765257145639 0.16585315534652109 0  
0.31275639558355506 0.75840162052294213 -7.745966692414834  0.62551279116711012 0.16143469377449232 0  
0.27224490166563164 0.75562292553818111 -7.745966692414834  0.54448980333126329 0.15587730380497039 0  
0.23405384739888996 0.75228575585738933 -7.745966692414834  0.46810769479777992 0.14920296444338668 0  
0.19833338314096105 0.74840770873837992 -7.745966692414834  0.3966667662819221 0.14144687020536803 0  
0.16522359668403436 0.744012417357519 -7.745966692414834  0.33044719336806871 0.13265628744364613 0  
0.13485376504730412 0.73912876272498407 -7.745966692414834  0.26970753009460824 0.12288897817857623 0  
0.10734149372490857 0.73378989095452085 -7.745966692414834  0.21468298744981715 0.11221123463764987 0  
0.082791654442845891 0.72803204343271188 -7.745966692414834  0.16558330888569178 0.10069553959403185 0  
0.061294712086132006 0.72189320308413973 -7.745966692414834  0.12258942417226401 0.088417858896887511 0  
0.042924093994435628 0.71541065944265159 -7.745966692414834  0.085848187988871255 0.075452771613911201 0  
0.0277316512232339 0.70861797886632416 -7.745966692414834  0.055463302446467799 0.061867410461256489 0  
0.015737794367995248 0.70152944031286979 -7.745966692414834  0.031475588735990497 0.047690333354347691 0  
0.006935618068207746 0.69411590433221859 -7.745966692414834  0.013871236136415492 0.032863261393045268 0  
0.0013352722814757023 0.68620047343927426 -7.745966692414834  0.0026705445629514046 0.01703239960715653 0  
3.9167545583273546e-09 0.68039741449210411 -7.745966692414834  7.8335091166547091e-09 0.00542628171281635 0  
3.9167544354872484e-09 0.67768427363569717 -7.745966692414834  7.8335088709744968e-09 2.3379735647477418e-15 0  

0 4
0.00048960609879410925 1
0.0019564440961383359 1
0.0043945832302579391 1
0.0077941724423938189 1
0.012141489875179282 1
0.017419010614298645 1
0.023605491292800276 1
0.030676070007887236 1
0.038602379958691424 1
0.047352675292247882 1
0.056891967823057818 1
0.067182173540385928 1
0.078182268104302358 1
0.089848450825007628 1
0.10213431689330502 1
0.11499103786293575 1
0.12836755056441085 1
0.1422107547470611 1
0.15646571979672294 1
0.17107590085733027 1
0.1859833645917526 1
0.20112902464596447 1
0.21645288662738066 1
0.23189430207316925 1
0.2473922304755875 1
0.26288550796859089 1
0.27831312079740517 1
0.2936144812400559 1
0.30872970329028249 1
0.32359987521742395 1
0.33816732616647099 1
0.35237588432276329 1
0.36617112490477594 1
0.37950060742111891 1
0.39231410329208138 1
0.40456381717698725 1
0.41620460833123496 1
0.42719422238539612 1
0.43749354980517163 1
0.4470669364047129 1
0.45588258659385322 1
0.46391312763813991 1
0.47113645612459204 1
0.47753709509836939 1
0.48310851973796382 1
0.48785742476218469 1
0.49181209916514396 1
0.49503969814924736 1
0.49768087869968081 1
0.49999999999999989 4

0 2
1 2

9 0 0 0 0 3 1 53 2 51 2 3.9167544354872484e-09 0.67768427363569717 -7.745966692414834  7.8335088709744968e-09 2.3379735647477418e-15 0  
3.9167543126471423e-09 0.67497113277928888 -7.745966692414834  7.8335086252942845e-09 -0.0054262817128140108 0  
0.0013352722814757908 0.66916807383211752 -7.745966692414834  0.0026705445629515816 -0.01703239960715686 0  
0.0069356180682074624 0.66125264293917363 -7.745966692414834  0.013871236136414925 -0.032863261393044602 0  
0.015737794367995356 0.65383910695852199 -7.745966692414834  0.031475588735990712 -0.047690333354347927 0  
0.027731651223233792 0.64675056840506784 -7.745966692414834  0.055463302446467584 -0.061867410461256309 0  
0.042924093994435468 0.63995788782874041 -7.745966692414834  0.085848187988870936 -0.075452771613911118 0  
0.061294712086131985 0.63347534418725215 -7.745966692414834  0.12258942417226397 -0.088417858896887483 0  
0.082791654442845752 0.62733650383868 -7.745966692414834  0.1655833088856915 -0.10069553959403177 0  
0.10734149372490842 0.62157865631687104 -7.745966692414834  0.21468298744981684 -0.1122112346376498 0  
0.13485376504730395 0.61623978454640782 -7.745966692414834  0.26970753009460791 -0.12288897817857618 0  
0.16522359668403425 0.61135612991387289 -7.745966692414834  0.33044719336806849 -0.13265628744364613 0  
0.19833338314096055 0.60696083853301197 -7.745966692414834  0.3966667662819211 -0.14144687020536789 0  
0.23405384739888957 0.60308279141400267 -7.745966692414834  0.46810769479777914 -0.1492029644433866 0  
0.27224490166563187 0.59974562173321067 -7.745966692414834  0.54448980333126373 -0.1558773038049705 0  
0.31275639558355528 0.59696692674844976 -7.745966692414834  0.62551279116711056 -0.16143469377449232 0  
0.35542882628572786 0.59475769596243544 -7.745966692414834  0.71085765257145572 -0.16585315534652109 0  
0.40009404071482785 0.59312197698345148 -7.745966692414834  0.8001880814296557 -0.16912459330448895 0  
0.44657594571033277 0.59205678685217533 -7.745966692414834  0.89315189142066553 -0.17125497356704134 0  
0.49469123302078333 0.59155226330799371 -7.745966692414834  0.98938246604156665 -0.17226402065540453 0  
0.54425012204955592 0.59159203761307122 -7.745966692414834  1.0885002440991118 -0.17218447204524942 0  
0.59505712081868856 0.59215379942794355 -7.745966692414834  1.1901142416373771 -0.1710609484155049 0  
0.64691180435670759 0.59321001543940333 -7.745966692414834  1.2938236087134152 -0.16894851639258524 0  
0.69960960898431324 0.59472875736750819 -7.745966692414834  1.3992192179686265 -0.16591103253637543 0  
0.75294264052207016 0.59667459183272464 -7.745966692414834  1.5058852810441403 -0.16201936360594263 0  
0.80670049413619838 0.59900948438558477 -7.745966692414834  1.6134009882723968 -0.15734957850022235 0  
0.86067108330016129 0.60169367266279494 -7.745966692414834  1.7213421666003226 -0.15198120194580197 0  
0.91464147514737604 0.60468646885193478 -7.745966692414834  1.8292829502947521 -0.14599560956752236 0  
0.96839872931265958 0.60794695899923612 -7.745966692414834  1.9367974586253192 -0.13947462927291962 0  
1.0217307372070599 0.61143457564586967 -7.745966692414834  2.0434614744141197 -0.13249939597965249 0  
1.0744270585475961 0.61510953021190995 -7.745966692414834  2.1488541170951923 -0.12514948684757191 0  
1.1262797518758916 0.6189331018055354 -7.745966692414834  2.2525595037517832 -0.117502343660321 0  
1.177084195751128 0.62286778905800322 -7.745966692414834  2.354168391502256 -0.10963296915538548 0  
1.2266398972936448 0.62687734055127409 -7.745966692414834  2.4532797945872895 -0.10161386616884378 0  
1.2747512847824807 0.63092668687036002 -7.745966692414834  2.5495025695649614 -0.093515173530671916 0  
1.321228481067618 0.63498180284192229 -7.745966692414834  2.6424569621352361 -0.085404941587547259 0  
1.3658880546384857 0.63900953181519016 -7.745966692414834  2.7317761092769715 -0.077349483641011518 0  
1.4085537452876882 0.6429774047541954 -7.745966692414834  2.8171074905753763 -0.069413737763001082 0  
1.4490571614178172 0.64685348545398302 -7.745966692414834  2.8981143228356343 -0.061661576363425903 0  
1.487238446126796 0.65060626953244372 -7.745966692414834  2.974476892253592 -0.054156008206504465 0  
1.5229469102005972 0.6542046594021691 -7.745966692414834  3.0458938204011945 -0.046959228467053658 0  
1.5560416182455761 0.65761802901071698 -7.745966692414834  3.1120832364911521 -0.040132489249957923 0  
1.5863920205764774 0.6608163965953765 -7.745966692414834  3.1727840411529549 -0.03373575408063894 0  
1.6138780543800977 0.663770637204389 -7.745966692414834  3.2277561087601954 -0.027827272862613835 0  
1.6383923361577206 0.66645303210594209 -7.745966692414834  3.2767846723154412 -0.022462483059507678 0  
1.6598350403164952 0.6688370409544403 -7.745966692414834  3.3196700806329904 -0.017694465362511225 0  
1.6781284872010322 0.67089942606097941 -7.745966692414834  3.3562569744020645 -0.013569695149433163 0  
1.6931882987059794 0.67261734695959863 -7.745966692414834  3.3863765974119588 -0.010133853352194543 0  
1.7049718412174835 0.67397442328348722 -7.745966692414834  3.4099436824349669 -0.0074197007044174562 0  
1.7134150163332298 0.67495389264900318 -7.745966692414834  3.4268300326664596 -0.0054607619733855993 0  
1.7184978849326866 0.67554633762997884 -7.745966692414834  3.4369957698653733 -0.0042758720114342815 0  
1.720759885994487 0.67581072165742262 -7.745966692414834  3.4415197719889741 -0.0037471039565466647 0  
1.7213259316477407 0.67587688140746582 -7.745966692414834  3.4426518632954815 -0.0036147844564601442 0  

0.49999999999999989 4
0.50231912130031897 1
0.50496030185075247 1
0.50818790083485588 1
0.51214257523781503 1
0.51689148026203591 1
0.52246290490163028 1
0.52886354387540757 1
0.53608687236185981 1
0.54411741340614639 1
0.55293306359528671 1
0.56250645019482814 1
0.57280577761460361 1
0.58379539166876482 1
0.59543618282301258 1
0.6076858967079185 1
0.62049939257888109 1
0.63382887509522401 1
0.64762411567723677 1
0.66183267383352884 1
0.67640012478257594 1
0.69127029670971762 1
0.70638551875994404 1
0.72168687920259467 1
0.73711449203140911 1
0.75260776952441244 1
0.76810569792683059 1
0.78354711337261929 1
0.7988709753540354 1
0.81401663540824742 1
0.82892409914266962 1
0.84353428020327692 1
0.85778924525293865 1
0.87163244943558926 1
0.88500896213706437 1
0.8978656831066949 1
0.9101515491749923 1
0.92181773189569749 1
0.93281782645961409 1
0.94310803217694239 1
0.95264732470775226 1
0.96139762004130869 1
0.9693239299921127 1
0.97639450870719968 1
0.98258098938570138 1
0.98785851012482073 1
0.99220582755760611 1
0.99560541676974201 1
0.99804355590386162 1
0.99951039390120588 1
1 4

0 2
1 2

9 0 0 0 0 1 1 2 2 2 2 1.7213259316477407 0.67587688140746582 -7.745966692414834  3.4426518632954815 -0.0036147844564601442 0  
1.7213259316477407 0.67949166586392595 -7.745966692414834  3.4426518632954815 0.0036147844564601442 0  

0 2
0.0072295689129202884 2

0 2
1 2

1 -51.639777949432222 51.639777949432222 -51.639777949432222 -0 1 0 0 0 1 1 0 -0 
1 -51.639777949432222 -51.639777949432222 -51.639777949432222 0 0 1 1 0 -0 -0 1 0 
1 51.639777949432222 -51.639777949432222 -51.639777949432222 1 0 -0 0 0 1 0 -1 0 
1 1.7213259316477407 0.67949166586392606 -7.745966692414834 -5.2345744408919638e-16 7.1165797182881523e-15 1 -0.99999944875045332 -0.0010499994235761384 -5.1598475093148142e-16 0.0010499994235761384 -0.99999944875045332 7.1171254252913687e-15 
Triangulations 0

TShapes 59
Ve
1e-07
-51.6397779494322 -51.6397779494322 0
0 0

0101101
*
Ve
1e-07
-51.6397779494322 -51.6397779494322 -51.6397779494322
0 0

0101101
*
Ed
 1e-07 1 1 0
1  1 0 0 51.6397779494322
0

0101000
-59 0 +58 0 *
Ve
1e-07
-51.6397779494322 51.6397779494322 0
0 0

0101101
*
Ed
 1e-07 1 1 0
1  2 0 0 103.279555898864
0

0101000
-56 0 +59 0 *
Ve
1e-07
-51.6397779494322 51.6397779494322 -51.6397779494322
0 0

0101101
*
Ed
 1e-07 1 1 0
1  3 0 0 51.6397779494322
0

0101000
-56 0 +54 0 *
Ed
 1e-07 1 1 0
1  4 0 0 103.279555898864
0

0101000
-54 0 +58 0 *
Wi

0101100
-57 0 -55 0 +53 0 +52 0 *
Fa
0  1e-07 1 0

0111000
+51 0 *
Ve
1e-07
51.6397779494322 -51.6397779494322 -51.6397779494322
0 0

0101101
*
Ed
 1e-07 1 1 0
1  5 0 0 103.279555898864
0

0101000
-49 0 +58 0 *
Ve
1e-07
51.6397779494322 -51.6397779494322 0
0 0

0101101
*
Ed
 1e-07 1 1 0
1  6 0 0 51.6397779494322
0

0101000
-47 0 +49 0 *
Ed
 1e-07 1 1 0
1  7 0 0 103.279555898864
0

0101000
-47 0 +59 0 *
Wi

0101100
-48 0 -46 0 +45 0 +57 0 *
Fa
0  1e-07 2 0

0111000
+44 0 *
Ve
1e-07
51.6397779494322 51.6397779494322 0
0 0

0101101
*
Ed
 1e-07 1 1 0
1  8 0 0 103.279555898864
0

0101000
-42 0 +56 0 *
Ed
 1e-07 1 1 0
1  9 0 0 103.279555898864
0

0101000
-42 0 +47 0 *
Wi

0101100
-55 0 -41 0 +45 0 +40 0 *
Ve
3.44265186329548e-07
3.44265186329548 0.00361478445646014 0
0 0

0101101
*
Ve
3.44265186329548e-07
0 0 0
0 0

0101101
*
Ed
 1e-07 1 1 0
1  10 0 0 0.499999999999999
2  1 4 0 0 0.499999999999999
0

0101000
+38 0 -37 0 *
Ve
3.44265186329548e-07
3.44265186329548 -0.00361478445646014 0
0 0

0101101
*
Ed
 1e-07 1 1 0
1  11 0 0.499999999999999 1
2  2 5 0 0.499999999999999 1
0

0101000
+37 0 -35 0 *
Ed
 1e-07 1 1 0
1  12 0 0 0.00722956891292029
2  3 6 0 0 0.00722956891292029
0

0101000
+35 0 -38 0 *
Wi

0101100
-36 0 -34 0 -33 0 *
Fa
0  1e-07 3 0

0111000
+39 0 +32 0 *
Ve
1e-07
51.6397779494322 51.6397779494322 -51.6397779494322
0 0

0101101
*
Ed
 1e-07 1 1 0
1  13 0 0 103.279555898864
0

0101000
-30 0 +54 0 *
Ed
 1e-07 1 1 0
1  14 0 0 51.6397779494322
0

0101000
-42 0 +30 0 *
Wi

0101100
-29 0 -28 0 +41 0 +53 0 *
Fa
0  1e-07 7 0

0111000
+27 0 *
Ed
 1e-07 1 1 0
1  15 0 0 103.279555898864
0

0101000
-30 0 +49 0 *
Wi

0101100
-52 0 -29 0 +25 0 +48 0 *
Fa
0  1e-07 8 0

0111000
+24 0 *
Wi

0101100
-46 0 -40 0 +28 0 +25 0 *
Fa
0  1e-07 9 0

0111000
+22 0 *
Ve
1.72132593164774e-07
1.72132593164774 0.679491665863926 -7.74596669241483
0 0

0101101
*
Ve
1.72132593164774e-07
0 0.677684273635696 -7.74596669241483
0 0

0101101
*
Ed
 1e-07 1 1 0
1  16 0 0 0.499999999999999
2  4 4 0 0 0.499999999999999
0

0101000
+20 0 -19 0 *
Ed
 1e-07 1 1 0
1  17 0 0 1
2  5 4 0 0 1
2  6 5 0 0 1
4 C2 4 0 5 0
0

0101000
+19 0 -37 0 *
Ed
 1e-07 1 1 0
1  18 0 0 1
2  7 4 0 0 1
2  8 6 0 0 1
0

0101000
+20 0 -38 0 *
Wi

0101100
+18 0 +17 0 -36 0 -16 0 *
Fa
0  1e-07 4 0

0111000
+15 0 *
Ve
1.72132593164774e-07
1.72132593164774 0.675876881407466 -7.74596669241483
0 0

0101101
*
Ed
 1e-07 1 1 0
1  19 0 0.499999999999999 1
2  9 5 0 0.499999999999999 1
0

0101000
+19 0 -13 0 *
Ed
 1e-07 1 1 0
1  20 0 0 1
2  10 5 0 0 1
2  11 6 0 0 1
0

0101000
+13 0 -35 0 *
Wi

0101100
+12 0 +11 0 -34 0 -17 0 *
Fa
0  1e-07 5 0

0111000
+10 0 *
Ed
 1e-07 1 1 0
1  21 0 0 0.00361478445646014
2  12 6 0 0 0.00361478445646014
0

0101000
+13 0 -20 0 *
Wi

0101100
+8 0 +16 0 -33 0 -11 0 *
Fa
0  1e-07 6 0

0111000
+7 0 *
Wi

0101100
+18 0 +12 0 +8 0 *
Fa
0  1e-07 10 0

0111000
+5 0 *
Sh

0101100
-50 0 -43 0 +31 0 +26 0 -23 0 +21 0 -14 0 -9 0 -6 0 +4 0 
*
So

0100000
+3 0 *
Co

1100000
+2 0 *

+1 0 
##EGADS HEADER FILE-REV 1 ##
0
  1  1  10  11  21  14  4
1 5 1
_body
11
1 5 1
_brch
27
3 7 52
capsAIM
#egadsTessAIM;tacsAIM;pointwiseAIM;fun3dAIM;tetgenAIM
2 14 1
capsMeshLength
 1.000000000000e+00
    2 0 8
1 5 2
_body
8 1 
1 5 2
_brch
25 8 
1 5 2
_hist
8 11 
1 9 4
__trace__
8 1 11 1 
3 9 8
capsGroup
#Farfield
3 8 8
capsMesh
#Farfield
1 7 3
_faceID
8 1 1 
3 7 8
PW:Name
#Farfield
    2 1 8
1 5 2
_body
8 3 
1 5 2
_brch
25 8 
1 5 2
_hist
8 11 
1 9 4
__trace__
8 3 11 2 
3 9 8
capsGroup
#Farfield
3 8 8
capsMesh
#Farfield
1 7 3
_faceID
8 3 1 
3 7 8
PW:Name
#Farfield
    2 2 9
1 5 2
_body
8 6 
1 5 2
_brch
25 8 
1 5 2
_hist
8 11 
1 9 4
__trace__
8 6 11 3 
3 9 8
capsGroup
#Symmetry
3 8 8
capsMesh
#Symmetry
1 7 3
_faceID
8 6 1 
1 11 1
__trimmed__
1
3 7 8
PW:Name
#Symmetry
    2 3 8
1 5 2
_body
8 4 
1 5 2
_brch
25 8 
1 5 2
_hist
8 11 
1 9 4
__trace__
8 4 11 4 
3 9 8
capsGroup
#Farfield
3 8 8
capsMesh
#Farfield
1 7 3
_faceID
8 4 1 
3 7 8
PW:Name
#Farfield
    2 4 8
1 5 2
_body
8 5 
1 5 2
_brch
25 8 
1 5 2
_hist
8 11 
1 9 4
__trace__
8 5 11 5 
3 9 8
capsGroup
#Farfield
3 8 8
capsMesh
#Farfield
1 7 3
_faceID
8 5 1 
3 7 8
PW:Name
#Farfield
    2 5 8
1 5 2
_body
8 2 
1 5 2
_brch
25 8 
1 5 2
_hist
8 11 
1 9 4
__trace__
8 2 11 6 
3 9 8
capsGroup
#Farfield
3 8 8
capsMesh
#Farfield
1 7 3
_faceID
8 2 1 
3 7 8
PW:Name
#Farfield
    2 6 11
1 5 2
_body
7 3 
1 5 2
_brch
26 7 
2 3 1
OML
 0.000000000000e+00
1 5 2
_hist
7 11 
1 9 4
__trace__
7 1 11 7 
3 9 3
capsGroup
#OML
3 8 3
capsMesh
#OML
2 14 1
capsMeshLength
 1.000000000000e-01
1 7 3
_faceID
7 3 1 
1 11 1
__trimmed__
1
3 7 3
PW:Name
#OML
    2 7 11
1 5 2
_body
7 4 
1 5 2
_brch
26 7 
2 3 1
OML
 0.000000000000e+00
1 5 2
_hist
7 11 
1 9 4
__trace__
7 2 11 8 
3 9 3
capsGroup
#OML
3 8 3
capsMesh
#OML
2 14 1
capsMeshLength
 1.000000000000e-01
1 7 3
_faceID
7 4 1 
1 11 1
__trimmed__
1
3 7 3
PW:Name
#OML
    2 8 11
1 5 2
_body
7 5 
1 5 2
_brch
26 7 
2 3 1
OML
 0.000000000000e+00
1 5 2
_hist
7 11 
1 9 4
__trace__
7 3 11 9 
3 9 3
capsGroup
#OML
3 8 3
capsMesh
#OML
2 14 1
capsMeshLength
 1.000000000000e-01
1 7 3
_faceID
7 5 1 
1 11 1
__trimmed__
1
3 7 3
PW:Name
#OML
    2 9 11
1 5 2
_body
7 1 
1 5 2
_brch
26 7 
2 3 1
OML
 0.000000000000e+00
1 5 2
_hist
7 11 
1 9 4
__trace__
7 4 11 10 
3 9 3
capsGroup
#OML
3 8 3
capsMesh
#OML
2 14 1
capsMeshLength
 1.000000000000e-01
1 7 3
_faceID
7 1 1 
1 11 1
__trimmed__
1
3 7 3
PW:Name
#OML
    4 0 4
1 9 4
__trace__
8 1 11 1 
1 5 2
_body
8 10003 
1 7 5
_edgeID
8 1 8 3 1 
1 6 1
_nface
2
    4 1 4
1 9 4
__trace__
8 2 11 2 
1 5 2
_body
8 10006 
1 7 5
_edgeID
8 1 8 6 1 
1 6 1
_nface
2
    4 2 4
1 9 4
__trace__
8 3 11 3 
1 5 2
_body
8 40001 
1 7 5
_edgeID
8 1 8 4 1 
1 6 1
_nface
2
    4 3 4
1 9 4
__trace__
8 4 11 4 
1 5 2
_body
8 50001 
1 7 5
_edgeID
8 1 8 5 1 
1 6 1
_nface
2
    4 4 4
1 9 4
__trace__
8 9 11 5 
1 5 2
_body
8 30005 
1 7 5
_edgeID
8 3 8 5 1 
1 6 1
_nface
2
    4 5 4
1 9 4
__trace__
8 5 11 6 
1 5 2
_body
8 30002 
1 7 5
_edgeID
8 2 8 3 1 
1 6 1
_nface
2
    4 6 4
1 9 4
__trace__
8 10 11 7 
1 5 2
_body
8 60003 
1 7 5
_edgeID
8 3 8 6 1 
1 6 1
_nface
2
    4 7 4
1 9 4
__trace__
8 12 11 8 
1 5 2
_body
8 40006 
1 7 5
_edgeID
8 4 8 6 1 
1 6 1
_nface
2
    4 8 4
1 9 4
__trace__
8 6 11 9 
1 5 2
_body
8 60002 
1 7 5
_edgeID
8 2 8 6 1 
1 6 1
_nface
2
    4 9 4
1 5 2
_body
11 0 
1 7 5
_edgeID
7 3 8 6 1 
1 6 1
_nface
2
1 9 2
__trace__
11 10 
    4 10 4
1 5 2
_body
11 0 
1 7 5
_edgeID
7 4 8 6 1 
1 6 1
_nface
2
1 9 2
__trace__
11 11 
    4 11 4
1 5 2
_body
11 0 
1 7 5
_edgeID
7 5 8 6 1 
1 6 1
_nface
2
1 9 2
__trace__
11 12 
    4 12 4
1 9 4
__trace__
8 11 11 13 
1 5 2
_body
8 50004 
1 7 5
_edgeID
8 4 8 5 1 
1 6 1
_nface
2
    4 13 4
1 9 4
__trace__
8 7 11 14 
1 5 2
_body
8 20004 
1 7 5
_edgeID
8 2 8 4 1 
1 6 1
_nface
2
    4 14 4
1 9 4
__trace__
8 8 11 15 
1 5 2
_body
8 20005 
1 7 5
_edgeID
8 2 8 5 1 
1 6 1
_nface
2
    4 15 4
1 9 4
__trace__
7 1 11 16 
1 5 2
_body
7 10003 
1 7 5
_edgeID
7 1 7 3 1 
1 6 1
_nface
2
    4 16 4
1 5 2
_body
7 40003 
1 7 5
_edgeID
7 3 7 4 1 
1 9 4
__trace__
7 2 11 17 
1 6 1
_nface
2
    4 17 4
1 5 2
_body
7 30005 
1 7 5
_edgeID
7 3 7 5 1 
1 9 4
__trace__
7 4 11 18 
1 6 1
_nface
2
    4 18 4
1 9 4
__trace__
7 5 11 19 
1 5 2
_body
7 10004 
1 7 5
_edgeID
7 1 7 4 1 
1 6 1
_nface
2
    4 19 4
1 5 2
_body
7 50004 
1 7 5
_edgeID
7 4 7 5 1 
1 9 4
__trace__
7 6 11 20 
1 6 1
_nface
2
    4 20 4
1 9 4
__trace__
7 8 11 21 
1 5 2
_body
7 10005 
1 7 5
_edgeID
7 1 7 5 1 
1 6 1
_nface
2
    5 0 3
1 9 4
__trace__
8 1 11 1 
1 7 1
_nodeID
1
1 6 1
_nedge
3
    5 1 3
1 9 4
__trace__
8 2 11 2 
1 7 1
_nodeID
2
1 6 1
_nedge
3
    5 2 3
1 9 4
__trace__
8 3 11 3 
1 7 1
_nodeID
3
1 6 1
_nedge
3
    5 3 3
1 9 4
__trace__
8 4 11 4 
1 7 1
_nodeID
4
1 6 1
_nedge
3
    5 4 3
1 9 4
__trace__
8 6 11 5 
1 7 1
_nodeID
5
1 6 1
_nedge
3
    5 5 3
1 9 4
__trace__
8 5 11 6 
1 7 1
_nodeID
6
1 6 1
_nedge
3
    5 6 3
1 9 4
__trace__
8 7 11 7 
1 7 1
_nodeID
7
1 6 1
_nedge
3
    5 7 3
1 9 8
__trace__
1 1 2 1 7 4 11 8 
1 7 1
_nodeID
8
1 6 1
_nedge
3
    5 8 3
1 9 8
__trace__
1 2 2 2 7 3 11 9 
1 7 1
_nodeID
9
1 6 1
_nedge
3
    5 9 3
1 9 8
__trace__
1 3 2 3 7 6 11 10 
1 7 1
_nodeID
10
1 6 1
_nedge
3
    5 10 3
1 9 4
__trace__
8 8 11 11 
1 7 1
_nodeID
11
1 6 1
_nedge
3
    5 11 3
1 9 12
__trace__
3 1 4 1 5 1 6 1 7 1 11 12 
1 7 1
_nodeID
12
1 6 1
_nedge
3
    5 12 3
1 9 12
__trace__
3 2 4 2 5 2 6 2 7 2 11 13 
1 7 1
_nodeID
13
1 6 1
_nedge
3
    5 13 3
1 9 12
__trace__
3 3 4 3 5 3 6 3 7 5 11 14 
1 7 1
_nodeID
14
1 6 1
_nedge
3
    0 0 0
