DBRep_DrawableShape

CASCADE Topology V1, (c) Matra-Datavision
Locations 0
Curve2ds 12
1 0 0 1 0 
1 0.50741192251320455 0 0 1 
1 0.50741192251320455 0 0 1 
1 0 1 1 0 
1 0 0 0 1 
1 0.010844353369380468 0 0 1 
1 0 0 1 0 
7 0 0  1 2 2  0 0  0.010844353369380468 0 
 0 2 0.0054221766846902341 2
1 1 0 0 1 
1 0 0 0 1 
1 0 1 1 0 
1 0 1 1 0 
Curves 21
1 -77.459666924148337 -77.459666924148337 -77.459666924148337 0 0 1 
1 -77.459666924148337 -77.459666924148337 77.459666924148337 -0 1 0 
1 -77.459666924148337 77.459666924148337 -77.459666924148337 0 0 1 
1 -77.459666924148337 -77.459666924148337 -77.459666924148337 -0 1 0 
1 -77.459666924148337 -77.459666924148337 -77.459666924148337 1 0 -0 
1 77.459666924148337 -77.459666924148337 -77.459666924148337 0 0 1 
1 -77.459666924148337 -77.459666924148337 77.459666924148337 1 0 -0 
1 -77.459666924148337 77.459666924148337 77.459666924148337 1 0 -0 
1 77.459666924148337 -77.459666924148337 77.459666924148337 -0 1 0 
1 -77.459666924148337 77.459666924148337 -77.459666924148337 1 0 -0 
1 77.459666924148337 77.459666924148337 -77.459666924148337 0 0 1 
1 77.459666924148337 -77.459666924148337 -77.459666924148337 -0 1 0 
7 0 0  3 103 101  2.5824345976495877 0.002674201067861373 -15.491933384829668  2.5816015921911397 0.0029135712285326093 -15.491933384829668  2.5782728456032853 0.0038701107427400582 -15.491933384829668  2.5707914798634488 0.0060125192151772155 -15.491933384829668  2.5583600059031433 0.0095514272933983155 -15.491933384829668  2.54100138777524 0.014447810303131981 -15.491933384829668  2.5188015998066859 0.020633922772202388 -15.491933384829668  2.4918130782221617 0.028040802969548941 -15.491933384829668  2.460148193669589 0.036573346669941824 -15.491933384829668  2.4239083503220922 0.046132002429698539 -15.491933384829668  2.3832268444817006 0.056602185730953325 -15.491933384829668  2.3382478363611909 0.067862028058551932 -15.491933384829668  2.2891342981967826 0.079781830972242798 -15.491933384829668  2.2360651860065919 0.092226565538842079 -15.491933384829668  2.1792356550224743 0.10505740828479111 -15.491933384829668  2.1188564598829629 0.11813338723972741 -15.491933384829668  2.0551533860894389 0.13131287304145445 -15.491933384829668  1.9883665788258553 0.14445494412787499 -15.491933384829668  1.9187497935238336 0.15742062178537641 -15.491933384829668  1.8465695758358303 0.17007398655256895 -15.491933384829668  1.7721043787999662 0.18228319598276219 -15.491933384829668  1.6956436283211531 0.19392143075162596 -15.491933384829668  1.6174867161764137 0.20486779481635947 -15.491933384829668  1.5379420295287576 0.21500822849301546 -15.491933384829668  1.4573256217691344 0.22423630158804214 -15.491933384829668  1.3759607088562151 0.2324546706851148 -15.491933384829668  1.2941748879929829 0.23957392584217357 -15.491933384829668  1.2123021157345821 0.24552198175752041 -15.491933384829668  1.1306748564588864 0.25021357801159144 -15.491933384829668  1.0492816962236884 0.25368361637173714 -15.491933384829668  0.96834533967820857 0.2556059465095662 -15.491933384829668  0.88820619933983902 0.25518244018671471 -15.491933384829668  0.80958294796889674 0.25262847852059028 -15.491933384829668  0.73292322063588711 0.24796686948545521 -15.491933384829668  0.65857574747632408 0.24131093828632463 -15.491933384829668  0.58687884363832532 0.23278558334595145 -15.491933384829668  0.5181566537398925 0.22254480551418682 -15.491933384829668  0.45271698866707211 0.21076427815309573 -15.491933384829668  0.39084870340116695 0.1976391838335074 -15.491933384829668  0.33281961114937292 0.18338024478883744 -15.491933384829668  0.27887467641842878 0.16820958931462657 -15.491933384829668  0.2292345538205004 0.15235623460825609 -15.491933384829668  0.18409442811804183 0.13605134187291573 -15.491933384829668  0.14362302665729401 0.11952331653310014 -15.491933384829668  0.10796165449339064 0.10299279099066509 -15.491933384829668  0.077222583754679247 0.086667473854070615 -15.491933384829668  0.05148644155936373 0.070735217523564042 -15.491933384829668  0.030797300537789819 0.055356577666046264 -15.491933384829668  0.015151725085556371 0.040635253364145092 -15.491933384829668  0.0045156747680043701 0.026583291915664546 -15.491933384829668  -0.0010849625511031888 0.01296062999167911 -15.491933384829668  -0.00094275691617964083 -0.00023615889617110256 -15.491933384829668  0.0051314619048833561 -0.01193179506942319 -15.491933384829668  0.01636797402461853 -0.02134908191402823 -15.491933384829668  0.032117422731560707 -0.028902126153604029 -15.491933384829668  0.052426587211256544 -0.034906275281796982 -15.491933384829668  0.077288067950551931 -0.039466767442788896 -15.491933384829668  0.10664027760259247 -0.042650855179547933 -15.491933384829668  0.14037069185559722 -0.04452360072655704 -15.491933384829668  0.17833946715670662 -0.045163593763583407 -15.491933384829668  0.22038743336622077 -0.044663036713570525 -15.491933384829668  0.26634152729650273 -0.043127807504695463 -15.491933384829668  0.31601805573477149 -0.040676289809665027 -15.491933384829668  0.36922483318570987 -0.037438205950164033 -15.491933384829668  0.42576271186312414 -0.033553277698710769 -15.491933384829668  0.4854266154134087 -0.029169703862557666 -15.491933384829668  0.54800616877726416 -0.024442406490017946 -15.491933384829668  0.61328596936741631 -0.019531068340284511 -15.491933384829668  0.68104560830455996 -0.014597659333732178 -15.491933384829668  0.75105921352771465 -0.0098049715742353615 -15.491933384829668  0.82309551061305242 -0.0053092904543950237 -15.491933384829668  0.89691630573190362 -0.0012765987404038128 -15.491933384829668  0.97236752169469964 0.0022005553169307276 -15.491933384829668  1.0495487116683624 0.0048101761732299566 -15.491933384829668  1.1281600461689147 0.0071947876312051092 -15.491933384829668  1.207812842094045 0.0095379760746300089 -15.491933384829668  1.2878579548888629 0.011687828223963741 -15.491933384829668  1.3679893494661721 0.013605128713266725 -15.491933384829668  1.4479018870955558 0.015236106241456987 -15.491933384829668  1.527286696285062 0.016545036348957619 -15.491933384829668  1.6058355274956246 0.017506232728941279 -15.491933384829668  1.6832404828667593 0.01810627507585243 -15.491933384829668  1.7591959853374739 0.018343162194245866 -15.491933384829668  1.8333998750499714 0.01822576820370847 -15.491933384829668  1.9055548207450679 0.017772861388871526 -15.491933384829668  1.9753696341093816 0.017011906778224527 -15.491933384829668  2.0425605888866443 0.015977684724397354 -15.491933384829668  2.1068527141706235 0.014710796094196262 -15.491933384829668  2.1679810643044584 0.013256119049492561 -15.491933384829668  2.2256919646492905 0.011661278861555487 -15.491933384829668  2.279744235387962 0.0099751848638474274 -15.491933384829668  2.3299103768141851 0.008246679918463647 -15.491933384829668  2.3759778587112774 0.0065233284274372715 -15.491933384829668  2.4177496392514541 0.004850407836782345 -15.491933384829668  2.4550478883667712 0.0032699130962356268 -15.491933384829668  2.4877066198119882 0.0018202884772381734 -15.491933384829668  2.5155943084788239 0.00053481878740682665 -15.491933384829668  2.5385703943014439 -0.00055654319515442436 -15.491933384829668  2.5565594851496156 -0.001431061276360752 -15.491933384829668  2.5694553576877954 -0.0020687097468514207 -15.491933384829668  2.57722132586867 -0.0024568538215962309 -15.491933384829668  2.5806780798532944 -0.0026306942476743474 -15.491933384829668  2.5815431972936338 -0.002674201067861373 -15.491933384829668 
 0 4 0.00049315832751912103 1 0.0019706002802099038 1 0.0044262388147369653 1 0.0078499687290972137 1 0.012227725493782166 1 0.017541565735953349 1 0.023769767649666471 1 0.030886949309841281 1 0.038864202690063639 1 0.047669241123050626 1 0.057266557987541086 1 0.067617594540736486 1 0.078680915023339071 1 0.09041238742775301 1 0.10276536862490689 1 0.11569089288022394 1 0.12913786314506431 1 0.14305324487641921 1 0.1573822625012832 1 0.17206859898394714 1 0.18705459924907827 1 0.20228147843050409 1 0.21768953602323099 1 0.23321837698644707 1 0.2488071406605101 1 0.26439473802027408 1 0.27992009731112283 1 0.29532241754696986 1 0.31074304513832129 1 0.32597559348047273 1 0.34091097598217718 1 0.35549258547648876 1 0.36966480041923439 1 0.38337324136687861 1 0.39656505243479473 1 0.40918920787722229 1 0.4211968457694778 1 0.4325416339578208 1 0.44318017867219239 1 0.45307249488500595 1 0.46218257253519263 1 0.47047910015019151 1 0.47793646019381414 1 0.48453621795322105 1 0.49026955730208821 1 0.49514164329535054 1 0.49918013625018554 1 0.50245293139100322 1 0.5051046628554009 1 0.50741192251320455 1 0.50971889992330432 1 0.51236407129865369 1 0.51561265401058443 1 0.51959835728499582 1 0.52437961464817495 1 0.52997589442237591 1 0.53638534263030557 1 0.54359332656696002 1 0.55157688091087609 1 0.56030723894825007 1 0.56975140604911245 1 0.57987321473799025 1 0.59063407372745436 1 0.60199351891378661 1 0.61390962428170059 1 0.62633930594787357 1 0.63923854021203685 1 0.65256251034918866 1 0.66626569392889246 1 0.68030190112118483 1 0.69462427391246828 1 0.70923699710341381 1 0.72423792858781322 1 0.73936943033581259 1 0.75457427278526423 1 0.76979462198294513 1 0.78497224197659576 1 0.80004870238076076 1 0.81496559025191839 1 0.8296647255901396 1 0.84408838000430075 1 0.85817949828781759 1 0.87188192281583121 1 0.88514062076853095 1 0.8979019141951794 1 0.91011371285377074 1 0.9217257495922333 1 0.93268981778257209 1 0.94296000998651386 1 0.95249295663086431 1 0.96124806301859689 1 0.9691877425196449 1 0.97627764330254974 1 0.98248686552040265 1 0.98778816549267179 1 0.99215814317068585 1 0.99557740907768988 1 0.99803072700484474 1 0.99950712903936423 1 1 4
7 0 0  1 2 2  1.363971037081791e-08 4.0975813996209365e-09 -15.491933384829668  2.7279420741635821e-08 8.195162799241873e-09 0 
 0 2 1 2
7 0 0  3 103 101  5.1648691952991754 0.0053484021357227459 0  5.1632031843822794 0.0058271424570652186 0  5.1565456912065706 0.0077402214854801164 0  5.1415829597268976 0.012025038430354431 0  5.1167200118062865 0.019102854586796631 0  5.08200277555048 0.028895620606263963 0  5.0376031996133719 0.041267845544404776 0  4.9836261564443234 0.056081605939097882 0  4.9202963873391781 0.073146693339883648 0  4.8478167006441844 0.092264004859397078 0  4.7664536889634013 0.11320437146190665 0  4.6764956727223819 0.13572405611710386 0  4.5782685963935652 0.1595636619444856 0  4.4721303720131838 0.18445313107768416 0  4.3584713100449486 0.21011481656958222 0  4.2377129197659258 0.23626677447945482 0  4.1103067721788777 0.2626257460829089 0  3.9767331576517106 0.28890988825574998 0  3.8374995870476671 0.31484124357075283 0  3.6931391516716605 0.34014797310513789 0  3.5442087575999324 0.36456639196552437 0  3.3912872566423062 0.38784286150325192 0  3.2349734323528274 0.40973558963271894 0  3.0758840590575152 0.43001645698603091 0  2.9146512435382688 0.44847260317608428 0  2.7519214177124303 0.4649093413702296 0  2.5883497759859657 0.47914785168434715 0  2.4246042314691643 0.49104396351504082 0  2.2613497129177729 0.50042715602318288 0  2.0985633924473768 0.50736723274347428 0  1.9366906793564171 0.51121189301913239 0  1.776412398679678 0.51036488037342942 0  1.6191658959377935 0.50525695704118057 0  1.4658464412717742 0.49593373897091042 0  1.3171514949526482 0.48262187657264927 0  1.1737576872766506 0.4655711666919029 0  1.036313307479785 0.44508961102837363 0  0.90543397733414421 0.42152855630619146 0  0.78169740680233391 0.3952783676670148 0  0.66563922229874584 0.36676048957767488 0  0.55774935283685756 0.33641917862925313 0  0.45846910764100079 0.30471246921651218 0  0.36818885623608366 0.27210268374583146 0  0.28724605331458802 0.23904663306620028 0  0.21592330898678128 0.20598558198133018 0  0.15444516750935849 0.17333494770814123 0  0.10297288311872746 0.14147043504712808 0  0.061594601075579639 0.11071315533209253 0  0.030303450171112741 0.081270506728290184 0  0.0090313495360087401 0.053166583831329092 0  -0.0021699251022063775 0.02592125998335822 0  -0.0018855138323592817 -0.00047231779234220512 0  0.010262923809766712 -0.023863590138846379 0  0.03273594804923706 -0.042698163828056461 0  0.064234845463121415 -0.057804252307208058 0  0.10485317442251309 -0.069812550563593964 0  0.15457613590110386 -0.078933534885577791 0  0.21328055520518494 -0.085301710359095867 0  0.28074138371119445 -0.08904720145311408 0  0.35667893431341324 -0.090327187527166813 0  0.44077486673244154 -0.089326073427141051 0  0.53268305459300547 -0.086255615009390926 0  0.63203611146954297 -0.081352579619330054 0  0.73844966637141973 -0.074876411900328066 0  0.85152542372624829 -0.067106555397421538 0  0.9708532308268174 -0.058339407725115332 0  1.0960123375545283 -0.048884812980035892 0  1.2265719387348326 -0.039062136680569022 0  1.3620912166091199 -0.029195318667464356 0  1.5021184270554293 -0.019609943148470723 0  1.6461910212261048 -0.010618580908790047 0  1.7938326114638072 -0.0025531974808076256 0  1.9447350433893993 0.0044011106338614553 0  2.0990974233367248 0.0096203523464599133 0  2.2563200923378295 0.014389575262410218 0  2.4156256841880901 0.019075952149260018 0  2.5757159097777258 0.023375656447927481 0  2.7359786989323442 0.027210257426533449 0  2.8958037741911116 0.030472212482913975 0  3.0545733925701239 0.033090072697915238 0  3.2116710549912493 0.035012465457882558 0  3.3664809657335186 0.03621255015170486 0  3.5183919706749478 0.036686324388491731 0  3.6667997500999427 0.03645153640741694 0  3.8111096414901358 0.035545722777743052 0  3.9507392682187632 0.034023813556449053 0  4.0851211777732885 0.031955369448794707 0  4.213705428341247 0.029421592188392524 0  4.3359621286089167 0.026512238098985123 0  4.4513839292985811 0.023322557723110975 0  4.559488470775924 0.019950369727694855 0  4.6598207536283702 0.016493359836927294 0  4.7519557174225548 0.013046656854874543 0  4.8354992785029083 0.0097008156735646899 0  4.9100957767335425 0.0065398261924712537 0  4.9754132396239763 0.0036405769544763469 0  5.0311886169576479 0.0010696375748136533 0  5.0771407886028879 -0.0011130863903088487 0  5.1131189702992312 -0.0028621225527215039 0  5.1389107153755909 -0.0041374194937028414 0  5.1544426517373401 -0.0049137076431924618 0  5.1613561597065889 -0.0052613884953486949 0  5.1630863945872676 -0.0053484021357227459 0 
 0 4 0.00049315832751912103 1 0.0019706002802099038 1 0.0044262388147369653 1 0.0078499687290972137 1 0.012227725493782166 1 0.017541565735953349 1 0.023769767649666471 1 0.030886949309841281 1 0.038864202690063639 1 0.047669241123050626 1 0.057266557987541086 1 0.067617594540736486 1 0.078680915023339071 1 0.09041238742775301 1 0.10276536862490689 1 0.11569089288022394 1 0.12913786314506431 1 0.14305324487641921 1 0.1573822625012832 1 0.17206859898394714 1 0.18705459924907827 1 0.20228147843050409 1 0.21768953602323099 1 0.23321837698644707 1 0.2488071406605101 1 0.26439473802027408 1 0.27992009731112283 1 0.29532241754696986 1 0.31074304513832129 1 0.32597559348047273 1 0.34091097598217718 1 0.35549258547648876 1 0.36966480041923439 1 0.38337324136687861 1 0.39656505243479473 1 0.40918920787722229 1 0.4211968457694778 1 0.4325416339578208 1 0.44318017867219239 1 0.45307249488500595 1 0.46218257253519263 1 0.47047910015019151 1 0.47793646019381414 1 0.48453621795322105 1 0.49026955730208821 1 0.49514164329535054 1 0.49918013625018554 1 0.50245293139100322 1 0.5051046628554009 1 0.50741192251320455 1 0.50971889992330432 1 0.51236407129865369 1 0.51561265401058443 1 0.51959835728499582 1 0.52437961464817495 1 0.52997589442237591 1 0.53638534263030557 1 0.54359332656696002 1 0.55157688091087609 1 0.56030723894825007 1 0.56975140604911245 1 0.57987321473799025 1 0.59063407372745436 1 0.60199351891378661 1 0.61390962428170059 1 0.62633930594787357 1 0.63923854021203685 1 0.65256251034918866 1 0.66626569392889246 1 0.68030190112118483 1 0.69462427391246828 1 0.70923699710341381 1 0.72423792858781322 1 0.73936943033581259 1 0.75457427278526423 1 0.76979462198294513 1 0.78497224197659576 1 0.80004870238076076 1 0.81496559025191839 1 0.8296647255901396 1 0.84408838000430075 1 0.85817949828781759 1 0.87188192281583121 1 0.88514062076853095 1 0.8979019141951794 1 0.91011371285377074 1 0.9217257495922333 1 0.93268981778257209 1 0.94296000998651386 1 0.95249295663086431 1 0.96124806301859689 1 0.9691877425196449 1 0.97627764330254974 1 0.98248686552040265 1 0.98778816549267179 1 0.99215814317068585 1 0.99557740907768988 1 0.99803072700484474 1 0.99950712903936423 1 1 4
7 0 0  1 2 2  2.5824345976495877 0.002674201067861373 -15.491933384829668  5.1648691952991754 0.0053484021357227459 0 
 0 2 1 2
7 0 0  3 103 101  2.5824345976495877 0.002674201067861373 -15.491933384829668  2.5816015921911397 0.0029135712285326093 -15.491933384829668  2.5782728456032853 0.0038701107427400582 -15.491933384829668  2.5707914798634488 0.0060125192151772155 -15.491933384829668  2.5583600059031433 0.0095514272933983155 -15.491933384829668  2.54100138777524 0.014447810303131981 -15.491933384829668  2.5188015998066859 0.020633922772202388 -15.491933384829668  2.4918130782221617 0.028040802969548941 -15.491933384829668  2.460148193669589 0.036573346669941824 -15.491933384829668  2.4239083503220922 0.046132002429698539 -15.491933384829668  2.3832268444817006 0.056602185730953325 -15.491933384829668  2.3382478363611909 0.067862028058551932 -15.491933384829668  2.2891342981967826 0.079781830972242798 -15.491933384829668  2.2360651860065919 0.092226565538842079 -15.491933384829668  2.1792356550224743 0.10505740828479111 -15.491933384829668  2.1188564598829629 0.11813338723972741 -15.491933384829668  2.0551533860894389 0.13131287304145445 -15.491933384829668  1.9883665788258553 0.14445494412787499 -15.491933384829668  1.9187497935238336 0.15742062178537641 -15.491933384829668  1.8465695758358303 0.17007398655256895 -15.491933384829668  1.7721043787999662 0.18228319598276219 -15.491933384829668  1.6956436283211531 0.19392143075162596 -15.491933384829668  1.6174867161764137 0.20486779481635947 -15.491933384829668  1.5379420295287576 0.21500822849301546 -15.491933384829668  1.4573256217691344 0.22423630158804214 -15.491933384829668  1.3759607088562151 0.2324546706851148 -15.491933384829668  1.2941748879929829 0.23957392584217357 -15.491933384829668  1.2123021157345821 0.24552198175752041 -15.491933384829668  1.1306748564588864 0.25021357801159144 -15.491933384829668  1.0492816962236884 0.25368361637173714 -15.491933384829668  0.96834533967820857 0.2556059465095662 -15.491933384829668  0.88820619933983902 0.25518244018671471 -15.491933384829668  0.80958294796889674 0.25262847852059028 -15.491933384829668  0.73292322063588711 0.24796686948545521 -15.491933384829668  0.65857574747632408 0.24131093828632463 -15.491933384829668  0.58687884363832532 0.23278558334595145 -15.491933384829668  0.5181566537398925 0.22254480551418682 -15.491933384829668  0.45271698866707211 0.21076427815309573 -15.491933384829668  0.39084870340116695 0.1976391838335074 -15.491933384829668  0.33281961114937292 0.18338024478883744 -15.491933384829668  0.27887467641842878 0.16820958931462657 -15.491933384829668  0.2292345538205004 0.15235623460825609 -15.491933384829668  0.18409442811804183 0.13605134187291573 -15.491933384829668  0.14362302665729401 0.11952331653310014 -15.491933384829668  0.10796165449339064 0.10299279099066509 -15.491933384829668  0.077222583754679247 0.086667473854070615 -15.491933384829668  0.05148644155936373 0.070735217523564042 -15.491933384829668  0.030797300537789819 0.055356577666046264 -15.491933384829668  0.015151725085556371 0.040635253364145092 -15.491933384829668  0.0045156747680043701 0.026583291915664546 -15.491933384829668  -0.0010849625511031888 0.01296062999167911 -15.491933384829668  -0.00094275691617964083 -0.00023615889617110256 -15.491933384829668  0.0051314619048833561 -0.01193179506942319 -15.491933384829668  0.01636797402461853 -0.02134908191402823 -15.491933384829668  0.032117422731560707 -0.028902126153604029 -15.491933384829668  0.052426587211256544 -0.034906275281796982 -15.491933384829668  0.077288067950551931 -0.039466767442788896 -15.491933384829668  0.10664027760259247 -0.042650855179547933 -15.491933384829668  0.14037069185559722 -0.04452360072655704 -15.491933384829668  0.17833946715670662 -0.045163593763583407 -15.491933384829668  0.22038743336622077 -0.044663036713570525 -15.491933384829668  0.26634152729650273 -0.043127807504695463 -15.491933384829668  0.31601805573477149 -0.040676289809665027 -15.491933384829668  0.36922483318570987 -0.037438205950164033 -15.491933384829668  0.42576271186312414 -0.033553277698710769 -15.491933384829668  0.4854266154134087 -0.029169703862557666 -15.491933384829668  0.54800616877726416 -0.024442406490017946 -15.491933384829668  0.61328596936741631 -0.019531068340284511 -15.491933384829668  0.68104560830455996 -0.014597659333732178 -15.491933384829668  0.75105921352771465 -0.0098049715742353615 -15.491933384829668  0.82309551061305242 -0.0053092904543950237 -15.491933384829668  0.89691630573190362 -0.0012765987404038128 -15.491933384829668  0.97236752169469964 0.0022005553169307276 -15.491933384829668  1.0495487116683624 0.0048101761732299566 -15.491933384829668  1.1281600461689147 0.0071947876312051092 -15.491933384829668  1.207812842094045 0.0095379760746300089 -15.491933384829668  1.2878579548888629 0.011687828223963741 -15.491933384829668  1.3679893494661721 0.013605128713266725 -15.491933384829668  1.4479018870955558 0.015236106241456987 -15.491933384829668  1.527286696285062 0.016545036348957619 -15.491933384829668  1.6058355274956246 0.017506232728941279 -15.491933384829668  1.6832404828667593 0.01810627507585243 -15.491933384829668  1.7591959853374739 0.018343162194245866 -15.491933384829668  1.8333998750499714 0.01822576820370847 -15.491933384829668  1.9055548207450679 0.017772861388871526 -15.491933384829668  1.9753696341093816 0.017011906778224527 -15.491933384829668  2.0425605888866443 0.015977684724397354 -15.491933384829668  2.1068527141706235 0.014710796094196262 -15.491933384829668  2.1679810643044584 0.013256119049492561 -15.491933384829668  2.2256919646492905 0.011661278861555487 -15.491933384829668  2.279744235387962 0.0099751848638474274 -15.491933384829668  2.3299103768141851 0.008246679918463647 -15.491933384829668  2.3759778587112774 0.0065233284274372715 -15.491933384829668  2.4177496392514541 0.004850407836782345 -15.491933384829668  2.4550478883667712 0.0032699130962356268 -15.491933384829668  2.4877066198119882 0.0018202884772381734 -15.491933384829668  2.5155943084788239 0.00053481878740682665 -15.491933384829668  2.5385703943014439 -0.00055654319515442436 -15.491933384829668  2.5565594851496156 -0.001431061276360752 -15.491933384829668  2.5694553576877954 -0.0020687097468514207 -15.491933384829668  2.57722132586867 -0.0024568538215962309 -15.491933384829668  2.5806780798532944 -0.0026306942476743474 -15.491933384829668  2.5815431972936338 -0.002674201067861373 -15.491933384829668 
 0 4 0.00049315832751912103 1 0.0019706002802099038 1 0.0044262388147369653 1 0.0078499687290972137 1 0.012227725493782166 1 0.017541565735953349 1 0.023769767649666471 1 0.030886949309841281 1 0.038864202690063639 1 0.047669241123050626 1 0.057266557987541086 1 0.067617594540736486 1 0.078680915023339071 1 0.09041238742775301 1 0.10276536862490689 1 0.11569089288022394 1 0.12913786314506431 1 0.14305324487641921 1 0.1573822625012832 1 0.17206859898394714 1 0.18705459924907827 1 0.20228147843050409 1 0.21768953602323099 1 0.23321837698644707 1 0.2488071406605101 1 0.26439473802027408 1 0.27992009731112283 1 0.29532241754696986 1 0.31074304513832129 1 0.32597559348047273 1 0.34091097598217718 1 0.35549258547648876 1 0.36966480041923439 1 0.38337324136687861 1 0.39656505243479473 1 0.40918920787722229 1 0.4211968457694778 1 0.4325416339578208 1 0.44318017867219239 1 0.45307249488500595 1 0.46218257253519263 1 0.47047910015019151 1 0.47793646019381414 1 0.48453621795322105 1 0.49026955730208821 1 0.49514164329535054 1 0.49918013625018554 1 0.50245293139100322 1 0.5051046628554009 1 0.50741192251320455 1 0.50971889992330432 1 0.51236407129865369 1 0.51561265401058443 1 0.51959835728499582 1 0.52437961464817495 1 0.52997589442237591 1 0.53638534263030557 1 0.54359332656696002 1 0.55157688091087609 1 0.56030723894825007 1 0.56975140604911245 1 0.57987321473799025 1 0.59063407372745436 1 0.60199351891378661 1 0.61390962428170059 1 0.62633930594787357 1 0.63923854021203685 1 0.65256251034918866 1 0.66626569392889246 1 0.68030190112118483 1 0.69462427391246828 1 0.70923699710341381 1 0.72423792858781322 1 0.73936943033581259 1 0.75457427278526423 1 0.76979462198294513 1 0.78497224197659576 1 0.80004870238076076 1 0.81496559025191839 1 0.8296647255901396 1 0.84408838000430075 1 0.85817949828781759 1 0.87188192281583121 1 0.88514062076853095 1 0.8979019141951794 1 0.91011371285377074 1 0.9217257495922333 1 0.93268981778257209 1 0.94296000998651386 1 0.95249295663086431 1 0.96124806301859689 1 0.9691877425196449 1 0.97627764330254974 1 0.98248686552040265 1 0.98778816549267179 1 0.99215814317068585 1 0.99557740907768988 1 0.99803072700484474 1 0.99950712903936423 1 1 4
1 2.5815431972936338 -0.002674201067861373 -15.491933384829668 0.16439898730537897 0.9863939238321402 0 
7 0 0  1 2 2  2.5815431972936338 -0.002674201067861373 -15.491933384829668  5.1630863945872676 -0.0053484021357227459 0 
 0 2 1 2
7 0 0  3 103 101  5.1648691952991754 0.0053484021357227459 0  5.1632031843822794 0.0058271424570652186 0  5.1565456912065706 0.0077402214854801164 0  5.1415829597268976 0.012025038430354431 0  5.1167200118062865 0.019102854586796631 0  5.08200277555048 0.028895620606263963 0  5.0376031996133719 0.041267845544404776 0  4.9836261564443234 0.056081605939097882 0  4.9202963873391781 0.073146693339883648 0  4.8478167006441844 0.092264004859397078 0  4.7664536889634013 0.11320437146190665 0  4.6764956727223819 0.13572405611710386 0  4.5782685963935652 0.1595636619444856 0  4.4721303720131838 0.18445313107768416 0  4.3584713100449486 0.21011481656958222 0  4.2377129197659258 0.23626677447945482 0  4.1103067721788777 0.2626257460829089 0  3.9767331576517106 0.28890988825574998 0  3.8374995870476671 0.31484124357075283 0  3.6931391516716605 0.34014797310513789 0  3.5442087575999324 0.36456639196552437 0  3.3912872566423062 0.38784286150325192 0  3.2349734323528274 0.40973558963271894 0  3.0758840590575152 0.43001645698603091 0  2.9146512435382688 0.44847260317608428 0  2.7519214177124303 0.4649093413702296 0  2.5883497759859657 0.47914785168434715 0  2.4246042314691643 0.49104396351504082 0  2.2613497129177729 0.50042715602318288 0  2.0985633924473768 0.50736723274347428 0  1.9366906793564171 0.51121189301913239 0  1.776412398679678 0.51036488037342942 0  1.6191658959377935 0.50525695704118057 0  1.4658464412717742 0.49593373897091042 0  1.3171514949526482 0.48262187657264927 0  1.1737576872766506 0.4655711666919029 0  1.036313307479785 0.44508961102837363 0  0.90543397733414421 0.42152855630619146 0  0.78169740680233391 0.3952783676670148 0  0.66563922229874584 0.36676048957767488 0  0.55774935283685756 0.33641917862925313 0  0.45846910764100079 0.30471246921651218 0  0.36818885623608366 0.27210268374583146 0  0.28724605331458802 0.23904663306620028 0  0.21592330898678128 0.20598558198133018 0  0.15444516750935849 0.17333494770814123 0  0.10297288311872746 0.14147043504712808 0  0.061594601075579639 0.11071315533209253 0  0.030303450171112741 0.081270506728290184 0  0.0090313495360087401 0.053166583831329092 0  -0.0021699251022063775 0.02592125998335822 0  -0.0018855138323592817 -0.00047231779234220512 0  0.010262923809766712 -0.023863590138846379 0  0.03273594804923706 -0.042698163828056461 0  0.064234845463121415 -0.057804252307208058 0  0.10485317442251309 -0.069812550563593964 0  0.15457613590110386 -0.078933534885577791 0  0.21328055520518494 -0.085301710359095867 0  0.28074138371119445 -0.08904720145311408 0  0.35667893431341324 -0.090327187527166813 0  0.44077486673244154 -0.089326073427141051 0  0.53268305459300547 -0.086255615009390926 0  0.63203611146954297 -0.081352579619330054 0  0.73844966637141973 -0.074876411900328066 0  0.85152542372624829 -0.067106555397421538 0  0.9708532308268174 -0.058339407725115332 0  1.0960123375545283 -0.048884812980035892 0  1.2265719387348326 -0.039062136680569022 0  1.3620912166091199 -0.029195318667464356 0  1.5021184270554293 -0.019609943148470723 0  1.6461910212261048 -0.010618580908790047 0  1.7938326114638072 -0.0025531974808076256 0  1.9447350433893993 0.0044011106338614553 0  2.0990974233367248 0.0096203523464599133 0  2.2563200923378295 0.014389575262410218 0  2.4156256841880901 0.019075952149260018 0  2.5757159097777258 0.023375656447927481 0  2.7359786989323442 0.027210257426533449 0  2.8958037741911116 0.030472212482913975 0  3.0545733925701239 0.033090072697915238 0  3.2116710549912493 0.035012465457882558 0  3.3664809657335186 0.03621255015170486 0  3.5183919706749478 0.036686324388491731 0  3.6667997500999427 0.03645153640741694 0  3.8111096414901358 0.035545722777743052 0  3.9507392682187632 0.034023813556449053 0  4.0851211777732885 0.031955369448794707 0  4.213705428341247 0.029421592188392524 0  4.3359621286089167 0.026512238098985123 0  4.4513839292985811 0.023322557723110975 0  4.559488470775924 0.019950369727694855 0  4.6598207536283702 0.016493359836927294 0  4.7519557174225548 0.013046656854874543 0  4.8354992785029083 0.0097008156735646899 0  4.9100957767335425 0.0065398261924712537 0  4.9754132396239763 0.0036405769544763469 0  5.0311886169576479 0.0010696375748136533 0  5.0771407886028879 -0.0011130863903088487 0  5.1131189702992312 -0.0028621225527215039 0  5.1389107153755909 -0.0041374194937028414 0  5.1544426517373401 -0.0049137076431924618 0  5.1613561597065889 -0.0052613884953486949 0  5.1630863945872676 -0.0053484021357227459 0 
 0 4 0.00049315832751912103 1 0.0019706002802099038 1 0.0044262388147369653 1 0.0078499687290972137 1 0.012227725493782166 1 0.017541565735953349 1 0.023769767649666471 1 0.030886949309841281 1 0.038864202690063639 1 0.047669241123050626 1 0.057266557987541086 1 0.067617594540736486 1 0.078680915023339071 1 0.09041238742775301 1 0.10276536862490689 1 0.11569089288022394 1 0.12913786314506431 1 0.14305324487641921 1 0.1573822625012832 1 0.17206859898394714 1 0.18705459924907827 1 0.20228147843050409 1 0.21768953602323099 1 0.23321837698644707 1 0.2488071406605101 1 0.26439473802027408 1 0.27992009731112283 1 0.29532241754696986 1 0.31074304513832129 1 0.32597559348047273 1 0.34091097598217718 1 0.35549258547648876 1 0.36966480041923439 1 0.38337324136687861 1 0.39656505243479473 1 0.40918920787722229 1 0.4211968457694778 1 0.4325416339578208 1 0.44318017867219239 1 0.45307249488500595 1 0.46218257253519263 1 0.47047910015019151 1 0.47793646019381414 1 0.48453621795322105 1 0.49026955730208821 1 0.49514164329535054 1 0.49918013625018554 1 0.50245293139100322 1 0.5051046628554009 1 0.50741192251320455 1 0.50971889992330432 1 0.51236407129865369 1 0.51561265401058443 1 0.51959835728499582 1 0.52437961464817495 1 0.52997589442237591 1 0.53638534263030557 1 0.54359332656696002 1 0.55157688091087609 1 0.56030723894825007 1 0.56975140604911245 1 0.57987321473799025 1 0.59063407372745436 1 0.60199351891378661 1 0.61390962428170059 1 0.62633930594787357 1 0.63923854021203685 1 0.65256251034918866 1 0.66626569392889246 1 0.68030190112118483 1 0.69462427391246828 1 0.70923699710341381 1 0.72423792858781322 1 0.73936943033581259 1 0.75457427278526423 1 0.76979462198294513 1 0.78497224197659576 1 0.80004870238076076 1 0.81496559025191839 1 0.8296647255901396 1 0.84408838000430075 1 0.85817949828781759 1 0.87188192281583121 1 0.88514062076853095 1 0.8979019141951794 1 0.91011371285377074 1 0.9217257495922333 1 0.93268981778257209 1 0.94296000998651386 1 0.95249295663086431 1 0.96124806301859689 1 0.9691877425196449 1 0.97627764330254974 1 0.98248686552040265 1 0.98778816549267179 1 0.99215814317068585 1 0.99557740907768988 1 0.99803072700484474 1 0.99950712903936423 1 1 4
1 5.1630863945872676 -0.0053484021357227459 0 0.16439898730537897 0.9863939238321402 0 
Polygon3D 0
PolygonOnTriangulations 0
Surfaces 11
1 -77.459666924148337 -77.459666924148337 -77.459666924148337 1 0 -0 0 0 1 0 -1 0 
1 -77.459666924148337 -77.459666924148337 -77.459666924148337 -0 1 0 0 0 1 1 0 -0 
1 -77.459666924148337 -77.459666924148337 77.459666924148337 0 0 1 1 0 -0 -0 1 0 
1 -77.459666924148337 77.459666924148337 -77.459666924148337 -0 1 0 0 0 1 1 0 -0 
1 -77.459666924148337 -77.459666924148337 -77.459666924148337 0 0 1 1 0 -0 -0 1 0 
1 77.459666924148337 -77.459666924148337 -77.459666924148337 1 0 -0 0 0 1 0 -1 0 
9 0 0 0 0 3 1 53 2 51 2 2.5824345976495877 0.002674201067861373 -15.491933384829668  5.1648691952991754 0.0053484021357227459 0  
2.5816015921911397 0.0029135712285326093 -15.491933384829668  5.1632031843822794 0.0058271424570652186 0  
2.5782728456032853 0.0038701107427400582 -15.491933384829668  5.1565456912065706 0.0077402214854801164 0  
2.5707914798634488 0.0060125192151772155 -15.491933384829668  5.1415829597268976 0.012025038430354431 0  
2.5583600059031433 0.0095514272933983155 -15.491933384829668  5.1167200118062865 0.019102854586796631 0  
2.54100138777524 0.014447810303131981 -15.491933384829668  5.08200277555048 0.028895620606263963 0  
2.5188015998066859 0.020633922772202388 -15.491933384829668  5.0376031996133719 0.041267845544404776 0  
2.4918130782221617 0.028040802969548941 -15.491933384829668  4.9836261564443234 0.056081605939097882 0  
2.460148193669589 0.036573346669941824 -15.491933384829668  4.9202963873391781 0.073146693339883648 0  
2.4239083503220922 0.046132002429698539 -15.491933384829668  4.8478167006441844 0.092264004859397078 0  
2.3832268444817006 0.056602185730953325 -15.491933384829668  4.7664536889634013 0.11320437146190665 0  
2.3382478363611909 0.067862028058551932 -15.491933384829668  4.6764956727223819 0.13572405611710386 0  
2.2891342981967826 0.079781830972242798 -15.491933384829668  4.5782685963935652 0.1595636619444856 0  
2.2360651860065919 0.092226565538842079 -15.491933384829668  4.4721303720131838 0.18445313107768416 0  
2.1792356550224743 0.10505740828479111 -15.491933384829668  4.3584713100449486 0.21011481656958222 0  
2.1188564598829629 0.11813338723972741 -15.491933384829668  4.2377129197659258 0.23626677447945482 0  
2.0551533860894389 0.13131287304145445 -15.491933384829668  4.1103067721788777 0.2626257460829089 0  
1.9883665788258553 0.14445494412787499 -15.491933384829668  3.9767331576517106 0.28890988825574998 0  
1.9187497935238336 0.15742062178537641 -15.491933384829668  3.8374995870476671 0.31484124357075283 0  
1.8465695758358303 0.17007398655256895 -15.491933384829668  3.6931391516716605 0.34014797310513789 0  
1.7721043787999662 0.18228319598276219 -15.491933384829668  3.5442087575999324 0.36456639196552437 0  
1.6956436283211531 0.19392143075162596 -15.491933384829668  3.3912872566423062 0.38784286150325192 0  
1.6174867161764137 0.20486779481635947 -15.491933384829668  3.2349734323528274 0.40973558963271894 0  
1.5379420295287576 0.21500822849301546 -15.491933384829668  3.0758840590575152 0.43001645698603091 0  
1.4573256217691344 0.22423630158804214 -15.491933384829668  2.9146512435382688 0.44847260317608428 0  
1.3759607088562151 0.2324546706851148 -15.491933384829668  2.7519214177124303 0.4649093413702296 0  
1.2941748879929829 0.23957392584217357 -15.491933384829668  2.5883497759859657 0.47914785168434715 0  
1.2123021157345821 0.24552198175752041 -15.491933384829668  2.4246042314691643 0.49104396351504082 0  
1.1306748564588864 0.25021357801159144 -15.491933384829668  2.2613497129177729 0.50042715602318288 0  
1.0492816962236884 0.25368361637173714 -15.491933384829668  2.0985633924473768 0.50736723274347428 0  
0.96834533967820857 0.2556059465095662 -15.491933384829668  1.9366906793564171 0.51121189301913239 0  
0.88820619933983902 0.25518244018671471 -15.491933384829668  1.776412398679678 0.51036488037342942 0  
0.80958294796889674 0.25262847852059028 -15.491933384829668  1.6191658959377935 0.50525695704118057 0  
0.73292322063588711 0.24796686948545521 -15.491933384829668  1.4658464412717742 0.49593373897091042 0  
0.65857574747632408 0.24131093828632463 -15.491933384829668  1.3171514949526482 0.48262187657264927 0  
0.58687884363832532 0.23278558334595145 -15.491933384829668  1.1737576872766506 0.4655711666919029 0  
0.5181566537398925 0.22254480551418682 -15.491933384829668  1.036313307479785 0.44508961102837363 0  
0.45271698866707211 0.21076427815309573 -15.491933384829668  0.90543397733414421 0.42152855630619146 0  
0.39084870340116695 0.1976391838335074 -15.491933384829668  0.78169740680233391 0.3952783676670148 0  
0.33281961114937292 0.18338024478883744 -15.491933384829668  0.66563922229874584 0.36676048957767488 0  
0.27887467641842878 0.16820958931462657 -15.491933384829668  0.55774935283685756 0.33641917862925313 0  
0.2292345538205004 0.15235623460825609 -15.491933384829668  0.45846910764100079 0.30471246921651218 0  
0.18409442811804183 0.13605134187291573 -15.491933384829668  0.36818885623608366 0.27210268374583146 0  
0.14362302665729401 0.11952331653310014 -15.491933384829668  0.28724605331458802 0.23904663306620028 0  
0.10796165449339064 0.10299279099066509 -15.491933384829668  0.21592330898678128 0.20598558198133018 0  
0.077222583754679247 0.086667473854070615 -15.491933384829668  0.15444516750935849 0.17333494770814123 0  
0.05148644155936373 0.070735217523564042 -15.491933384829668  0.10297288311872746 0.14147043504712808 0  
0.030797300537789819 0.055356577666046264 -15.491933384829668  0.061594601075579639 0.11071315533209253 0  
0.015151725085556371 0.040635253364145092 -15.491933384829668  0.030303450171112741 0.081270506728290184 0  
0.0045156747680043701 0.026583291915664546 -15.491933384829668  0.0090313495360087401 0.053166583831329092 0  
-0.0010849625511031888 0.01296062999167911 -15.491933384829668  -0.0021699251022063775 0.02592125998335822 0  
-0.00098790783200182822 0.0039538797370999223 -15.491933384829668  -0.0019758156640036564 0.0079077594741998446 0  
1.363971037081791e-08 4.0975813996209365e-09 -15.491933384829668  2.7279420741635821e-08 8.195162799241873e-09 0  

0 4
0.00049315832751912103 1
0.0019706002802099038 1
0.0044262388147369653 1
0.0078499687290972137 1
0.012227725493782166 1
0.017541565735953349 1
0.023769767649666471 1
0.030886949309841281 1
0.038864202690063639 1
0.047669241123050626 1
0.057266557987541086 1
0.067617594540736486 1
0.078680915023339071 1
0.09041238742775301 1
0.10276536862490689 1
0.11569089288022394 1
0.12913786314506431 1
0.14305324487641921 1
0.1573822625012832 1
0.17206859898394714 1
0.18705459924907827 1
0.20228147843050409 1
0.21768953602323099 1
0.23321837698644707 1
0.2488071406605101 1
0.26439473802027408 1
0.27992009731112283 1
0.29532241754696986 1
0.31074304513832129 1
0.32597559348047273 1
0.34091097598217718 1
0.35549258547648876 1
0.36966480041923439 1
0.38337324136687861 1
0.39656505243479473 1
0.40918920787722229 1
0.4211968457694778 1
0.4325416339578208 1
0.44318017867219239 1
0.45307249488500595 1
0.46218257253519263 1
0.47047910015019151 1
0.47793646019381414 1
0.48453621795322105 1
0.49026955730208821 1
0.49514164329535054 1
0.49918013625018554 1
0.50245293139100322 1
0.5051046628554009 1
0.50741192251320455 4

0 2
1 2

9 0 0 0 0 3 1 53 2 51 2 1.363971037081791e-08 4.0975813996209365e-09 -15.491933384829668  2.7279420741635821e-08 8.195162799241873e-09 0  
0.00098781393482332523 -0.0039533865669491791 -15.491933384829668  0.0019756278696466505 -0.0079067731338983583 0  
0.0051314619048833561 -0.01193179506942319 -15.491933384829668  0.010262923809766712 -0.023863590138846379 0  
0.01636797402461853 -0.02134908191402823 -15.491933384829668  0.03273594804923706 -0.042698163828056461 0  
0.032117422731560707 -0.028902126153604029 -15.491933384829668  0.064234845463121415 -0.057804252307208058 0  
0.052426587211256544 -0.034906275281796982 -15.491933384829668  0.10485317442251309 -0.069812550563593964 0  
0.077288067950551931 -0.039466767442788896 -15.491933384829668  0.15457613590110386 -0.078933534885577791 0  
0.10664027760259247 -0.042650855179547933 -15.491933384829668  0.21328055520518494 -0.085301710359095867 0  
0.14037069185559722 -0.04452360072655704 -15.491933384829668  0.28074138371119445 -0.08904720145311408 0  
0.17833946715670662 -0.045163593763583407 -15.491933384829668  0.35667893431341324 -0.090327187527166813 0  
0.22038743336622077 -0.044663036713570525 -15.491933384829668  0.44077486673244154 -0.089326073427141051 0  
0.26634152729650273 -0.043127807504695463 -15.491933384829668  0.53268305459300547 -0.086255615009390926 0  
0.31601805573477149 -0.040676289809665027 -15.491933384829668  0.63203611146954297 -0.081352579619330054 0  
0.36922483318570987 -0.037438205950164033 -15.491933384829668  0.73844966637141973 -0.074876411900328066 0  
0.42576271186312414 -0.033553277698710769 -15.491933384829668  0.85152542372624829 -0.067106555397421538 0  
0.4854266154134087 -0.029169703862557666 -15.491933384829668  0.9708532308268174 -0.058339407725115332 0  
0.54800616877726416 -0.024442406490017946 -15.491933384829668  1.0960123375545283 -0.048884812980035892 0  
0.61328596936741631 -0.019531068340284511 -15.491933384829668  1.2265719387348326 -0.039062136680569022 0  
0.68104560830455996 -0.014597659333732178 -15.491933384829668  1.3620912166091199 -0.029195318667464356 0  
0.75105921352771465 -0.0098049715742353615 -15.491933384829668  1.5021184270554293 -0.019609943148470723 0  
0.82309551061305242 -0.0053092904543950237 -15.491933384829668  1.6461910212261048 -0.010618580908790047 0  
0.89691630573190362 -0.0012765987404038128 -15.491933384829668  1.7938326114638072 -0.0025531974808076256 0  
0.97236752169469964 0.0022005553169307276 -15.491933384829668  1.9447350433893993 0.0044011106338614553 0  
1.0495487116683624 0.0048101761732299566 -15.491933384829668  2.0990974233367248 0.0096203523464599133 0  
1.1281600461689147 0.0071947876312051092 -15.491933384829668  2.2563200923378295 0.014389575262410218 0  
1.207812842094045 0.0095379760746300089 -15.491933384829668  2.4156256841880901 0.019075952149260018 0  
1.2878579548888629 0.011687828223963741 -15.491933384829668  2.5757159097777258 0.023375656447927481 0  
1.3679893494661721 0.013605128713266725 -15.491933384829668  2.7359786989323442 0.027210257426533449 0  
1.4479018870955558 0.015236106241456987 -15.491933384829668  2.8958037741911116 0.030472212482913975 0  
1.527286696285062 0.016545036348957619 -15.491933384829668  3.0545733925701239 0.033090072697915238 0  
1.6058355274956246 0.017506232728941279 -15.491933384829668  3.2116710549912493 0.035012465457882558 0  
1.6832404828667593 0.01810627507585243 -15.491933384829668  3.3664809657335186 0.03621255015170486 0  
1.7591959853374739 0.018343162194245866 -15.491933384829668  3.5183919706749478 0.036686324388491731 0  
1.8333998750499714 0.01822576820370847 -15.491933384829668  3.6667997500999427 0.03645153640741694 0  
1.9055548207450679 0.017772861388871526 -15.491933384829668  3.8111096414901358 0.035545722777743052 0  
1.9753696341093816 0.017011906778224527 -15.491933384829668  3.9507392682187632 0.034023813556449053 0  
2.0425605888866443 0.015977684724397354 -15.491933384829668  4.0851211777732885 0.031955369448794707 0  
2.1068527141706235 0.014710796094196262 -15.491933384829668  4.213705428341247 0.029421592188392524 0  
2.1679810643044584 0.013256119049492561 -15.491933384829668  4.3359621286089167 0.026512238098985123 0  
2.2256919646492905 0.011661278861555487 -15.491933384829668  4.4513839292985811 0.023322557723110975 0  
2.279744235387962 0.0099751848638474274 -15.491933384829668  4.559488470775924 0.019950369727694855 0  
2.3299103768141851 0.008246679918463647 -15.491933384829668  4.6598207536283702 0.016493359836927294 0  
2.3759778587112774 0.0065233284274372715 -15.491933384829668  4.7519557174225548 0.013046656854874543 0  
2.4177496392514541 0.004850407836782345 -15.491933384829668  4.8354992785029083 0.0097008156735646899 0  
2.4550478883667712 0.0032699130962356268 -15.491933384829668  4.9100957767335425 0.0065398261924712537 0  
2.4877066198119882 0.0018202884772381734 -15.491933384829668  4.9754132396239763 0.0036405769544763469 0  
2.5155943084788239 0.00053481878740682665 -15.491933384829668  5.0311886169576479 0.0010696375748136533 0  
2.5385703943014439 -0.00055654319515442436 -15.491933384829668  5.0771407886028879 -0.0011130863903088487 0  
2.5565594851496156 -0.001431061276360752 -15.491933384829668  5.1131189702992312 -0.0028621225527215039 0  
2.5694553576877954 -0.0020687097468514207 -15.491933384829668  5.1389107153755909 -0.0041374194937028414 0  
2.57722132586867 -0.0024568538215962309 -15.491933384829668  5.1544426517373401 -0.0049137076431924618 0  
2.5806780798532944 -0.0026306942476743474 -15.491933384829668  5.1613561597065889 -0.0052613884953486949 0  
2.5815431972936338 -0.002674201067861373 -15.491933384829668  5.1630863945872676 -0.0053484021357227459 0  

0.50741192251320455 4
0.50971889992330432 1
0.51236407129865369 1
0.51561265401058443 1
0.51959835728499582 1
0.52437961464817495 1
0.52997589442237591 1
0.53638534263030557 1
0.54359332656696002 1
0.55157688091087609 1
0.56030723894825007 1
0.56975140604911245 1
0.57987321473799025 1
0.59063407372745436 1
0.60199351891378661 1
0.61390962428170059 1
0.62633930594787357 1
0.63923854021203685 1
0.65256251034918866 1
0.66626569392889246 1
0.68030190112118483 1
0.69462427391246828 1
0.70923699710341381 1
0.72423792858781322 1
0.73936943033581259 1
0.75457427278526423 1
0.76979462198294513 1
0.78497224197659576 1
0.80004870238076076 1
0.81496559025191839 1
0.8296647255901396 1
0.84408838000430075 1
0.85817949828781759 1
0.87188192281583121 1
0.88514062076853095 1
0.8979019141951794 1
0.91011371285377074 1
0.9217257495922333 1
0.93268981778257209 1
0.94296000998651386 1
0.95249295663086431 1
0.96124806301859689 1
0.9691877425196449 1
0.97627764330254974 1
0.98248686552040265 1
0.98778816549267179 1
0.99215814317068585 1
0.99557740907768988 1
0.99803072700484474 1
0.99950712903936423 1
1 4

0 2
1 2

9 0 0 0 0 1 1 2 2 2 2 2.5815431972936338 -0.002674201067861373 -15.491933384829668  5.1630863945872676 -0.0053484021357227459 0  
2.5824345976495877 0.0026742010678613721 -15.491933384829668  5.1648691952991754 0.0053484021357227442 0  

0 2
0.010844353369380468 2

0 2
1 2

1 2.5824345976495877 0.002674201067861373 -15.491933384829668 -0 0 -1 -0.99999946383557825 -0.0010355329817013511 0 -0.0010355329817013511 0.99999946383557825 0 
1 5.1648691952991754 0.0053484021357227459 0 -0 0 -1 -0.99999946383557825 -0.0010355329817013511 0 -0.0010355329817013511 0.99999946383557825 0 
Triangulations 0

TShapes 61
Ve
1e-07
-77.4596669241483 -77.4596669241483 77.4596669241483
0 0

0101101
*
Ve
1e-07
-77.4596669241483 -77.4596669241483 -77.4596669241483
0 0

0101101
*
Ed
 1e-07 1 1 0
1  1 0 0 154.919333848297
0

0101000
-61 0 +60 0 *
Ve
1e-07
-77.4596669241483 77.4596669241483 77.4596669241483
0 0

0101101
*
Ed
 1e-07 1 1 0
1  2 0 0 154.919333848297
0

0101000
-58 0 +61 0 *
Ve
1e-07
-77.4596669241483 77.4596669241483 -77.4596669241483
0 0

0101101
*
Ed
 1e-07 1 1 0
1  3 0 0 154.919333848297
0

0101000
-58 0 +56 0 *
Ed
 1e-07 1 1 0
1  4 0 0 154.919333848297
0

0101000
-56 0 +60 0 *
Wi

0101100
-59 0 -57 0 +55 0 +54 0 *
Fa
0  1e-07 1 0

0111000
+53 0 *
Ve
1e-07
77.4596669241483 -77.4596669241483 -77.4596669241483
0 0

0101101
*
Ed
 1e-07 1 1 0
1  5 0 0 154.919333848297
0

0101000
-51 0 +60 0 *
Ve
1e-07
77.4596669241483 -77.4596669241483 77.4596669241483
0 0

0101101
*
Ed
 1e-07 1 1 0
1  6 0 0 154.919333848297
0

0101000
-49 0 +51 0 *
Ed
 1e-07 1 1 0
1  7 0 0 154.919333848297
0

0101000
-49 0 +61 0 *
Wi

0101100
-50 0 -48 0 +47 0 +59 0 *
Fa
0  1e-07 2 0

0111000
+46 0 *
Ve
1e-07
77.4596669241483 77.4596669241483 77.4596669241483
0 0

0101101
*
Ed
 1e-07 1 1 0
1  8 0 0 154.919333848297
0

0101000
-44 0 +58 0 *
Ed
 1e-07 1 1 0
1  9 0 0 154.919333848297
0

0101000
-44 0 +49 0 *
Wi

0101100
-57 0 -43 0 +42 0 +47 0 *
Fa
0  1e-07 3 0

0111000
+41 0 *
Ve
1e-07
77.4596669241483 77.4596669241483 -77.4596669241483
0 0

0101101
*
Ed
 1e-07 1 1 0
1  10 0 0 154.919333848297
0

0101000
-39 0 +56 0 *
Ed
 1e-07 1 1 0
1  11 0 0 154.919333848297
0

0101000
-44 0 +39 0 *
Wi

0101100
-38 0 -37 0 +43 0 +55 0 *
Fa
0  1e-07 4 0

0111000
+36 0 *
Ed
 1e-07 1 1 0
1  12 0 0 154.919333848297
0

0101000
-39 0 +51 0 *
Wi

0101100
-54 0 -38 0 +34 0 +50 0 *
Fa
0  1e-07 5 0

0111000
+33 0 *
Wi

0101100
-48 0 -42 0 +37 0 +34 0 *
Fa
0  1e-07 6 0

0111000
+31 0 *
Sh

0101100
-52 0 -45 0 +40 0 +35 0 -32 0 +30 0 *
Ve
2.58198889747161e-07
2.58243459764959 0.00267420106786137 -15.4919333848297
0 0

0101101
*
Ve
2.58198889747161e-07
0 0 -15.4919333848297
0 0

0101101
*
Ed
 1e-07 1 1 0
1  13 0 0 0.507411922891452
2  1 7 0 0 0.507411922891452
0

0101000
+28 0 -27 0 *
Ve
5.16397779494322e-07
0 0 0
0 0

0101101
*
Ed
 1e-07 1 1 0
1  14 0 0 1
2  2 7 0 0 1
2  3 8 0 0 1
4 G1 7 0 8 0
0

0101000
+27 0 -25 0 *
Ve
5.16397779494322e-07
5.16486919529918 0.00534840213572275 0
0 0

0101101
*
Ed
 1e-07 1 1 0
1  15 0 0 0.507411922891452
2  4 7 0 0 0.507411922891452
0

0101000
+23 0 -25 0 *
Ed
 1e-07 1 1 0
1  16 0 0 1
2  5 7 0 0 1
2  6 9 0 0 1
0

0101000
+28 0 -23 0 *
Wi

0101000
+26 0 +24 0 -22 0 -21 0 *
Fa
0  1e-07 7 0

0111000
+20 0 *
Ve
2.58198889747161e-07
2.58154319729363 -0.00267420106786137 -15.4919333848297
0 0

0101101
*
Ed
 1e-07 1 1 0
1  17 0 0.507411922891452 1
2  7 8 0 0.507411922891452 1
0

0101000
+27 0 -18 0 *
Ed
 1e-07 1 1 0
1  18 0 0 0.00542217668469023
2  8 9 0 0 0.00542217668469023
0

0101000
+18 0 -28 0 *
Wi

0101100
+26 0 +17 0 +16 0 *
Fa
0  1e-07 10 0

0111000
-15 0 *
Ve
5.16397779494322e-07
5.16308639458727 -0.00534840213572275 0
0 0

0101101
*
Ed
 1e-07 1 1 0
1  19 0 0 1
2  9 8 0 0 1
2  10 9 0 0 1
0

0101000
+18 0 -13 0 *
Ed
 1e-07 1 1 0
1  20 0 0.507411922891452 1
2  11 8 0 0.507411922891452 1
0

0101000
+25 0 -13 0 *
Wi

0101000
+17 0 +12 0 -11 0 -24 0 *
Fa
0  1e-07 8 0

0111000
+10 0 *
Ed
 1e-07 1 1 0
1  21 0 0 0.0108443533693805
2  12 9 0 0 0.0108443533693805
0

0101000
+13 0 -23 0 *
Wi

0101100
+22 0 +11 0 +8 0 *
Fa
0  1e-07 11 0

0111000
-7 0 *
Wi

0101000
+16 0 +21 0 -8 0 -12 0 *
Fa
0  1e-07 9 0

0111000
+5 0 *
Sh

0101100
-19 0 -14 0 -9 0 +6 0 -4 0 *
So

0100000
+29 0 +3 0 *
Co

1100000
+2 0 *

+1 0 
##EGADS HEADER FILE-REV 1 ##
0
  1  2  11  11  21  14  5
1 5 1
_body
18
1 5 1
_brch
162
3 7 44
capsAIM
#egadsTessAIM;pointwiseAIM;fun3dAIM;tetgenAIM
2 14 1
capsMeshLength
 1.000000000000e+00
2 13 1
__@@nchange__
 5.000000000000e+00
    2 0 9
1 5 2
_body
15 1 
1 5 4
_brch
156 1 153 1 
1 5 3
_hist
15 17 18 
1 9 6
__trace__
15 1 17 1 18 1 
3 9 8
capsGroup
#Farfield
3 8 8
capsMesh
#Farfield
2 14 1
capsMeshLength
 3.000000000000e+00
1 7 3
_faceID
15 1 1 
3 7 8
PW:Name
#Farfield
    2 1 9
1 5 2
_body
15 3 
1 5 4
_brch
156 3 153 1 
1 5 3
_hist
15 17 18 
1 9 6
__trace__
15 3 17 2 18 2 
3 9 8
capsGroup
#Farfield
3 8 8
capsMesh
#Farfield
2 14 1
capsMeshLength
 3.000000000000e+00
1 7 3
_faceID
15 3 1 
3 7 8
PW:Name
#Farfield
    2 2 9
1 5 2
_body
15 6 
1 5 4
_brch
156 6 153 1 
1 5 3
_hist
15 17 18 
1 9 6
__trace__
15 6 17 3 18 3 
3 9 8
capsGroup
#Farfield
3 8 8
capsMesh
#Farfield
2 14 1
capsMeshLength
 3.000000000000e+00
1 7 3
_faceID
15 6 1 
3 7 8
PW:Name
#Farfield
    2 3 9
1 5 2
_body
15 4 
1 5 4
_brch
156 4 153 1 
1 5 3
_hist
15 17 18 
1 9 6
__trace__
15 4 17 4 18 4 
3 9 8
capsGroup
#Farfield
3 8 8
capsMesh
#Farfield
2 14 1
capsMeshLength
 3.000000000000e+00
1 7 3
_faceID
15 4 1 
3 7 8
PW:Name
#Farfield
    2 4 9
1 5 2
_body
15 5 
1 5 4
_brch
156 5 153 1 
1 5 3
_hist
15 17 18 
1 9 6
__trace__
15 5 17 5 18 5 
3 9 8
capsGroup
#Farfield
3 8 8
capsMesh
#Farfield
2 14 1
capsMeshLength
 3.000000000000e+00
1 7 3
_faceID
15 5 1 
3 7 8
PW:Name
#Farfield
    2 5 9
1 5 2
_body
15 2 
1 5 4
_brch
156 2 153 1 
1 5 3
_hist
15 17 18 
1 9 6
__trace__
15 2 17 6 18 6 
3 9 8
capsGroup
#Farfield
3 8 8
capsMesh
#Farfield
2 14 1
capsMeshLength
 3.000000000000e+00
1 7 3
_faceID
15 2 1 
3 7 8
PW:Name
#Farfield
    2 6 10
1 5 2
_body
7 3 
1 5 4
_brch
158 7 153 1 
1 5 3
_hist
7 17 18 
1 9 6
__trace__
7 1 17 7 18 7 
3 9 4
capsGroup
#wall
3 8 4
capsMesh
#wall
3 14 3
capsMeshLength
#0.1
1 7 3
_faceID
7 3 1 
1 11 1
__trimmed__
1
3 7 4
PW:Name
#wall
    2 7 10
1 5 2
_body
7 1 
1 5 4
_brch
158 7 153 1 
1 5 3
_hist
7 17 18 
1 9 6
__trace__
7 4 17 8 18 8 
3 9 4
capsGroup
#wall
3 8 4
capsMesh
#wall
3 14 3
capsMeshLength
#0.1
1 7 3
_faceID
7 1 1 
1 11 1
__trimmed__
1
3 7 4
PW:Name
#wall
    2 8 10
1 5 2
_body
7 4 
1 5 4
_brch
158 7 153 1 
1 5 3
_hist
7 17 18 
1 9 6
__trace__
7 2 17 9 18 9 
3 9 4
capsGroup
#wall
3 8 4
capsMesh
#wall
3 14 3
capsMeshLength
#0.1
1 7 3
_faceID
7 4 1 
1 11 1
__trimmed__
1
3 7 4
PW:Name
#wall
    2 9 10
1 5 2
_body
7 2 
1 5 4
_brch
158 7 153 1 
1 5 3
_hist
7 17 18 
1 9 6
__trace__
7 5 17 10 18 10 
3 9 4
capsGroup
#wall
3 8 4
capsMesh
#wall
3 14 3
capsMeshLength
#0.1
1 7 3
_faceID
7 2 1 
1 11 1
__trimmed__
1
3 7 4
PW:Name
#wall
    2 10 10
1 5 2
_body
7 5 
1 5 4
_brch
158 7 153 1 
1 5 3
_hist
7 17 18 
1 9 6
__trace__
7 3 17 11 18 11 
3 9 4
capsGroup
#wall
3 8 4
capsMesh
#wall
3 14 3
capsMeshLength
#0.1
1 7 3
_faceID
7 5 1 
1 11 1
__trimmed__
1
3 7 4
PW:Name
#wall
    4 0 4
1 9 6
__trace__
15 1 17 1 18 1 
1 5 2
_body
15 10003 
1 7 5
_edgeID
15 1 15 3 1 
1 6 1
_nface
2
    4 1 4
1 9 6
__trace__
15 2 17 2 18 2 
1 5 2
_body
15 10006 
1 7 5
_edgeID
15 1 15 6 1 
1 6 1
_nface
2
    4 2 4
1 9 6
__trace__
15 3 17 3 18 3 
1 5 2
_body
15 40001 
1 7 5
_edgeID
15 1 15 4 1 
1 6 1
_nface
2
    4 3 4
1 9 6
__trace__
15 4 17 4 18 4 
1 5 2
_body
15 50001 
1 7 5
_edgeID
15 1 15 5 1 
1 6 1
_nface
2
    4 4 4
1 9 6
__trace__
15 9 17 5 18 5 
1 5 2
_body
15 30005 
1 7 5
_edgeID
15 3 15 5 1 
1 6 1
_nface
2
    4 5 4
1 9 6
__trace__
15 5 17 6 18 6 
1 5 2
_body
15 30002 
1 7 5
_edgeID
15 2 15 3 1 
1 6 1
_nface
2
    4 6 4
1 9 6
__trace__
15 10 17 7 18 7 
1 5 2
_body
15 60003 
1 7 5
_edgeID
15 3 15 6 1 
1 6 1
_nface
2
    4 7 4
1 9 6
__trace__
15 12 17 8 18 8 
1 5 2
_body
15 40006 
1 7 5
_edgeID
15 4 15 6 1 
1 6 1
_nface
2
    4 8 4
1 9 6
__trace__
15 6 17 9 18 9 
1 5 2
_body
15 60002 
1 7 5
_edgeID
15 2 15 6 1 
1 6 1
_nface
2
    4 9 4
1 9 6
__trace__
15 11 17 10 18 10 
1 5 2
_body
15 50004 
1 7 5
_edgeID
15 4 15 5 1 
1 6 1
_nface
2
    4 10 4
1 9 6
__trace__
15 7 17 11 18 11 
1 5 2
_body
15 20004 
1 7 5
_edgeID
15 2 15 4 1 
1 6 1
_nface
2
    4 11 4
1 9 6
__trace__
15 8 17 12 18 12 
1 5 2
_body
15 20005 
1 7 5
_edgeID
15 2 15 5 1 
1 6 1
_nface
2
    4 12 4
1 9 6
__trace__
7 1 17 13 18 13 
1 5 2
_body
7 10003 
1 7 5
_edgeID
7 1 7 3 1 
1 6 1
_nface
2
    4 13 4
1 9 6
__trace__
7 2 17 14 18 14 
1 5 2
_body
7 40003 
1 7 5
_edgeID
7 3 7 4 1 
1 6 1
_nface
2
    4 14 4
1 9 6
__trace__
7 3 17 15 18 15 
1 5 2
_body
7 30002 
1 7 5
_edgeID
7 2 7 3 1 
1 6 1
_nface
2
    4 15 4
1 9 6
__trace__
7 4 17 16 18 16 
1 5 2
_body
7 30005 
1 7 5
_edgeID
7 3 7 5 1 
1 6 1
_nface
2
    4 16 4
1 9 6
__trace__
7 5 17 17 18 17 
1 5 2
_body
7 10004 
1 7 5
_edgeID
7 1 7 4 1 
1 6 1
_nface
2
    4 17 4
1 9 6
__trace__
7 8 17 18 18 18 
1 5 2
_body
7 10005 
1 7 5
_edgeID
7 1 7 5 1 
1 6 1
_nface
2
    4 18 4
1 9 6
__trace__
7 6 17 19 18 19 
1 5 2
_body
7 50004 
1 7 5
_edgeID
7 4 7 5 1 
1 6 1
_nface
2
    4 19 4
1 9 6
__trace__
7 7 17 20 18 20 
1 5 2
_body
7 40002 
1 7 5
_edgeID
7 2 7 4 1 
1 6 1
_nface
2
    4 20 4
1 9 6
__trace__
7 9 17 21 18 21 
1 5 2
_body
7 50002 
1 7 5
_edgeID
7 2 7 5 1 
1 6 1
_nface
2
    5 0 3
1 9 6
__trace__
15 1 17 1 18 1 
1 7 1
_nodeID
1
1 6 1
_nedge
3
    5 1 3
1 9 6
__trace__
15 2 17 2 18 2 
1 7 1
_nodeID
2
1 6 1
_nedge
3
    5 2 3
1 9 6
__trace__
15 3 17 3 18 3 
1 7 1
_nodeID
3
1 6 1
_nedge
3
    5 3 3
1 9 6
__trace__
15 4 17 4 18 4 
1 7 1
_nodeID
4
1 6 1
_nedge
3
    5 4 3
1 9 6
__trace__
15 6 17 5 18 5 
1 7 1
_nodeID
5
1 6 1
_nedge
3
    5 5 3
1 9 6
__trace__
15 5 17 6 18 6 
1 7 1
_nodeID
6
1 6 1
_nedge
3
    5 6 3
1 9 6
__trace__
15 7 17 7 18 7 
1 7 1
_nodeID
7
1 6 1
_nedge
3
    5 7 3
1 9 6
__trace__
15 8 17 8 18 8 
1 7 1
_nodeID
8
1 6 1
_nedge
3
    5 8 3
1 9 14
__trace__
3 1 4 1 5 1 6 1 7 1 17 9 18 9 
1 7 1
_nodeID
9
1 6 1
_nedge
3
    5 9 3
1 9 14
__trace__
3 2 4 2 5 2 6 2 7 2 17 10 18 10 
1 7 1
_nodeID
10
1 6 1
_nedge
3
    5 10 3
1 9 10
__trace__
1 2 2 2 7 3 17 11 18 11 
1 7 1
_nodeID
11
1 6 1
_nedge
3
    5 11 3
1 9 10
__trace__
1 1 2 1 7 4 17 12 18 12 
1 7 1
_nodeID
12
1 6 1
_nedge
3
    5 12 3
1 9 14
__trace__
3 3 4 3 5 3 6 3 7 5 17 13 18 13 
1 7 1
_nodeID
13
1 6 1
_nedge
3
    5 13 3
1 9 10
__trace__
1 3 2 3 7 6 17 14 18 14 
1 7 1
_nodeID
14
1 6 1
_nedge
3
    0 0 0
