DBRep_DrawableShape

CASCADE Topology V1, (c) Matra-Datavision
Locations 0
Curve2ds 12
1 0 1 1 0 
1 0 1 1 0 
1 0 1 1 0 
1 0 0 1 0 
1 0.50741192251320455 0 0 1 
1 0.50741192251320455 0 0 1 
1 0 0 0 1 
1 0.0072295689129203136 0 0 1 
1 0 0 1 0 
1 1 0 0 1 
1 0 0 0 1 
7 0 0  1 2 2  0 0  0.0072295689129203136 0 
 0 2 0.0036147844564601568 2
Curves 21
1 -51.639777949432222 -51.639777949432222 -51.639777949432222 0 0 1 
1 -51.639777949432222 -51.639777949432222 0 -0 1 0 
1 -51.639777949432222 51.639777949432222 -51.639777949432222 0 0 1 
1 -51.639777949432222 -51.639777949432222 -51.639777949432222 -0 1 0 
1 -51.639777949432222 -51.639777949432222 -51.639777949432222 1 0 -0 
1 51.639777949432222 -51.639777949432222 -51.639777949432222 0 0 1 
1 -51.639777949432222 -51.639777949432222 0 1 0 -0 
1 -51.639777949432222 51.639777949432222 0 1 0 -0 
1 51.639777949432222 -51.639777949432222 0 -0 1 0 
7 0 0  3 103 101  3.4432461301994506 0.0035656014238151642 0  3.442135456254853 0.0038847616380434796 0  3.4376971274710471 0.0051601476569867449 0  3.4277219731512658 0.0080166922869029551 0  3.4111466745375245 0.012735236391197755 0  3.3880018503669871 0.019263747070842645 0  3.3584021330755816 0.027511897029603185 0  3.3224174376295492 0.037387737292731926 0  3.2801975915594523 0.04876446222658911 0  3.2318778004294568 0.061509336572931395 0  3.1776357926422678 0.075469580974604447 0  3.1176637818149215 0.090482704078069257 0  3.0521790642623774 0.10637577462965707 0  2.9814202480087895 0.12296875405178945 0  2.9056475400299662 0.1400765443797215 0  2.8251419465106178 0.15751118298630323 0  2.7402045147859191 0.17508383072193928 0  2.6511554384344742 0.19260659217050002 0  2.5583330580317787 0.20989416238050193 0  2.4620927677811073 0.22676531540342532 0  2.3628058383999551 0.24304426131034962 0  2.260858171094871 0.25856190766883463 0  2.1566489549018852 0.27315705975514598 0  2.0505893727050104 0.2866776379906873 0  1.9431008290255127 0.29898173545072287 0  1.834614278474954 0.30993956091348646 0  1.7255665173239771 0.31943190112289815 0  1.6164028209794432 0.3273626423433606 0  1.5075664752785154 0.33361810401545533 0  1.3990422616315847 0.33824482182898286 0  1.2911271195709448 0.34080792867942161 0  1.1842749324531188 0.3402432535822863 0  1.0794439306251957 0.33683797136078708 0  0.97723096084784955 0.33062249264727361 0  0.87810099663509888 0.32174791771509953 0  0.78250512485110058 0.31038077779460199 0  0.69087553831985682 0.29672640735224914 0  0.60362265155609618 0.28101903753746099 0  0.52113160453488938 0.2635189117780099 0  0.44375948153249722 0.24450699305178328 0  0.37183290189123841 0.22427945241950212 0  0.30564607176066722 0.20314164614434146 0  0.24545923749072246 0.18140178916388766 0  0.19149736887639202 0.15936442204413354 0  0.14394887265785419 0.1373237213208868 0  0.10296344500623901 0.1155566318054275 0  0.06864858874581832 0.094313623364752075 0  0.041063067383719766 0.073808770221395023 0  0.020202300114075162 0.054180337818860128 0  0.0060208996906724946 0.035444389220886066 0  -0.0014466167348042519 0.017280839988905481 0  -0.0012570092215728546 -0.00031487852822813679 0  0.0068419492065111423 -0.015909060092564254 0  0.021823965366158042 -0.028465442552037645 0  0.042823230308747615 -0.038536168204805377 0  0.069902116281675405 -0.046541700375729314 0  0.10305075726740259 -0.052622356590385194 0  0.14218703680345665 -0.056867806906063925 0  0.18716092247412963 -0.059364800968742727 0  0.23778595620894219 -0.060218125018111218 0  0.29384991115496106 -0.059550715618094038 0  0.35512203639533707 -0.05750374333959396 0  0.42135740764636204 -0.054235053079553376 0  0.49229977758094656 -0.049917607933552051 0  0.56768361581749893 -0.044737703598281033 0  0.64723548721787838 -0.038892938483410223 0  0.73067489170301902 -0.032589875320023935 0  0.81771462582322185 -0.026041424453712686 0  0.90806081107274683 -0.019463545778309575 0  1.0014122847036198 -0.013073295432313817 0  1.0974606808174034 -0.0070790539391933655 0  1.1958884076425382 -0.0017021316538717505 0  1.2964900289262662 0.002934073755907637 0  1.3993982822244835 0.0064135682309732767 0  1.5042133948918865 0.009593050174940148 0  1.6104171227920605 0.012717301432840014 0  1.7171439398518176 0.015583770965284989 0  1.8239857992882298 0.018140171617688966 0  1.9305358494607414 0.020314808321942653 0  2.0363822617134164 0.022060048465276826 0  2.141114036660833 0.023341643638588375 0  2.2443206438223458 0.024141700101136577 0  2.3455946471166325 0.024457549592327824 0  2.4445331667332955 0.024301024271611293 0  2.5407397609934241 0.023697148518495373 0  2.6338261788125092 0.022682542370966036 0  2.7234141185155258 0.021303579632529806 0  2.8091369522274983 0.019614394792261684 0  2.8906414190726113 0.017674825399323416 0  2.9675892861990545 0.015548371815407318 0  3.0396589805172831 0.013300246485129905 0  3.1065471690855802 0.010995573224618199 0  3.1679704782817035 0.0086977712365830309 0  3.223666185668606 0.0064672104490431275 0  3.2733971844890286 0.0043598841283141697 0  3.3169421597493178 0.0024270513029842314 0  3.354125744638432 0.00071309171654243564 0  3.3847605257352593 -0.00074205759353923248 0  3.4087459801994879 -0.0019080817018143361 0  3.4259404769170612 -0.0027582796624685615 0  3.436295101158227 -0.0032758050954616413 0  3.4409041064710602 -0.0035075923302324637 0  3.4420575963915123 -0.0035656014238151642 0 
 0 4 0.00049315832751912103 1 0.0019706002802099038 1 0.0044262388147369653 1 0.0078499687290972137 1 0.012227725493782166 1 0.017541565735953349 1 0.023769767649666471 1 0.030886949309841281 1 0.038864202690063639 1 0.047669241123050626 1 0.057266557987541086 1 0.067617594540736486 1 0.078680915023339071 1 0.09041238742775301 1 0.10276536862490689 1 0.11569089288022394 1 0.12913786314506431 1 0.14305324487641921 1 0.1573822625012832 1 0.17206859898394714 1 0.18705459924907827 1 0.20228147843050409 1 0.21768953602323099 1 0.23321837698644707 1 0.2488071406605101 1 0.26439473802027408 1 0.27992009731112283 1 0.29532241754696986 1 0.31074304513832129 1 0.32597559348047273 1 0.34091097598217718 1 0.35549258547648876 1 0.36966480041923439 1 0.38337324136687861 1 0.39656505243479473 1 0.40918920787722229 1 0.4211968457694778 1 0.4325416339578208 1 0.44318017867219239 1 0.45307249488500595 1 0.46218257253519263 1 0.47047910015019151 1 0.47793646019381414 1 0.48453621795322105 1 0.49026955730208821 1 0.49514164329535054 1 0.49918013625018554 1 0.50245293139100322 1 0.5051046628554009 1 0.50741192251320455 1 0.50971889992330432 1 0.51236407129865369 1 0.51561265401058443 1 0.51959835728499582 1 0.52437961464817495 1 0.52997589442237591 1 0.53638534263030557 1 0.54359332656696002 1 0.55157688091087609 1 0.56030723894825007 1 0.56975140604911245 1 0.57987321473799025 1 0.59063407372745436 1 0.60199351891378661 1 0.61390962428170059 1 0.62633930594787357 1 0.63923854021203685 1 0.65256251034918866 1 0.66626569392889246 1 0.68030190112118483 1 0.69462427391246828 1 0.70923699710341381 1 0.72423792858781322 1 0.73936943033581259 1 0.75457427278526423 1 0.76979462198294513 1 0.78497224197659576 1 0.80004870238076076 1 0.81496559025191839 1 0.8296647255901396 1 0.84408838000430075 1 0.85817949828781759 1 0.87188192281583121 1 0.88514062076853095 1 0.8979019141951794 1 0.91011371285377074 1 0.9217257495922333 1 0.93268981778257209 1 0.94296000998651386 1 0.95249295663086431 1 0.96124806301859689 1 0.9691877425196449 1 0.97627764330254974 1 0.98248686552040265 1 0.98778816549267179 1 0.99215814317068585 1 0.99557740907768988 1 0.99803072700484474 1 0.99950712903936423 1 1 4
7 0 0  3 103 101  3.4432461301994506 0.0035656014238151642 0  3.442135456254853 0.0038847616380434796 0  3.4376971274710471 0.0051601476569867449 0  3.4277219731512658 0.0080166922869029551 0  3.4111466745375245 0.012735236391197755 0  3.3880018503669871 0.019263747070842645 0  3.3584021330755816 0.027511897029603185 0  3.3224174376295492 0.037387737292731926 0  3.2801975915594523 0.04876446222658911 0  3.2318778004294568 0.061509336572931395 0  3.1776357926422678 0.075469580974604447 0  3.1176637818149215 0.090482704078069257 0  3.0521790642623774 0.10637577462965707 0  2.9814202480087895 0.12296875405178945 0  2.9056475400299662 0.1400765443797215 0  2.8251419465106178 0.15751118298630323 0  2.7402045147859191 0.17508383072193928 0  2.6511554384344742 0.19260659217050002 0  2.5583330580317787 0.20989416238050193 0  2.4620927677811073 0.22676531540342532 0  2.3628058383999551 0.24304426131034962 0  2.260858171094871 0.25856190766883463 0  2.1566489549018852 0.27315705975514598 0  2.0505893727050104 0.2866776379906873 0  1.9431008290255127 0.29898173545072287 0  1.834614278474954 0.30993956091348646 0  1.7255665173239771 0.31943190112289815 0  1.6164028209794432 0.3273626423433606 0  1.5075664752785154 0.33361810401545533 0  1.3990422616315847 0.33824482182898286 0  1.2911271195709448 0.34080792867942161 0  1.1842749324531188 0.3402432535822863 0  1.0794439306251957 0.33683797136078708 0  0.97723096084784955 0.33062249264727361 0  0.87810099663509888 0.32174791771509953 0  0.78250512485110058 0.31038077779460199 0  0.69087553831985682 0.29672640735224914 0  0.60362265155609618 0.28101903753746099 0  0.52113160453488938 0.2635189117780099 0  0.44375948153249722 0.24450699305178328 0  0.37183290189123841 0.22427945241950212 0  0.30564607176066722 0.20314164614434146 0  0.24545923749072246 0.18140178916388766 0  0.19149736887639202 0.15936442204413354 0  0.14394887265785419 0.1373237213208868 0  0.10296344500623901 0.1155566318054275 0  0.06864858874581832 0.094313623364752075 0  0.041063067383719766 0.073808770221395023 0  0.020202300114075162 0.054180337818860128 0  0.0060208996906724946 0.035444389220886066 0  -0.0014466167348042519 0.017280839988905481 0  -0.0012570092215728546 -0.00031487852822813679 0  0.0068419492065111423 -0.015909060092564254 0  0.021823965366158042 -0.028465442552037645 0  0.042823230308747615 -0.038536168204805377 0  0.069902116281675405 -0.046541700375729314 0  0.10305075726740259 -0.052622356590385194 0  0.14218703680345665 -0.056867806906063925 0  0.18716092247412963 -0.059364800968742727 0  0.23778595620894219 -0.060218125018111218 0  0.29384991115496106 -0.059550715618094038 0  0.35512203639533707 -0.05750374333959396 0  0.42135740764636204 -0.054235053079553376 0  0.49229977758094656 -0.049917607933552051 0  0.56768361581749893 -0.044737703598281033 0  0.64723548721787838 -0.038892938483410223 0  0.73067489170301902 -0.032589875320023935 0  0.81771462582322185 -0.026041424453712686 0  0.90806081107274683 -0.019463545778309575 0  1.0014122847036198 -0.013073295432313817 0  1.0974606808174034 -0.0070790539391933655 0  1.1958884076425382 -0.0017021316538717505 0  1.2964900289262662 0.002934073755907637 0  1.3993982822244835 0.0064135682309732767 0  1.5042133948918865 0.009593050174940148 0  1.6104171227920605 0.012717301432840014 0  1.7171439398518176 0.015583770965284989 0  1.8239857992882298 0.018140171617688966 0  1.9305358494607414 0.020314808321942653 0  2.0363822617134164 0.022060048465276826 0  2.141114036660833 0.023341643638588375 0  2.2443206438223458 0.024141700101136577 0  2.3455946471166325 0.024457549592327824 0  2.4445331667332955 0.024301024271611293 0  2.5407397609934241 0.023697148518495373 0  2.6338261788125092 0.022682542370966036 0  2.7234141185155258 0.021303579632529806 0  2.8091369522274983 0.019614394792261684 0  2.8906414190726113 0.017674825399323416 0  2.9675892861990545 0.015548371815407318 0  3.0396589805172831 0.013300246485129905 0  3.1065471690855802 0.010995573224618199 0  3.1679704782817035 0.0086977712365830309 0  3.223666185668606 0.0064672104490431275 0  3.2733971844890286 0.0043598841283141697 0  3.3169421597493178 0.0024270513029842314 0  3.354125744638432 0.00071309171654243564 0  3.3847605257352593 -0.00074205759353923248 0  3.4087459801994879 -0.0019080817018143361 0  3.4259404769170612 -0.0027582796624685615 0  3.436295101158227 -0.0032758050954616413 0  3.4409041064710602 -0.0035075923302324637 0  3.4420575963915123 -0.0035656014238151642 0 
 0 4 0.00049315832751912103 1 0.0019706002802099038 1 0.0044262388147369653 1 0.0078499687290972137 1 0.012227725493782166 1 0.017541565735953349 1 0.023769767649666471 1 0.030886949309841281 1 0.038864202690063639 1 0.047669241123050626 1 0.057266557987541086 1 0.067617594540736486 1 0.078680915023339071 1 0.09041238742775301 1 0.10276536862490689 1 0.11569089288022394 1 0.12913786314506431 1 0.14305324487641921 1 0.1573822625012832 1 0.17206859898394714 1 0.18705459924907827 1 0.20228147843050409 1 0.21768953602323099 1 0.23321837698644707 1 0.2488071406605101 1 0.26439473802027408 1 0.27992009731112283 1 0.29532241754696986 1 0.31074304513832129 1 0.32597559348047273 1 0.34091097598217718 1 0.35549258547648876 1 0.36966480041923439 1 0.38337324136687861 1 0.39656505243479473 1 0.40918920787722229 1 0.4211968457694778 1 0.4325416339578208 1 0.44318017867219239 1 0.45307249488500595 1 0.46218257253519263 1 0.47047910015019151 1 0.47793646019381414 1 0.48453621795322105 1 0.49026955730208821 1 0.49514164329535054 1 0.49918013625018554 1 0.50245293139100322 1 0.5051046628554009 1 0.50741192251320455 1 0.50971889992330432 1 0.51236407129865369 1 0.51561265401058443 1 0.51959835728499582 1 0.52437961464817495 1 0.52997589442237591 1 0.53638534263030557 1 0.54359332656696002 1 0.55157688091087609 1 0.56030723894825007 1 0.56975140604911245 1 0.57987321473799025 1 0.59063407372745436 1 0.60199351891378661 1 0.61390962428170059 1 0.62633930594787357 1 0.63923854021203685 1 0.65256251034918866 1 0.66626569392889246 1 0.68030190112118483 1 0.69462427391246828 1 0.70923699710341381 1 0.72423792858781322 1 0.73936943033581259 1 0.75457427278526423 1 0.76979462198294513 1 0.78497224197659576 1 0.80004870238076076 1 0.81496559025191839 1 0.8296647255901396 1 0.84408838000430075 1 0.85817949828781759 1 0.87188192281583121 1 0.88514062076853095 1 0.8979019141951794 1 0.91011371285377074 1 0.9217257495922333 1 0.93268981778257209 1 0.94296000998651386 1 0.95249295663086431 1 0.96124806301859689 1 0.9691877425196449 1 0.97627764330254974 1 0.98248686552040265 1 0.98778816549267179 1 0.99215814317068585 1 0.99557740907768988 1 0.99803072700484474 1 0.99950712903936423 1 1 4
1 3.4420575963915123 -0.0035656014238151642 0 0.16439898730537897 0.9863939238321402 0 
1 -51.639777949432222 51.639777949432222 -51.639777949432222 1 0 -0 
1 51.639777949432222 51.639777949432222 -51.639777949432222 0 0 1 
1 51.639777949432222 -51.639777949432222 -51.639777949432222 -0 1 0 
7 0 0  3 103 101  1.7216230650997253 0.67946707434760356 -7.745966692414834  1.7210677281274265 0.6796266544547177 -7.745966692414834  1.7188485637355235 0.68026434746418929 -7.745966692414834  1.7138609865756329 0.68169261977914741 -7.745966692414834  1.7055733372687623 0.68405189183129478 -7.745966692414834  1.6940009251834935 0.68731614717111722 -7.745966692414834  1.6792010665377908 0.6914402221504975 -7.745966692414834  1.6612087188147746 0.69637814228206185 -7.745966692414834  1.6400987957797262 0.70206650474899046 -7.745966692414834  1.6159389002147284 0.70843894192216161 -7.745966692414834  1.5888178963211339 0.71541906412299816 -7.745966692414834  1.5588318909074608 0.72292562567473062 -7.745966692414834  1.5260895321311887 0.73087216095052443 -7.745966692414834  1.4907101240043947 0.73916865066159065 -7.745966692414834  1.4528237700149831 0.74772254582555675 -7.745966692414834  1.4125709732553089 0.75643986512884753 -7.745966692414834  1.3701022573929595 0.76522618899666561 -7.745966692414834  1.3255777192172371 0.77398756972094596 -7.745966692414834  1.2791665290158893 0.78263135482594692 -7.745966692414834  1.2310463838905537 0.79106693133740857 -7.745966692414834  1.1814029191999775 0.79920640429087075 -7.745966692414834  1.1304290855474355 0.80696522747011323 -7.745966692414834  1.0783244774509426 0.81426280351326896 -7.745966692414834  1.0252946863525052 0.82102309263103956 -7.745966692414834  0.97155041451275637 0.82717514136105741 -7.745966692414834  0.91730713923747698 0.8326540540924392 -7.745966692414834  0.86278325866198857 0.83740022419714499 -7.745966692414834  0.80820141048972161 0.84136559480737627 -7.745966692414834  0.7537832376392577 0.84449332564342361 -7.745966692414834  0.69952113081579237 0.84680668455018737 -7.745966692414834  0.64556355978547242 0.84808823797540678 -7.745966692414834  0.59213746622655938 0.84780590042683912 -7.745966692414834  0.53972196531259786 0.84610325931608954 -7.745966692414834  0.48861548042392478 0.84299551995933275 -7.745966692414834  0.43905049831754944 0.83855823249324568 -7.745966692414834  0.39125256242555029 0.83287466253299691 -7.745966692414834  0.34543776915992841 0.82604747731182049 -7.745966692414834  0.30181132577804809 0.81819379240442647 -7.745966692414834  0.26056580226744469 0.80944372952470089 -7.745966692414834  0.22187974076624861 0.79993777016158762 -7.745966692414834  0.1859164509456192 0.78982399984544704 -7.745966692414834  0.15282303588033361 0.77925509670786663 -7.745966692414834  0.12272961874536123 0.7683851682176398 -7.745966692414834  0.095748684438196008 0.75736648465776268 -7.745966692414834  0.071974436328927097 0.74634613429613939 -7.745966692414834  0.051481722503119505 0.73546258953840971 -7.745966692414834  0.03432429437290916 0.72484108531807201 -7.745966692414834  0.020531533691859883 0.71458865874639343 -7.745966692414834  0.010101150057037581 0.704774442545126 -7.745966692414834  0.0030104498453362473 0.69540646824613894 -7.745966692414834  -0.00072330836740212596 0.6863246936301487 -7.745966692414834  -0.00062850461078642729 0.6775268343715819 -7.745966692414834  0.0034209746032555712 0.66972974358941384 -7.745966692414834  0.010911982683079021 0.66345155235967712 -7.745966692414834  0.021411615154373807 0.65841618953329328 -7.745966692414834  0.034951058140837703 0.65441342344783127 -7.745966692414834  0.051525378633701296 0.65137309534050336 -7.745966692414834  0.071093518401728326 0.64925037018266396 -7.745966692414834  0.093580461237064816 0.64800187315132463 -7.745966692414834  0.11889297810447109 0.64757521112664029 -7.745966692414834  0.14692495557748053 0.64790891582664889 -7.745966692414834  0.17756101819766854 0.64893240196589896 -7.745966692414834  0.21067870382318102 0.65056674709591922 -7.745966692414834  0.24614988879047328 0.65272546966891987 -7.745966692414834  0.28384180790874947 0.65531542183655545 -7.745966692414834  0.32361774360893919 0.65823780439399082 -7.745966692414834  0.36533744585150951 0.66138933597568395 -7.745966692414834  0.40885731291161093 0.66466356140883964 -7.745966692414834  0.45403040553637342 0.66795250074654111 -7.745966692414834  0.50070614235180988 0.67114762591953903 -7.745966692414834  0.54873034040870172 0.67414474666609925 -7.745966692414834  0.59794420382126912 0.67683320780876011 -7.745966692414834  0.6482450144631331 0.67915131051364974 -7.745966692414834  0.69969914111224174 0.68089105775118264 -7.745966692414834  0.75210669744594327 0.68248079872316603 -7.745966692414834  0.80520856139603025 0.684042924352116 -7.745966692414834  0.85857196992590878 0.68547615911833848 -7.745966692414834  0.9119928996441149 0.68675435944454044 -7.745966692414834  0.96526792473037071 0.68784167779666727 -7.745966692414834  1.0181911308567082 0.68871429786833438 -7.745966692414834  1.0705570183304165 0.68935509545499019 -7.745966692414834  1.1221603219111729 0.68975512368626424 -7.745966692414834  1.1727973235583162 0.68991304843185985 -7.745966692414834  1.2222665833666477 0.68983478577150159 -7.745966692414834  1.2703698804967121 0.68953284789494362 -7.745966692414834  1.3169130894062546 0.68902554482117895 -7.745966692414834  1.3617070592577629 0.68833606345196086 -7.745966692414834  1.4045684761137491 0.68749147103182684 -7.745966692414834  1.4453207095363056 0.68652168633535771 -7.745966692414834  1.4837946430995272 0.68545845954339957 -7.745966692414834  1.5198294902586416 0.68433439687826092 -7.745966692414834  1.5532735845427901 0.6831820602480051 -7.745966692414834  1.5839852391408518 0.68203315925398744 -7.745966692414834  1.611833092834303 0.68091787886021748 -7.745966692414834  1.6366985922445143 0.679864215699853 -7.745966692414834  1.6584710798746589 0.67889779928718808 -7.745966692414834  1.677062872319216 0.67804081949396722 -7.745966692414834  1.6923802628676297 0.6773132448389263 -7.745966692414834  1.704372990099744 0.67673023278478872 -7.745966692414834  1.7129702384585306 0.67630513380446167 -7.745966692414834  1.7181475505791135 0.67604637108796517 -7.745966692414834  1.7204520532355301 0.67593047747057966 -7.745966692414834  1.7210287981957562 0.67590147292378833 -7.745966692414834 
 0 4 0.00049315832751912103 1 0.0019706002802099038 1 0.0044262388147369653 1 0.0078499687290972137 1 0.012227725493782166 1 0.017541565735953349 1 0.023769767649666471 1 0.030886949309841281 1 0.038864202690063639 1 0.047669241123050626 1 0.057266557987541086 1 0.067617594540736486 1 0.078680915023339071 1 0.09041238742775301 1 0.10276536862490689 1 0.11569089288022394 1 0.12913786314506431 1 0.14305324487641921 1 0.1573822625012832 1 0.17206859898394714 1 0.18705459924907827 1 0.20228147843050409 1 0.21768953602323099 1 0.23321837698644707 1 0.2488071406605101 1 0.26439473802027408 1 0.27992009731112283 1 0.29532241754696986 1 0.31074304513832129 1 0.32597559348047273 1 0.34091097598217718 1 0.35549258547648876 1 0.36966480041923439 1 0.38337324136687861 1 0.39656505243479473 1 0.40918920787722229 1 0.4211968457694778 1 0.4325416339578208 1 0.44318017867219239 1 0.45307249488500595 1 0.46218257253519263 1 0.47047910015019151 1 0.47793646019381414 1 0.48453621795322105 1 0.49026955730208821 1 0.49514164329535054 1 0.49918013625018554 1 0.50245293139100322 1 0.5051046628554009 1 0.50741192251320455 1 0.50971889992330432 1 0.51236407129865369 1 0.51561265401058443 1 0.51959835728499582 1 0.52437961464817495 1 0.52997589442237591 1 0.53638534263030557 1 0.54359332656696002 1 0.55157688091087609 1 0.56030723894825007 1 0.56975140604911245 1 0.57987321473799025 1 0.59063407372745436 1 0.60199351891378661 1 0.61390962428170059 1 0.62633930594787357 1 0.63923854021203685 1 0.65256251034918866 1 0.66626569392889246 1 0.68030190112118483 1 0.69462427391246828 1 0.70923699710341381 1 0.72423792858781322 1 0.73936943033581259 1 0.75457427278526423 1 0.76979462198294513 1 0.78497224197659576 1 0.80004870238076076 1 0.81496559025191839 1 0.8296647255901396 1 0.84408838000430075 1 0.85817949828781759 1 0.87188192281583121 1 0.88514062076853095 1 0.8979019141951794 1 0.91011371285377074 1 0.9217257495922333 1 0.93268981778257209 1 0.94296000998651386 1 0.95249295663086431 1 0.96124806301859689 1 0.9691877425196449 1 0.97627764330254974 1 0.98248686552040265 1 0.98778816549267179 1 0.99215814317068585 1 0.99557740907768988 1 0.99803072700484474 1 0.99950712903936423 1 1 4
7 0 0  1 2 2  9.0931402472842204e-09 0.6776842763674169 -7.745966692414834  1.8186280494568441e-08 5.4634418668840501e-09 0 
 0 2 1 2
7 0 0  1 2 2  1.7216230650997253 0.67946707434760356 -7.745966692414834  3.4432461301994506 0.0035656014238151642 0 
 0 2 1 2
7 0 0  3 103 101  1.7216230650997253 0.67946707434760356 -7.745966692414834  1.7210677281274265 0.6796266544547177 -7.745966692414834  1.7188485637355235 0.68026434746418929 -7.745966692414834  1.7138609865756329 0.68169261977914741 -7.745966692414834  1.7055733372687623 0.68405189183129478 -7.745966692414834  1.6940009251834935 0.68731614717111722 -7.745966692414834  1.6792010665377908 0.6914402221504975 -7.745966692414834  1.6612087188147746 0.69637814228206185 -7.745966692414834  1.6400987957797262 0.70206650474899046 -7.745966692414834  1.6159389002147284 0.70843894192216161 -7.745966692414834  1.5888178963211339 0.71541906412299816 -7.745966692414834  1.5588318909074608 0.72292562567473062 -7.745966692414834  1.5260895321311887 0.73087216095052443 -7.745966692414834  1.4907101240043947 0.73916865066159065 -7.745966692414834  1.4528237700149831 0.74772254582555675 -7.745966692414834  1.4125709732553089 0.75643986512884753 -7.745966692414834  1.3701022573929595 0.76522618899666561 -7.745966692414834  1.3255777192172371 0.77398756972094596 -7.745966692414834  1.2791665290158893 0.78263135482594692 -7.745966692414834  1.2310463838905537 0.79106693133740857 -7.745966692414834  1.1814029191999775 0.79920640429087075 -7.745966692414834  1.1304290855474355 0.80696522747011323 -7.745966692414834  1.0783244774509426 0.81426280351326896 -7.745966692414834  1.0252946863525052 0.82102309263103956 -7.745966692414834  0.97155041451275637 0.82717514136105741 -7.745966692414834  0.91730713923747698 0.8326540540924392 -7.745966692414834  0.86278325866198857 0.83740022419714499 -7.745966692414834  0.80820141048972161 0.84136559480737627 -7.745966692414834  0.7537832376392577 0.84449332564342361 -7.745966692414834  0.69952113081579237 0.84680668455018737 -7.745966692414834  0.64556355978547242 0.84808823797540678 -7.745966692414834  0.59213746622655938 0.84780590042683912 -7.745966692414834  0.53972196531259786 0.84610325931608954 -7.745966692414834  0.48861548042392478 0.84299551995933275 -7.745966692414834  0.43905049831754944 0.83855823249324568 -7.745966692414834  0.39125256242555029 0.83287466253299691 -7.745966692414834  0.34543776915992841 0.82604747731182049 -7.745966692414834  0.30181132577804809 0.81819379240442647 -7.745966692414834  0.26056580226744469 0.80944372952470089 -7.745966692414834  0.22187974076624861 0.79993777016158762 -7.745966692414834  0.1859164509456192 0.78982399984544704 -7.745966692414834  0.15282303588033361 0.77925509670786663 -7.745966692414834  0.12272961874536123 0.7683851682176398 -7.745966692414834  0.095748684438196008 0.75736648465776268 -7.745966692414834  0.071974436328927097 0.74634613429613939 -7.745966692414834  0.051481722503119505 0.73546258953840971 -7.745966692414834  0.03432429437290916 0.72484108531807201 -7.745966692414834  0.020531533691859883 0.71458865874639343 -7.745966692414834  0.010101150057037581 0.704774442545126 -7.745966692414834  0.0030104498453362473 0.69540646824613894 -7.745966692414834  -0.00072330836740212596 0.6863246936301487 -7.745966692414834  -0.00062850461078642729 0.6775268343715819 -7.745966692414834  0.0034209746032555712 0.66972974358941384 -7.745966692414834  0.010911982683079021 0.66345155235967712 -7.745966692414834  0.021411615154373807 0.65841618953329328 -7.745966692414834  0.034951058140837703 0.65441342344783127 -7.745966692414834  0.051525378633701296 0.65137309534050336 -7.745966692414834  0.071093518401728326 0.64925037018266396 -7.745966692414834  0.093580461237064816 0.64800187315132463 -7.745966692414834  0.11889297810447109 0.64757521112664029 -7.745966692414834  0.14692495557748053 0.64790891582664889 -7.745966692414834  0.17756101819766854 0.64893240196589896 -7.745966692414834  0.21067870382318102 0.65056674709591922 -7.745966692414834  0.24614988879047328 0.65272546966891987 -7.745966692414834  0.28384180790874947 0.65531542183655545 -7.745966692414834  0.32361774360893919 0.65823780439399082 -7.745966692414834  0.36533744585150951 0.66138933597568395 -7.745966692414834  0.40885731291161093 0.66466356140883964 -7.745966692414834  0.45403040553637342 0.66795250074654111 -7.745966692414834  0.50070614235180988 0.67114762591953903 -7.745966692414834  0.54873034040870172 0.67414474666609925 -7.745966692414834  0.59794420382126912 0.67683320780876011 -7.745966692414834  0.6482450144631331 0.67915131051364974 -7.745966692414834  0.69969914111224174 0.68089105775118264 -7.745966692414834  0.75210669744594327 0.68248079872316603 -7.745966692414834  0.80520856139603025 0.684042924352116 -7.745966692414834  0.85857196992590878 0.68547615911833848 -7.745966692414834  0.9119928996441149 0.68675435944454044 -7.745966692414834  0.96526792473037071 0.68784167779666727 -7.745966692414834  1.0181911308567082 0.68871429786833438 -7.745966692414834  1.0705570183304165 0.68935509545499019 -7.745966692414834  1.1221603219111729 0.68975512368626424 -7.745966692414834  1.1727973235583162 0.68991304843185985 -7.745966692414834  1.2222665833666477 0.68983478577150159 -7.745966692414834  1.2703698804967121 0.68953284789494362 -7.745966692414834  1.3169130894062546 0.68902554482117895 -7.745966692414834  1.3617070592577629 0.68833606345196086 -7.745966692414834  1.4045684761137491 0.68749147103182684 -7.745966692414834  1.4453207095363056 0.68652168633535771 -7.745966692414834  1.4837946430995272 0.68545845954339957 -7.745966692414834  1.5198294902586416 0.68433439687826092 -7.745966692414834  1.5532735845427901 0.6831820602480051 -7.745966692414834  1.5839852391408518 0.68203315925398744 -7.745966692414834  1.611833092834303 0.68091787886021748 -7.745966692414834  1.6366985922445143 0.679864215699853 -7.745966692414834  1.6584710798746589 0.67889779928718808 -7.745966692414834  1.677062872319216 0.67804081949396722 -7.745966692414834  1.6923802628676297 0.6773132448389263 -7.745966692414834  1.704372990099744 0.67673023278478872 -7.745966692414834  1.7129702384585306 0.67630513380446167 -7.745966692414834  1.7181475505791135 0.67604637108796517 -7.745966692414834  1.7204520532355301 0.67593047747057966 -7.745966692414834  1.7210287981957562 0.67590147292378833 -7.745966692414834 
 0 4 0.00049315832751912103 1 0.0019706002802099038 1 0.0044262388147369653 1 0.0078499687290972137 1 0.012227725493782166 1 0.017541565735953349 1 0.023769767649666471 1 0.030886949309841281 1 0.038864202690063639 1 0.047669241123050626 1 0.057266557987541086 1 0.067617594540736486 1 0.078680915023339071 1 0.09041238742775301 1 0.10276536862490689 1 0.11569089288022394 1 0.12913786314506431 1 0.14305324487641921 1 0.1573822625012832 1 0.17206859898394714 1 0.18705459924907827 1 0.20228147843050409 1 0.21768953602323099 1 0.23321837698644707 1 0.2488071406605101 1 0.26439473802027408 1 0.27992009731112283 1 0.29532241754696986 1 0.31074304513832129 1 0.32597559348047273 1 0.34091097598217718 1 0.35549258547648876 1 0.36966480041923439 1 0.38337324136687861 1 0.39656505243479473 1 0.40918920787722229 1 0.4211968457694778 1 0.4325416339578208 1 0.44318017867219239 1 0.45307249488500595 1 0.46218257253519263 1 0.47047910015019151 1 0.47793646019381414 1 0.48453621795322105 1 0.49026955730208821 1 0.49514164329535054 1 0.49918013625018554 1 0.50245293139100322 1 0.5051046628554009 1 0.50741192251320455 1 0.50971889992330432 1 0.51236407129865369 1 0.51561265401058443 1 0.51959835728499582 1 0.52437961464817495 1 0.52997589442237591 1 0.53638534263030557 1 0.54359332656696002 1 0.55157688091087609 1 0.56030723894825007 1 0.56975140604911245 1 0.57987321473799025 1 0.59063407372745436 1 0.60199351891378661 1 0.61390962428170059 1 0.62633930594787357 1 0.63923854021203685 1 0.65256251034918866 1 0.66626569392889246 1 0.68030190112118483 1 0.69462427391246828 1 0.70923699710341381 1 0.72423792858781322 1 0.73936943033581259 1 0.75457427278526423 1 0.76979462198294513 1 0.78497224197659576 1 0.80004870238076076 1 0.81496559025191839 1 0.8296647255901396 1 0.84408838000430075 1 0.85817949828781759 1 0.87188192281583121 1 0.88514062076853095 1 0.8979019141951794 1 0.91011371285377074 1 0.9217257495922333 1 0.93268981778257209 1 0.94296000998651386 1 0.95249295663086431 1 0.96124806301859689 1 0.9691877425196449 1 0.97627764330254974 1 0.98248686552040265 1 0.98778816549267179 1 0.99215814317068585 1 0.99557740907768988 1 0.99803072700484474 1 0.99950712903936423 1 1 4
7 0 0  1 2 2  1.7210287981957562 0.67590147292378833 -7.745966692414834  3.4420575963915123 -0.0035656014238151642 0 
 0 2 1 2
1 1.7210287981957562 0.67590147292378833 -7.745966692414834 0.16439898730537897 0.9863939238321402 0 
Polygon3D 0
PolygonOnTriangulations 0
Surfaces 10
1 -51.639777949432222 -51.639777949432222 -51.639777949432222 1 0 -0 0 0 1 0 -1 0 
1 -51.639777949432222 -51.639777949432222 -51.639777949432222 -0 1 0 0 0 1 1 0 -0 
1 -51.639777949432222 -51.639777949432222 0 0 0 1 1 0 -0 -0 1 0 
9 0 0 0 0 3 1 53 2 51 2 1.7216230650997253 0.67946707434760356 -7.745966692414834  3.4432461301994506 0.0035656014238151642 0  
1.7210677281274265 0.6796266544547177 -7.745966692414834  3.442135456254853 0.0038847616380434796 0  
1.7188485637355235 0.68026434746418929 -7.745966692414834  3.4376971274710471 0.0051601476569867449 0  
1.7138609865756329 0.68169261977914741 -7.745966692414834  3.4277219731512658 0.0080166922869029551 0  
1.7055733372687623 0.68405189183129478 -7.745966692414834  3.4111466745375245 0.012735236391197755 0  
1.6940009251834935 0.68731614717111722 -7.745966692414834  3.3880018503669871 0.019263747070842645 0  
1.6792010665377908 0.6914402221504975 -7.745966692414834  3.3584021330755816 0.027511897029603185 0  
1.6612087188147746 0.69637814228206185 -7.745966692414834  3.3224174376295492 0.037387737292731926 0  
1.6400987957797262 0.70206650474899046 -7.745966692414834  3.2801975915594523 0.04876446222658911 0  
1.6159389002147284 0.70843894192216161 -7.745966692414834  3.2318778004294568 0.061509336572931395 0  
1.5888178963211339 0.71541906412299816 -7.745966692414834  3.1776357926422678 0.075469580974604447 0  
1.5588318909074608 0.72292562567473062 -7.745966692414834  3.1176637818149215 0.090482704078069257 0  
1.5260895321311887 0.73087216095052443 -7.745966692414834  3.0521790642623774 0.10637577462965707 0  
1.4907101240043947 0.73916865066159065 -7.745966692414834  2.9814202480087895 0.12296875405178945 0  
1.4528237700149831 0.74772254582555675 -7.745966692414834  2.9056475400299662 0.1400765443797215 0  
1.4125709732553089 0.75643986512884753 -7.745966692414834  2.8251419465106178 0.15751118298630323 0  
1.3701022573929595 0.76522618899666561 -7.745966692414834  2.7402045147859191 0.17508383072193928 0  
1.3255777192172371 0.77398756972094596 -7.745966692414834  2.6511554384344742 0.19260659217050002 0  
1.2791665290158893 0.78263135482594692 -7.745966692414834  2.5583330580317787 0.20989416238050193 0  
1.2310463838905537 0.79106693133740857 -7.745966692414834  2.4620927677811073 0.22676531540342532 0  
1.1814029191999775 0.79920640429087075 -7.745966692414834  2.3628058383999551 0.24304426131034962 0  
1.1304290855474355 0.80696522747011323 -7.745966692414834  2.260858171094871 0.25856190766883463 0  
1.0783244774509426 0.81426280351326896 -7.745966692414834  2.1566489549018852 0.27315705975514598 0  
1.0252946863525052 0.82102309263103956 -7.745966692414834  2.0505893727050104 0.2866776379906873 0  
0.97155041451275637 0.82717514136105741 -7.745966692414834  1.9431008290255127 0.29898173545072287 0  
0.91730713923747698 0.8326540540924392 -7.745966692414834  1.834614278474954 0.30993956091348646 0  
0.86278325866198857 0.83740022419714499 -7.745966692414834  1.7255665173239771 0.31943190112289815 0  
0.80820141048972161 0.84136559480737627 -7.745966692414834  1.6164028209794432 0.3273626423433606 0  
0.7537832376392577 0.84449332564342361 -7.745966692414834  1.5075664752785154 0.33361810401545533 0  
0.69952113081579237 0.84680668455018737 -7.745966692414834  1.3990422616315847 0.33824482182898286 0  
0.64556355978547242 0.84808823797540678 -7.745966692414834  1.2911271195709448 0.34080792867942161 0  
0.59213746622655938 0.84780590042683912 -7.745966692414834  1.1842749324531188 0.3402432535822863 0  
0.53972196531259786 0.84610325931608954 -7.745966692414834  1.0794439306251957 0.33683797136078708 0  
0.48861548042392478 0.84299551995933275 -7.745966692414834  0.97723096084784955 0.33062249264727361 0  
0.43905049831754944 0.83855823249324568 -7.745966692414834  0.87810099663509888 0.32174791771509953 0  
0.39125256242555029 0.83287466253299691 -7.745966692414834  0.78250512485110058 0.31038077779460199 0  
0.34543776915992841 0.82604747731182049 -7.745966692414834  0.69087553831985682 0.29672640735224914 0  
0.30181132577804809 0.81819379240442647 -7.745966692414834  0.60362265155609618 0.28101903753746099 0  
0.26056580226744469 0.80944372952470089 -7.745966692414834  0.52113160453488938 0.2635189117780099 0  
0.22187974076624861 0.79993777016158762 -7.745966692414834  0.44375948153249722 0.24450699305178328 0  
0.1859164509456192 0.78982399984544704 -7.745966692414834  0.37183290189123841 0.22427945241950212 0  
0.15282303588033361 0.77925509670786663 -7.745966692414834  0.30564607176066722 0.20314164614434146 0  
0.12272961874536123 0.7683851682176398 -7.745966692414834  0.24545923749072246 0.18140178916388766 0  
0.095748684438196008 0.75736648465776268 -7.745966692414834  0.19149736887639202 0.15936442204413354 0  
0.071974436328927097 0.74634613429613939 -7.745966692414834  0.14394887265785419 0.1373237213208868 0  
0.051481722503119505 0.73546258953840971 -7.745966692414834  0.10296344500623901 0.1155566318054275 0  
0.03432429437290916 0.72484108531807201 -7.745966692414834  0.06864858874581832 0.094313623364752075 0  
0.020531533691859883 0.71458865874639343 -7.745966692414834  0.041063067383719766 0.073808770221395023 0  
0.010101150057037581 0.704774442545126 -7.745966692414834  0.020202300114075162 0.054180337818860128 0  
0.0030104498453362473 0.69540646824613894 -7.745966692414834  0.0060208996906724946 0.035444389220886066 0  
-0.00072330836740212596 0.6863246936301487 -7.745966692414834  -0.0014466167348042519 0.017280839988905481 0  
-0.00065860522133455218 0.68032019346042927 -7.745966692414834  -0.0013172104426691044 0.0052718396494665634 0  
9.0931402472842204e-09 0.6776842763674169 -7.745966692414834  1.8186280494568441e-08 5.4634418668840501e-09 0  

0 4
0.00049315832751912103 1
0.0019706002802099038 1
0.0044262388147369653 1
0.0078499687290972137 1
0.012227725493782166 1
0.017541565735953349 1
0.023769767649666471 1
0.030886949309841281 1
0.038864202690063639 1
0.047669241123050626 1
0.057266557987541086 1
0.067617594540736486 1
0.078680915023339071 1
0.09041238742775301 1
0.10276536862490689 1
0.11569089288022394 1
0.12913786314506431 1
0.14305324487641921 1
0.1573822625012832 1
0.17206859898394714 1
0.18705459924907827 1
0.20228147843050409 1
0.21768953602323099 1
0.23321837698644707 1
0.2488071406605101 1
0.26439473802027408 1
0.27992009731112283 1
0.29532241754696986 1
0.31074304513832129 1
0.32597559348047273 1
0.34091097598217718 1
0.35549258547648876 1
0.36966480041923439 1
0.38337324136687861 1
0.39656505243479473 1
0.40918920787722229 1
0.4211968457694778 1
0.4325416339578208 1
0.44318017867219239 1
0.45307249488500595 1
0.46218257253519263 1
0.47047910015019151 1
0.47793646019381414 1
0.48453621795322105 1
0.49026955730208821 1
0.49514164329535054 1
0.49918013625018554 1
0.50245293139100322 1
0.5051046628554009 1
0.50741192251320455 4

0 2
1 2

9 0 0 0 0 3 1 53 2 51 2 9.0931402472842204e-09 0.6776842763674169 -7.745966692414834  1.8186280494568441e-08 5.4634418668840501e-09 0  
0.00065854262321555037 0.67504868259106321 -7.745966692414834  0.0013170852464311007 -0.0052711820892655716 0  
0.0034209746032555712 0.66972974358941384 -7.745966692414834  0.0068419492065111423 -0.015909060092564254 0  
0.010911982683079021 0.66345155235967712 -7.745966692414834  0.021823965366158042 -0.028465442552037645 0  
0.021411615154373807 0.65841618953329328 -7.745966692414834  0.042823230308747615 -0.038536168204805377 0  
0.034951058140837703 0.65441342344783127 -7.745966692414834  0.069902116281675405 -0.046541700375729314 0  
0.051525378633701296 0.65137309534050336 -7.745966692414834  0.10305075726740259 -0.052622356590385194 0  
0.071093518401728326 0.64925037018266396 -7.745966692414834  0.14218703680345665 -0.056867806906063925 0  
0.093580461237064816 0.64800187315132463 -7.745966692414834  0.18716092247412963 -0.059364800968742727 0  
0.11889297810447109 0.64757521112664029 -7.745966692414834  0.23778595620894219 -0.060218125018111218 0  
0.14692495557748053 0.64790891582664889 -7.745966692414834  0.29384991115496106 -0.059550715618094038 0  
0.17756101819766854 0.64893240196589896 -7.745966692414834  0.35512203639533707 -0.05750374333959396 0  
0.21067870382318102 0.65056674709591922 -7.745966692414834  0.42135740764636204 -0.054235053079553376 0  
0.24614988879047328 0.65272546966891987 -7.745966692414834  0.49229977758094656 -0.049917607933552051 0  
0.28384180790874947 0.65531542183655545 -7.745966692414834  0.56768361581749893 -0.044737703598281033 0  
0.32361774360893919 0.65823780439399082 -7.745966692414834  0.64723548721787838 -0.038892938483410223 0  
0.36533744585150951 0.66138933597568395 -7.745966692414834  0.73067489170301902 -0.032589875320023935 0  
0.40885731291161093 0.66466356140883964 -7.745966692414834  0.81771462582322185 -0.026041424453712686 0  
0.45403040553637342 0.66795250074654111 -7.745966692414834  0.90806081107274683 -0.019463545778309575 0  
0.50070614235180988 0.67114762591953903 -7.745966692414834  1.0014122847036198 -0.013073295432313817 0  
0.54873034040870172 0.67414474666609925 -7.745966692414834  1.0974606808174034 -0.0070790539391933655 0  
0.59794420382126912 0.67683320780876011 -7.745966692414834  1.1958884076425382 -0.0017021316538717505 0  
0.6482450144631331 0.67915131051364974 -7.745966692414834  1.2964900289262662 0.002934073755907637 0  
0.69969914111224174 0.68089105775118264 -7.745966692414834  1.3993982822244835 0.0064135682309732767 0  
0.75210669744594327 0.68248079872316603 -7.745966692414834  1.5042133948918865 0.009593050174940148 0  
0.80520856139603025 0.684042924352116 -7.745966692414834  1.6104171227920605 0.012717301432840014 0  
0.85857196992590878 0.68547615911833848 -7.745966692414834  1.7171439398518176 0.015583770965284989 0  
0.9119928996441149 0.68675435944454044 -7.745966692414834  1.8239857992882298 0.018140171617688966 0  
0.96526792473037071 0.68784167779666727 -7.745966692414834  1.9305358494607414 0.020314808321942653 0  
1.0181911308567082 0.68871429786833438 -7.745966692414834  2.0363822617134164 0.022060048465276826 0  
1.0705570183304165 0.68935509545499019 -7.745966692414834  2.141114036660833 0.023341643638588375 0  
1.1221603219111729 0.68975512368626424 -7.745966692414834  2.2443206438223458 0.024141700101136577 0  
1.1727973235583162 0.68991304843185985 -7.745966692414834  2.3455946471166325 0.024457549592327824 0  
1.2222665833666477 0.68983478577150159 -7.745966692414834  2.4445331667332955 0.024301024271611293 0  
1.2703698804967121 0.68953284789494362 -7.745966692414834  2.5407397609934241 0.023697148518495373 0  
1.3169130894062546 0.68902554482117895 -7.745966692414834  2.6338261788125092 0.022682542370966036 0  
1.3617070592577629 0.68833606345196086 -7.745966692414834  2.7234141185155258 0.021303579632529806 0  
1.4045684761137491 0.68749147103182684 -7.745966692414834  2.8091369522274983 0.019614394792261684 0  
1.4453207095363056 0.68652168633535771 -7.745966692414834  2.8906414190726113 0.017674825399323416 0  
1.4837946430995272 0.68545845954339957 -7.745966692414834  2.9675892861990545 0.015548371815407318 0  
1.5198294902586416 0.68433439687826092 -7.745966692414834  3.0396589805172831 0.013300246485129905 0  
1.5532735845427901 0.6831820602480051 -7.745966692414834  3.1065471690855802 0.010995573224618199 0  
1.5839852391408518 0.68203315925398744 -7.745966692414834  3.1679704782817035 0.0086977712365830309 0  
1.611833092834303 0.68091787886021748 -7.745966692414834  3.223666185668606 0.0064672104490431275 0  
1.6366985922445143 0.679864215699853 -7.745966692414834  3.2733971844890286 0.0043598841283141697 0  
1.6584710798746589 0.67889779928718808 -7.745966692414834  3.3169421597493178 0.0024270513029842314 0  
1.677062872319216 0.67804081949396722 -7.745966692414834  3.354125744638432 0.00071309171654243564 0  
1.6923802628676297 0.6773132448389263 -7.745966692414834  3.3847605257352593 -0.00074205759353923248 0  
1.704372990099744 0.67673023278478872 -7.745966692414834  3.4087459801994879 -0.0019080817018143361 0  
1.7129702384585306 0.67630513380446167 -7.745966692414834  3.4259404769170612 -0.0027582796624685615 0  
1.7181475505791135 0.67604637108796517 -7.745966692414834  3.436295101158227 -0.0032758050954616413 0  
1.7204520532355301 0.67593047747057966 -7.745966692414834  3.4409041064710602 -0.0035075923302324637 0  
1.7210287981957562 0.67590147292378833 -7.745966692414834  3.4420575963915123 -0.0035656014238151642 0  

0.50741192251320455 4
0.50971889992330432 1
0.51236407129865369 1
0.51561265401058443 1
0.51959835728499582 1
0.52437961464817495 1
0.52997589442237591 1
0.53638534263030557 1
0.54359332656696002 1
0.55157688091087609 1
0.56030723894825007 1
0.56975140604911245 1
0.57987321473799025 1
0.59063407372745436 1
0.60199351891378661 1
0.61390962428170059 1
0.62633930594787357 1
0.63923854021203685 1
0.65256251034918866 1
0.66626569392889246 1
0.68030190112118483 1
0.69462427391246828 1
0.70923699710341381 1
0.72423792858781322 1
0.73936943033581259 1
0.75457427278526423 1
0.76979462198294513 1
0.78497224197659576 1
0.80004870238076076 1
0.81496559025191839 1
0.8296647255901396 1
0.84408838000430075 1
0.85817949828781759 1
0.87188192281583121 1
0.88514062076853095 1
0.8979019141951794 1
0.91011371285377074 1
0.9217257495922333 1
0.93268981778257209 1
0.94296000998651386 1
0.95249295663086431 1
0.96124806301859689 1
0.9691877425196449 1
0.97627764330254974 1
0.98248686552040265 1
0.98778816549267179 1
0.99215814317068585 1
0.99557740907768988 1
0.99803072700484474 1
0.99950712903936423 1
1 4

0 2
1 2

9 0 0 0 0 1 1 2 2 2 2 1.7210287981957562 0.67590147292378833 -7.745966692414834  3.4420575963915123 -0.0035656014238151642 0  
1.7216230650997255 0.67946707434760345 -7.745966692414834  3.443246130199451 0.0035656014238151642 0  

0 2
0.0072295689129203136 2

0 2
1 2

1 -51.639777949432222 51.639777949432222 -51.639777949432222 -0 1 0 0 0 1 1 0 -0 
1 -51.639777949432222 -51.639777949432222 -51.639777949432222 0 0 1 1 0 -0 -0 1 0 
1 51.639777949432222 -51.639777949432222 -51.639777949432222 1 0 -0 0 0 1 0 -1 0 
1 1.7216230650997253 0.67946707434760356 -7.745966692414834 -0 0 -1 -0.99999946383557825 -0.0010355329817014064 0 -0.0010355329817014064 0.99999946383557825 0 
Triangulations 0

TShapes 59
Ve
1e-07
-51.6397779494322 -51.6397779494322 0
0 0

0101101
*
Ve
1e-07
-51.6397779494322 -51.6397779494322 -51.6397779494322
0 0

0101101
*
Ed
 1e-07 1 1 0
1  1 0 0 51.6397779494322
0

0101000
-59 0 +58 0 *
Ve
1e-07
-51.6397779494322 51.6397779494322 0
0 0

0101101
*
Ed
 1e-07 1 1 0
1  2 0 0 103.279555898864
0

0101000
-56 0 +59 0 *
Ve
1e-07
-51.6397779494322 51.6397779494322 -51.6397779494322
0 0

0101101
*
Ed
 1e-07 1 1 0
1  3 0 0 51.6397779494322
0

0101000
-56 0 +54 0 *
Ed
 1e-07 1 1 0
1  4 0 0 103.279555898864
0

0101000
-54 0 +58 0 *
Wi

0101100
-57 0 -55 0 +53 0 +52 0 *
Fa
0  1e-07 1 0

0111000
+51 0 *
Ve
1e-07
51.6397779494322 -51.6397779494322 -51.6397779494322
0 0

0101101
*
Ed
 1e-07 1 1 0
1  5 0 0 103.279555898864
0

0101000
-49 0 +58 0 *
Ve
1e-07
51.6397779494322 -51.6397779494322 0
0 0

0101101
*
Ed
 1e-07 1 1 0
1  6 0 0 51.6397779494322
0

0101000
-47 0 +49 0 *
Ed
 1e-07 1 1 0
1  7 0 0 103.279555898864
0

0101000
-47 0 +59 0 *
Wi

0101100
-48 0 -46 0 +45 0 +57 0 *
Fa
0  1e-07 2 0

0111000
+44 0 *
Ve
1e-07
51.6397779494322 51.6397779494322 0
0 0

0101101
*
Ed
 1e-07 1 1 0
1  8 0 0 103.279555898864
0

0101000
-42 0 +56 0 *
Ed
 1e-07 1 1 0
1  9 0 0 103.279555898864
0

0101000
-42 0 +47 0 *
Wi

0101100
-55 0 -41 0 +45 0 +40 0 *
Ve
3.44265186329548e-07
3.44324613019945 0.00356560142381516 0
0 0

0101101
*
Ve
3.44265186329548e-07
0 0 0
0 0

0101101
*
Ed
 1e-07 1 1 0
1  10 0 0 0.507411922891452
2  1 4 0 0 0.507411922891452
0

0101000
+38 0 -37 0 *
Ve
3.44265186329548e-07
3.44205759639151 -0.00356560142381516 0
0 0

0101101
*
Ed
 1e-07 1 1 0
1  11 0 0.507411922891452 1
2  2 5 0 0.507411922891452 1
0

0101000
+37 0 -35 0 *
Ed
 1e-07 1 1 0
1  12 0 0 0.00722956891292031
2  3 6 0 0 0.00722956891292031
0

0101000
+35 0 -38 0 *
Wi

0101100
-36 0 -34 0 -33 0 *
Fa
0  1e-07 3 0

0111000
+39 0 +32 0 *
Ve
1e-07
51.6397779494322 51.6397779494322 -51.6397779494322
0 0

0101101
*
Ed
 1e-07 1 1 0
1  13 0 0 103.279555898864
0

0101000
-30 0 +54 0 *
Ed
 1e-07 1 1 0
1  14 0 0 51.6397779494322
0

0101000
-42 0 +30 0 *
Wi

0101100
-29 0 -28 0 +41 0 +53 0 *
Fa
0  1e-07 7 0

0111000
+27 0 *
Ed
 1e-07 1 1 0
1  15 0 0 103.279555898864
0

0101000
-30 0 +49 0 *
Wi

0101100
-52 0 -29 0 +25 0 +48 0 *
Fa
0  1e-07 8 0

0111000
+24 0 *
Wi

0101100
-46 0 -40 0 +28 0 +25 0 *
Fa
0  1e-07 9 0

0111000
+22 0 *
Ve
1.72132593164774e-07
1.72162306509973 0.679467074347604 -7.74596669241483
0 0

0101101
*
Ve
1.72132593164774e-07
0 0.677684273635696 -7.74596669241483
0 0

0101101
*
Ed
 1e-07 1 1 0
1  16 0 0 0.507411922891452
2  4 4 0 0 0.507411922891452
0

0101000
+20 0 -19 0 *
Ed
 1e-07 1 1 0
1  17 0 0 1
2  5 4 0 0 1
2  6 5 0 0 1
4 G1 4 0 5 0
0

0101000
+19 0 -37 0 *
Ed
 1e-07 1 1 0
1  18 0 0 1
2  7 4 0 0 1
2  8 6 0 0 1
0

0101000
+20 0 -38 0 *
Wi

0101100
+18 0 +17 0 -36 0 -16 0 *
Fa
0  1e-07 4 0

0111000
+15 0 *
Ve
1.72132593164774e-07
1.72102879819576 0.675901472923788 -7.74596669241483
0 0

0101101
*
Ed
 1e-07 1 1 0
1  19 0 0.507411922891452 1
2  9 5 0 0.507411922891452 1
0

0101000
+19 0 -13 0 *
Ed
 1e-07 1 1 0
1  20 0 0 1
2  10 5 0 0 1
2  11 6 0 0 1
0

0101000
+13 0 -35 0 *
Wi

0101100
+12 0 +11 0 -34 0 -17 0 *
Fa
0  1e-07 5 0

0111000
+10 0 *
Ed
 1e-07 1 1 0
1  21 0 0 0.00361478445646016
2  12 6 0 0 0.00361478445646016
0

0101000
+13 0 -20 0 *
Wi

0101100
+8 0 +16 0 -33 0 -11 0 *
Fa
0  1e-07 6 0

0111000
+7 0 *
Wi

0101100
+18 0 +12 0 +8 0 *
Fa
0  1e-07 10 0

0111000
-5 0 *
Sh

0101100
-50 0 -43 0 +31 0 +26 0 -23 0 +21 0 -14 0 -9 0 -6 0 -4 0 
*
So

0100000
+3 0 *
Co

1100000
+2 0 *

+1 0 
##EGADS HEADER FILE-REV 1 ##
0
  1  1  10  11  21  14  4
1 5 1
_body
11
1 5 1
_brch
27
3 7 52
capsAIM
#egadsTessAIM;tacsAIM;pointwiseAIM;fun3dAIM;tetgenAIM
2 14 1
capsMeshLength
 1.000000000000e+00
    2 0 8
1 5 2
_body
8 1 
1 5 2
_brch
25 8 
1 5 2
_hist
8 11 
1 9 4
__trace__
8 1 11 1 
3 9 8
capsGroup
#Farfield
3 8 8
capsMesh
#Farfield
1 7 3
_faceID
8 1 1 
3 7 8
PW:Name
#Farfield
    2 1 8
1 5 2
_body
8 3 
1 5 2
_brch
25 8 
1 5 2
_hist
8 11 
1 9 4
__trace__
8 3 11 2 
3 9 8
capsGroup
#Farfield
3 8 8
capsMesh
#Farfield
1 7 3
_faceID
8 3 1 
3 7 8
PW:Name
#Farfield
    2 2 9
1 5 2
_body
8 6 
1 5 2
_brch
25 8 
1 5 2
_hist
8 11 
1 9 4
__trace__
8 6 11 3 
3 9 8
capsGroup
#Symmetry
3 8 8
capsMesh
#Symmetry
1 7 3
_faceID
8 6 1 
1 11 1
__trimmed__
1
3 7 8
PW:Name
#Symmetry
    2 3 8
1 5 2
_body
8 4 
1 5 2
_brch
25 8 
1 5 2
_hist
8 11 
1 9 4
__trace__
8 4 11 4 
3 9 8
capsGroup
#Farfield
3 8 8
capsMesh
#Farfield
1 7 3
_faceID
8 4 1 
3 7 8
PW:Name
#Farfield
    2 4 8
1 5 2
_body
8 5 
1 5 2
_brch
25 8 
1 5 2
_hist
8 11 
1 9 4
__trace__
8 5 11 5 
3 9 8
capsGroup
#Farfield
3 8 8
capsMesh
#Farfield
1 7 3
_faceID
8 5 1 
3 7 8
PW:Name
#Farfield
    2 5 8
1 5 2
_body
8 2 
1 5 2
_brch
25 8 
1 5 2
_hist
8 11 
1 9 4
__trace__
8 2 11 6 
3 9 8
capsGroup
#Farfield
3 8 8
capsMesh
#Farfield
1 7 3
_faceID
8 2 1 
3 7 8
PW:Name
#Farfield
    2 6 11
1 5 2
_body
7 3 
1 5 2
_brch
26 7 
2 3 1
OML
 0.000000000000e+00
1 5 2
_hist
7 11 
1 9 4
__trace__
7 1 11 7 
3 9 3
capsGroup
#OML
3 8 3
capsMesh
#OML
2 14 1
capsMeshLength
 1.000000000000e-01
1 7 3
_faceID
7 3 1 
1 11 1
__trimmed__
1
3 7 3
PW:Name
#OML
    2 7 11
1 5 2
_body
7 4 
1 5 2
_brch
26 7 
2 3 1
OML
 0.000000000000e+00
1 5 2
_hist
7 11 
1 9 4
__trace__
7 2 11 8 
3 9 3
capsGroup
#OML
3 8 3
capsMesh
#OML
2 14 1
capsMeshLength
 1.000000000000e-01
1 7 3
_faceID
7 4 1 
1 11 1
__trimmed__
1
3 7 3
PW:Name
#OML
    2 8 11
1 5 2
_body
7 5 
1 5 2
_brch
26 7 
2 3 1
OML
 0.000000000000e+00
1 5 2
_hist
7 11 
1 9 4
__trace__
7 3 11 9 
3 9 3
capsGroup
#OML
3 8 3
capsMesh
#OML
2 14 1
capsMeshLength
 1.000000000000e-01
1 7 3
_faceID
7 5 1 
1 11 1
__trimmed__
1
3 7 3
PW:Name
#OML
    2 9 11
1 5 2
_body
7 1 
1 5 2
_brch
26 7 
2 3 1
OML
 0.000000000000e+00
1 5 2
_hist
7 11 
1 9 4
__trace__
7 4 11 10 
3 9 3
capsGroup
#OML
3 8 3
capsMesh
#OML
2 14 1
capsMeshLength
 1.000000000000e-01
1 7 3
_faceID
7 1 1 
1 11 1
__trimmed__
1
3 7 3
PW:Name
#OML
    4 0 4
1 9 4
__trace__
8 1 11 1 
1 5 2
_body
8 10003 
1 7 5
_edgeID
8 1 8 3 1 
1 6 1
_nface
2
    4 1 4
1 9 4
__trace__
8 2 11 2 
1 5 2
_body
8 10006 
1 7 5
_edgeID
8 1 8 6 1 
1 6 1
_nface
2
    4 2 4
1 9 4
__trace__
8 3 11 3 
1 5 2
_body
8 40001 
1 7 5
_edgeID
8 1 8 4 1 
1 6 1
_nface
2
    4 3 4
1 9 4
__trace__
8 4 11 4 
1 5 2
_body
8 50001 
1 7 5
_edgeID
8 1 8 5 1 
1 6 1
_nface
2
    4 4 4
1 9 4
__trace__
8 9 11 5 
1 5 2
_body
8 30005 
1 7 5
_edgeID
8 3 8 5 1 
1 6 1
_nface
2
    4 5 4
1 9 4
__trace__
8 5 11 6 
1 5 2
_body
8 30002 
1 7 5
_edgeID
8 2 8 3 1 
1 6 1
_nface
2
    4 6 4
1 9 4
__trace__
8 10 11 7 
1 5 2
_body
8 60003 
1 7 5
_edgeID
8 3 8 6 1 
1 6 1
_nface
2
    4 7 4
1 9 4
__trace__
8 12 11 8 
1 5 2
_body
8 40006 
1 7 5
_edgeID
8 4 8 6 1 
1 6 1
_nface
2
    4 8 4
1 9 4
__trace__
8 6 11 9 
1 5 2
_body
8 60002 
1 7 5
_edgeID
8 2 8 6 1 
1 6 1
_nface
2
    4 9 4
1 5 2
_body
11 0 
1 7 5
_edgeID
7 3 8 6 1 
1 6 1
_nface
2
1 9 2
__trace__
11 10 
    4 10 4
1 5 2
_body
11 0 
1 7 5
_edgeID
7 4 8 6 1 
1 6 1
_nface
2
1 9 2
__trace__
11 11 
    4 11 4
1 5 2
_body
11 0 
1 7 5
_edgeID
7 5 8 6 1 
1 6 1
_nface
2
1 9 2
__trace__
11 12 
    4 12 4
1 9 4
__trace__
8 11 11 13 
1 5 2
_body
8 50004 
1 7 5
_edgeID
8 4 8 5 1 
1 6 1
_nface
2
    4 13 4
1 9 4
__trace__
8 7 11 14 
1 5 2
_body
8 20004 
1 7 5
_edgeID
8 2 8 4 1 
1 6 1
_nface
2
    4 14 4
1 9 4
__trace__
8 8 11 15 
1 5 2
_body
8 20005 
1 7 5
_edgeID
8 2 8 5 1 
1 6 1
_nface
2
    4 15 4
1 9 4
__trace__
7 1 11 16 
1 5 2
_body
7 10003 
1 7 5
_edgeID
7 1 7 3 1 
1 6 1
_nface
2
    4 16 4
1 5 2
_body
7 40003 
1 7 5
_edgeID
7 3 7 4 1 
1 9 4
__trace__
7 2 11 17 
1 6 1
_nface
2
    4 17 4
1 5 2
_body
7 30005 
1 7 5
_edgeID
7 3 7 5 1 
1 9 4
__trace__
7 4 11 18 
1 6 1
_nface
2
    4 18 4
1 9 4
__trace__
7 5 11 19 
1 5 2
_body
7 10004 
1 7 5
_edgeID
7 1 7 4 1 
1 6 1
_nface
2
    4 19 4
1 5 2
_body
7 50004 
1 7 5
_edgeID
7 4 7 5 1 
1 9 4
__trace__
7 6 11 20 
1 6 1
_nface
2
    4 20 4
1 9 4
__trace__
7 8 11 21 
1 5 2
_body
7 10005 
1 7 5
_edgeID
7 1 7 5 1 
1 6 1
_nface
2
    5 0 3
1 9 4
__trace__
8 1 11 1 
1 7 1
_nodeID
1
1 6 1
_nedge
3
    5 1 3
1 9 4
__trace__
8 2 11 2 
1 7 1
_nodeID
2
1 6 1
_nedge
3
    5 2 3
1 9 4
__trace__
8 3 11 3 
1 7 1
_nodeID
3
1 6 1
_nedge
3
    5 3 3
1 9 4
__trace__
8 4 11 4 
1 7 1
_nodeID
4
1 6 1
_nedge
3
    5 4 3
1 9 4
__trace__
8 6 11 5 
1 7 1
_nodeID
5
1 6 1
_nedge
3
    5 5 3
1 9 4
__trace__
8 5 11 6 
1 7 1
_nodeID
6
1 6 1
_nedge
3
    5 6 3
1 9 4
__trace__
8 7 11 7 
1 7 1
_nodeID
7
1 6 1
_nedge
3
    5 7 3
1 9 8
__trace__
1 1 2 1 7 4 11 8 
1 7 1
_nodeID
8
1 6 1
_nedge
3
    5 8 3
1 9 8
__trace__
1 2 2 2 7 3 11 9 
1 7 1
_nodeID
9
1 6 1
_nedge
3
    5 9 3
1 9 8
__trace__
1 3 2 3 7 6 11 10 
1 7 1
_nodeID
10
1 6 1
_nedge
3
    5 10 3
1 9 4
__trace__
8 8 11 11 
1 7 1
_nodeID
11
1 6 1
_nedge
3
    5 11 3
1 9 12
__trace__
3 1 4 1 5 1 6 1 7 1 11 12 
1 7 1
_nodeID
12
1 6 1
_nedge
3
    5 12 3
1 9 12
__trace__
3 2 4 2 5 2 6 2 7 2 11 13 
1 7 1
_nodeID
13
1 6 1
_nedge
3
    5 13 3
1 9 12
__trace__
3 3 4 3 5 3 6 3 7 5 11 14 
1 7 1
_nodeID
14
1 6 1
_nedge
3
    0 0 0
